<?xml version="1.0" encoding="UTF-8"?><svg xmlns:svg="http://www.w3.org/2000/svg" xmlns="http://www.w3.org/2000/svg" xmlns:xlink="http://www.w3.org/1999/xlink" version="2.0" width="1200" height="940" ><style >
svg {
  font-family: Helvetica, Arial, sans-serif;
  font-size: 11px;
}
rect {
  stroke-linecap: butt;
  stroke-width: 3;
  stroke: #fff;
/*  stroke-opacity: 1; */
}
rect:hover {
  stroke: #fff;
/*  stroke-opacity: 1; /*
}
polygon { fill: #000; }</style><defs ><polygon id="ahead" points="0 0, -12 4, -12 -4" /><filter id="glow" x="0" y="0" ><feGaussianBlur in="SourceAlpha" stdDeviation="2" result="blurred" /><feFlood flood-color="#fff" /><feComposite operator="in" in2="blurred" /><feComponentTransfer ><feFuncA type="linear" slope="10" intercept="0" /></feComponentTransfer><feMerge ><feMergeNode /><feMergeNode in="SourceGraphic" /></feMerge></filter></defs><g ><text x="46.153847" y="20.0" text-anchor="middle" alignment-baseline="middle" fill="#000" >c10</text><text x="138.46153" y="20.0" text-anchor="middle" alignment-baseline="middle" fill="#000" >c11</text><text x="230.76923" y="20.0" text-anchor="middle" alignment-baseline="middle" fill="#000" >c12</text><text x="323.07693" y="20.0" text-anchor="middle" alignment-baseline="middle" fill="#000" >c13</text><text x="415.3846" y="20.0" text-anchor="middle" alignment-baseline="middle" fill="#000" >c14</text><text x="507.69232" y="20.0" text-anchor="middle" alignment-baseline="middle" fill="#000" >c15</text><text x="600.0" y="20.0" text-anchor="middle" alignment-baseline="middle" fill="#000" >c16</text><text x="692.3077" y="20.0" text-anchor="middle" alignment-baseline="middle" fill="#000" >c17</text><text x="784.61536" y="20.0" text-anchor="middle" alignment-baseline="middle" fill="#000" >n1</text><text x="876.9231" y="20.0" text-anchor="middle" alignment-baseline="middle" fill="#000" >n2</text><text x="969.2308" y="20.0" text-anchor="middle" alignment-baseline="middle" fill="#000" >n3</text><text x="1061.5385" y="20.0" text-anchor="middle" alignment-baseline="middle" fill="#000" >n4</text><text x="1153.8462" y="20.0" text-anchor="middle" alignment-baseline="middle" fill="#000" >n5</text></g><g ><line stroke="#ccc" x1="46.153847" y1="30.0" x2="46.153847" y2="850.0" /><line stroke="#ccc" x1="138.46153" y1="30.0" x2="138.46153" y2="850.0" /><line stroke="#ccc" x1="230.76923" y1="30.0" x2="230.76923" y2="850.0" /><line stroke="#ccc" x1="323.07693" y1="30.0" x2="323.07693" y2="850.0" /><line stroke="#ccc" x1="415.3846" y1="30.0" x2="415.3846" y2="850.0" /><line stroke="#ccc" x1="507.69232" y1="30.0" x2="507.69232" y2="850.0" /><line stroke="#ccc" x1="600.0" y1="30.0" x2="600.0" y2="850.0" /><line stroke="#ccc" x1="692.3077" y1="30.0" x2="692.3077" y2="850.0" /><line stroke="#ccc" x1="784.61536" y1="30.0" x2="784.61536" y2="850.0" /><line stroke="#ccc" x1="876.9231" y1="30.0" x2="876.9231" y2="850.0" /><line stroke="#ccc" x1="969.2308" y1="30.0" x2="969.2308" y2="850.0" /><line stroke="#ccc" x1="1061.5385" y1="30.0" x2="1061.5385" y2="850.0" /><line stroke="#ccc" x1="1153.8462" y1="30.0" x2="1153.8462" y2="850.0" /></g><g ><g transform="translate(46.153847 50.0) rotate(1.3790764314393882) " ><rect x="0" y="-2.5" height="5" width="827.0099548269889" fill="#81BFFC" ><title >c10 → n2 {:txn [["append" 9 1] ["r" 8 nil] ["r" 9 nil]], :type "txn", :msg_id 1}</title></rect><use xlink:href="#ahead" x="831.0099548269889" y="0" /><text text-anchor="middle" x="415.50497741349443" y="-4" transform="" filter="url(#glow)" style="fill: #fff" >txn {:txn [["append" 9 1] ["r" 8 nil] ["r" 9 ni…</text><text text-anchor="middle" x="415.50497741349443" y="-4" transform="" >txn {:txn [["append" 9 1] ["r" 8 nil] ["r" 9 ni…</text></g><g transform="translate(138.46153 90.0) rotate(1.1284072700504484) " ><rect x="0" y="-2.5" height="5" width="1011.5816094011157" fill="#81BFFC" ><title >c11 → n5 {:txn [["append" 9 2] ["append" 9 3] ["r" 8 nil] ["r" 9 nil]], :type "txn", :msg_id 1}</title></rect><use xlink:href="#ahead" x="1015.5816094011157" y="0" /><text text-anchor="middle" x="507.7908047005578" y="-4" transform="" filter="url(#glow)" style="fill: #fff" >txn {:txn [["append" 9 2] ["append" 9 3] ["r" 8…</text><text text-anchor="middle" x="507.7908047005578" y="-4" transform="" >txn {:txn [["append" 9 2] ["append" 9 3] ["r" 8…</text></g><g transform="translate(876.9231 130.0) rotate(178.6209235685606) " ><rect x="0" y="-2.5" height="5" width="827.0099548269889" fill="#FF1E90" ><title >n2 → c10 {:msg_id 2, :in_reply_to 1, :type "error", :code 14, :text "transaction aborted"}</title></rect><use xlink:href="#ahead" x="831.0099548269889" y="0" /><text text-anchor="middle" x="415.50497741349443" y="-4" transform="rotate(180 415.50497741349443 0)" filter="url(#glow)" style="fill: #fff" >error transaction aborted</text><text text-anchor="middle" x="415.50497741349443" y="-4" transform="rotate(180 415.50497741349443 0)" >error transaction aborted</text></g><g transform="translate(46.153847 170.0) rotate(1.3790764314393882) " ><rect x="0" y="-2.5" height="5" width="827.0099548269889" fill="#81BFFC" ><title >c10 → n2 {:txn [["r" 5 nil] ["r" 9 nil] ["r" 9 nil]], :type "txn", :msg_id 2}</title></rect><use xlink:href="#ahead" x="831.0099548269889" y="0" /><text text-anchor="middle" x="415.50497741349443" y="-4" transform="" filter="url(#glow)" style="fill: #fff" >txn {:txn [["r" 5 nil] ["r" 9 nil] ["r" 9 nil]]}</text><text text-anchor="middle" x="415.50497741349443" y="-4" transform="" >txn {:txn [["r" 5 nil] ["r" 9 nil] ["r" 9 nil]]}</text></g><g transform="translate(876.9231 210.0) rotate(178.6209235685606) " ><rect x="0" y="-2.5" height="5" width="827.0099548269889" fill="#FF1E90" ><title >n2 → c10 {:msg_id 3, :in_reply_to 2, :type "error", :code 14, :text "transaction aborted"}</title></rect><use xlink:href="#ahead" x="831.0099548269889" y="0" /><text text-anchor="middle" x="415.50497741349443" y="-4" transform="rotate(180 415.50497741349443 0)" filter="url(#glow)" style="fill: #fff" >error transaction aborted</text><text text-anchor="middle" x="415.50497741349443" y="-4" transform="rotate(180 415.50497741349443 0)" >error transaction aborted</text></g><g transform="translate(1153.8462 250.0) rotate(178.87159272994955) " ><rect x="0" y="-2.5" height="5" width="1011.5816094011157" fill="#81BFFC" ><title >n5 → c11 {:msg_id 2, :in_reply_to 1, :type "txn_ok", :txn [["append" 9 2] ["append" 9 3] ["r" 8 nil] ["r" 9 [2 3]]]}</title></rect><use xlink:href="#ahead" x="1015.5816094011157" y="0" /><text text-anchor="middle" x="507.7908047005578" y="-4" transform="rotate(180 507.7908047005578 0)" filter="url(#glow)" style="fill: #fff" >txn_ok {:txn [["append" 9 2] ["append" 9 3] ["r…</text><text text-anchor="middle" x="507.7908047005578" y="-4" transform="rotate(180 507.7908047005578 0)" >txn_ok {:txn [["append" 9 2] ["append" 9 3] ["r…</text></g><g transform="translate(230.76923 290.0) rotate(2.0681157107260364) " ><rect x="0" y="-2.5" height="5" width="550.2071238508529" fill="#81BFFC" ><title >c12 → n1 {:txn [["append" 8 1]], :type "txn", :msg_id 1}</title></rect><use xlink:href="#ahead" x="554.2071238508529" y="0" /><text text-anchor="middle" x="277.10356192542645" y="-4" transform="" filter="url(#glow)" style="fill: #fff" >txn {:txn [["append" 8 1]]}</text><text text-anchor="middle" x="277.10356192542645" y="-4" transform="" >txn {:txn [["append" 8 1]]}</text></g><g transform="translate(784.61536 330.0) rotate(177.93188428927397) " ><rect x="0" y="-2.5" height="5" width="550.2071238508529" fill="#81BFFC" ><title >n1 → c12 {:msg_id 2, :in_reply_to 1, :type "txn_ok", :txn [["append" 8 1]]}</title></rect><use xlink:href="#ahead" x="554.2071238508529" y="0" /><text text-anchor="middle" x="277.10356192542645" y="-4" transform="rotate(180 277.10356192542645 0)" filter="url(#glow)" style="fill: #fff" >txn_ok {:txn [["append" 8 1]]}</text><text text-anchor="middle" x="277.10356192542645" y="-4" transform="rotate(180 277.10356192542645 0)" >txn_ok {:txn [["append" 8 1]]}</text></g><g transform="translate(323.07693 370.0) rotate(2.0681155968693705) " ><rect x="0" y="-2.5" height="5" width="550.2071543485528" fill="#81BFFC" ><title >c13 → n2 {:txn [["append" 9 4] ["append" 9 5] ["append" 9 6] ["append" 8 2]], :type "txn", :msg_id 1}</title></rect><use xlink:href="#ahead" x="554.2071543485528" y="0" /><text text-anchor="middle" x="277.1035771742764" y="-4" transform="" filter="url(#glow)" style="fill: #fff" >txn {:txn [["append" 9 4] ["append" 9 5] ["appe…</text><text text-anchor="middle" x="277.1035771742764" y="-4" transform="" >txn {:txn [["append" 9 4] ["append" 9 5] ["appe…</text></g><g transform="translate(876.9231 410.0) rotate(177.93188440313065) " ><rect x="0" y="-2.5" height="5" width="550.2071543485528" fill="#81BFFC" ><title >n2 → c13 {:msg_id 4, :in_reply_to 1, :type "txn_ok", :txn [["append" 9 4] ["append" 9 5] ["append" 9 6] ["append" 8 2]]}</title></rect><use xlink:href="#ahead" x="554.2071543485528" y="0" /><text text-anchor="middle" x="277.1035771742764" y="-4" transform="rotate(180 277.1035771742764 0)" filter="url(#glow)" style="fill: #fff" >txn_ok {:txn [["append" 9 4] ["append" 9 5] ["a…</text><text text-anchor="middle" x="277.1035771742764" y="-4" transform="rotate(180 277.1035771742764 0)" >txn_ok {:txn [["append" 9 4] ["append" 9 5] ["a…</text></g><g transform="translate(415.3846 450.0) rotate(1.5513813691579854) " ><rect x="0" y="-2.5" height="5" width="734.7323620415193" fill="#81BFFC" ><title >c14 → n5 {:txn [["append" 4 1] ["append" 5 1]], :type "txn", :msg_id 1}</title></rect><use xlink:href="#ahead" x="738.7323620415193" y="0" /><text text-anchor="middle" x="369.36618102075965" y="-4" transform="" filter="url(#glow)" style="fill: #fff" >txn {:txn [["append" 4 1] ["append" 5 1]]}</text><text text-anchor="middle" x="369.36618102075965" y="-4" transform="" >txn {:txn [["append" 4 1] ["append" 5 1]]}</text></g><g transform="translate(1153.8462 490.0) rotate(178.44861863084205) " ><rect x="0" y="-2.5" height="5" width="734.7323620415193" fill="#81BFFC" ><title >n5 → c14 {:msg_id 3, :in_reply_to 1, :type "txn_ok", :txn [["append" 4 1] ["append" 5 1]]}</title></rect><use xlink:href="#ahead" x="738.7323620415193" y="0" /><text text-anchor="middle" x="369.36618102075965" y="-4" transform="rotate(180 369.36618102075965 0)" filter="url(#glow)" style="fill: #fff" >txn_ok {:txn [["append" 4 1] ["append" 5 1]]}</text><text text-anchor="middle" x="369.36618102075965" y="-4" transform="rotate(180 369.36618102075965 0)" >txn_ok {:txn [["append" 4 1] ["append" 5 1]]}</text></g><g transform="translate(507.69232 530.0) rotate(1.7728747071649398) " ><rect x="0" y="-2.5" height="5" width="642.4633193278715" fill="#81BFFC" ><title >c15 → n5 {:txn [["r" 8 nil] ["r" 9 nil]], :type "txn", :msg_id 1}</title></rect><use xlink:href="#ahead" x="646.4633193278715" y="0" /><text text-anchor="middle" x="323.2316596639358" y="-4" transform="" filter="url(#glow)" style="fill: #fff" >txn {:txn [["r" 8 nil] ["r" 9 nil]]}</text><text text-anchor="middle" x="323.2316596639358" y="-4" transform="" >txn {:txn [["r" 8 nil] ["r" 9 nil]]}</text></g><g transform="translate(1153.8462 570.0) rotate(178.22712529283507) " ><rect x="0" y="-2.5" height="5" width="642.4633193278715" fill="#81BFFC" ><title >n5 → c15 {:msg_id 4, :in_reply_to 1, :type "txn_ok", :txn [["r" 8 nil] ["r" 9 [2 3]]]}</title></rect><use xlink:href="#ahead" x="646.4633193278715" y="0" /><text text-anchor="middle" x="323.2316596639358" y="-4" transform="rotate(180 323.2316596639358 0)" filter="url(#glow)" style="fill: #fff" >txn_ok {:txn [["r" 8 nil] ["r" 9 [2 3]]]}</text><text text-anchor="middle" x="323.2316596639358" y="-4" transform="rotate(180 323.2316596639358 0)" >txn_ok {:txn [["r" 8 nil] ["r" 9 [2 3]]]}</text></g><g transform="translate(138.46153 610.0) rotate(1.1284072700504484) " ><rect x="0" y="-2.5" height="5" width="1011.5816094011157" fill="#81BFFC" ><title >c11 → n5 {:txn [["append" 7 1] ["r" 8 nil]], :type "txn", :msg_id 2}</title></rect><use xlink:href="#ahead" x="1015.5816094011157" y="0" /><text text-anchor="middle" x="507.7908047005578" y="-4" transform="" filter="url(#glow)" style="fill: #fff" >txn {:txn [["append" 7 1] ["r" 8 nil]]}</text><text text-anchor="middle" x="507.7908047005578" y="-4" transform="" >txn {:txn [["append" 7 1] ["r" 8 nil]]}</text></g><g transform="translate(1153.8462 650.0) rotate(178.87159272994955) " ><rect x="0" y="-2.5" height="5" width="1011.5816094011157" fill="#81BFFC" ><title >n5 → c11 {:msg_id 5, :in_reply_to 2, :type "txn_ok", :txn [["append" 7 1] ["r" 8 nil]]}</title></rect><use xlink:href="#ahead" x="1015.5816094011157" y="0" /><text text-anchor="middle" x="507.7908047005578" y="-4" transform="rotate(180 507.7908047005578 0)" filter="url(#glow)" style="fill: #fff" >txn_ok {:txn [["append" 7 1] ["r" 8 nil]]}</text><text text-anchor="middle" x="507.7908047005578" y="-4" transform="rotate(180 507.7908047005578 0)" >txn_ok {:txn [["append" 7 1] ["r" 8 nil]]}</text></g><g transform="translate(600.0 690.0) rotate(2.4812648516141924) " ><rect x="0" y="-2.5" height="5" width="457.9715822554192" fill="#81BFFC" ><title >c16 → n4 {:txn [["append" 9 7] ["append" 6 1] ["r" 8 nil]], :type "txn", :msg_id 1}</title></rect><use xlink:href="#ahead" x="461.9715822554192" y="0" /><text text-anchor="middle" x="230.9857911277096" y="-4" transform="" filter="url(#glow)" style="fill: #fff" >txn {:txn [["append" 9 7] ["append" 6 1] ["r" 8…</text><text text-anchor="middle" x="230.9857911277096" y="-4" transform="" >txn {:txn [["append" 9 7] ["append" 6 1] ["r" 8…</text></g><g transform="translate(1061.5385 730.0) rotate(177.51873514838582) " ><rect x="0" y="-2.5" height="5" width="457.9715822554192" fill="#81BFFC" ><title >n4 → c16 {:msg_id 2, :in_reply_to 1, :type "txn_ok", :txn [["append" 9 7] ["append" 6 1] ["r" 8 nil]]}</title></rect><use xlink:href="#ahead" x="461.9715822554192" y="0" /><text text-anchor="middle" x="230.9857911277096" y="-4" transform="rotate(180 230.9857911277096 0)" filter="url(#glow)" style="fill: #fff" >txn_ok {:txn [["append" 9 7] ["append" 6 1] ["r…</text><text text-anchor="middle" x="230.9857911277096" y="-4" transform="rotate(180 230.9857911277096 0)" >txn_ok {:txn [["append" 9 7] ["append" 6 1] ["r…</text></g><g transform="translate(692.3077 770.0) rotate(4.130855954104589) " ><rect x="0" y="-2.5" height="5" width="273.6443785380898" fill="#81BFFC" ><title >c17 → n3 {:txn [["r" 9 nil] ["append" 8 3]], :type "txn", :msg_id 1}</title></rect><use xlink:href="#ahead" x="277.6443785380898" y="0" /><text text-anchor="middle" x="138.8221892690449" y="-4" transform="" filter="url(#glow)" style="fill: #fff" >txn {:txn [["r" 9 nil] ["append" 8 3]]}</text><text text-anchor="middle" x="138.8221892690449" y="-4" transform="" >txn {:txn [["r" 9 nil] ["append" 8 3]]}</text></g><g transform="translate(969.2308 810.0) rotate(175.86914404589544) " ><rect x="0" y="-2.5" height="5" width="273.6443785380898" fill="#81BFFC" ><title >n3 → c17 {:msg_id 2, :in_reply_to 1, :type "txn_ok", :txn [["r" 9 nil] ["append" 8 3]]}</title></rect><use xlink:href="#ahead" x="277.6443785380898" y="0" /><text text-anchor="middle" x="138.8221892690449" y="-4" transform="rotate(180 138.8221892690449 0)" filter="url(#glow)" style="fill: #fff" >txn_ok {:txn [["r" 9 nil] ["append" 8 3]]}</text><text text-anchor="middle" x="138.8221892690449" y="-4" transform="rotate(180 138.8221892690449 0)" >txn_ok {:txn [["r" 9 nil] ["append" 8 3]]}</text></g></g></svg>