<?xml version="1.0" encoding="UTF-8"?><svg xmlns:svg="http://www.w3.org/2000/svg" xmlns="http://www.w3.org/2000/svg" xmlns:xlink="http://www.w3.org/1999/xlink" version="2.0" width="1200" height="1460" ><style >
svg {
  font-family: Helvetica, Arial, sans-serif;
  font-size: 11px;
}
rect {
  stroke-linecap: butt;
  stroke-width: 3;
  stroke: #fff;
/*  stroke-opacity: 1; */
}
rect:hover {
  stroke: #fff;
/*  stroke-opacity: 1; /*
}
polygon { fill: #000; }</style><defs ><polygon id="ahead" points="0 0, -12 4, -12 -4" /><filter id="glow" x="0" y="0" ><feGaussianBlur in="SourceAlpha" stdDeviation="2" result="blurred" /><feFlood flood-color="#fff" /><feComposite operator="in" in2="blurred" /><feComponentTransfer ><feFuncA type="linear" slope="10" intercept="0" /></feComponentTransfer><feMerge ><feMergeNode /><feMergeNode in="SourceGraphic" /></feMerge></filter></defs><g ><text x="54.545456" y="20.0" text-anchor="middle" alignment-baseline="middle" fill="#000" >c10</text><text x="54.545456" y="1020.0" text-anchor="middle" alignment-baseline="middle" fill="#aaa" >c10</text><text x="163.63637" y="20.0" text-anchor="middle" alignment-baseline="middle" fill="#000" >c11</text><text x="163.63637" y="1020.0" text-anchor="middle" alignment-baseline="middle" fill="#aaa" >c11</text><text x="272.72726" y="20.0" text-anchor="middle" alignment-baseline="middle" fill="#000" >c12</text><text x="272.72726" y="1020.0" text-anchor="middle" alignment-baseline="middle" fill="#aaa" >c12</text><text x="381.81818" y="20.0" text-anchor="middle" alignment-baseline="middle" fill="#000" >c13</text><text x="381.81818" y="1020.0" text-anchor="middle" alignment-baseline="middle" fill="#aaa" >c13</text><text x="490.9091" y="20.0" text-anchor="middle" alignment-baseline="middle" fill="#000" >c14</text><text x="490.9091" y="1020.0" text-anchor="middle" alignment-baseline="middle" fill="#aaa" >c14</text><text x="600.0" y="20.0" text-anchor="middle" alignment-baseline="middle" fill="#000" >c15</text><text x="600.0" y="1020.0" text-anchor="middle" alignment-baseline="middle" fill="#aaa" >c15</text><text x="709.0909" y="20.0" text-anchor="middle" alignment-baseline="middle" fill="#000" >n1</text><text x="709.0909" y="1020.0" text-anchor="middle" alignment-baseline="middle" fill="#aaa" >n1</text><text x="818.1818" y="20.0" text-anchor="middle" alignment-baseline="middle" fill="#000" >n2</text><text x="818.1818" y="1020.0" text-anchor="middle" alignment-baseline="middle" fill="#aaa" >n2</text><text x="927.2727" y="20.0" text-anchor="middle" alignment-baseline="middle" fill="#000" >n3</text><text x="927.2727" y="1020.0" text-anchor="middle" alignment-baseline="middle" fill="#aaa" >n3</text><text x="1036.3636" y="20.0" text-anchor="middle" alignment-baseline="middle" fill="#000" >n4</text><text x="1036.3636" y="1020.0" text-anchor="middle" alignment-baseline="middle" fill="#aaa" >n4</text><text x="1145.4546" y="20.0" text-anchor="middle" alignment-baseline="middle" fill="#000" >n5</text><text x="1145.4546" y="1020.0" text-anchor="middle" alignment-baseline="middle" fill="#aaa" >n5</text></g><g ><line stroke="#ccc" x1="54.545456" y1="30.0" x2="54.545456" y2="1370.0" /><line stroke="#ccc" x1="163.63637" y1="30.0" x2="163.63637" y2="1370.0" /><line stroke="#ccc" x1="272.72726" y1="30.0" x2="272.72726" y2="1370.0" /><line stroke="#ccc" x1="381.81818" y1="30.0" x2="381.81818" y2="1370.0" /><line stroke="#ccc" x1="490.9091" y1="30.0" x2="490.9091" y2="1370.0" /><line stroke="#ccc" x1="600.0" y1="30.0" x2="600.0" y2="1370.0" /><line stroke="#ccc" x1="709.0909" y1="30.0" x2="709.0909" y2="1370.0" /><line stroke="#ccc" x1="818.1818" y1="30.0" x2="818.1818" y2="1370.0" /><line stroke="#ccc" x1="927.2727" y1="30.0" x2="927.2727" y2="1370.0" /><line stroke="#ccc" x1="1036.3636" y1="30.0" x2="1036.3636" y2="1370.0" /><line stroke="#ccc" x1="1145.4546" y1="30.0" x2="1145.4546" y2="1370.0" /></g><g ><g transform="translate(709.0909 50.0) rotate(10.38885471407638) " ><rect x="0" y="-2.5" height="5" width="106.90912365522557" fill="#000" ><title >n1 → n2 {:msg_id 2, :type "AppendEntries", :term 0, :prevIndex 0, :prevTerm 0, :entries [[["pass" nil] 0]], :commit 0}</title></rect><use xlink:href="#ahead" x="110.90912365522557" y="0" /><text text-anchor="middle" x="55.454561827612785" y="-4" transform="" filter="url(#glow)" style="fill: #fff" >AppendEntries {:term 0, :prevIndex 0, :prevTerm…</text><text text-anchor="middle" x="55.454561827612785" y="-4" transform="" >AppendEntries {:term 0, :prevIndex 0, :prevTerm…</text></g><g transform="translate(709.0909 90.0) rotate(5.237475934357365) " ><rect x="0" y="-2.5" height="5" width="215.09657278550327" fill="#000" ><title >n1 → n3 {:msg_id 3, :type "AppendEntries", :term 0, :prevIndex 0, :prevTerm 0, :entries [[["pass" nil] 0]], :commit 0}</title></rect><use xlink:href="#ahead" x="219.09657278550327" y="0" /><text text-anchor="middle" x="109.54828639275163" y="-4" transform="" filter="url(#glow)" style="fill: #fff" >AppendEntries {:term 0, :prevIndex 0, :prevTerm…</text><text text-anchor="middle" x="109.54828639275163" y="-4" transform="" >AppendEntries {:term 0, :prevIndex 0, :prevTerm…</text></g><g transform="translate(709.0909 130.0) rotate(3.4970593252990705) " ><rect x="0" y="-2.5" height="5" width="323.883307655999" fill="#000" ><title >n1 → n4 {:msg_id 4, :type "AppendEntries", :term 0, :prevIndex 0, :prevTerm 0, :entries [[["pass" nil] 0]], :commit 0}</title></rect><use xlink:href="#ahead" x="327.883307655999" y="0" /><text text-anchor="middle" x="163.9416538279995" y="-4" transform="" filter="url(#glow)" style="fill: #fff" >AppendEntries {:term 0, :prevIndex 0, :prevTerm…</text><text text-anchor="middle" x="163.9416538279995" y="-4" transform="" >AppendEntries {:term 0, :prevIndex 0, :prevTerm…</text></g><g transform="translate(709.0909 190.0) rotate(2.6242195945956532) " ><rect x="0" y="-2.5" height="5" width="432.8218013017023" fill="#000" ><title >n1 → n5 {:msg_id 5, :type "AppendEntries", :term 0, :prevIndex 0, :prevTerm 0, :entries [[["pass" nil] 0]], :commit 0}</title></rect><use xlink:href="#ahead" x="436.8218013017023" y="0" /><text text-anchor="middle" x="218.41090065085115" y="-4" transform="" filter="url(#glow)" style="fill: #fff" >AppendEntries {:term 0, :prevIndex 0, :prevTerm…</text><text text-anchor="middle" x="218.41090065085115" y="-4" transform="" >AppendEntries {:term 0, :prevIndex 0, :prevTerm…</text></g><g transform="translate(818.1818 170.0) rotate(151.1892136404466) " ><rect x="0" y="-2.5" height="5" width="120.50234419467819" fill="#000" ><title >n2 → n1 {:msg_id 2, :in_reply_to 2, :type "AppendEntriesRes", :res true, :term 0, :next 2, :commit 0}</title></rect><use xlink:href="#ahead" x="124.50234419467819" y="0" /><text text-anchor="middle" x="62.251172097339094" y="-4" transform="rotate(180 62.251172097339094 0)" filter="url(#glow)" style="fill: #fff" >AppendEntriesRes {:res true, :term 0, :next 2, …</text><text text-anchor="middle" x="62.251172097339094" y="-4" transform="rotate(180 62.251172097339094 0)" >AppendEntriesRes {:res true, :term 0, :next 2, …</text></g><g transform="translate(927.2727 250.0) rotate(174.76252406564265) " ><rect x="0" y="-2.5" height="5" width="215.09657278550327" fill="#000" ><title >n3 → n1 {:msg_id 2, :in_reply_to 3, :type "AppendEntriesRes", :res true, :term 0, :next 2, :commit 0}</title></rect><use xlink:href="#ahead" x="219.09657278550327" y="0" /><text text-anchor="middle" x="109.54828639275163" y="-4" transform="rotate(180 109.54828639275163 0)" filter="url(#glow)" style="fill: #fff" >AppendEntriesRes {:res true, :term 0, :next 2, …</text><text text-anchor="middle" x="109.54828639275163" y="-4" transform="rotate(180 109.54828639275163 0)" >AppendEntriesRes {:res true, :term 0, :next 2, …</text></g><g transform="translate(1036.3636 290.0) rotate(176.50294067470094) " ><rect x="0" y="-2.5" height="5" width="323.883307655999" fill="#000" ><title >n4 → n1 {:msg_id 2, :in_reply_to 4, :type "AppendEntriesRes", :res true, :term 0, :next 2, :commit 0}</title></rect><use xlink:href="#ahead" x="327.883307655999" y="0" /><text text-anchor="middle" x="163.9416538279995" y="-4" transform="rotate(180 163.9416538279995 0)" filter="url(#glow)" style="fill: #fff" >AppendEntriesRes {:res true, :term 0, :next 2, …</text><text text-anchor="middle" x="163.9416538279995" y="-4" transform="rotate(180 163.9416538279995 0)" >AppendEntriesRes {:res true, :term 0, :next 2, …</text></g><g transform="translate(1145.4546 330.0) rotate(177.37578040540436) " ><rect x="0" y="-2.5" height="5" width="432.8218013017023" fill="#000" ><title >n5 → n1 {:msg_id 2, :in_reply_to 5, :type "AppendEntriesRes", :res true, :term 0, :next 2, :commit 0}</title></rect><use xlink:href="#ahead" x="436.8218013017023" y="0" /><text text-anchor="middle" x="218.41090065085115" y="-4" transform="rotate(180 218.41090065085115 0)" filter="url(#glow)" style="fill: #fff" >AppendEntriesRes {:res true, :term 0, :next 2, …</text><text text-anchor="middle" x="218.41090065085115" y="-4" transform="rotate(180 218.41090065085115 0)" >AppendEntriesRes {:res true, :term 0, :next 2, …</text></g><g transform="translate(54.545456 370.0) rotate(1.5002607735553355) " ><rect x="0" y="-2.5" height="5" width="759.8982276609206" fill="#81BFFC" ><title >c10 → n2 {:key 1, :from 3, :to 3, :type "cas", :msg_id 1}</title></rect><use xlink:href="#ahead" x="763.8982276609206" y="0" /><text text-anchor="middle" x="381.9491138304603" y="-4" transform="" filter="url(#glow)" style="fill: #fff" >cas {:key 1, :from 3, :to 3}</text><text text-anchor="middle" x="381.9491138304603" y="-4" transform="" >cas {:key 1, :from 3, :to 3}</text></g><g transform="translate(818.1818 410.0) rotate(178.4997392264447) " ><rect x="0" y="-2.5" height="5" width="759.8982276609206" fill="#FF1E90" ><title >n2 → c10 {:msg_id 3, :in_reply_to 1, :type "error", :code 11, :text "Not Leader"}</title></rect><use xlink:href="#ahead" x="763.8982276609206" y="0" /><text text-anchor="middle" x="381.9491138304603" y="-4" transform="rotate(180 381.9491138304603 0)" filter="url(#glow)" style="fill: #fff" >error Not Leader</text><text text-anchor="middle" x="381.9491138304603" y="-4" transform="rotate(180 381.9491138304603 0)" >error Not Leader</text></g><g transform="translate(163.63637 450.0) rotate(1.312798486545485) " ><rect x="0" y="-2.5" height="5" width="868.9564162477587" fill="#81BFFC" ><title >c11 → n4 {:key 1, :from 3, :to 3, :type "cas", :msg_id 1}</title></rect><use xlink:href="#ahead" x="872.9564162477587" y="0" /><text text-anchor="middle" x="436.47820812387937" y="-4" transform="" filter="url(#glow)" style="fill: #fff" >cas {:key 1, :from 3, :to 3}</text><text text-anchor="middle" x="436.47820812387937" y="-4" transform="" >cas {:key 1, :from 3, :to 3}</text></g><g transform="translate(1036.3636 490.0) rotate(178.68720151345454) " ><rect x="0" y="-2.5" height="5" width="868.9564162477587" fill="#FF1E90" ><title >n4 → c11 {:msg_id 3, :in_reply_to 1, :type "error", :code 11, :text "Not Leader"}</title></rect><use xlink:href="#ahead" x="872.9564162477587" y="0" /><text text-anchor="middle" x="436.47820812387937" y="-4" transform="rotate(180 436.47820812387937 0)" filter="url(#glow)" style="fill: #fff" >error Not Leader</text><text text-anchor="middle" x="436.47820812387937" y="-4" transform="rotate(180 436.47820812387937 0)" >error Not Leader</text></g><g transform="translate(54.545456 530.0) rotate(1.5002607735553355) " ><rect x="0" y="-2.5" height="5" width="759.8982276609206" fill="#81BFFC" ><title >c10 → n2 {:key 1, :value 0, :type "write", :msg_id 2}</title></rect><use xlink:href="#ahead" x="763.8982276609206" y="0" /><text text-anchor="middle" x="381.9491138304603" y="-4" transform="" filter="url(#glow)" style="fill: #fff" >write {:key 1, :value 0}</text><text text-anchor="middle" x="381.9491138304603" y="-4" transform="" >write {:key 1, :value 0}</text></g><g transform="translate(818.1818 570.0) rotate(178.4997392264447) " ><rect x="0" y="-2.5" height="5" width="759.8982276609206" fill="#FF1E90" ><title >n2 → c10 {:msg_id 4, :in_reply_to 2, :type "error", :code 11, :text "Not Leader"}</title></rect><use xlink:href="#ahead" x="763.8982276609206" y="0" /><text text-anchor="middle" x="381.9491138304603" y="-4" transform="rotate(180 381.9491138304603 0)" filter="url(#glow)" style="fill: #fff" >error Not Leader</text><text text-anchor="middle" x="381.9491138304603" y="-4" transform="rotate(180 381.9491138304603 0)" >error Not Leader</text></g><g transform="translate(163.63637 610.0) rotate(1.312798486545485) " ><rect x="0" y="-2.5" height="5" width="868.9564162477587" fill="#81BFFC" ><title >c11 → n4 {:key 1, :from 3, :to 3, :type "cas", :msg_id 2}</title></rect><use xlink:href="#ahead" x="872.9564162477587" y="0" /><text text-anchor="middle" x="436.47820812387937" y="-4" transform="" filter="url(#glow)" style="fill: #fff" >cas {:key 1, :from 3, :to 3}</text><text text-anchor="middle" x="436.47820812387937" y="-4" transform="" >cas {:key 1, :from 3, :to 3}</text></g><g transform="translate(1036.3636 650.0) rotate(178.68720151345454) " ><rect x="0" y="-2.5" height="5" width="868.9564162477587" fill="#FF1E90" ><title >n4 → c11 {:msg_id 4, :in_reply_to 2, :type "error", :code 11, :text "Not Leader"}</title></rect><use xlink:href="#ahead" x="872.9564162477587" y="0" /><text text-anchor="middle" x="436.47820812387937" y="-4" transform="rotate(180 436.47820812387937 0)" filter="url(#glow)" style="fill: #fff" >error Not Leader</text><text text-anchor="middle" x="436.47820812387937" y="-4" transform="rotate(180 436.47820812387937 0)" >error Not Leader</text></g><g transform="translate(272.72726 690.0) rotate(1.5002607435912045) " ><rect x="0" y="-2.5" height="5" width="759.898242914479" fill="#81BFFC" ><title >c12 → n4 {:key 0, :value 4, :type "write", :msg_id 1}</title></rect><use xlink:href="#ahead" x="763.898242914479" y="0" /><text text-anchor="middle" x="381.9491214572395" y="-4" transform="" filter="url(#glow)" style="fill: #fff" >write {:key 0, :value 4}</text><text text-anchor="middle" x="381.9491214572395" y="-4" transform="" >write {:key 0, :value 4}</text></g><g transform="translate(1036.3636 730.0) rotate(178.4997392564088) " ><rect x="0" y="-2.5" height="5" width="759.898242914479" fill="#FF1E90" ><title >n4 → c12 {:msg_id 5, :in_reply_to 1, :type "error", :code 11, :text "Not Leader"}</title></rect><use xlink:href="#ahead" x="763.898242914479" y="0" /><text text-anchor="middle" x="381.9491214572395" y="-4" transform="rotate(180 381.9491214572395 0)" filter="url(#glow)" style="fill: #fff" >error Not Leader</text><text text-anchor="middle" x="381.9491214572395" y="-4" transform="rotate(180 381.9491214572395 0)" >error Not Leader</text></g><g transform="translate(272.72726 770.0) rotate(1.5002607435912045) " ><rect x="0" y="-2.5" height="5" width="759.898242914479" fill="#81BFFC" ><title >c12 → n4 {:key 0, :from 4, :to 3, :type "cas", :msg_id 2}</title></rect><use xlink:href="#ahead" x="763.898242914479" y="0" /><text text-anchor="middle" x="381.9491214572395" y="-4" transform="" filter="url(#glow)" style="fill: #fff" >cas {:key 0, :from 4, :to 3}</text><text text-anchor="middle" x="381.9491214572395" y="-4" transform="" >cas {:key 0, :from 4, :to 3}</text></g><g transform="translate(1036.3636 810.0) rotate(178.4997392564088) " ><rect x="0" y="-2.5" height="5" width="759.898242914479" fill="#FF1E90" ><title >n4 → c12 {:msg_id 6, :in_reply_to 2, :type "error", :code 11, :text "Not Leader"}</title></rect><use xlink:href="#ahead" x="763.898242914479" y="0" /><text text-anchor="middle" x="381.9491214572395" y="-4" transform="rotate(180 381.9491214572395 0)" filter="url(#glow)" style="fill: #fff" >error Not Leader</text><text text-anchor="middle" x="381.9491214572395" y="-4" transform="rotate(180 381.9491214572395 0)" >error Not Leader</text></g><g transform="translate(163.63637 850.0) rotate(1.312798486545485) " ><rect x="0" y="-2.5" height="5" width="868.9564162477587" fill="#81BFFC" ><title >c11 → n4 {:key 1, :value 3, :type "write", :msg_id 3}</title></rect><use xlink:href="#ahead" x="872.9564162477587" y="0" /><text text-anchor="middle" x="436.47820812387937" y="-4" transform="" filter="url(#glow)" style="fill: #fff" >write {:key 1, :value 3}</text><text text-anchor="middle" x="436.47820812387937" y="-4" transform="" >write {:key 1, :value 3}</text></g><g transform="translate(1036.3636 890.0) rotate(178.68720151345454) " ><rect x="0" y="-2.5" height="5" width="868.9564162477587" fill="#FF1E90" ><title >n4 → c11 {:msg_id 7, :in_reply_to 3, :type "error", :code 11, :text "Not Leader"}</title></rect><use xlink:href="#ahead" x="872.9564162477587" y="0" /><text text-anchor="middle" x="436.47820812387937" y="-4" transform="rotate(180 436.47820812387937 0)" filter="url(#glow)" style="fill: #fff" >error Not Leader</text><text text-anchor="middle" x="436.47820812387937" y="-4" transform="rotate(180 436.47820812387937 0)" >error Not Leader</text></g><g transform="translate(381.81818 930.0) rotate(2.6242199611379853) " ><rect x="0" y="-2.5" height="5" width="432.8217403305533" fill="#81BFFC" ><title >c13 → n2 {:key 0, :type "read", :msg_id 1}</title></rect><use xlink:href="#ahead" x="436.8217403305533" y="0" /><text text-anchor="middle" x="218.41087016527666" y="-4" transform="" filter="url(#glow)" style="fill: #fff" >read {:key 0}</text><text text-anchor="middle" x="218.41087016527666" y="-4" transform="" >read {:key 0}</text></g><g transform="translate(818.1818 970.0) rotate(177.37578003886202) " ><rect x="0" y="-2.5" height="5" width="432.8217403305533" fill="#FF1E90" ><title >n2 → c13 {:msg_id 5, :in_reply_to 1, :type "error", :code 11, :text "Not Leader"}</title></rect><use xlink:href="#ahead" x="436.8217403305533" y="0" /><text text-anchor="middle" x="218.41087016527666" y="-4" transform="rotate(180 218.41087016527666 0)" filter="url(#glow)" style="fill: #fff" >error Not Leader</text><text text-anchor="middle" x="218.41087016527666" y="-4" transform="rotate(180 218.41087016527666 0)" >error Not Leader</text></g><g transform="translate(54.545456 1010.0) rotate(1.5002607735553355) " ><rect x="0" y="-2.5" height="5" width="759.8982276609206" fill="#81BFFC" ><title >c10 → n2 {:key 1, :from 2, :to 1, :type "cas", :msg_id 3}</title></rect><use xlink:href="#ahead" x="763.8982276609206" y="0" /><text text-anchor="middle" x="381.9491138304603" y="-4" transform="" filter="url(#glow)" style="fill: #fff" >cas {:key 1, :from 2, :to 1}</text><text text-anchor="middle" x="381.9491138304603" y="-4" transform="" >cas {:key 1, :from 2, :to 1}</text></g><g transform="translate(818.1818 1050.0) rotate(178.4997392264447) " ><rect x="0" y="-2.5" height="5" width="759.8982276609206" fill="#FF1E90" ><title >n2 → c10 {:msg_id 6, :in_reply_to 3, :type "error", :code 11, :text "Not Leader"}</title></rect><use xlink:href="#ahead" x="763.8982276609206" y="0" /><text text-anchor="middle" x="381.9491138304603" y="-4" transform="rotate(180 381.9491138304603 0)" filter="url(#glow)" style="fill: #fff" >error Not Leader</text><text text-anchor="middle" x="381.9491138304603" y="-4" transform="rotate(180 381.9491138304603 0)" >error Not Leader</text></g><g transform="translate(490.9091 1090.0) rotate(2.6242201444091897) " ><rect x="0" y="-2.5" height="5" width="432.82170984497884" fill="#81BFFC" ><title >c14 → n3 {:key 0, :from 3, :to 1, :type "cas", :msg_id 1}</title></rect><use xlink:href="#ahead" x="436.82170984497884" y="0" /><text text-anchor="middle" x="218.41085492248942" y="-4" transform="" filter="url(#glow)" style="fill: #fff" >cas {:key 0, :from 3, :to 1}</text><text text-anchor="middle" x="218.41085492248942" y="-4" transform="" >cas {:key 0, :from 3, :to 1}</text></g><g transform="translate(927.2727 1130.0) rotate(177.37577985559082) " ><rect x="0" y="-2.5" height="5" width="432.82170984497884" fill="#FF1E90" ><title >n3 → c14 {:msg_id 3, :in_reply_to 1, :type "error", :code 11, :text "Not Leader"}</title></rect><use xlink:href="#ahead" x="436.82170984497884" y="0" /><text text-anchor="middle" x="218.41085492248942" y="-4" transform="rotate(180 218.41085492248942 0)" filter="url(#glow)" style="fill: #fff" >error Not Leader</text><text text-anchor="middle" x="218.41085492248942" y="-4" transform="rotate(180 218.41085492248942 0)" >error Not Leader</text></g><g transform="translate(163.63637 1170.0) rotate(1.312798486545485) " ><rect x="0" y="-2.5" height="5" width="868.9564162477587" fill="#81BFFC" ><title >c11 → n4 {:key 1, :value 4, :type "write", :msg_id 4}</title></rect><use xlink:href="#ahead" x="872.9564162477587" y="0" /><text text-anchor="middle" x="436.47820812387937" y="-4" transform="" filter="url(#glow)" style="fill: #fff" >write {:key 1, :value 4}</text><text text-anchor="middle" x="436.47820812387937" y="-4" transform="" >write {:key 1, :value 4}</text></g><g transform="translate(1036.3636 1210.0) rotate(178.68720151345454) " ><rect x="0" y="-2.5" height="5" width="868.9564162477587" fill="#FF1E90" ><title >n4 → c11 {:msg_id 8, :in_reply_to 4, :type "error", :code 11, :text "Not Leader"}</title></rect><use xlink:href="#ahead" x="872.9564162477587" y="0" /><text text-anchor="middle" x="436.47820812387937" y="-4" transform="rotate(180 436.47820812387937 0)" filter="url(#glow)" style="fill: #fff" >error Not Leader</text><text text-anchor="middle" x="436.47820812387937" y="-4" transform="rotate(180 436.47820812387937 0)" >error Not Leader</text></g><g transform="translate(54.545456 1250.0) rotate(1.5002607735553355) " ><rect x="0" y="-2.5" height="5" width="759.8982276609206" fill="#81BFFC" ><title >c10 → n2 {:key 1, :from 3, :to 1, :type "cas", :msg_id 4}</title></rect><use xlink:href="#ahead" x="763.8982276609206" y="0" /><text text-anchor="middle" x="381.9491138304603" y="-4" transform="" filter="url(#glow)" style="fill: #fff" >cas {:key 1, :from 3, :to 1}</text><text text-anchor="middle" x="381.9491138304603" y="-4" transform="" >cas {:key 1, :from 3, :to 1}</text></g><g transform="translate(818.1818 1290.0) rotate(178.4997392264447) " ><rect x="0" y="-2.5" height="5" width="759.8982276609206" fill="#FF1E90" ><title >n2 → c10 {:msg_id 7, :in_reply_to 4, :type "error", :code 11, :text "Not Leader"}</title></rect><use xlink:href="#ahead" x="763.8982276609206" y="0" /><text text-anchor="middle" x="381.9491138304603" y="-4" transform="rotate(180 381.9491138304603 0)" filter="url(#glow)" style="fill: #fff" >error Not Leader</text><text text-anchor="middle" x="381.9491138304603" y="-4" transform="rotate(180 381.9491138304603 0)" >error Not Leader</text></g><g transform="translate(600.0 1330.0) rotate(10.388860399965372) " ><rect x="0" y="-2.5" height="5" width="106.90906362064561" fill="#81BFFC" ><title >c15 → n1 {:key 0, :type "read", :msg_id 1}</title></rect><use xlink:href="#ahead" x="110.90906362064561" y="0" /><text text-anchor="middle" x="55.454531810322806" y="-4" transform="" filter="url(#glow)" style="fill: #fff" >read {:key 0}</text><text text-anchor="middle" x="55.454531810322806" y="-4" transform="" >read {:key 0}</text></g></g></svg>