<?xml version="1.0" encoding="UTF-8"?><svg xmlns:svg="http://www.w3.org/2000/svg" xmlns="http://www.w3.org/2000/svg" xmlns:xlink="http://www.w3.org/1999/xlink" version="2.0" width="1200" height="860" ><style >
svg {
  font-family: Helvetica, Arial, sans-serif;
  font-size: 11px;
}
rect {
  stroke-linecap: butt;
  stroke-width: 3;
  stroke: #fff;
/*  stroke-opacity: 1; */
}
rect:hover {
  stroke: #fff;
/*  stroke-opacity: 1; /*
}
polygon { fill: #000; }</style><defs ><polygon id="ahead" points="0 0, -12 4, -12 -4" /><filter id="glow" x="0" y="0" ><feGaussianBlur in="SourceAlpha" stdDeviation="2" result="blurred" /><feFlood flood-color="#fff" /><feComposite operator="in" in2="blurred" /><feComponentTransfer ><feFuncA type="linear" slope="10" intercept="0" /></feComponentTransfer><feMerge ><feMergeNode /><feMergeNode in="SourceGraphic" /></feMerge></filter></defs><g ><text x="60.0" y="20.0" text-anchor="middle" alignment-baseline="middle" fill="#000" >c10</text><text x="180.0" y="20.0" text-anchor="middle" alignment-baseline="middle" fill="#000" >c11</text><text x="300.0" y="20.0" text-anchor="middle" alignment-baseline="middle" fill="#000" >c12</text><text x="420.0" y="20.0" text-anchor="middle" alignment-baseline="middle" fill="#000" >c13</text><text x="540.0" y="20.0" text-anchor="middle" alignment-baseline="middle" fill="#000" >c14</text><text x="660.0" y="20.0" text-anchor="middle" alignment-baseline="middle" fill="#000" >c15</text><text x="780.0" y="20.0" text-anchor="middle" alignment-baseline="middle" fill="#000" >n1</text><text x="900.0" y="20.0" text-anchor="middle" alignment-baseline="middle" fill="#000" >n2</text><text x="1020.0" y="20.0" text-anchor="middle" alignment-baseline="middle" fill="#000" >n4</text><text x="1140.0" y="20.0" text-anchor="middle" alignment-baseline="middle" fill="#000" >n5</text></g><g ><line stroke="#ccc" x1="60.0" y1="30.0" x2="60.0" y2="770.0" /><line stroke="#ccc" x1="180.0" y1="30.0" x2="180.0" y2="770.0" /><line stroke="#ccc" x1="300.0" y1="30.0" x2="300.0" y2="770.0" /><line stroke="#ccc" x1="420.0" y1="30.0" x2="420.0" y2="770.0" /><line stroke="#ccc" x1="540.0" y1="30.0" x2="540.0" y2="770.0" /><line stroke="#ccc" x1="660.0" y1="30.0" x2="660.0" y2="770.0" /><line stroke="#ccc" x1="780.0" y1="30.0" x2="780.0" y2="770.0" /><line stroke="#ccc" x1="900.0" y1="30.0" x2="900.0" y2="770.0" /><line stroke="#ccc" x1="1020.0" y1="30.0" x2="1020.0" y2="770.0" /><line stroke="#ccc" x1="1140.0" y1="30.0" x2="1140.0" y2="770.0" /></g><g ><g transform="translate(60.0 50.0) rotate(1.0609116902642277) " ><rect x="0" y="-2.5" height="5" width="1076.1851693112621" fill="#81BFFC" ><title >c10 → n5 {:key 0, :type "read", :msg_id 1}</title></rect><use xlink:href="#ahead" x="1080.1851693112621" y="0" /><text text-anchor="middle" x="540.0925846556311" y="-4" transform="" filter="url(#glow)" style="fill: #fff" >read {:key 0}</text><text text-anchor="middle" x="540.0925846556311" y="-4" transform="" >read {:key 0}</text></g><g transform="translate(1140.0 90.0) rotate(178.93908830973578) " ><rect x="0" y="-2.5" height="5" width="1076.1851693112621" fill="#FF1E90" ><title >n5 → c10 {:msg_id 2, :in_reply_to 1, :type "error", :code 11}</title></rect><use xlink:href="#ahead" x="1080.1851693112621" y="0" /><text text-anchor="middle" x="540.0925846556311" y="-4" transform="rotate(180 540.0925846556311 0)" filter="url(#glow)" style="fill: #fff" >error </text><text text-anchor="middle" x="540.0925846556311" y="-4" transform="rotate(180 540.0925846556311 0)" >error </text></g><g transform="translate(180.0 130.0) rotate(1.193489423982035) " ><rect x="0" y="-2.5" height="5" width="956.2083107326243" fill="#81BFFC" ><title >c11 → n5 {:key 1, :value 2, :type "write", :msg_id 1}</title></rect><use xlink:href="#ahead" x="960.2083107326243" y="0" /><text text-anchor="middle" x="480.10415536631217" y="-4" transform="" filter="url(#glow)" style="fill: #fff" >write {:key 1, :value 2}</text><text text-anchor="middle" x="480.10415536631217" y="-4" transform="" >write {:key 1, :value 2}</text></g><g transform="translate(1140.0 170.0) rotate(178.80651057601798) " ><rect x="0" y="-2.5" height="5" width="956.2083107326243" fill="#FF1E90" ><title >n5 → c11 {:msg_id 3, :in_reply_to 1, :type "error", :code 11}</title></rect><use xlink:href="#ahead" x="960.2083107326243" y="0" /><text text-anchor="middle" x="480.10415536631217" y="-4" transform="rotate(180 480.10415536631217 0)" filter="url(#glow)" style="fill: #fff" >error </text><text text-anchor="middle" x="480.10415536631217" y="-4" transform="rotate(180 480.10415536631217 0)" >error </text></g><g transform="translate(300.0 210.0) rotate(1.9091524329963763) " ><rect x="0" y="-2.5" height="5" width="596.3332407921454" fill="#81BFFC" ><title >c12 → n2 {:key 1, :value 1, :type "write", :msg_id 1}</title></rect><use xlink:href="#ahead" x="600.3332407921454" y="0" /><text text-anchor="middle" x="300.1666203960727" y="-4" transform="" filter="url(#glow)" style="fill: #fff" >write {:key 1, :value 1}</text><text text-anchor="middle" x="300.1666203960727" y="-4" transform="" >write {:key 1, :value 1}</text></g><g transform="translate(900.0 250.0) rotate(178.0908475670036) " ><rect x="0" y="-2.5" height="5" width="596.3332407921454" fill="#FF1E90" ><title >n2 → c12 {:msg_id 2, :in_reply_to 1, :type "error", :code 11}</title></rect><use xlink:href="#ahead" x="600.3332407921454" y="0" /><text text-anchor="middle" x="300.1666203960727" y="-4" transform="rotate(180 300.1666203960727 0)" filter="url(#glow)" style="fill: #fff" >error </text><text text-anchor="middle" x="300.1666203960727" y="-4" transform="rotate(180 300.1666203960727 0)" >error </text></g><g transform="translate(180.0 290.0) rotate(1.193489423982035) " ><rect x="0" y="-2.5" height="5" width="956.2083107326243" fill="#81BFFC" ><title >c11 → n5 {:key 1, :value 1, :type "write", :msg_id 2}</title></rect><use xlink:href="#ahead" x="960.2083107326243" y="0" /><text text-anchor="middle" x="480.10415536631217" y="-4" transform="" filter="url(#glow)" style="fill: #fff" >write {:key 1, :value 1}</text><text text-anchor="middle" x="480.10415536631217" y="-4" transform="" >write {:key 1, :value 1}</text></g><g transform="translate(1140.0 330.0) rotate(178.80651057601798) " ><rect x="0" y="-2.5" height="5" width="956.2083107326243" fill="#FF1E90" ><title >n5 → c11 {:msg_id 4, :in_reply_to 2, :type "error", :code 11}</title></rect><use xlink:href="#ahead" x="960.2083107326243" y="0" /><text text-anchor="middle" x="480.10415536631217" y="-4" transform="rotate(180 480.10415536631217 0)" filter="url(#glow)" style="fill: #fff" >error </text><text text-anchor="middle" x="480.10415536631217" y="-4" transform="rotate(180 480.10415536631217 0)" >error </text></g><g transform="translate(420.0 370.0) rotate(3.179830119864234) " ><rect x="0" y="-2.5" height="5" width="356.5551275463989" fill="#81BFFC" ><title >c13 → n1 {:key 0, :type "read", :msg_id 1}</title></rect><use xlink:href="#ahead" x="360.5551275463989" y="0" /><text text-anchor="middle" x="180.27756377319946" y="-4" transform="" filter="url(#glow)" style="fill: #fff" >read {:key 0}</text><text text-anchor="middle" x="180.27756377319946" y="-4" transform="" >read {:key 0}</text></g><g transform="translate(780.0 410.0) rotate(176.82016988013578) " ><rect x="0" y="-2.5" height="5" width="356.5551275463989" fill="#FF1E90" ><title >n1 → c13 {:msg_id 2, :in_reply_to 1, :type "error", :code 20, :text "Invalid Key"}</title></rect><use xlink:href="#ahead" x="360.5551275463989" y="0" /><text text-anchor="middle" x="180.27756377319946" y="-4" transform="rotate(180 180.27756377319946 0)" filter="url(#glow)" style="fill: #fff" >error Invalid Key</text><text text-anchor="middle" x="180.27756377319946" y="-4" transform="rotate(180 180.27756377319946 0)" >error Invalid Key</text></g><g transform="translate(60.0 450.0) rotate(1.0609116902642277) " ><rect x="0" y="-2.5" height="5" width="1076.1851693112621" fill="#81BFFC" ><title >c10 → n5 {:key 0, :type "read", :msg_id 2}</title></rect><use xlink:href="#ahead" x="1080.1851693112621" y="0" /><text text-anchor="middle" x="540.0925846556311" y="-4" transform="" filter="url(#glow)" style="fill: #fff" >read {:key 0}</text><text text-anchor="middle" x="540.0925846556311" y="-4" transform="" >read {:key 0}</text></g><g transform="translate(1140.0 490.0) rotate(178.93908830973578) " ><rect x="0" y="-2.5" height="5" width="1076.1851693112621" fill="#FF1E90" ><title >n5 → c10 {:msg_id 5, :in_reply_to 2, :type "error", :code 11}</title></rect><use xlink:href="#ahead" x="1080.1851693112621" y="0" /><text text-anchor="middle" x="540.0925846556311" y="-4" transform="rotate(180 540.0925846556311 0)" filter="url(#glow)" style="fill: #fff" >error </text><text text-anchor="middle" x="540.0925846556311" y="-4" transform="rotate(180 540.0925846556311 0)" >error </text></g><g transform="translate(540.0 530.0) rotate(2.3859440303888126) " ><rect x="0" y="-2.5" height="5" width="476.41648597857255" fill="#81BFFC" ><title >c14 → n4 {:key 0, :type "read", :msg_id 1}</title></rect><use xlink:href="#ahead" x="480.41648597857255" y="0" /><text text-anchor="middle" x="240.20824298928628" y="-4" transform="" filter="url(#glow)" style="fill: #fff" >read {:key 0}</text><text text-anchor="middle" x="240.20824298928628" y="-4" transform="" >read {:key 0}</text></g><g transform="translate(1020.0 570.0) rotate(177.6140559696112) " ><rect x="0" y="-2.5" height="5" width="476.41648597857255" fill="#FF1E90" ><title >n4 → c14 {:msg_id 2, :in_reply_to 1, :type "error", :code 11}</title></rect><use xlink:href="#ahead" x="480.41648597857255" y="0" /><text text-anchor="middle" x="240.20824298928628" y="-4" transform="rotate(180 240.20824298928628 0)" filter="url(#glow)" style="fill: #fff" >error </text><text text-anchor="middle" x="240.20824298928628" y="-4" transform="rotate(180 240.20824298928628 0)" >error </text></g><g transform="translate(180.0 610.0) rotate(1.193489423982035) " ><rect x="0" y="-2.5" height="5" width="956.2083107326243" fill="#81BFFC" ><title >c11 → n5 {:key 1, :value 0, :type "write", :msg_id 3}</title></rect><use xlink:href="#ahead" x="960.2083107326243" y="0" /><text text-anchor="middle" x="480.10415536631217" y="-4" transform="" filter="url(#glow)" style="fill: #fff" >write {:key 1, :value 0}</text><text text-anchor="middle" x="480.10415536631217" y="-4" transform="" >write {:key 1, :value 0}</text></g><g transform="translate(1140.0 650.0) rotate(178.80651057601798) " ><rect x="0" y="-2.5" height="5" width="956.2083107326243" fill="#FF1E90" ><title >n5 → c11 {:msg_id 6, :in_reply_to 3, :type "error", :code 11}</title></rect><use xlink:href="#ahead" x="960.2083107326243" y="0" /><text text-anchor="middle" x="480.10415536631217" y="-4" transform="rotate(180 480.10415536631217 0)" filter="url(#glow)" style="fill: #fff" >error </text><text text-anchor="middle" x="480.10415536631217" y="-4" transform="rotate(180 480.10415536631217 0)" >error </text></g><g transform="translate(660.0 690.0) rotate(4.763641690726177) " ><rect x="0" y="-2.5" height="5" width="236.8318915758459" fill="#81BFFC" ><title >c15 → n2 {:key 1, :from 1, :to 4, :type "cas", :msg_id 1}</title></rect><use xlink:href="#ahead" x="240.8318915758459" y="0" /><text text-anchor="middle" x="120.41594578792295" y="-4" transform="" filter="url(#glow)" style="fill: #fff" >cas {:key 1, :from 1, :to 4}</text><text text-anchor="middle" x="120.41594578792295" y="-4" transform="" >cas {:key 1, :from 1, :to 4}</text></g><g transform="translate(900.0 730.0) rotate(175.2363583092738) " ><rect x="0" y="-2.5" height="5" width="236.8318915758459" fill="#FF1E90" ><title >n2 → c15 {:msg_id 3, :in_reply_to 1, :type "error", :code 11}</title></rect><use xlink:href="#ahead" x="240.8318915758459" y="0" /><text text-anchor="middle" x="120.41594578792295" y="-4" transform="rotate(180 120.41594578792295 0)" filter="url(#glow)" style="fill: #fff" >error </text><text text-anchor="middle" x="120.41594578792295" y="-4" transform="rotate(180 120.41594578792295 0)" >error </text></g></g></svg>