<?xml version="1.0" encoding="UTF-8"?><svg xmlns:svg="http://www.w3.org/2000/svg" xmlns="http://www.w3.org/2000/svg" xmlns:xlink="http://www.w3.org/1999/xlink" version="2.0" width="1200" height="620" ><style >
svg {
  font-family: Helvetica, Arial, sans-serif;
  font-size: 11px;
}
rect {
  stroke-linecap: butt;
  stroke-width: 3;
  stroke: #fff;
/*  stroke-opacity: 1; */
}
rect:hover {
  stroke: #fff;
/*  stroke-opacity: 1; /*
}
polygon { fill: #000; }</style><defs ><polygon id="ahead" points="0 0, -12 4, -12 -4" /><filter id="glow" x="0" y="0" ><feGaussianBlur in="SourceAlpha" stdDeviation="2" result="blurred" /><feFlood flood-color="#fff" /><feComposite operator="in" in2="blurred" /><feComponentTransfer ><feFuncA type="linear" slope="10" intercept="0" /></feComponentTransfer><feMerge ><feMergeNode /><feMergeNode in="SourceGraphic" /></feMerge></filter></defs><g ><text x="75.0" y="20.0" text-anchor="middle" alignment-baseline="middle" fill="#000" >c8</text><text x="225.0" y="20.0" text-anchor="middle" alignment-baseline="middle" fill="#000" >c9</text><text x="375.0" y="20.0" text-anchor="middle" alignment-baseline="middle" fill="#000" >c10</text><text x="525.0" y="20.0" text-anchor="middle" alignment-baseline="middle" fill="#000" >c11</text><text x="675.0" y="20.0" text-anchor="middle" alignment-baseline="middle" fill="#000" >n0</text><text x="825.0" y="20.0" text-anchor="middle" alignment-baseline="middle" fill="#000" >n1</text><text x="975.0" y="20.0" text-anchor="middle" alignment-baseline="middle" fill="#000" >n2</text><text x="1125.0" y="20.0" text-anchor="middle" alignment-baseline="middle" fill="#000" >n3</text></g><g ><line stroke="#ccc" x1="75.0" y1="30.0" x2="75.0" y2="530.0" /><line stroke="#ccc" x1="225.0" y1="30.0" x2="225.0" y2="530.0" /><line stroke="#ccc" x1="375.0" y1="30.0" x2="375.0" y2="530.0" /><line stroke="#ccc" x1="525.0" y1="30.0" x2="525.0" y2="530.0" /><line stroke="#ccc" x1="675.0" y1="30.0" x2="675.0" y2="530.0" /><line stroke="#ccc" x1="825.0" y1="30.0" x2="825.0" y2="530.0" /><line stroke="#ccc" x1="975.0" y1="30.0" x2="975.0" y2="530.0" /><line stroke="#ccc" x1="1125.0" y1="30.0" x2="1125.0" y2="530.0" /></g><g ><g transform="translate(75.0 50.0) rotate(1.091216225262598) " ><rect x="0" y="-2.5" height="5" width="1046.1904589168576" fill="#81BFFC" ><title >c8 → n3 {:txn [["append" 9 1]], :type "txn", :msg_id 1}</title></rect><use xlink:href="#ahead" x="1050.1904589168576" y="0" /><text text-anchor="middle" x="525.0952294584288" y="-4" transform="" filter="url(#glow)" style="fill: #fff" >txn {:txn [["append" 9 1]]}</text><text text-anchor="middle" x="525.0952294584288" y="-4" transform="" >txn {:txn [["append" 9 1]]}</text></g><g transform="translate(1125.0 90.0) rotate(178.9087837747374) " ><rect x="0" y="-2.5" height="5" width="1046.1904589168576" fill="#81BFFC" ><title >n3 → c8 {:msg_id 2, :in_reply_to 1, :type "txn_ok", :txn [["append" 9 1]]}</title></rect><use xlink:href="#ahead" x="1050.1904589168576" y="0" /><text text-anchor="middle" x="525.0952294584288" y="-4" transform="rotate(180 525.0952294584288 0)" filter="url(#glow)" style="fill: #fff" >txn_ok {:txn [["append" 9 1]]}</text><text text-anchor="middle" x="525.0952294584288" y="-4" transform="rotate(180 525.0952294584288 0)" >txn_ok {:txn [["append" 9 1]]}</text></g><g transform="translate(225.0 130.0) rotate(1.9091524329963763) " ><rect x="0" y="-2.5" height="5" width="596.3332407921454" fill="#81BFFC" ><title >c9 → n1 {:txn [["r" 8 nil] ["append" 9 2] ["r" 6 nil] ["r" 8 nil]], :type "txn", :msg_id 1}</title></rect><use xlink:href="#ahead" x="600.3332407921454" y="0" /><text text-anchor="middle" x="300.1666203960727" y="-4" transform="" filter="url(#glow)" style="fill: #fff" >txn {:txn [["r" 8 nil] ["append" 9 2] ["r" 6 ni…</text><text text-anchor="middle" x="300.1666203960727" y="-4" transform="" >txn {:txn [["r" 8 nil] ["append" 9 2] ["r" 6 ni…</text></g><g transform="translate(825.0 170.0) rotate(178.0908475670036) " ><rect x="0" y="-2.5" height="5" width="596.3332407921454" fill="#81BFFC" ><title >n1 → c9 {:msg_id 2, :in_reply_to 1, :type "txn_ok", :txn [["r" 8 nil] ["append" 9 2] ["r" 6 nil] ["r" 8 nil]]}</title></rect><use xlink:href="#ahead" x="600.3332407921454" y="0" /><text text-anchor="middle" x="300.1666203960727" y="-4" transform="rotate(180 300.1666203960727 0)" filter="url(#glow)" style="fill: #fff" >txn_ok {:txn [["r" 8 nil] ["append" 9 2] ["r" 6…</text><text text-anchor="middle" x="300.1666203960727" y="-4" transform="rotate(180 300.1666203960727 0)" >txn_ok {:txn [["r" 8 nil] ["append" 9 2] ["r" 6…</text></g><g transform="translate(375.0 210.0) rotate(3.8140748342903543) " ><rect x="0" y="-2.5" height="5" width="296.66592756745814" fill="#81BFFC" ><title >c10 → n0 {:txn [["append" 8 1] ["r" 7 nil]], :type "txn", :msg_id 1}</title></rect><use xlink:href="#ahead" x="300.66592756745814" y="0" /><text text-anchor="middle" x="150.33296378372907" y="-4" transform="" filter="url(#glow)" style="fill: #fff" >txn {:txn [["append" 8 1] ["r" 7 nil]]}</text><text text-anchor="middle" x="150.33296378372907" y="-4" transform="" >txn {:txn [["append" 8 1] ["r" 7 nil]]}</text></g><g transform="translate(675.0 250.0) rotate(176.18592516570965) " ><rect x="0" y="-2.5" height="5" width="296.66592756745814" fill="#81BFFC" ><title >n0 → c10 {:msg_id 2, :in_reply_to 1, :type "txn_ok", :txn [["append" 8 1] ["r" 7 nil]]}</title></rect><use xlink:href="#ahead" x="300.66592756745814" y="0" /><text text-anchor="middle" x="150.33296378372907" y="-4" transform="rotate(180 150.33296378372907 0)" filter="url(#glow)" style="fill: #fff" >txn_ok {:txn [["append" 8 1] ["r" 7 nil]]}</text><text text-anchor="middle" x="150.33296378372907" y="-4" transform="rotate(180 150.33296378372907 0)" >txn_ok {:txn [["append" 8 1] ["r" 7 nil]]}</text></g><g transform="translate(375.0 290.0) rotate(3.8140748342903543) " ><rect x="0" y="-2.5" height="5" width="296.66592756745814" fill="#81BFFC" ><title >c10 → n0 {:txn [["append" 8 2] ["append" 7 1]], :type "txn", :msg_id 2}</title></rect><use xlink:href="#ahead" x="300.66592756745814" y="0" /><text text-anchor="middle" x="150.33296378372907" y="-4" transform="" filter="url(#glow)" style="fill: #fff" >txn {:txn [["append" 8 2] ["append" 7 1]]}</text><text text-anchor="middle" x="150.33296378372907" y="-4" transform="" >txn {:txn [["append" 8 2] ["append" 7 1]]}</text></g><g transform="translate(75.0 330.0) rotate(1.091216225262598) " ><rect x="0" y="-2.5" height="5" width="1046.1904589168576" fill="#81BFFC" ><title >c8 → n3 {:txn [["r" 9 nil] ["append" 9 3] ["r" 9 nil]], :type "txn", :msg_id 2}</title></rect><use xlink:href="#ahead" x="1050.1904589168576" y="0" /><text text-anchor="middle" x="525.0952294584288" y="-4" transform="" filter="url(#glow)" style="fill: #fff" >txn {:txn [["r" 9 nil] ["append" 9 3] ["r" 9 ni…</text><text text-anchor="middle" x="525.0952294584288" y="-4" transform="" >txn {:txn [["r" 9 nil] ["append" 9 3] ["r" 9 ni…</text></g><g transform="translate(225.0 370.0) rotate(1.9091524329963763) " ><rect x="0" y="-2.5" height="5" width="596.3332407921454" fill="#81BFFC" ><title >c9 → n1 {:txn [["append" 8 3]], :type "txn", :msg_id 2}</title></rect><use xlink:href="#ahead" x="600.3332407921454" y="0" /><text text-anchor="middle" x="300.1666203960727" y="-4" transform="" filter="url(#glow)" style="fill: #fff" >txn {:txn [["append" 8 3]]}</text><text text-anchor="middle" x="300.1666203960727" y="-4" transform="" >txn {:txn [["append" 8 3]]}</text></g><g transform="translate(525.0 410.0) rotate(2.5448043798130957) " ><rect x="0" y="-2.5" height="5" width="446.4442251822083" fill="#81BFFC" ><title >c11 → n2 {:txn [["r" 9 nil]], :type "txn", :msg_id 1}</title></rect><use xlink:href="#ahead" x="450.4442251822083" y="0" /><text text-anchor="middle" x="225.22211259110415" y="-4" transform="" filter="url(#glow)" style="fill: #fff" >txn {:txn [["r" 9 nil]]}</text><text text-anchor="middle" x="225.22211259110415" y="-4" transform="" >txn {:txn [["r" 9 nil]]}</text></g><g transform="translate(975.0 450.0) rotate(177.4551956201869) " ><rect x="0" y="-2.5" height="5" width="446.4442251822083" fill="#81BFFC" ><title >n2 → c11 {:msg_id 2, :in_reply_to 1, :type "txn_ok", :txn [["r" 9 nil]]}</title></rect><use xlink:href="#ahead" x="450.4442251822083" y="0" /><text text-anchor="middle" x="225.22211259110415" y="-4" transform="rotate(180 225.22211259110415 0)" filter="url(#glow)" style="fill: #fff" >txn_ok {:txn [["r" 9 nil]]}</text><text text-anchor="middle" x="225.22211259110415" y="-4" transform="rotate(180 225.22211259110415 0)" >txn_ok {:txn [["r" 9 nil]]}</text></g><g transform="translate(525.0 490.0) rotate(2.5448043798130957) " ><rect x="0" y="-2.5" height="5" width="446.4442251822083" fill="#81BFFC" ><title >c11 → n2 {:txn [["r" 9 nil]], :type "txn", :msg_id 2}</title></rect><use xlink:href="#ahead" x="450.4442251822083" y="0" /><text text-anchor="middle" x="225.22211259110415" y="-4" transform="" filter="url(#glow)" style="fill: #fff" >txn {:txn [["r" 9 nil]]}</text><text text-anchor="middle" x="225.22211259110415" y="-4" transform="" >txn {:txn [["r" 9 nil]]}</text></g></g></svg>