<?xml version="1.0" encoding="UTF-8"?><svg xmlns:svg="http://www.w3.org/2000/svg" xmlns="http://www.w3.org/2000/svg" xmlns:xlink="http://www.w3.org/1999/xlink" version="2.0" width="1200" height="1260" ><style >
svg {
  font-family: Helvetica, Arial, sans-serif;
  font-size: 11px;
}
rect {
  stroke-linecap: butt;
  stroke-width: 3;
  stroke: #fff;
/*  stroke-opacity: 1; */
}
rect:hover {
  stroke: #fff;
/*  stroke-opacity: 1; /*
}
polygon { fill: #000; }</style><defs ><polygon id="ahead" points="0 0, -12 4, -12 -4" /><filter id="glow" x="0" y="0" ><feGaussianBlur in="SourceAlpha" stdDeviation="2" result="blurred" /><feFlood flood-color="#fff" /><feComposite operator="in" in2="blurred" /><feComponentTransfer ><feFuncA type="linear" slope="10" intercept="0" /></feComponentTransfer><feMerge ><feMergeNode /><feMergeNode in="SourceGraphic" /></feMerge></filter></defs><g ><text x="300.0" y="20.0" text-anchor="middle" alignment-baseline="middle" fill="#000" >c2</text><text x="300.0" y="1020.0" text-anchor="middle" alignment-baseline="middle" fill="#aaa" >c2</text><text x="900.0" y="20.0" text-anchor="middle" alignment-baseline="middle" fill="#000" >n0</text><text x="900.0" y="1020.0" text-anchor="middle" alignment-baseline="middle" fill="#aaa" >n0</text></g><g ><line stroke="#ccc" x1="300.0" y1="30.0" x2="300.0" y2="1170.0" /><line stroke="#ccc" x1="900.0" y1="30.0" x2="900.0" y2="1170.0" /></g><g ><g transform="translate(300.0 50.0) rotate(1.9091524329963763) " ><rect x="0" y="-2.5" height="5" width="596.3332407921454" fill="#81BFFC" ><title >c2 → n0 {:txn [["r" 6 nil]], :type "txn", :msg_id 1}</title></rect><use xlink:href="#ahead" x="600.3332407921454" y="0" /><text text-anchor="middle" x="300.1666203960727" y="-4" transform="" filter="url(#glow)" style="fill: #fff" >txn {:txn [["r" 6 nil]]}</text><text text-anchor="middle" x="300.1666203960727" y="-4" transform="" >txn {:txn [["r" 6 nil]]}</text></g><g transform="translate(900.0 90.0) rotate(178.0908475670036) " ><rect x="0" y="-2.5" height="5" width="596.3332407921454" fill="#81BFFC" ><title >n0 → c2 {:msg_id 2, :in_reply_to 1, :type "txn_ok", :txn [["r" 6 nil]]}</title></rect><use xlink:href="#ahead" x="600.3332407921454" y="0" /><text text-anchor="middle" x="300.1666203960727" y="-4" transform="rotate(180 300.1666203960727 0)" filter="url(#glow)" style="fill: #fff" >txn_ok {:txn [["r" 6 nil]]}</text><text text-anchor="middle" x="300.1666203960727" y="-4" transform="rotate(180 300.1666203960727 0)" >txn_ok {:txn [["r" 6 nil]]}</text></g><g transform="translate(300.0 130.0) rotate(1.9091524329963763) " ><rect x="0" y="-2.5" height="5" width="596.3332407921454" fill="#81BFFC" ><title >c2 → n0 {:txn [["r" 9 nil]], :type "txn", :msg_id 2}</title></rect><use xlink:href="#ahead" x="600.3332407921454" y="0" /><text text-anchor="middle" x="300.1666203960727" y="-4" transform="" filter="url(#glow)" style="fill: #fff" >txn {:txn [["r" 9 nil]]}</text><text text-anchor="middle" x="300.1666203960727" y="-4" transform="" >txn {:txn [["r" 9 nil]]}</text></g><g transform="translate(900.0 170.0) rotate(178.0908475670036) " ><rect x="0" y="-2.5" height="5" width="596.3332407921454" fill="#81BFFC" ><title >n0 → c2 {:msg_id 3, :in_reply_to 2, :type "txn_ok", :txn [["r" 9 nil]]}</title></rect><use xlink:href="#ahead" x="600.3332407921454" y="0" /><text text-anchor="middle" x="300.1666203960727" y="-4" transform="rotate(180 300.1666203960727 0)" filter="url(#glow)" style="fill: #fff" >txn_ok {:txn [["r" 9 nil]]}</text><text text-anchor="middle" x="300.1666203960727" y="-4" transform="rotate(180 300.1666203960727 0)" >txn_ok {:txn [["r" 9 nil]]}</text></g><g transform="translate(300.0 210.0) rotate(1.9091524329963763) " ><rect x="0" y="-2.5" height="5" width="596.3332407921454" fill="#81BFFC" ><title >c2 → n0 {:txn [["append" 7 1] ["r" 9 nil] ["r" 8 nil] ["r" 9 nil]], :type "txn", :msg_id 3}</title></rect><use xlink:href="#ahead" x="600.3332407921454" y="0" /><text text-anchor="middle" x="300.1666203960727" y="-4" transform="" filter="url(#glow)" style="fill: #fff" >txn {:txn [["append" 7 1] ["r" 9 nil] ["r" 8 ni…</text><text text-anchor="middle" x="300.1666203960727" y="-4" transform="" >txn {:txn [["append" 7 1] ["r" 9 nil] ["r" 8 ni…</text></g><g transform="translate(900.0 250.0) rotate(178.0908475670036) " ><rect x="0" y="-2.5" height="5" width="596.3332407921454" fill="#81BFFC" ><title >n0 → c2 {:msg_id 4, :in_reply_to 3, :type "txn_ok", :txn [["append" 7 1] ["r" 9 nil] ["r" 8 nil] ["r" 9 nil]]}</title></rect><use xlink:href="#ahead" x="600.3332407921454" y="0" /><text text-anchor="middle" x="300.1666203960727" y="-4" transform="rotate(180 300.1666203960727 0)" filter="url(#glow)" style="fill: #fff" >txn_ok {:txn [["append" 7 1] ["r" 9 nil] ["r" 8…</text><text text-anchor="middle" x="300.1666203960727" y="-4" transform="rotate(180 300.1666203960727 0)" >txn_ok {:txn [["append" 7 1] ["r" 9 nil] ["r" 8…</text></g><g transform="translate(300.0 290.0) rotate(1.9091524329963763) " ><rect x="0" y="-2.5" height="5" width="596.3332407921454" fill="#81BFFC" ><title >c2 → n0 {:txn [["append" 7 2] ["append" 9 1]], :type "txn", :msg_id 4}</title></rect><use xlink:href="#ahead" x="600.3332407921454" y="0" /><text text-anchor="middle" x="300.1666203960727" y="-4" transform="" filter="url(#glow)" style="fill: #fff" >txn {:txn [["append" 7 2] ["append" 9 1]]}</text><text text-anchor="middle" x="300.1666203960727" y="-4" transform="" >txn {:txn [["append" 7 2] ["append" 9 1]]}</text></g><g transform="translate(900.0 330.0) rotate(178.0908475670036) " ><rect x="0" y="-2.5" height="5" width="596.3332407921454" fill="#81BFFC" ><title >n0 → c2 {:msg_id 5, :in_reply_to 4, :type "txn_ok", :txn [["append" 7 2] ["append" 9 1]]}</title></rect><use xlink:href="#ahead" x="600.3332407921454" y="0" /><text text-anchor="middle" x="300.1666203960727" y="-4" transform="rotate(180 300.1666203960727 0)" filter="url(#glow)" style="fill: #fff" >txn_ok {:txn [["append" 7 2] ["append" 9 1]]}</text><text text-anchor="middle" x="300.1666203960727" y="-4" transform="rotate(180 300.1666203960727 0)" >txn_ok {:txn [["append" 7 2] ["append" 9 1]]}</text></g><g transform="translate(300.0 370.0) rotate(1.9091524329963763) " ><rect x="0" y="-2.5" height="5" width="596.3332407921454" fill="#81BFFC" ><title >c2 → n0 {:txn [["append" 8 1] ["r" 6 nil] ["r" 9 nil]], :type "txn", :msg_id 5}</title></rect><use xlink:href="#ahead" x="600.3332407921454" y="0" /><text text-anchor="middle" x="300.1666203960727" y="-4" transform="" filter="url(#glow)" style="fill: #fff" >txn {:txn [["append" 8 1] ["r" 6 nil] ["r" 9 ni…</text><text text-anchor="middle" x="300.1666203960727" y="-4" transform="" >txn {:txn [["append" 8 1] ["r" 6 nil] ["r" 9 ni…</text></g><g transform="translate(900.0 410.0) rotate(178.0908475670036) " ><rect x="0" y="-2.5" height="5" width="596.3332407921454" fill="#81BFFC" ><title >n0 → c2 {:msg_id 6, :in_reply_to 5, :type "txn_ok", :txn [["append" 8 1] ["r" 6 nil] ["r" 9 [1]]]}</title></rect><use xlink:href="#ahead" x="600.3332407921454" y="0" /><text text-anchor="middle" x="300.1666203960727" y="-4" transform="rotate(180 300.1666203960727 0)" filter="url(#glow)" style="fill: #fff" >txn_ok {:txn [["append" 8 1] ["r" 6 nil] ["r" 9…</text><text text-anchor="middle" x="300.1666203960727" y="-4" transform="rotate(180 300.1666203960727 0)" >txn_ok {:txn [["append" 8 1] ["r" 6 nil] ["r" 9…</text></g><g transform="translate(300.0 450.0) rotate(1.9091524329963763) " ><rect x="0" y="-2.5" height="5" width="596.3332407921454" fill="#81BFFC" ><title >c2 → n0 {:txn [["r" 9 nil]], :type "txn", :msg_id 6}</title></rect><use xlink:href="#ahead" x="600.3332407921454" y="0" /><text text-anchor="middle" x="300.1666203960727" y="-4" transform="" filter="url(#glow)" style="fill: #fff" >txn {:txn [["r" 9 nil]]}</text><text text-anchor="middle" x="300.1666203960727" y="-4" transform="" >txn {:txn [["r" 9 nil]]}</text></g><g transform="translate(900.0 490.0) rotate(178.0908475670036) " ><rect x="0" y="-2.5" height="5" width="596.3332407921454" fill="#81BFFC" ><title >n0 → c2 {:msg_id 7, :in_reply_to 6, :type "txn_ok", :txn [["r" 9 [1]]]}</title></rect><use xlink:href="#ahead" x="600.3332407921454" y="0" /><text text-anchor="middle" x="300.1666203960727" y="-4" transform="rotate(180 300.1666203960727 0)" filter="url(#glow)" style="fill: #fff" >txn_ok {:txn [["r" 9 [1]]]}</text><text text-anchor="middle" x="300.1666203960727" y="-4" transform="rotate(180 300.1666203960727 0)" >txn_ok {:txn [["r" 9 [1]]]}</text></g><g transform="translate(300.0 530.0) rotate(1.9091524329963763) " ><rect x="0" y="-2.5" height="5" width="596.3332407921454" fill="#81BFFC" ><title >c2 → n0 {:txn [["append" 6 1] ["r" 8 nil] ["r" 9 nil]], :type "txn", :msg_id 7}</title></rect><use xlink:href="#ahead" x="600.3332407921454" y="0" /><text text-anchor="middle" x="300.1666203960727" y="-4" transform="" filter="url(#glow)" style="fill: #fff" >txn {:txn [["append" 6 1] ["r" 8 nil] ["r" 9 ni…</text><text text-anchor="middle" x="300.1666203960727" y="-4" transform="" >txn {:txn [["append" 6 1] ["r" 8 nil] ["r" 9 ni…</text></g><g transform="translate(900.0 570.0) rotate(178.0908475670036) " ><rect x="0" y="-2.5" height="5" width="596.3332407921454" fill="#81BFFC" ><title >n0 → c2 {:msg_id 8, :in_reply_to 7, :type "txn_ok", :txn [["append" 6 1] ["r" 8 [1]] ["r" 9 [1]]]}</title></rect><use xlink:href="#ahead" x="600.3332407921454" y="0" /><text text-anchor="middle" x="300.1666203960727" y="-4" transform="rotate(180 300.1666203960727 0)" filter="url(#glow)" style="fill: #fff" >txn_ok {:txn [["append" 6 1] ["r" 8 [1]] ["r" 9…</text><text text-anchor="middle" x="300.1666203960727" y="-4" transform="rotate(180 300.1666203960727 0)" >txn_ok {:txn [["append" 6 1] ["r" 8 [1]] ["r" 9…</text></g><g transform="translate(300.0 610.0) rotate(1.9091524329963763) " ><rect x="0" y="-2.5" height="5" width="596.3332407921454" fill="#81BFFC" ><title >c2 → n0 {:txn [["append" 9 2] ["append" 7 3] ["r" 7 nil]], :type "txn", :msg_id 8}</title></rect><use xlink:href="#ahead" x="600.3332407921454" y="0" /><text text-anchor="middle" x="300.1666203960727" y="-4" transform="" filter="url(#glow)" style="fill: #fff" >txn {:txn [["append" 9 2] ["append" 7 3] ["r" 7…</text><text text-anchor="middle" x="300.1666203960727" y="-4" transform="" >txn {:txn [["append" 9 2] ["append" 7 3] ["r" 7…</text></g><g transform="translate(900.0 650.0) rotate(178.0908475670036) " ><rect x="0" y="-2.5" height="5" width="596.3332407921454" fill="#81BFFC" ><title >n0 → c2 {:msg_id 9, :in_reply_to 8, :type "txn_ok", :txn [["append" 9 2] ["append" 7 3] ["r" 7 [1 2 3]]]}</title></rect><use xlink:href="#ahead" x="600.3332407921454" y="0" /><text text-anchor="middle" x="300.1666203960727" y="-4" transform="rotate(180 300.1666203960727 0)" filter="url(#glow)" style="fill: #fff" >txn_ok {:txn [["append" 9 2] ["append" 7 3] ["r…</text><text text-anchor="middle" x="300.1666203960727" y="-4" transform="rotate(180 300.1666203960727 0)" >txn_ok {:txn [["append" 9 2] ["append" 7 3] ["r…</text></g><g transform="translate(300.0 690.0) rotate(1.9091524329963763) " ><rect x="0" y="-2.5" height="5" width="596.3332407921454" fill="#81BFFC" ><title >c2 → n0 {:txn [["append" 8 2] ["append" 9 3]], :type "txn", :msg_id 9}</title></rect><use xlink:href="#ahead" x="600.3332407921454" y="0" /><text text-anchor="middle" x="300.1666203960727" y="-4" transform="" filter="url(#glow)" style="fill: #fff" >txn {:txn [["append" 8 2] ["append" 9 3]]}</text><text text-anchor="middle" x="300.1666203960727" y="-4" transform="" >txn {:txn [["append" 8 2] ["append" 9 3]]}</text></g><g transform="translate(900.0 730.0) rotate(178.0908475670036) " ><rect x="0" y="-2.5" height="5" width="596.3332407921454" fill="#81BFFC" ><title >n0 → c2 {:msg_id 10, :in_reply_to 9, :type "txn_ok", :txn [["append" 8 2] ["append" 9 3]]}</title></rect><use xlink:href="#ahead" x="600.3332407921454" y="0" /><text text-anchor="middle" x="300.1666203960727" y="-4" transform="rotate(180 300.1666203960727 0)" filter="url(#glow)" style="fill: #fff" >txn_ok {:txn [["append" 8 2] ["append" 9 3]]}</text><text text-anchor="middle" x="300.1666203960727" y="-4" transform="rotate(180 300.1666203960727 0)" >txn_ok {:txn [["append" 8 2] ["append" 9 3]]}</text></g><g transform="translate(300.0 770.0) rotate(1.9091524329963763) " ><rect x="0" y="-2.5" height="5" width="596.3332407921454" fill="#81BFFC" ><title >c2 → n0 {:txn [["append" 9 4]], :type "txn", :msg_id 10}</title></rect><use xlink:href="#ahead" x="600.3332407921454" y="0" /><text text-anchor="middle" x="300.1666203960727" y="-4" transform="" filter="url(#glow)" style="fill: #fff" >txn {:txn [["append" 9 4]]}</text><text text-anchor="middle" x="300.1666203960727" y="-4" transform="" >txn {:txn [["append" 9 4]]}</text></g><g transform="translate(900.0 810.0) rotate(178.0908475670036) " ><rect x="0" y="-2.5" height="5" width="596.3332407921454" fill="#81BFFC" ><title >n0 → c2 {:msg_id 11, :in_reply_to 10, :type "txn_ok", :txn [["append" 9 4]]}</title></rect><use xlink:href="#ahead" x="600.3332407921454" y="0" /><text text-anchor="middle" x="300.1666203960727" y="-4" transform="rotate(180 300.1666203960727 0)" filter="url(#glow)" style="fill: #fff" >txn_ok {:txn [["append" 9 4]]}</text><text text-anchor="middle" x="300.1666203960727" y="-4" transform="rotate(180 300.1666203960727 0)" >txn_ok {:txn [["append" 9 4]]}</text></g><g transform="translate(300.0 850.0) rotate(1.9091524329963763) " ><rect x="0" y="-2.5" height="5" width="596.3332407921454" fill="#81BFFC" ><title >c2 → n0 {:txn [["append" 9 5] ["r" 9 nil]], :type "txn", :msg_id 11}</title></rect><use xlink:href="#ahead" x="600.3332407921454" y="0" /><text text-anchor="middle" x="300.1666203960727" y="-4" transform="" filter="url(#glow)" style="fill: #fff" >txn {:txn [["append" 9 5] ["r" 9 nil]]}</text><text text-anchor="middle" x="300.1666203960727" y="-4" transform="" >txn {:txn [["append" 9 5] ["r" 9 nil]]}</text></g><g transform="translate(900.0 890.0) rotate(178.0908475670036) " ><rect x="0" y="-2.5" height="5" width="596.3332407921454" fill="#81BFFC" ><title >n0 → c2 {:msg_id 12, :in_reply_to 11, :type "txn_ok", :txn [["append" 9 5] ["r" 9 [1 2 3 4 5]]]}</title></rect><use xlink:href="#ahead" x="600.3332407921454" y="0" /><text text-anchor="middle" x="300.1666203960727" y="-4" transform="rotate(180 300.1666203960727 0)" filter="url(#glow)" style="fill: #fff" >txn_ok {:txn [["append" 9 5] ["r" 9 [1 2 3 4 5]…</text><text text-anchor="middle" x="300.1666203960727" y="-4" transform="rotate(180 300.1666203960727 0)" >txn_ok {:txn [["append" 9 5] ["r" 9 [1 2 3 4 5]…</text></g><g transform="translate(300.0 930.0) rotate(1.9091524329963763) " ><rect x="0" y="-2.5" height="5" width="596.3332407921454" fill="#81BFFC" ><title >c2 → n0 {:txn [["r" 9 nil] ["append" 9 6]], :type "txn", :msg_id 12}</title></rect><use xlink:href="#ahead" x="600.3332407921454" y="0" /><text text-anchor="middle" x="300.1666203960727" y="-4" transform="" filter="url(#glow)" style="fill: #fff" >txn {:txn [["r" 9 nil] ["append" 9 6]]}</text><text text-anchor="middle" x="300.1666203960727" y="-4" transform="" >txn {:txn [["r" 9 nil] ["append" 9 6]]}</text></g><g transform="translate(900.0 970.0) rotate(178.0908475670036) " ><rect x="0" y="-2.5" height="5" width="596.3332407921454" fill="#FF1E90" ><title >n0 → c2 {:msg_id 13, :in_reply_to 12, :type "error", :code 14, :text "transaction aborted"}</title></rect><use xlink:href="#ahead" x="600.3332407921454" y="0" /><text text-anchor="middle" x="300.1666203960727" y="-4" transform="rotate(180 300.1666203960727 0)" filter="url(#glow)" style="fill: #fff" >error transaction aborted</text><text text-anchor="middle" x="300.1666203960727" y="-4" transform="rotate(180 300.1666203960727 0)" >error transaction aborted</text></g><g transform="translate(300.0 1010.0) rotate(1.9091524329963763) " ><rect x="0" y="-2.5" height="5" width="596.3332407921454" fill="#81BFFC" ><title >c2 → n0 {:txn [["r" 9 nil] ["r" 7 nil] ["r" 9 nil]], :type "txn", :msg_id 13}</title></rect><use xlink:href="#ahead" x="600.3332407921454" y="0" /><text text-anchor="middle" x="300.1666203960727" y="-4" transform="" filter="url(#glow)" style="fill: #fff" >txn {:txn [["r" 9 nil] ["r" 7 nil] ["r" 9 nil]]}</text><text text-anchor="middle" x="300.1666203960727" y="-4" transform="" >txn {:txn [["r" 9 nil] ["r" 7 nil] ["r" 9 nil]]}</text></g><g transform="translate(900.0 1050.0) rotate(178.0908475670036) " ><rect x="0" y="-2.5" height="5" width="596.3332407921454" fill="#81BFFC" ><title >n0 → c2 {:msg_id 14, :in_reply_to 13, :type "txn_ok", :txn [["r" 9 [1 2 3 4 5]] ["r" 7 [1 2 3]] ["r" 9 [1 2 3 4 5]]]}</title></rect><use xlink:href="#ahead" x="600.3332407921454" y="0" /><text text-anchor="middle" x="300.1666203960727" y="-4" transform="rotate(180 300.1666203960727 0)" filter="url(#glow)" style="fill: #fff" >txn_ok {:txn [["r" 9 [1 2 3 4 5]] ["r" 7 [1 2 3…</text><text text-anchor="middle" x="300.1666203960727" y="-4" transform="rotate(180 300.1666203960727 0)" >txn_ok {:txn [["r" 9 [1 2 3 4 5]] ["r" 7 [1 2 3…</text></g><g transform="translate(300.0 1090.0) rotate(1.9091524329963763) " ><rect x="0" y="-2.5" height="5" width="596.3332407921454" fill="#81BFFC" ><title >c2 → n0 {:txn [["r" 9 nil] ["r" 6 nil]], :type "txn", :msg_id 14}</title></rect><use xlink:href="#ahead" x="600.3332407921454" y="0" /><text text-anchor="middle" x="300.1666203960727" y="-4" transform="" filter="url(#glow)" style="fill: #fff" >txn {:txn [["r" 9 nil] ["r" 6 nil]]}</text><text text-anchor="middle" x="300.1666203960727" y="-4" transform="" >txn {:txn [["r" 9 nil] ["r" 6 nil]]}</text></g><g transform="translate(900.0 1130.0) rotate(178.0908475670036) " ><rect x="0" y="-2.5" height="5" width="596.3332407921454" fill="#81BFFC" ><title >n0 → c2 {:msg_id 15, :in_reply_to 14, :type "txn_ok", :txn [["r" 9 [1 2 3 4 5]] ["r" 6 [1]]]}</title></rect><use xlink:href="#ahead" x="600.3332407921454" y="0" /><text text-anchor="middle" x="300.1666203960727" y="-4" transform="rotate(180 300.1666203960727 0)" filter="url(#glow)" style="fill: #fff" >txn_ok {:txn [["r" 9 [1 2 3 4 5]] ["r" 6 [1]]]}</text><text text-anchor="middle" x="300.1666203960727" y="-4" transform="rotate(180 300.1666203960727 0)" >txn_ok {:txn [["r" 9 [1 2 3 4 5]] ["r" 6 [1]]]}</text></g></g></svg>