<?xml version="1.0" encoding="UTF-8"?><svg xmlns:svg="http://www.w3.org/2000/svg" xmlns="http://www.w3.org/2000/svg" xmlns:xlink="http://www.w3.org/1999/xlink" version="2.0" width="1200" height="1260" ><style >
svg {
  font-family: Helvetica, Arial, sans-serif;
  font-size: 11px;
}
rect {
  stroke-linecap: butt;
  stroke-width: 3;
  stroke: #fff;
/*  stroke-opacity: 1; */
}
rect:hover {
  stroke: #fff;
/*  stroke-opacity: 1; /*
}
polygon { fill: #000; }</style><defs ><polygon id="ahead" points="0 0, -12 4, -12 -4" /><filter id="glow" x="0" y="0" ><feGaussianBlur in="SourceAlpha" stdDeviation="2" result="blurred" /><feFlood flood-color="#fff" /><feComposite operator="in" in2="blurred" /><feComponentTransfer ><feFuncA type="linear" slope="10" intercept="0" /></feComponentTransfer><feMerge ><feMergeNode /><feMergeNode in="SourceGraphic" /></feMerge></filter></defs><g ><text x="50.0" y="20.0" text-anchor="middle" alignment-baseline="middle" fill="#000" >c10</text><text x="50.0" y="1020.0" text-anchor="middle" alignment-baseline="middle" fill="#aaa" >c10</text><text x="150.0" y="20.0" text-anchor="middle" alignment-baseline="middle" fill="#000" >c11</text><text x="150.0" y="1020.0" text-anchor="middle" alignment-baseline="middle" fill="#aaa" >c11</text><text x="250.0" y="20.0" text-anchor="middle" alignment-baseline="middle" fill="#000" >c12</text><text x="250.0" y="1020.0" text-anchor="middle" alignment-baseline="middle" fill="#aaa" >c12</text><text x="350.0" y="20.0" text-anchor="middle" alignment-baseline="middle" fill="#000" >c13</text><text x="350.0" y="1020.0" text-anchor="middle" alignment-baseline="middle" fill="#aaa" >c13</text><text x="450.0" y="20.0" text-anchor="middle" alignment-baseline="middle" fill="#000" >c14</text><text x="450.0" y="1020.0" text-anchor="middle" alignment-baseline="middle" fill="#aaa" >c14</text><text x="550.0" y="20.0" text-anchor="middle" alignment-baseline="middle" fill="#000" >c15</text><text x="550.0" y="1020.0" text-anchor="middle" alignment-baseline="middle" fill="#aaa" >c15</text><text x="650.0" y="20.0" text-anchor="middle" alignment-baseline="middle" fill="#000" >c16</text><text x="650.0" y="1020.0" text-anchor="middle" alignment-baseline="middle" fill="#aaa" >c16</text><text x="750.0" y="20.0" text-anchor="middle" alignment-baseline="middle" fill="#000" >n1</text><text x="750.0" y="1020.0" text-anchor="middle" alignment-baseline="middle" fill="#aaa" >n1</text><text x="850.0" y="20.0" text-anchor="middle" alignment-baseline="middle" fill="#000" >n2</text><text x="850.0" y="1020.0" text-anchor="middle" alignment-baseline="middle" fill="#aaa" >n2</text><text x="950.0" y="20.0" text-anchor="middle" alignment-baseline="middle" fill="#000" >n3</text><text x="950.0" y="1020.0" text-anchor="middle" alignment-baseline="middle" fill="#aaa" >n3</text><text x="1050.0" y="20.0" text-anchor="middle" alignment-baseline="middle" fill="#000" >n4</text><text x="1050.0" y="1020.0" text-anchor="middle" alignment-baseline="middle" fill="#aaa" >n4</text><text x="1150.0" y="20.0" text-anchor="middle" alignment-baseline="middle" fill="#000" >n5</text><text x="1150.0" y="1020.0" text-anchor="middle" alignment-baseline="middle" fill="#aaa" >n5</text></g><g ><line stroke="#ccc" x1="50.0" y1="30.0" x2="50.0" y2="1170.0" /><line stroke="#ccc" x1="150.0" y1="30.0" x2="150.0" y2="1170.0" /><line stroke="#ccc" x1="250.0" y1="30.0" x2="250.0" y2="1170.0" /><line stroke="#ccc" x1="350.0" y1="30.0" x2="350.0" y2="1170.0" /><line stroke="#ccc" x1="450.0" y1="30.0" x2="450.0" y2="1170.0" /><line stroke="#ccc" x1="550.0" y1="30.0" x2="550.0" y2="1170.0" /><line stroke="#ccc" x1="650.0" y1="30.0" x2="650.0" y2="1170.0" /><line stroke="#ccc" x1="750.0" y1="30.0" x2="750.0" y2="1170.0" /><line stroke="#ccc" x1="850.0" y1="30.0" x2="850.0" y2="1170.0" /><line stroke="#ccc" x1="950.0" y1="30.0" x2="950.0" y2="1170.0" /><line stroke="#ccc" x1="1050.0" y1="30.0" x2="1050.0" y2="1170.0" /><line stroke="#ccc" x1="1150.0" y1="30.0" x2="1150.0" y2="1170.0" /></g><g ><g transform="translate(750.0 50.0) rotate(11.309932474020215) " ><rect x="0" y="-2.5" height="5" width="97.9803902718557" fill="#000" ><title >n1 → n2 {:msg_id 2, :type "AppendEntries", :term 0, :prevIndex 0, :prevTerm 0, :entries [[["pass" nil] 0]], :commit 0}</title></rect><use xlink:href="#ahead" x="101.9803902718557" y="0" /><text text-anchor="middle" x="50.99019513592785" y="-4" transform="" filter="url(#glow)" style="fill: #fff" >AppendEntries {:term 0, :prevIndex 0, :prevTerm…</text><text text-anchor="middle" x="50.99019513592785" y="-4" transform="" >AppendEntries {:term 0, :prevIndex 0, :prevTerm…</text></g><g transform="translate(750.0 90.0) rotate(5.710593137499643) " ><rect x="0" y="-2.5" height="5" width="196.9975124224178" fill="#000" ><title >n1 → n3 {:msg_id 3, :type "AppendEntries", :term 0, :prevIndex 0, :prevTerm 0, :entries [[["pass" nil] 0]], :commit 0}</title></rect><use xlink:href="#ahead" x="200.9975124224178" y="0" /><text text-anchor="middle" x="100.4987562112089" y="-4" transform="" filter="url(#glow)" style="fill: #fff" >AppendEntries {:term 0, :prevIndex 0, :prevTerm…</text><text text-anchor="middle" x="100.4987562112089" y="-4" transform="" >AppendEntries {:term 0, :prevIndex 0, :prevTerm…</text></g><g transform="translate(750.0 130.0) rotate(3.8140748342903543) " ><rect x="0" y="-2.5" height="5" width="296.66592756745814" fill="#000" ><title >n1 → n4 {:msg_id 4, :type "AppendEntries", :term 0, :prevIndex 0, :prevTerm 0, :entries [[["pass" nil] 0]], :commit 0}</title></rect><use xlink:href="#ahead" x="300.66592756745814" y="0" /><text text-anchor="middle" x="150.33296378372907" y="-4" transform="" filter="url(#glow)" style="fill: #fff" >AppendEntries {:term 0, :prevIndex 0, :prevTerm…</text><text text-anchor="middle" x="150.33296378372907" y="-4" transform="" >AppendEntries {:term 0, :prevIndex 0, :prevTerm…</text></g><g transform="translate(750.0 170.0) rotate(2.862405226111748) " ><rect x="0" y="-2.5" height="5" width="396.4996878900157" fill="#000" ><title >n1 → n5 {:msg_id 5, :type "AppendEntries", :term 0, :prevIndex 0, :prevTerm 0, :entries [[["pass" nil] 0]], :commit 0}</title></rect><use xlink:href="#ahead" x="400.4996878900157" y="0" /><text text-anchor="middle" x="200.24984394500785" y="-4" transform="" filter="url(#glow)" style="fill: #fff" >AppendEntries {:term 0, :prevIndex 0, :prevTerm…</text><text text-anchor="middle" x="200.24984394500785" y="-4" transform="" >AppendEntries {:term 0, :prevIndex 0, :prevTerm…</text></g><g transform="translate(850.0 210.0) rotate(158.19859051364818) " ><rect x="0" y="-2.5" height="5" width="103.70329614269008" fill="#000" ><title >n2 → n1 {:msg_id 2, :in_reply_to 2, :type "AppendEntriesRes", :res true, :term 0, :next 1, :commit 0}</title></rect><use xlink:href="#ahead" x="107.70329614269008" y="0" /><text text-anchor="middle" x="53.85164807134504" y="-4" transform="rotate(180 53.85164807134504 0)" filter="url(#glow)" style="fill: #fff" >AppendEntriesRes {:res true, :term 0, :next 1, …</text><text text-anchor="middle" x="53.85164807134504" y="-4" transform="rotate(180 53.85164807134504 0)" >AppendEntriesRes {:res true, :term 0, :next 1, …</text></g><g transform="translate(950.0 230.0) rotate(163.3007557660064) " ><rect x="0" y="-2.5" height="5" width="204.806130178211" fill="#000" ><title >n3 → n1 {:msg_id 2, :in_reply_to 3, :type "AppendEntriesRes", :res true, :term 0, :next 1, :commit 0}</title></rect><use xlink:href="#ahead" x="208.806130178211" y="0" /><text text-anchor="middle" x="104.4030650891055" y="-4" transform="rotate(180 104.4030650891055 0)" filter="url(#glow)" style="fill: #fff" >AppendEntriesRes {:res true, :term 0, :next 1, …</text><text text-anchor="middle" x="104.4030650891055" y="-4" transform="rotate(180 104.4030650891055 0)" >AppendEntriesRes {:res true, :term 0, :next 1, …</text></g><g transform="translate(1050.0 270.0) rotate(172.40535663140858) " ><rect x="0" y="-2.5" height="5" width="298.65491900843114" fill="#000" ><title >n4 → n1 {:msg_id 2, :in_reply_to 4, :type "AppendEntriesRes", :res true, :term 0, :next 1, :commit 0}</title></rect><use xlink:href="#ahead" x="302.65491900843114" y="0" /><text text-anchor="middle" x="151.32745950421557" y="-4" transform="rotate(180 151.32745950421557 0)" filter="url(#glow)" style="fill: #fff" >AppendEntriesRes {:res true, :term 0, :next 1, …</text><text text-anchor="middle" x="151.32745950421557" y="-4" transform="rotate(180 151.32745950421557 0)" >AppendEntriesRes {:res true, :term 0, :next 1, …</text></g><g transform="translate(1150.0 330.0) rotate(177.13759477388828) " ><rect x="0" y="-2.5" height="5" width="396.4996878900157" fill="#000" ><title >n5 → n1 {:msg_id 2, :in_reply_to 5, :type "AppendEntriesRes", :res true, :term 0, :next 1, :commit 0}</title></rect><use xlink:href="#ahead" x="400.4996878900157" y="0" /><text text-anchor="middle" x="200.24984394500785" y="-4" transform="rotate(180 200.24984394500785 0)" filter="url(#glow)" style="fill: #fff" >AppendEntriesRes {:res true, :term 0, :next 1, …</text><text text-anchor="middle" x="200.24984394500785" y="-4" transform="rotate(180 200.24984394500785 0)" >AppendEntriesRes {:res true, :term 0, :next 1, …</text></g><g transform="translate(50.0 370.0) rotate(1.0416266760099742) " ><rect x="0" y="-2.5" height="5" width="1096.1818031580053" fill="#81BFFC" ><title >c10 → n5 {:key 0, :type "read", :msg_id 1}</title></rect><use xlink:href="#ahead" x="1100.1818031580053" y="0" /><text text-anchor="middle" x="550.0909015790027" y="-4" transform="" filter="url(#glow)" style="fill: #fff" >read {:key 0}</text><text text-anchor="middle" x="550.0909015790027" y="-4" transform="" >read {:key 0}</text></g><g transform="translate(1150.0 410.0) rotate(178.95837332399006) " ><rect x="0" y="-2.5" height="5" width="1096.1818031580053" fill="#FF1E90" ><title >n5 → c10 {:msg_id 3, :in_reply_to 1, :type "error", :code 11, :text "Not Leader"}</title></rect><use xlink:href="#ahead" x="1100.1818031580053" y="0" /><text text-anchor="middle" x="550.0909015790027" y="-4" transform="rotate(180 550.0909015790027 0)" filter="url(#glow)" style="fill: #fff" >error Not Leader</text><text text-anchor="middle" x="550.0909015790027" y="-4" transform="rotate(180 550.0909015790027 0)" >error Not Leader</text></g><g transform="translate(150.0 450.0) rotate(1.2730300200567113) " ><rect x="0" y="-2.5" height="5" width="896.222194794152" fill="#81BFFC" ><title >c11 → n4 {:key 1, :from 2, :to 4, :type "cas", :msg_id 1}</title></rect><use xlink:href="#ahead" x="900.222194794152" y="0" /><text text-anchor="middle" x="450.111097397076" y="-4" transform="" filter="url(#glow)" style="fill: #fff" >cas {:key 1, :from 2, :to 4}</text><text text-anchor="middle" x="450.111097397076" y="-4" transform="" >cas {:key 1, :from 2, :to 4}</text></g><g transform="translate(1050.0 490.0) rotate(178.7269699799433) " ><rect x="0" y="-2.5" height="5" width="896.222194794152" fill="#FF1E90" ><title >n4 → c11 {:msg_id 3, :in_reply_to 1, :type "error", :code 11, :text "Not Leader"}</title></rect><use xlink:href="#ahead" x="900.222194794152" y="0" /><text text-anchor="middle" x="450.111097397076" y="-4" transform="rotate(180 450.111097397076 0)" filter="url(#glow)" style="fill: #fff" >error Not Leader</text><text text-anchor="middle" x="450.111097397076" y="-4" transform="rotate(180 450.111097397076 0)" >error Not Leader</text></g><g transform="translate(250.0 530.0) rotate(1.2730300200567113) " ><rect x="0" y="-2.5" height="5" width="896.222194794152" fill="#81BFFC" ><title >c12 → n5 {:key 1, :value 3, :type "write", :msg_id 1}</title></rect><use xlink:href="#ahead" x="900.222194794152" y="0" /><text text-anchor="middle" x="450.111097397076" y="-4" transform="" filter="url(#glow)" style="fill: #fff" >write {:key 1, :value 3}</text><text text-anchor="middle" x="450.111097397076" y="-4" transform="" >write {:key 1, :value 3}</text></g><g transform="translate(1150.0 570.0) rotate(178.7269699799433) " ><rect x="0" y="-2.5" height="5" width="896.222194794152" fill="#FF1E90" ><title >n5 → c12 {:msg_id 4, :in_reply_to 1, :type "error", :code 11, :text "Not Leader"}</title></rect><use xlink:href="#ahead" x="900.222194794152" y="0" /><text text-anchor="middle" x="450.111097397076" y="-4" transform="rotate(180 450.111097397076 0)" filter="url(#glow)" style="fill: #fff" >error Not Leader</text><text text-anchor="middle" x="450.111097397076" y="-4" transform="rotate(180 450.111097397076 0)" >error Not Leader</text></g><g transform="translate(350.0 610.0) rotate(1.9091524329963763) " ><rect x="0" y="-2.5" height="5" width="596.3332407921454" fill="#81BFFC" ><title >c13 → n3 {:key 1, :value 0, :type "write", :msg_id 1}</title></rect><use xlink:href="#ahead" x="600.3332407921454" y="0" /><text text-anchor="middle" x="300.1666203960727" y="-4" transform="" filter="url(#glow)" style="fill: #fff" >write {:key 1, :value 0}</text><text text-anchor="middle" x="300.1666203960727" y="-4" transform="" >write {:key 1, :value 0}</text></g><g transform="translate(950.0 650.0) rotate(178.0908475670036) " ><rect x="0" y="-2.5" height="5" width="596.3332407921454" fill="#FF1E90" ><title >n3 → c13 {:msg_id 3, :in_reply_to 1, :type "error", :code 11, :text "Not Leader"}</title></rect><use xlink:href="#ahead" x="600.3332407921454" y="0" /><text text-anchor="middle" x="300.1666203960727" y="-4" transform="rotate(180 300.1666203960727 0)" filter="url(#glow)" style="fill: #fff" >error Not Leader</text><text text-anchor="middle" x="300.1666203960727" y="-4" transform="rotate(180 300.1666203960727 0)" >error Not Leader</text></g><g transform="translate(450.0 690.0) rotate(3.8140748342903543) " ><rect x="0" y="-2.5" height="5" width="296.66592756745814" fill="#81BFFC" ><title >c14 → n1 {:key 0, :type "read", :msg_id 1}</title></rect><use xlink:href="#ahead" x="300.66592756745814" y="0" /><text text-anchor="middle" x="150.33296378372907" y="-4" transform="" filter="url(#glow)" style="fill: #fff" >read {:key 0}</text><text text-anchor="middle" x="150.33296378372907" y="-4" transform="" >read {:key 0}</text></g><g transform="translate(750.0 730.0) rotate(176.18592516570965) " ><rect x="0" y="-2.5" height="5" width="296.66592756745814" fill="#FF1E90" ><title >n1 → c14 {:msg_id 6, :in_reply_to 1, :type "error", :code 20, :text "Invalid Key"}</title></rect><use xlink:href="#ahead" x="300.66592756745814" y="0" /><text text-anchor="middle" x="150.33296378372907" y="-4" transform="rotate(180 150.33296378372907 0)" filter="url(#glow)" style="fill: #fff" >error Invalid Key</text><text text-anchor="middle" x="150.33296378372907" y="-4" transform="rotate(180 150.33296378372907 0)" >error Invalid Key</text></g><g transform="translate(550.0 770.0) rotate(3.8140748342903543) " ><rect x="0" y="-2.5" height="5" width="296.66592756745814" fill="#81BFFC" ><title >c15 → n2 {:key 1, :from 4, :to 1, :type "cas", :msg_id 1}</title></rect><use xlink:href="#ahead" x="300.66592756745814" y="0" /><text text-anchor="middle" x="150.33296378372907" y="-4" transform="" filter="url(#glow)" style="fill: #fff" >cas {:key 1, :from 4, :to 1}</text><text text-anchor="middle" x="150.33296378372907" y="-4" transform="" >cas {:key 1, :from 4, :to 1}</text></g><g transform="translate(850.0 810.0) rotate(176.18592516570965) " ><rect x="0" y="-2.5" height="5" width="296.66592756745814" fill="#FF1E90" ><title >n2 → c15 {:msg_id 3, :in_reply_to 1, :type "error", :code 11, :text "Not Leader"}</title></rect><use xlink:href="#ahead" x="300.66592756745814" y="0" /><text text-anchor="middle" x="150.33296378372907" y="-4" transform="rotate(180 150.33296378372907 0)" filter="url(#glow)" style="fill: #fff" >error Not Leader</text><text text-anchor="middle" x="150.33296378372907" y="-4" transform="rotate(180 150.33296378372907 0)" >error Not Leader</text></g><g transform="translate(550.0 850.0) rotate(3.8140748342903543) " ><rect x="0" y="-2.5" height="5" width="296.66592756745814" fill="#81BFFC" ><title >c15 → n2 {:key 1, :value 4, :type "write", :msg_id 2}</title></rect><use xlink:href="#ahead" x="300.66592756745814" y="0" /><text text-anchor="middle" x="150.33296378372907" y="-4" transform="" filter="url(#glow)" style="fill: #fff" >write {:key 1, :value 4}</text><text text-anchor="middle" x="150.33296378372907" y="-4" transform="" >write {:key 1, :value 4}</text></g><g transform="translate(850.0 890.0) rotate(176.18592516570965) " ><rect x="0" y="-2.5" height="5" width="296.66592756745814" fill="#FF1E90" ><title >n2 → c15 {:msg_id 4, :in_reply_to 2, :type "error", :code 11, :text "Not Leader"}</title></rect><use xlink:href="#ahead" x="300.66592756745814" y="0" /><text text-anchor="middle" x="150.33296378372907" y="-4" transform="rotate(180 150.33296378372907 0)" filter="url(#glow)" style="fill: #fff" >error Not Leader</text><text text-anchor="middle" x="150.33296378372907" y="-4" transform="rotate(180 150.33296378372907 0)" >error Not Leader</text></g><g transform="translate(650.0 930.0) rotate(2.862405226111748) " ><rect x="0" y="-2.5" height="5" width="396.4996878900157" fill="#81BFFC" ><title >c16 → n4 {:key 1, :from 2, :to 1, :type "cas", :msg_id 1}</title></rect><use xlink:href="#ahead" x="400.4996878900157" y="0" /><text text-anchor="middle" x="200.24984394500785" y="-4" transform="" filter="url(#glow)" style="fill: #fff" >cas {:key 1, :from 2, :to 1}</text><text text-anchor="middle" x="200.24984394500785" y="-4" transform="" >cas {:key 1, :from 2, :to 1}</text></g><g transform="translate(1050.0 970.0) rotate(177.13759477388828) " ><rect x="0" y="-2.5" height="5" width="396.4996878900157" fill="#FF1E90" ><title >n4 → c16 {:msg_id 4, :in_reply_to 1, :type "error", :code 11, :text "Not Leader"}</title></rect><use xlink:href="#ahead" x="400.4996878900157" y="0" /><text text-anchor="middle" x="200.24984394500785" y="-4" transform="rotate(180 200.24984394500785 0)" filter="url(#glow)" style="fill: #fff" >error Not Leader</text><text text-anchor="middle" x="200.24984394500785" y="-4" transform="rotate(180 200.24984394500785 0)" >error Not Leader</text></g><g transform="translate(650.0 1010.0) rotate(2.862405226111748) " ><rect x="0" y="-2.5" height="5" width="396.4996878900157" fill="#81BFFC" ><title >c16 → n4 {:key 1, :from 3, :to 4, :type "cas", :msg_id 2}</title></rect><use xlink:href="#ahead" x="400.4996878900157" y="0" /><text text-anchor="middle" x="200.24984394500785" y="-4" transform="" filter="url(#glow)" style="fill: #fff" >cas {:key 1, :from 3, :to 4}</text><text text-anchor="middle" x="200.24984394500785" y="-4" transform="" >cas {:key 1, :from 3, :to 4}</text></g><g transform="translate(1050.0 1050.0) rotate(177.13759477388828) " ><rect x="0" y="-2.5" height="5" width="396.4996878900157" fill="#FF1E90" ><title >n4 → c16 {:msg_id 5, :in_reply_to 2, :type "error", :code 11, :text "Not Leader"}</title></rect><use xlink:href="#ahead" x="400.4996878900157" y="0" /><text text-anchor="middle" x="200.24984394500785" y="-4" transform="rotate(180 200.24984394500785 0)" filter="url(#glow)" style="fill: #fff" >error Not Leader</text><text text-anchor="middle" x="200.24984394500785" y="-4" transform="rotate(180 200.24984394500785 0)" >error Not Leader</text></g><g transform="translate(450.0 1090.0) rotate(3.8140748342903543) " ><rect x="0" y="-2.5" height="5" width="296.66592756745814" fill="#81BFFC" ><title >c14 → n1 {:key 0, :type "read", :msg_id 2}</title></rect><use xlink:href="#ahead" x="300.66592756745814" y="0" /><text text-anchor="middle" x="150.33296378372907" y="-4" transform="" filter="url(#glow)" style="fill: #fff" >read {:key 0}</text><text text-anchor="middle" x="150.33296378372907" y="-4" transform="" >read {:key 0}</text></g><g transform="translate(750.0 1130.0) rotate(176.18592516570965) " ><rect x="0" y="-2.5" height="5" width="296.66592756745814" fill="#FF1E90" ><title >n1 → c14 {:msg_id 7, :in_reply_to 2, :type "error", :code 20, :text "Invalid Key"}</title></rect><use xlink:href="#ahead" x="300.66592756745814" y="0" /><text text-anchor="middle" x="150.33296378372907" y="-4" transform="rotate(180 150.33296378372907 0)" filter="url(#glow)" style="fill: #fff" >error Invalid Key</text><text text-anchor="middle" x="150.33296378372907" y="-4" transform="rotate(180 150.33296378372907 0)" >error Invalid Key</text></g></g></svg>