<?xml version="1.0" encoding="UTF-8" standalone="no"?>
<!DOCTYPE svg PUBLIC "-//W3C//DTD SVG 1.1//EN"
 "http://www.w3.org/Graphics/SVG/1.1/DTD/svg11.dtd">
<!-- Generated by graphviz version 3.0.0 (0)
 -->
<!-- Title: a_graph Pages: 1 -->
<svg width="211pt" height="281pt"
 viewBox="0.00 0.00 211.50 281.00" xmlns="http://www.w3.org/2000/svg" xmlns:xlink="http://www.w3.org/1999/xlink">
<g id="graph0" class="graph" transform="scale(1 1) rotate(0) translate(4 277)">
<title>a_graph</title>
<polygon fill="white" stroke="transparent" points="-4,4 -4,-277 207.5,-277 207.5,4 -4,4"/>
<!-- T3 -->
<g id="node1" class="node">
<title>T3</title>
<polygon fill="none" stroke="#0058ad" points="10.5,-243.5 10.5,-272.5 155.5,-272.5 155.5,-243.5 10.5,-243.5"/>
<text text-anchor="middle" x="35.5" y="-254.3" font-family="Times,serif" font-size="14.00" fill="#0058ad">r 9 nil</text>
<polyline fill="none" stroke="#0058ad" points="60.5,-243.5 60.5,-272.5 "/>
<text text-anchor="middle" x="82.5" y="-254.3" font-family="Times,serif" font-size="14.00" fill="#0058ad">a 8 1</text>
<polyline fill="none" stroke="#0058ad" points="104.5,-243.5 104.5,-272.5 "/>
<text text-anchor="middle" x="130" y="-254.3" font-family="Times,serif" font-size="14.00" fill="#0058ad">r 8 [1]</text>
</g>
<!-- T6 -->
<g id="node2" class="node">
<title>T6</title>
<polygon fill="none" stroke="#0058ad" points="8.5,-162.5 8.5,-191.5 203.5,-191.5 203.5,-162.5 8.5,-162.5"/>
<text text-anchor="middle" x="33.5" y="-173.3" font-family="Times,serif" font-size="14.00" fill="#0058ad">r 8 nil</text>
<polyline fill="none" stroke="#0058ad" points="58.5,-162.5 58.5,-191.5 "/>
<text text-anchor="middle" x="80.5" y="-173.3" font-family="Times,serif" font-size="14.00" fill="#0058ad">a 9 3</text>
<polyline fill="none" stroke="#0058ad" points="102.5,-162.5 102.5,-191.5 "/>
<text text-anchor="middle" x="127.5" y="-173.3" font-family="Times,serif" font-size="14.00" fill="#0058ad">r 8 nil</text>
<polyline fill="none" stroke="#0058ad" points="152.5,-162.5 152.5,-191.5 "/>
<text text-anchor="middle" x="178" y="-173.3" font-family="Times,serif" font-size="14.00" fill="#0058ad">r 9 [3]</text>
</g>
<!-- T3&#45;&gt;T6 -->
<g id="edge1" class="edge">
<title>T3:f0&#45;&gt;T6:f1</title>
<path fill="none" stroke="#5b00c0" d="M35,-243C35,-228.09 31.87,-221.78 41,-210 49.68,-198.8 66.96,-204.83 75.29,-200.87"/>
<polygon fill="#5b00c0" stroke="#5b00c0" points="78.4,-202.47 80,-192 72.22,-199.19 78.4,-202.47"/>
<text text-anchor="middle" x="48.5" y="-213.8" font-family="Times,serif" font-size="14.00" fill="#5b00c0">rw</text>
</g>
<!-- T6&#45;&gt;T3 -->
<g id="edge3" class="edge">
<title>T6:f0&#45;&gt;T3:f1</title>
<path fill="none" stroke="#5b00c0" d="M33,-192C33,-204.98 46.81,-200.84 56,-210 66.33,-220.3 76.39,-223.25 80.3,-232.95"/>
<polygon fill="#5b00c0" stroke="#5b00c0" points="76.88,-233.73 82,-243 83.78,-232.56 76.88,-233.73"/>
<text text-anchor="middle" x="82.5" y="-213.8" font-family="Times,serif" font-size="14.00" fill="#5b00c0">rw</text>
</g>
<!-- T10 -->
<g id="node3" class="node">
<title>T10</title>
<polygon fill="none" stroke="#0058ad" points="110,-81.5 110,-110.5 164,-110.5 164,-81.5 110,-81.5"/>
<text text-anchor="middle" x="137" y="-92.3" font-family="Times,serif" font-size="14.00" fill="#0058ad">a 8 2</text>
</g>
<!-- T6&#45;&gt;T10 -->
<g id="edge2" class="edge">
<title>T6&#45;&gt;T10</title>
<path fill="none" stroke="#0050c0" d="M111.4,-162.24C115.93,-150.68 122.51,-133.93 127.86,-120.29"/>
<polygon fill="#0050c0" stroke="#0050c0" points="131.27,-121.19 131.66,-110.6 124.75,-118.63 131.27,-121.19"/>
<text text-anchor="middle" x="128.5" y="-132.8" font-family="Times,serif" font-size="14.00" fill="#0050c0">rt</text>
</g>
<!-- T12 -->
<g id="node4" class="node">
<title>T12</title>
<polygon fill="none" stroke="#0058ad" points="0,-0.5 0,-29.5 150,-29.5 150,-0.5 0,-0.5"/>
<text text-anchor="middle" x="25" y="-11.3" font-family="Times,serif" font-size="14.00" fill="#0058ad">r 7 nil</text>
<polyline fill="none" stroke="#0058ad" points="50,-0.5 50,-29.5 "/>
<text text-anchor="middle" x="75" y="-11.3" font-family="Times,serif" font-size="14.00" fill="#0058ad">r 4 nil</text>
<polyline fill="none" stroke="#0058ad" points="100,-0.5 100,-29.5 "/>
<text text-anchor="middle" x="125" y="-11.3" font-family="Times,serif" font-size="14.00" fill="#0058ad">r 9 nil</text>
</g>
<!-- T10&#45;&gt;T12 -->
<g id="edge4" class="edge">
<title>T10&#45;&gt;T12</title>
<path fill="none" stroke="#0050c0" d="M126.2,-81.24C116.78,-69.23 102.94,-51.6 92.03,-37.7"/>
<polygon fill="#0050c0" stroke="#0050c0" points="94.6,-35.31 85.68,-29.6 89.1,-39.63 94.6,-35.31"/>
<text text-anchor="middle" x="115.5" y="-51.8" font-family="Times,serif" font-size="14.00" fill="#0050c0">rt</text>
</g>
<!-- T12&#45;&gt;T6 -->
<g id="edge5" class="edge">
<title>T12:f2&#45;&gt;T6:f1</title>
<path fill="none" stroke="#5b00c0" d="M125,-30C125,-45.17 105.24,-35.97 96,-48 66.97,-85.81 78.14,-107.71 79.81,-151.9"/>
<polygon fill="#5b00c0" stroke="#5b00c0" points="76.31,-152.07 80,-162 83.31,-151.93 76.31,-152.07"/>
<text text-anchor="middle" x="86.5" y="-92.3" font-family="Times,serif" font-size="14.00" fill="#5b00c0">rw</text>
</g>
</g>
</svg>
