<?xml version="1.0" encoding="UTF-8"?><svg xmlns:svg="http://www.w3.org/2000/svg" xmlns="http://www.w3.org/2000/svg" xmlns:xlink="http://www.w3.org/1999/xlink" version="2.0" width="1200" height="1340" ><style >
svg {
  font-family: Helvetica, Arial, sans-serif;
  font-size: 11px;
}
rect {
  stroke-linecap: butt;
  stroke-width: 3;
  stroke: #fff;
/*  stroke-opacity: 1; */
}
rect:hover {
  stroke: #fff;
/*  stroke-opacity: 1; /*
}
polygon { fill: #000; }</style><defs ><polygon id="ahead" points="0 0, -12 4, -12 -4" /><filter id="glow" x="0" y="0" ><feGaussianBlur in="SourceAlpha" stdDeviation="2" result="blurred" /><feFlood flood-color="#fff" /><feComposite operator="in" in2="blurred" /><feComponentTransfer ><feFuncA type="linear" slope="10" intercept="0" /></feComponentTransfer><feMerge ><feMergeNode /><feMergeNode in="SourceGraphic" /></feMerge></filter></defs><g ><text x="42.857143" y="20.0" text-anchor="middle" alignment-baseline="middle" fill="#000" >c10</text><text x="42.857143" y="1020.0" text-anchor="middle" alignment-baseline="middle" fill="#aaa" >c10</text><text x="128.57143" y="20.0" text-anchor="middle" alignment-baseline="middle" fill="#000" >c11</text><text x="128.57143" y="1020.0" text-anchor="middle" alignment-baseline="middle" fill="#aaa" >c11</text><text x="214.28572" y="20.0" text-anchor="middle" alignment-baseline="middle" fill="#000" >c12</text><text x="214.28572" y="1020.0" text-anchor="middle" alignment-baseline="middle" fill="#aaa" >c12</text><text x="300.0" y="20.0" text-anchor="middle" alignment-baseline="middle" fill="#000" >c13</text><text x="300.0" y="1020.0" text-anchor="middle" alignment-baseline="middle" fill="#aaa" >c13</text><text x="385.7143" y="20.0" text-anchor="middle" alignment-baseline="middle" fill="#000" >c14</text><text x="385.7143" y="1020.0" text-anchor="middle" alignment-baseline="middle" fill="#aaa" >c14</text><text x="471.42856" y="20.0" text-anchor="middle" alignment-baseline="middle" fill="#000" >c15</text><text x="471.42856" y="1020.0" text-anchor="middle" alignment-baseline="middle" fill="#aaa" >c15</text><text x="557.1429" y="20.0" text-anchor="middle" alignment-baseline="middle" fill="#000" >c16</text><text x="557.1429" y="1020.0" text-anchor="middle" alignment-baseline="middle" fill="#aaa" >c16</text><text x="642.8571" y="20.0" text-anchor="middle" alignment-baseline="middle" fill="#000" >c17</text><text x="642.8571" y="1020.0" text-anchor="middle" alignment-baseline="middle" fill="#aaa" >c17</text><text x="728.5714" y="20.0" text-anchor="middle" alignment-baseline="middle" fill="#000" >c18</text><text x="728.5714" y="1020.0" text-anchor="middle" alignment-baseline="middle" fill="#aaa" >c18</text><text x="814.2857" y="20.0" text-anchor="middle" alignment-baseline="middle" fill="#000" >n1</text><text x="814.2857" y="1020.0" text-anchor="middle" alignment-baseline="middle" fill="#aaa" >n1</text><text x="900.0" y="20.0" text-anchor="middle" alignment-baseline="middle" fill="#000" >n2</text><text x="900.0" y="1020.0" text-anchor="middle" alignment-baseline="middle" fill="#aaa" >n2</text><text x="985.7143" y="20.0" text-anchor="middle" alignment-baseline="middle" fill="#000" >n3</text><text x="985.7143" y="1020.0" text-anchor="middle" alignment-baseline="middle" fill="#aaa" >n3</text><text x="1071.4286" y="20.0" text-anchor="middle" alignment-baseline="middle" fill="#000" >n4</text><text x="1071.4286" y="1020.0" text-anchor="middle" alignment-baseline="middle" fill="#aaa" >n4</text><text x="1157.1428" y="20.0" text-anchor="middle" alignment-baseline="middle" fill="#000" >n5</text><text x="1157.1428" y="1020.0" text-anchor="middle" alignment-baseline="middle" fill="#aaa" >n5</text></g><g ><line stroke="#ccc" x1="42.857143" y1="30.0" x2="42.857143" y2="1250.0" /><line stroke="#ccc" x1="128.57143" y1="30.0" x2="128.57143" y2="1250.0" /><line stroke="#ccc" x1="214.28572" y1="30.0" x2="214.28572" y2="1250.0" /><line stroke="#ccc" x1="300.0" y1="30.0" x2="300.0" y2="1250.0" /><line stroke="#ccc" x1="385.7143" y1="30.0" x2="385.7143" y2="1250.0" /><line stroke="#ccc" x1="471.42856" y1="30.0" x2="471.42856" y2="1250.0" /><line stroke="#ccc" x1="557.1429" y1="30.0" x2="557.1429" y2="1250.0" /><line stroke="#ccc" x1="642.8571" y1="30.0" x2="642.8571" y2="1250.0" /><line stroke="#ccc" x1="728.5714" y1="30.0" x2="728.5714" y2="1250.0" /><line stroke="#ccc" x1="814.2857" y1="30.0" x2="814.2857" y2="1250.0" /><line stroke="#ccc" x1="900.0" y1="30.0" x2="900.0" y2="1250.0" /><line stroke="#ccc" x1="985.7143" y1="30.0" x2="985.7143" y2="1250.0" /><line stroke="#ccc" x1="1071.4286" y1="30.0" x2="1071.4286" y2="1250.0" /><line stroke="#ccc" x1="1157.1428" y1="30.0" x2="1157.1428" y2="1250.0" /></g><g ><g transform="translate(814.2857 50.0) rotate(13.13402101664945) " ><rect x="0" y="-2.5" height="5" width="84.01670449550359" fill="#000" ><title >n1 → n2 {:msg_id 2, :type "AppendEntries", :term 0, :prevIndex 0, :prevTerm 0, :entries [[["pass" nil] 0]], :commit 0}</title></rect><use xlink:href="#ahead" x="88.01670449550359" y="0" /><text text-anchor="middle" x="44.008352247751795" y="-4" transform="" filter="url(#glow)" style="fill: #fff" >AppendEntries {:term 0, :prevIndex 0, :prevTerm…</text><text text-anchor="middle" x="44.008352247751795" y="-4" transform="" >AppendEntries {:term 0, :prevIndex 0, :prevTerm…</text></g><g transform="translate(814.2857 90.0) rotate(6.654424375154429) " ><rect x="0" y="-2.5" height="5" width="168.5913122987226" fill="#000" ><title >n1 → n3 {:msg_id 3, :type "AppendEntries", :term 0, :prevIndex 0, :prevTerm 0, :entries [[["pass" nil] 0]], :commit 0}</title></rect><use xlink:href="#ahead" x="172.5913122987226" y="0" /><text text-anchor="middle" x="86.2956561493613" y="-4" transform="" filter="url(#glow)" style="fill: #fff" >AppendEntries {:term 0, :prevIndex 0, :prevTerm…</text><text text-anchor="middle" x="86.2956561493613" y="-4" transform="" >AppendEntries {:term 0, :prevIndex 0, :prevTerm…</text></g><g transform="translate(814.2857 130.0) rotate(4.44738439949418) " ><rect x="0" y="-2.5" height="5" width="253.91948827539034" fill="#000" ><title >n1 → n4 {:msg_id 4, :type "AppendEntries", :term 0, :prevIndex 0, :prevTerm 0, :entries [[["pass" nil] 0]], :commit 0}</title></rect><use xlink:href="#ahead" x="257.91948827539034" y="0" /><text text-anchor="middle" x="128.95974413769517" y="-4" transform="" filter="url(#glow)" style="fill: #fff" >AppendEntries {:term 0, :prevIndex 0, :prevTerm…</text><text text-anchor="middle" x="128.95974413769517" y="-4" transform="" >AppendEntries {:term 0, :prevIndex 0, :prevTerm…</text></g><g transform="translate(900.0 170.0) rotate(166.86597898335057) " ><rect x="0" y="-2.5" height="5" width="84.01670449550359" fill="#000" ><title >n2 → n1 {:msg_id 2, :in_reply_to 2, :type "AppendEntriesRes", :res true, :term 0, :next 1, :commit 0}</title></rect><use xlink:href="#ahead" x="88.01670449550359" y="0" /><text text-anchor="middle" x="44.008352247751795" y="-4" transform="rotate(180 44.008352247751795 0)" filter="url(#glow)" style="fill: #fff" >AppendEntriesRes {:res true, :term 0, :next 1, …</text><text text-anchor="middle" x="44.008352247751795" y="-4" transform="rotate(180 44.008352247751795 0)" >AppendEntriesRes {:res true, :term 0, :next 1, …</text></g><g transform="translate(985.7143 210.0) rotate(166.86597898335057) " ><rect x="0" y="-2.5" height="5" width="172.03340899100718" fill="#000" ><title >n3 → n1 {:msg_id 2, :in_reply_to 3, :type "AppendEntriesRes", :res true, :term 0, :next 1, :commit 0}</title></rect><use xlink:href="#ahead" x="176.03340899100718" y="0" /><text text-anchor="middle" x="88.01670449550359" y="-4" transform="rotate(180 88.01670449550359 0)" filter="url(#glow)" style="fill: #fff" >AppendEntriesRes {:res true, :term 0, :next 1, …</text><text text-anchor="middle" x="88.01670449550359" y="-4" transform="rotate(180 88.01670449550359 0)" >AppendEntriesRes {:res true, :term 0, :next 1, …</text></g><g transform="translate(814.2857 230.0) rotate(6.654425549145808) " ><rect x="0" y="-2.5" height="5" width="341.1825639734743" fill="#000" ><title >n1 → n5 {:msg_id 5, :type "AppendEntries", :term 0, :prevIndex 0, :prevTerm 0, :entries [[["pass" nil] 0]], :commit 0}</title></rect><use xlink:href="#ahead" x="345.1825639734743" y="0" /><text text-anchor="middle" x="172.59128198673716" y="-4" transform="" filter="url(#glow)" style="fill: #fff" >AppendEntries {:term 0, :prevIndex 0, :prevTerm…</text><text text-anchor="middle" x="172.59128198673716" y="-4" transform="" >AppendEntries {:term 0, :prevIndex 0, :prevTerm…</text></g><g transform="translate(1071.4286 290.0) rotate(175.55261560050582) " ><rect x="0" y="-2.5" height="5" width="253.91948827539034" fill="#000" ><title >n4 → n1 {:msg_id 2, :in_reply_to 4, :type "AppendEntriesRes", :res true, :term 0, :next 1, :commit 0}</title></rect><use xlink:href="#ahead" x="257.91948827539034" y="0" /><text text-anchor="middle" x="128.95974413769517" y="-4" transform="rotate(180 128.95974413769517 0)" filter="url(#glow)" style="fill: #fff" >AppendEntriesRes {:res true, :term 0, :next 1, …</text><text text-anchor="middle" x="128.95974413769517" y="-4" transform="rotate(180 128.95974413769517 0)" >AppendEntriesRes {:res true, :term 0, :next 1, …</text></g><g transform="translate(1157.1428 330.0) rotate(176.66152920210666) " ><rect x="0" y="-2.5" height="5" width="339.43995468102094" fill="#000" ><title >n5 → n1 {:msg_id 2, :in_reply_to 5, :type "AppendEntriesRes", :res true, :term 0, :next 1, :commit 0}</title></rect><use xlink:href="#ahead" x="343.43995468102094" y="0" /><text text-anchor="middle" x="171.71997734051047" y="-4" transform="rotate(180 171.71997734051047 0)" filter="url(#glow)" style="fill: #fff" >AppendEntriesRes {:res true, :term 0, :next 1, …</text><text text-anchor="middle" x="171.71997734051047" y="-4" transform="rotate(180 171.71997734051047 0)" >AppendEntriesRes {:res true, :term 0, :next 1, …</text></g><g transform="translate(42.857143 370.0) rotate(1.2151827724863415) " ><rect x="0" y="-2.5" height="5" width="939.069248385942" fill="#81BFFC" ><title >c10 → n3 {:key 1, :from 4, :to 0, :type "cas", :msg_id 1}</title></rect><use xlink:href="#ahead" x="943.069248385942" y="0" /><text text-anchor="middle" x="471.534624192971" y="-4" transform="" filter="url(#glow)" style="fill: #fff" >cas {:key 1, :from 4, :to 0}</text><text text-anchor="middle" x="471.534624192971" y="-4" transform="" >cas {:key 1, :from 4, :to 0}</text></g><g transform="translate(985.7143 410.0) rotate(178.78481722751366) " ><rect x="0" y="-2.5" height="5" width="939.069248385942" fill="#FF1E90" ><title >n3 → c10 {:msg_id 3, :in_reply_to 1, :type "error", :code 11, :text "Not Leader"}</title></rect><use xlink:href="#ahead" x="943.069248385942" y="0" /><text text-anchor="middle" x="471.534624192971" y="-4" transform="rotate(180 471.534624192971 0)" filter="url(#glow)" style="fill: #fff" >error Not Leader</text><text text-anchor="middle" x="471.534624192971" y="-4" transform="rotate(180 471.534624192971 0)" >error Not Leader</text></g><g transform="translate(128.57143 450.0) rotate(1.1139442621358324) " ><rect x="0" y="-2.5" height="5" width="1024.7658219489201" fill="#81BFFC" ><title >c11 → n5 {:key 0, :from 0, :to 0, :type "cas", :msg_id 1}</title></rect><use xlink:href="#ahead" x="1028.7658219489201" y="0" /><text text-anchor="middle" x="514.3829109744601" y="-4" transform="" filter="url(#glow)" style="fill: #fff" >cas {:key 0, :from 0, :to 0}</text><text text-anchor="middle" x="514.3829109744601" y="-4" transform="" >cas {:key 0, :from 0, :to 0}</text></g><g transform="translate(1157.1428 490.0) rotate(178.88605573786418) " ><rect x="0" y="-2.5" height="5" width="1024.7658219489201" fill="#FF1E90" ><title >n5 → c11 {:msg_id 3, :in_reply_to 1, :type "error", :code 11, :text "Not Leader"}</title></rect><use xlink:href="#ahead" x="1028.7658219489201" y="0" /><text text-anchor="middle" x="514.3829109744601" y="-4" transform="rotate(180 514.3829109744601 0)" filter="url(#glow)" style="fill: #fff" >error Not Leader</text><text text-anchor="middle" x="514.3829109744601" y="-4" transform="rotate(180 514.3829109744601 0)" >error Not Leader</text></g><g transform="translate(214.28572 530.0) rotate(1.2151828363816417) " ><rect x="0" y="-2.5" height="5" width="939.0691988060307" fill="#81BFFC" ><title >c12 → n5 {:key 1, :value 0, :type "write", :msg_id 1}</title></rect><use xlink:href="#ahead" x="943.0691988060307" y="0" /><text text-anchor="middle" x="471.53459940301536" y="-4" transform="" filter="url(#glow)" style="fill: #fff" >write {:key 1, :value 0}</text><text text-anchor="middle" x="471.53459940301536" y="-4" transform="" >write {:key 1, :value 0}</text></g><g transform="translate(1157.1428 570.0) rotate(178.78481716361836) " ><rect x="0" y="-2.5" height="5" width="939.0691988060307" fill="#FF1E90" ><title >n5 → c12 {:msg_id 4, :in_reply_to 1, :type "error", :code 11, :text "Not Leader"}</title></rect><use xlink:href="#ahead" x="943.0691988060307" y="0" /><text text-anchor="middle" x="471.53459940301536" y="-4" transform="rotate(180 471.53459940301536 0)" filter="url(#glow)" style="fill: #fff" >error Not Leader</text><text text-anchor="middle" x="471.53459940301536" y="-4" transform="rotate(180 471.53459940301536 0)" >error Not Leader</text></g><g transform="translate(300.0 610.0) rotate(1.9091524329963763) " ><rect x="0" y="-2.5" height="5" width="596.3332407921454" fill="#81BFFC" ><title >c13 → n2 {:key 1, :from 4, :to 2, :type "cas", :msg_id 1}</title></rect><use xlink:href="#ahead" x="600.3332407921454" y="0" /><text text-anchor="middle" x="300.1666203960727" y="-4" transform="" filter="url(#glow)" style="fill: #fff" >cas {:key 1, :from 4, :to 2}</text><text text-anchor="middle" x="300.1666203960727" y="-4" transform="" >cas {:key 1, :from 4, :to 2}</text></g><g transform="translate(900.0 650.0) rotate(178.0908475670036) " ><rect x="0" y="-2.5" height="5" width="596.3332407921454" fill="#FF1E90" ><title >n2 → c13 {:msg_id 3, :in_reply_to 1, :type "error", :code 11, :text "Not Leader"}</title></rect><use xlink:href="#ahead" x="600.3332407921454" y="0" /><text text-anchor="middle" x="300.1666203960727" y="-4" transform="rotate(180 300.1666203960727 0)" filter="url(#glow)" style="fill: #fff" >error Not Leader</text><text text-anchor="middle" x="300.1666203960727" y="-4" transform="rotate(180 300.1666203960727 0)" >error Not Leader</text></g><g transform="translate(42.857143 690.0) rotate(1.2151827724863415) " ><rect x="0" y="-2.5" height="5" width="939.069248385942" fill="#81BFFC" ><title >c10 → n3 {:key 1, :from 1, :to 4, :type "cas", :msg_id 2}</title></rect><use xlink:href="#ahead" x="943.069248385942" y="0" /><text text-anchor="middle" x="471.534624192971" y="-4" transform="" filter="url(#glow)" style="fill: #fff" >cas {:key 1, :from 1, :to 4}</text><text text-anchor="middle" x="471.534624192971" y="-4" transform="" >cas {:key 1, :from 1, :to 4}</text></g><g transform="translate(985.7143 730.0) rotate(178.78481722751366) " ><rect x="0" y="-2.5" height="5" width="939.069248385942" fill="#FF1E90" ><title >n3 → c10 {:msg_id 4, :in_reply_to 2, :type "error", :code 11, :text "Not Leader"}</title></rect><use xlink:href="#ahead" x="943.069248385942" y="0" /><text text-anchor="middle" x="471.534624192971" y="-4" transform="rotate(180 471.534624192971 0)" filter="url(#glow)" style="fill: #fff" >error Not Leader</text><text text-anchor="middle" x="471.534624192971" y="-4" transform="rotate(180 471.534624192971 0)" >error Not Leader</text></g><g transform="translate(385.7143 770.0) rotate(2.227047005133379) " ><rect x="0" y="-2.5" height="5" width="510.67444753935115" fill="#81BFFC" ><title >c14 → n2 {:key 1, :from 4, :to 3, :type "cas", :msg_id 1}</title></rect><use xlink:href="#ahead" x="514.6744475393511" y="0" /><text text-anchor="middle" x="257.3372237696756" y="-4" transform="" filter="url(#glow)" style="fill: #fff" >cas {:key 1, :from 4, :to 3}</text><text text-anchor="middle" x="257.3372237696756" y="-4" transform="" >cas {:key 1, :from 4, :to 3}</text></g><g transform="translate(900.0 810.0) rotate(177.7729529948666) " ><rect x="0" y="-2.5" height="5" width="510.67444753935115" fill="#FF1E90" ><title >n2 → c14 {:msg_id 4, :in_reply_to 1, :type "error", :code 11, :text "Not Leader"}</title></rect><use xlink:href="#ahead" x="514.6744475393511" y="0" /><text text-anchor="middle" x="257.3372237696756" y="-4" transform="rotate(180 257.3372237696756 0)" filter="url(#glow)" style="fill: #fff" >error Not Leader</text><text text-anchor="middle" x="257.3372237696756" y="-4" transform="rotate(180 257.3372237696756 0)" >error Not Leader</text></g><g transform="translate(471.42856 850.0) rotate(2.671864511851913) " ><rect x="0" y="-2.5" height="5" width="425.03785450504733" fill="#81BFFC" ><title >c15 → n2 {:key 0, :type "read", :msg_id 1}</title></rect><use xlink:href="#ahead" x="429.03785450504733" y="0" /><text text-anchor="middle" x="214.51892725252367" y="-4" transform="" filter="url(#glow)" style="fill: #fff" >read {:key 0}</text><text text-anchor="middle" x="214.51892725252367" y="-4" transform="" >read {:key 0}</text></g><g transform="translate(900.0 890.0) rotate(177.3281354881481) " ><rect x="0" y="-2.5" height="5" width="425.03785450504733" fill="#FF1E90" ><title >n2 → c15 {:msg_id 5, :in_reply_to 1, :type "error", :code 11, :text "Not Leader"}</title></rect><use xlink:href="#ahead" x="429.03785450504733" y="0" /><text text-anchor="middle" x="214.51892725252367" y="-4" transform="rotate(180 214.51892725252367 0)" filter="url(#glow)" style="fill: #fff" >error Not Leader</text><text text-anchor="middle" x="214.51892725252367" y="-4" transform="rotate(180 214.51892725252367 0)" >error Not Leader</text></g><g transform="translate(42.857143 930.0) rotate(1.2151827724863415) " ><rect x="0" y="-2.5" height="5" width="939.069248385942" fill="#81BFFC" ><title >c10 → n3 {:key 1, :value 4, :type "write", :msg_id 3}</title></rect><use xlink:href="#ahead" x="943.069248385942" y="0" /><text text-anchor="middle" x="471.534624192971" y="-4" transform="" filter="url(#glow)" style="fill: #fff" >write {:key 1, :value 4}</text><text text-anchor="middle" x="471.534624192971" y="-4" transform="" >write {:key 1, :value 4}</text></g><g transform="translate(985.7143 970.0) rotate(178.78481722751366) " ><rect x="0" y="-2.5" height="5" width="939.069248385942" fill="#FF1E90" ><title >n3 → c10 {:msg_id 5, :in_reply_to 3, :type "error", :code 11, :text "Not Leader"}</title></rect><use xlink:href="#ahead" x="943.069248385942" y="0" /><text text-anchor="middle" x="471.534624192971" y="-4" transform="rotate(180 471.534624192971 0)" filter="url(#glow)" style="fill: #fff" >error Not Leader</text><text text-anchor="middle" x="471.534624192971" y="-4" transform="rotate(180 471.534624192971 0)" >error Not Leader</text></g><g transform="translate(557.1429 1010.0) rotate(1.909152627061704) " ><rect x="0" y="-2.5" height="5" width="596.3331797908693" fill="#81BFFC" ><title >c16 → n5 {:key 1, :from 3, :to 2, :type "cas", :msg_id 1}</title></rect><use xlink:href="#ahead" x="600.3331797908693" y="0" /><text text-anchor="middle" x="300.16658989543464" y="-4" transform="" filter="url(#glow)" style="fill: #fff" >cas {:key 1, :from 3, :to 2}</text><text text-anchor="middle" x="300.16658989543464" y="-4" transform="" >cas {:key 1, :from 3, :to 2}</text></g><g transform="translate(1157.1428 1050.0) rotate(178.09084737293833) " ><rect x="0" y="-2.5" height="5" width="596.3331797908693" fill="#FF1E90" ><title >n5 → c16 {:msg_id 5, :in_reply_to 1, :type "error", :code 11, :text "Not Leader"}</title></rect><use xlink:href="#ahead" x="600.3331797908693" y="0" /><text text-anchor="middle" x="300.16658989543464" y="-4" transform="rotate(180 300.16658989543464 0)" filter="url(#glow)" style="fill: #fff" >error Not Leader</text><text text-anchor="middle" x="300.16658989543464" y="-4" transform="rotate(180 300.16658989543464 0)" >error Not Leader</text></g><g transform="translate(642.8571 1090.0) rotate(3.338470204925741) " ><rect x="0" y="-2.5" height="5" width="339.4400156125969" fill="#81BFFC" ><title >c17 → n3 {:key 1, :value 0, :type "write", :msg_id 1}</title></rect><use xlink:href="#ahead" x="343.4400156125969" y="0" /><text text-anchor="middle" x="171.72000780629844" y="-4" transform="" filter="url(#glow)" style="fill: #fff" >write {:key 1, :value 0}</text><text text-anchor="middle" x="171.72000780629844" y="-4" transform="" >write {:key 1, :value 0}</text></g><g transform="translate(985.7143 1130.0) rotate(176.66152979507427) " ><rect x="0" y="-2.5" height="5" width="339.4400156125969" fill="#FF1E90" ><title >n3 → c17 {:msg_id 6, :in_reply_to 1, :type "error", :code 11, :text "Not Leader"}</title></rect><use xlink:href="#ahead" x="343.4400156125969" y="0" /><text text-anchor="middle" x="171.72000780629844" y="-4" transform="rotate(180 171.72000780629844 0)" filter="url(#glow)" style="fill: #fff" >error Not Leader</text><text text-anchor="middle" x="171.72000780629844" y="-4" transform="rotate(180 171.72000780629844 0)" >error Not Leader</text></g><g transform="translate(728.5714 1170.0) rotate(3.338470204925741) " ><rect x="0" y="-2.5" height="5" width="339.4400156125969" fill="#81BFFC" ><title >c18 → n4 {:key 0, :from 2, :to 4, :type "cas", :msg_id 1}</title></rect><use xlink:href="#ahead" x="343.4400156125969" y="0" /><text text-anchor="middle" x="171.72000780629844" y="-4" transform="" filter="url(#glow)" style="fill: #fff" >cas {:key 0, :from 2, :to 4}</text><text text-anchor="middle" x="171.72000780629844" y="-4" transform="" >cas {:key 0, :from 2, :to 4}</text></g><g transform="translate(1071.4286 1210.0) rotate(176.66152979507427) " ><rect x="0" y="-2.5" height="5" width="339.4400156125969" fill="#FF1E90" ><title >n4 → c18 {:msg_id 3, :in_reply_to 1, :type "error", :code 11, :text "Not Leader"}</title></rect><use xlink:href="#ahead" x="343.4400156125969" y="0" /><text text-anchor="middle" x="171.72000780629844" y="-4" transform="rotate(180 171.72000780629844 0)" filter="url(#glow)" style="fill: #fff" >error Not Leader</text><text text-anchor="middle" x="171.72000780629844" y="-4" transform="rotate(180 171.72000780629844 0)" >error Not Leader</text></g></g></svg>