<?xml version="1.0" encoding="UTF-8"?><svg xmlns:svg="http://www.w3.org/2000/svg" xmlns="http://www.w3.org/2000/svg" xmlns:xlink="http://www.w3.org/1999/xlink" version="2.0" width="1200" height="1980" ><style >
svg {
  font-family: Helvetica, Arial, sans-serif;
  font-size: 11px;
}
rect {
  stroke-linecap: butt;
  stroke-width: 3;
  stroke: #fff;
/*  stroke-opacity: 1; */
}
rect:hover {
  stroke: #fff;
/*  stroke-opacity: 1; /*
}
polygon { fill: #000; }</style><defs ><polygon id="ahead" points="0 0, -12 4, -12 -4" /><filter id="glow" x="0" y="0" ><feGaussianBlur in="SourceAlpha" stdDeviation="2" result="blurred" /><feFlood flood-color="#fff" /><feComposite operator="in" in2="blurred" /><feComponentTransfer ><feFuncA type="linear" slope="10" intercept="0" /></feComponentTransfer><feMerge ><feMergeNode /><feMergeNode in="SourceGraphic" /></feMerge></filter></defs><g ><text x="75.0" y="20.0" text-anchor="middle" alignment-baseline="middle" fill="#000" >c8</text><text x="75.0" y="1020.0" text-anchor="middle" alignment-baseline="middle" fill="#aaa" >c8</text><text x="225.0" y="20.0" text-anchor="middle" alignment-baseline="middle" fill="#000" >c9</text><text x="225.0" y="1020.0" text-anchor="middle" alignment-baseline="middle" fill="#aaa" >c9</text><text x="375.0" y="20.0" text-anchor="middle" alignment-baseline="middle" fill="#000" >c10</text><text x="375.0" y="1020.0" text-anchor="middle" alignment-baseline="middle" fill="#aaa" >c10</text><text x="525.0" y="20.0" text-anchor="middle" alignment-baseline="middle" fill="#000" >c11</text><text x="525.0" y="1020.0" text-anchor="middle" alignment-baseline="middle" fill="#aaa" >c11</text><text x="675.0" y="20.0" text-anchor="middle" alignment-baseline="middle" fill="#000" >n0</text><text x="675.0" y="1020.0" text-anchor="middle" alignment-baseline="middle" fill="#aaa" >n0</text><text x="825.0" y="20.0" text-anchor="middle" alignment-baseline="middle" fill="#000" >n1</text><text x="825.0" y="1020.0" text-anchor="middle" alignment-baseline="middle" fill="#aaa" >n1</text><text x="975.0" y="20.0" text-anchor="middle" alignment-baseline="middle" fill="#000" >n2</text><text x="975.0" y="1020.0" text-anchor="middle" alignment-baseline="middle" fill="#aaa" >n2</text><text x="1125.0" y="20.0" text-anchor="middle" alignment-baseline="middle" fill="#000" >n3</text><text x="1125.0" y="1020.0" text-anchor="middle" alignment-baseline="middle" fill="#aaa" >n3</text></g><g ><line stroke="#ccc" x1="75.0" y1="30.0" x2="75.0" y2="1890.0" /><line stroke="#ccc" x1="225.0" y1="30.0" x2="225.0" y2="1890.0" /><line stroke="#ccc" x1="375.0" y1="30.0" x2="375.0" y2="1890.0" /><line stroke="#ccc" x1="525.0" y1="30.0" x2="525.0" y2="1890.0" /><line stroke="#ccc" x1="675.0" y1="30.0" x2="675.0" y2="1890.0" /><line stroke="#ccc" x1="825.0" y1="30.0" x2="825.0" y2="1890.0" /><line stroke="#ccc" x1="975.0" y1="30.0" x2="975.0" y2="1890.0" /><line stroke="#ccc" x1="1125.0" y1="30.0" x2="1125.0" y2="1890.0" /></g><g ><g transform="translate(75.0 50.0) rotate(1.2730300200567113) " ><rect x="0" y="-2.5" height="5" width="896.222194794152" fill="#81BFFC" ><title >c8 → n2 {:txn [["r" 9 nil] ["append" 8 1] ["append" 5 1]], :type "txn", :msg_id 1}</title></rect><use xlink:href="#ahead" x="900.222194794152" y="0" /><text text-anchor="middle" x="450.111097397076" y="-4" transform="" filter="url(#glow)" style="fill: #fff" >txn {:txn [["r" 9 nil] ["append" 8 1] ["append"…</text><text text-anchor="middle" x="450.111097397076" y="-4" transform="" >txn {:txn [["r" 9 nil] ["append" 8 1] ["append"…</text></g><g transform="translate(975.0 90.0) rotate(178.7269699799433) " ><rect x="0" y="-2.5" height="5" width="896.222194794152" fill="#81BFFC" ><title >n2 → c8 {:msg_id 2, :in_reply_to 1, :type "txn_ok", :txn [["r" 9 nil] ["append" 8 1] ["append" 5 1]]}</title></rect><use xlink:href="#ahead" x="900.222194794152" y="0" /><text text-anchor="middle" x="450.111097397076" y="-4" transform="rotate(180 450.111097397076 0)" filter="url(#glow)" style="fill: #fff" >txn_ok {:txn [["r" 9 nil] ["append" 8 1] ["appe…</text><text text-anchor="middle" x="450.111097397076" y="-4" transform="rotate(180 450.111097397076 0)" >txn_ok {:txn [["r" 9 nil] ["append" 8 1] ["appe…</text></g><g transform="translate(975.0 130.0) rotate(176.18592516570965) " ><rect x="0" y="-2.5" height="5" width="296.66592756745814" fill="#000" ><title >n2 → n0 {:msg_id 3, :type "txnRep", :txn [["r" 9 nil] ["append" 8 1] ["append" 5 1]], :originalid 1}</title></rect><use xlink:href="#ahead" x="300.66592756745814" y="0" /><text text-anchor="middle" x="150.33296378372907" y="-4" transform="rotate(180 150.33296378372907 0)" filter="url(#glow)" style="fill: #fff" >txnRep {:txn [["r" 9 nil] ["append" 8 1] ["appe…</text><text text-anchor="middle" x="150.33296378372907" y="-4" transform="rotate(180 150.33296378372907 0)" >txnRep {:txn [["r" 9 nil] ["append" 8 1] ["appe…</text></g><g transform="translate(975.0 170.0) rotate(172.40535663140858) " ><rect x="0" y="-2.5" height="5" width="147.32745950421557" fill="#000" ><title >n2 → n1 {:msg_id 4, :type "txnRep", :txn [["r" 9 nil] ["append" 8 1] ["append" 5 1]], :originalid 1}</title></rect><use xlink:href="#ahead" x="151.32745950421557" y="0" /><text text-anchor="middle" x="75.66372975210778" y="-4" transform="rotate(180 75.66372975210778 0)" filter="url(#glow)" style="fill: #fff" >txnRep {:txn [["r" 9 nil] ["append" 8 1] ["appe…</text><text text-anchor="middle" x="75.66372975210778" y="-4" transform="rotate(180 75.66372975210778 0)" >txnRep {:txn [["r" 9 nil] ["append" 8 1] ["appe…</text></g><g transform="translate(975.0 210.0) rotate(7.594643368591445) " ><rect x="0" y="-2.5" height="5" width="147.32745950421557" fill="#000" ><title >n2 → n3 {:msg_id 5, :type "txnRep", :txn [["r" 9 nil] ["append" 8 1] ["append" 5 1]], :originalid 1}</title></rect><use xlink:href="#ahead" x="151.32745950421557" y="0" /><text text-anchor="middle" x="75.66372975210778" y="-4" transform="" filter="url(#glow)" style="fill: #fff" >txnRep {:txn [["r" 9 nil] ["append" 8 1] ["appe…</text><text text-anchor="middle" x="75.66372975210778" y="-4" transform="" >txnRep {:txn [["r" 9 nil] ["append" 8 1] ["appe…</text></g><g transform="translate(75.0 250.0) rotate(1.2730300200567113) " ><rect x="0" y="-2.5" height="5" width="896.222194794152" fill="#81BFFC" ><title >c8 → n2 {:txn [["r" 7 nil] ["append" 9 1] ["append" 7 1] ["append" 8 2]], :type "txn", :msg_id 2}</title></rect><use xlink:href="#ahead" x="900.222194794152" y="0" /><text text-anchor="middle" x="450.111097397076" y="-4" transform="" filter="url(#glow)" style="fill: #fff" >txn {:txn [["r" 7 nil] ["append" 9 1] ["append"…</text><text text-anchor="middle" x="450.111097397076" y="-4" transform="" >txn {:txn [["r" 7 nil] ["append" 9 1] ["append"…</text></g><g transform="translate(975.0 290.0) rotate(178.7269699799433) " ><rect x="0" y="-2.5" height="5" width="896.222194794152" fill="#FF1E90" ><title >n2 → c8 {:msg_id 6, :in_reply_to 2, :type "error", :code 14, :text "transaction aborted"}</title></rect><use xlink:href="#ahead" x="900.222194794152" y="0" /><text text-anchor="middle" x="450.111097397076" y="-4" transform="rotate(180 450.111097397076 0)" filter="url(#glow)" style="fill: #fff" >error transaction aborted</text><text text-anchor="middle" x="450.111097397076" y="-4" transform="rotate(180 450.111097397076 0)" >error transaction aborted</text></g><g transform="translate(225.0 330.0) rotate(1.9091524329963763) " ><rect x="0" y="-2.5" height="5" width="596.3332407921454" fill="#81BFFC" ><title >c9 → n1 {:txn [["append" 5 2]], :type "txn", :msg_id 1}</title></rect><use xlink:href="#ahead" x="600.3332407921454" y="0" /><text text-anchor="middle" x="300.1666203960727" y="-4" transform="" filter="url(#glow)" style="fill: #fff" >txn {:txn [["append" 5 2]]}</text><text text-anchor="middle" x="300.1666203960727" y="-4" transform="" >txn {:txn [["append" 5 2]]}</text></g><g transform="translate(825.0 370.0) rotate(178.0908475670036) " ><rect x="0" y="-2.5" height="5" width="596.3332407921454" fill="#FF1E90" ><title >n1 → c9 {:msg_id 2, :in_reply_to 1, :type "error", :code 14, :text "transaction aborted"}</title></rect><use xlink:href="#ahead" x="600.3332407921454" y="0" /><text text-anchor="middle" x="300.1666203960727" y="-4" transform="rotate(180 300.1666203960727 0)" filter="url(#glow)" style="fill: #fff" >error transaction aborted</text><text text-anchor="middle" x="300.1666203960727" y="-4" transform="rotate(180 300.1666203960727 0)" >error transaction aborted</text></g><g transform="translate(75.0 410.0) rotate(1.2730300200567113) " ><rect x="0" y="-2.5" height="5" width="896.222194794152" fill="#81BFFC" ><title >c8 → n2 {:txn [["r" 9 nil] ["r" 7 nil] ["r" 7 nil]], :type "txn", :msg_id 3}</title></rect><use xlink:href="#ahead" x="900.222194794152" y="0" /><text text-anchor="middle" x="450.111097397076" y="-4" transform="" filter="url(#glow)" style="fill: #fff" >txn {:txn [["r" 9 nil] ["r" 7 nil] ["r" 7 nil]]}</text><text text-anchor="middle" x="450.111097397076" y="-4" transform="" >txn {:txn [["r" 9 nil] ["r" 7 nil] ["r" 7 nil]]}</text></g><g transform="translate(975.0 450.0) rotate(178.7269699799433) " ><rect x="0" y="-2.5" height="5" width="896.222194794152" fill="#81BFFC" ><title >n2 → c8 {:msg_id 7, :in_reply_to 3, :type "txn_ok", :txn [["r" 9 nil] ["r" 7 nil] ["r" 7 nil]]}</title></rect><use xlink:href="#ahead" x="900.222194794152" y="0" /><text text-anchor="middle" x="450.111097397076" y="-4" transform="rotate(180 450.111097397076 0)" filter="url(#glow)" style="fill: #fff" >txn_ok {:txn [["r" 9 nil] ["r" 7 nil] ["r" 7 ni…</text><text text-anchor="middle" x="450.111097397076" y="-4" transform="rotate(180 450.111097397076 0)" >txn_ok {:txn [["r" 9 nil] ["r" 7 nil] ["r" 7 ni…</text></g><g transform="translate(975.0 490.0) rotate(176.18592516570965) " ><rect x="0" y="-2.5" height="5" width="296.66592756745814" fill="#000" ><title >n2 → n0 {:msg_id 8, :type "txnRep", :txn [["r" 9 nil] ["r" 7 nil] ["r" 7 nil]], :originalid 3}</title></rect><use xlink:href="#ahead" x="300.66592756745814" y="0" /><text text-anchor="middle" x="150.33296378372907" y="-4" transform="rotate(180 150.33296378372907 0)" filter="url(#glow)" style="fill: #fff" >txnRep {:txn [["r" 9 nil] ["r" 7 nil] ["r" 7 ni…</text><text text-anchor="middle" x="150.33296378372907" y="-4" transform="rotate(180 150.33296378372907 0)" >txnRep {:txn [["r" 9 nil] ["r" 7 nil] ["r" 7 ni…</text></g><g transform="translate(975.0 530.0) rotate(172.40535663140858) " ><rect x="0" y="-2.5" height="5" width="147.32745950421557" fill="#000" ><title >n2 → n1 {:msg_id 9, :type "txnRep", :txn [["r" 9 nil] ["r" 7 nil] ["r" 7 nil]], :originalid 3}</title></rect><use xlink:href="#ahead" x="151.32745950421557" y="0" /><text text-anchor="middle" x="75.66372975210778" y="-4" transform="rotate(180 75.66372975210778 0)" filter="url(#glow)" style="fill: #fff" >txnRep {:txn [["r" 9 nil] ["r" 7 nil] ["r" 7 ni…</text><text text-anchor="middle" x="75.66372975210778" y="-4" transform="rotate(180 75.66372975210778 0)" >txnRep {:txn [["r" 9 nil] ["r" 7 nil] ["r" 7 ni…</text></g><g transform="translate(975.0 570.0) rotate(7.594643368591445) " ><rect x="0" y="-2.5" height="5" width="147.32745950421557" fill="#000" ><title >n2 → n3 {:msg_id 10, :type "txnRep", :txn [["r" 9 nil] ["r" 7 nil] ["r" 7 nil]], :originalid 3}</title></rect><use xlink:href="#ahead" x="151.32745950421557" y="0" /><text text-anchor="middle" x="75.66372975210778" y="-4" transform="" filter="url(#glow)" style="fill: #fff" >txnRep {:txn [["r" 9 nil] ["r" 7 nil] ["r" 7 ni…</text><text text-anchor="middle" x="75.66372975210778" y="-4" transform="" >txnRep {:txn [["r" 9 nil] ["r" 7 nil] ["r" 7 ni…</text></g><g transform="translate(75.0 610.0) rotate(1.2730300200567113) " ><rect x="0" y="-2.5" height="5" width="896.222194794152" fill="#81BFFC" ><title >c8 → n2 {:txn [["r" 8 nil] ["r" 9 nil] ["r" 9 nil]], :type "txn", :msg_id 4}</title></rect><use xlink:href="#ahead" x="900.222194794152" y="0" /><text text-anchor="middle" x="450.111097397076" y="-4" transform="" filter="url(#glow)" style="fill: #fff" >txn {:txn [["r" 8 nil] ["r" 9 nil] ["r" 9 nil]]}</text><text text-anchor="middle" x="450.111097397076" y="-4" transform="" >txn {:txn [["r" 8 nil] ["r" 9 nil] ["r" 9 nil]]}</text></g><g transform="translate(975.0 650.0) rotate(178.7269699799433) " ><rect x="0" y="-2.5" height="5" width="896.222194794152" fill="#81BFFC" ><title >n2 → c8 {:msg_id 11, :in_reply_to 4, :type "txn_ok", :txn [["r" 8 [1]] ["r" 9 nil] ["r" 9 nil]]}</title></rect><use xlink:href="#ahead" x="900.222194794152" y="0" /><text text-anchor="middle" x="450.111097397076" y="-4" transform="rotate(180 450.111097397076 0)" filter="url(#glow)" style="fill: #fff" >txn_ok {:txn [["r" 8 [1]] ["r" 9 nil] ["r" 9 ni…</text><text text-anchor="middle" x="450.111097397076" y="-4" transform="rotate(180 450.111097397076 0)" >txn_ok {:txn [["r" 8 [1]] ["r" 9 nil] ["r" 9 ni…</text></g><g transform="translate(975.0 690.0) rotate(176.18592516570965) " ><rect x="0" y="-2.5" height="5" width="296.66592756745814" fill="#000" ><title >n2 → n0 {:msg_id 12, :type "txnRep", :txn [["r" 8 nil] ["r" 9 nil] ["r" 9 nil]], :originalid 4}</title></rect><use xlink:href="#ahead" x="300.66592756745814" y="0" /><text text-anchor="middle" x="150.33296378372907" y="-4" transform="rotate(180 150.33296378372907 0)" filter="url(#glow)" style="fill: #fff" >txnRep {:txn [["r" 8 nil] ["r" 9 nil] ["r" 9 ni…</text><text text-anchor="middle" x="150.33296378372907" y="-4" transform="rotate(180 150.33296378372907 0)" >txnRep {:txn [["r" 8 nil] ["r" 9 nil] ["r" 9 ni…</text></g><g transform="translate(975.0 730.0) rotate(172.40535663140858) " ><rect x="0" y="-2.5" height="5" width="147.32745950421557" fill="#000" ><title >n2 → n1 {:msg_id 13, :type "txnRep", :txn [["r" 8 nil] ["r" 9 nil] ["r" 9 nil]], :originalid 4}</title></rect><use xlink:href="#ahead" x="151.32745950421557" y="0" /><text text-anchor="middle" x="75.66372975210778" y="-4" transform="rotate(180 75.66372975210778 0)" filter="url(#glow)" style="fill: #fff" >txnRep {:txn [["r" 8 nil] ["r" 9 nil] ["r" 9 ni…</text><text text-anchor="middle" x="75.66372975210778" y="-4" transform="rotate(180 75.66372975210778 0)" >txnRep {:txn [["r" 8 nil] ["r" 9 nil] ["r" 9 ni…</text></g><g transform="translate(975.0 770.0) rotate(7.594643368591445) " ><rect x="0" y="-2.5" height="5" width="147.32745950421557" fill="#000" ><title >n2 → n3 {:msg_id 14, :type "txnRep", :txn [["r" 8 nil] ["r" 9 nil] ["r" 9 nil]], :originalid 4}</title></rect><use xlink:href="#ahead" x="151.32745950421557" y="0" /><text text-anchor="middle" x="75.66372975210778" y="-4" transform="" filter="url(#glow)" style="fill: #fff" >txnRep {:txn [["r" 8 nil] ["r" 9 nil] ["r" 9 ni…</text><text text-anchor="middle" x="75.66372975210778" y="-4" transform="" >txnRep {:txn [["r" 8 nil] ["r" 9 nil] ["r" 9 ni…</text></g><g transform="translate(375.0 810.0) rotate(1.527525442212927) " ><rect x="0" y="-2.5" height="5" width="746.2666192761077" fill="#81BFFC" ><title >c10 → n3 {:txn [["r" 8 nil]], :type "txn", :msg_id 1}</title></rect><use xlink:href="#ahead" x="750.2666192761077" y="0" /><text text-anchor="middle" x="375.13330963805384" y="-4" transform="" filter="url(#glow)" style="fill: #fff" >txn {:txn [["r" 8 nil]]}</text><text text-anchor="middle" x="375.13330963805384" y="-4" transform="" >txn {:txn [["r" 8 nil]]}</text></g><g transform="translate(1125.0 850.0) rotate(178.47247455778708) " ><rect x="0" y="-2.5" height="5" width="746.2666192761077" fill="#FF1E90" ><title >n3 → c10 {:msg_id 2, :in_reply_to 1, :type "error", :code 14, :text "transaction aborted"}</title></rect><use xlink:href="#ahead" x="750.2666192761077" y="0" /><text text-anchor="middle" x="375.13330963805384" y="-4" transform="rotate(180 375.13330963805384 0)" filter="url(#glow)" style="fill: #fff" >error transaction aborted</text><text text-anchor="middle" x="375.13330963805384" y="-4" transform="rotate(180 375.13330963805384 0)" >error transaction aborted</text></g><g transform="translate(525.0 890.0) rotate(7.594643368591445) " ><rect x="0" y="-2.5" height="5" width="147.32745950421557" fill="#81BFFC" ><title >c11 → n0 {:txn [["r" 8 nil] ["r" 6 nil]], :type "txn", :msg_id 1}</title></rect><use xlink:href="#ahead" x="151.32745950421557" y="0" /><text text-anchor="middle" x="75.66372975210778" y="-4" transform="" filter="url(#glow)" style="fill: #fff" >txn {:txn [["r" 8 nil] ["r" 6 nil]]}</text><text text-anchor="middle" x="75.66372975210778" y="-4" transform="" >txn {:txn [["r" 8 nil] ["r" 6 nil]]}</text></g><g transform="translate(225.0 930.0) rotate(1.9091524329963763) " ><rect x="0" y="-2.5" height="5" width="596.3332407921454" fill="#81BFFC" ><title >c9 → n1 {:txn [["append" 8 3] ["append" 8 4] ["append" 9 2] ["append" 8 5]], :type "txn", :msg_id 2}</title></rect><use xlink:href="#ahead" x="600.3332407921454" y="0" /><text text-anchor="middle" x="300.1666203960727" y="-4" transform="" filter="url(#glow)" style="fill: #fff" >txn {:txn [["append" 8 3] ["append" 8 4] ["appe…</text><text text-anchor="middle" x="300.1666203960727" y="-4" transform="" >txn {:txn [["append" 8 3] ["append" 8 4] ["appe…</text></g><g transform="translate(75.0 970.0) rotate(1.2730300200567113) " ><rect x="0" y="-2.5" height="5" width="896.222194794152" fill="#81BFFC" ><title >c8 → n2 {:txn [["append" 5 3] ["r" 7 nil] ["append" 9 3]], :type "txn", :msg_id 5}</title></rect><use xlink:href="#ahead" x="900.222194794152" y="0" /><text text-anchor="middle" x="450.111097397076" y="-4" transform="" filter="url(#glow)" style="fill: #fff" >txn {:txn [["append" 5 3] ["r" 7 nil] ["append"…</text><text text-anchor="middle" x="450.111097397076" y="-4" transform="" >txn {:txn [["append" 5 3] ["r" 7 nil] ["append"…</text></g><g transform="translate(375.0 1010.0) rotate(1.527525442212927) " ><rect x="0" y="-2.5" height="5" width="746.2666192761077" fill="#81BFFC" ><title >c10 → n3 {:txn [["append" 3 1] ["r" 8 nil]], :type "txn", :msg_id 2}</title></rect><use xlink:href="#ahead" x="750.2666192761077" y="0" /><text text-anchor="middle" x="375.13330963805384" y="-4" transform="" filter="url(#glow)" style="fill: #fff" >txn {:txn [["append" 3 1] ["r" 8 nil]]}</text><text text-anchor="middle" x="375.13330963805384" y="-4" transform="" >txn {:txn [["append" 3 1] ["r" 8 nil]]}</text></g><g transform="translate(675.0 1050.0) rotate(172.40535663140858) " ><rect x="0" y="-2.5" height="5" width="147.32745950421557" fill="#81BFFC" ><title >n0 → c11 {:msg_id 2, :in_reply_to 1, :type "txn_ok", :txn [["r" 8 [1]] ["r" 6 nil]]}</title></rect><use xlink:href="#ahead" x="151.32745950421557" y="0" /><text text-anchor="middle" x="75.66372975210778" y="-4" transform="rotate(180 75.66372975210778 0)" filter="url(#glow)" style="fill: #fff" >txn_ok {:txn [["r" 8 [1]] ["r" 6 nil]]}</text><text text-anchor="middle" x="75.66372975210778" y="-4" transform="rotate(180 75.66372975210778 0)" >txn_ok {:txn [["r" 8 [1]] ["r" 6 nil]]}</text></g><g transform="translate(675.0 1090.0) rotate(7.594643368591445) " ><rect x="0" y="-2.5" height="5" width="147.32745950421557" fill="#000" ><title >n0 → n1 {:msg_id 3, :type "txnRep", :txn [["r" 8 nil] ["r" 6 nil]], :originalid 1}</title></rect><use xlink:href="#ahead" x="151.32745950421557" y="0" /><text text-anchor="middle" x="75.66372975210778" y="-4" transform="" filter="url(#glow)" style="fill: #fff" >txnRep {:txn [["r" 8 nil] ["r" 6 nil]], :origin…</text><text text-anchor="middle" x="75.66372975210778" y="-4" transform="" >txnRep {:txn [["r" 8 nil] ["r" 6 nil]], :origin…</text></g><g transform="translate(675.0 1130.0) rotate(3.8140748342903543) " ><rect x="0" y="-2.5" height="5" width="296.66592756745814" fill="#000" ><title >n0 → n2 {:msg_id 4, :type "txnRep", :txn [["r" 8 nil] ["r" 6 nil]], :originalid 1}</title></rect><use xlink:href="#ahead" x="300.66592756745814" y="0" /><text text-anchor="middle" x="150.33296378372907" y="-4" transform="" filter="url(#glow)" style="fill: #fff" >txnRep {:txn [["r" 8 nil] ["r" 6 nil]], :origin…</text><text text-anchor="middle" x="150.33296378372907" y="-4" transform="" >txnRep {:txn [["r" 8 nil] ["r" 6 nil]], :origin…</text></g><g transform="translate(675.0 1170.0) rotate(2.5448043798130957) " ><rect x="0" y="-2.5" height="5" width="446.4442251822083" fill="#000" ><title >n0 → n3 {:msg_id 5, :type "txnRep", :txn [["r" 8 nil] ["r" 6 nil]], :originalid 1}</title></rect><use xlink:href="#ahead" x="450.4442251822083" y="0" /><text text-anchor="middle" x="225.22211259110415" y="-4" transform="" filter="url(#glow)" style="fill: #fff" >txnRep {:txn [["r" 8 nil] ["r" 6 nil]], :origin…</text><text text-anchor="middle" x="225.22211259110415" y="-4" transform="" >txnRep {:txn [["r" 8 nil] ["r" 6 nil]], :origin…</text></g><g transform="translate(525.0 1210.0) rotate(7.594643368591445) " ><rect x="0" y="-2.5" height="5" width="147.32745950421557" fill="#81BFFC" ><title >c11 → n0 {:txn [["r" 8 nil] ["r" 7 nil] ["r" 5 nil]], :type "txn", :msg_id 2}</title></rect><use xlink:href="#ahead" x="151.32745950421557" y="0" /><text text-anchor="middle" x="75.66372975210778" y="-4" transform="" filter="url(#glow)" style="fill: #fff" >txn {:txn [["r" 8 nil] ["r" 7 nil] ["r" 5 nil]]}</text><text text-anchor="middle" x="75.66372975210778" y="-4" transform="" >txn {:txn [["r" 8 nil] ["r" 7 nil] ["r" 5 nil]]}</text></g><g transform="translate(975.0 1250.0) rotate(178.7269699799433) " ><rect x="0" y="-2.5" height="5" width="896.222194794152" fill="#81BFFC" ><title >n2 → c8 {:msg_id 15, :in_reply_to 5, :type "txn_ok", :txn [["append" 5 3] ["r" 7 nil] ["append" 9 3]]}</title></rect><use xlink:href="#ahead" x="900.222194794152" y="0" /><text text-anchor="middle" x="450.111097397076" y="-4" transform="rotate(180 450.111097397076 0)" filter="url(#glow)" style="fill: #fff" >txn_ok {:txn [["append" 5 3] ["r" 7 nil] ["appe…</text><text text-anchor="middle" x="450.111097397076" y="-4" transform="rotate(180 450.111097397076 0)" >txn_ok {:txn [["append" 5 3] ["r" 7 nil] ["appe…</text></g><g transform="translate(975.0 1290.0) rotate(176.18592516570965) " ><rect x="0" y="-2.5" height="5" width="296.66592756745814" fill="#000" ><title >n2 → n0 {:msg_id 16, :type "txnRep", :txn [["append" 5 3] ["r" 7 nil] ["append" 9 3]], :originalid 5}</title></rect><use xlink:href="#ahead" x="300.66592756745814" y="0" /><text text-anchor="middle" x="150.33296378372907" y="-4" transform="rotate(180 150.33296378372907 0)" filter="url(#glow)" style="fill: #fff" >txnRep {:txn [["append" 5 3] ["r" 7 nil] ["appe…</text><text text-anchor="middle" x="150.33296378372907" y="-4" transform="rotate(180 150.33296378372907 0)" >txnRep {:txn [["append" 5 3] ["r" 7 nil] ["appe…</text></g><g transform="translate(975.0 1330.0) rotate(172.40535663140858) " ><rect x="0" y="-2.5" height="5" width="147.32745950421557" fill="#000" ><title >n2 → n1 {:msg_id 17, :type "txnRep", :txn [["append" 5 3] ["r" 7 nil] ["append" 9 3]], :originalid 5}</title></rect><use xlink:href="#ahead" x="151.32745950421557" y="0" /><text text-anchor="middle" x="75.66372975210778" y="-4" transform="rotate(180 75.66372975210778 0)" filter="url(#glow)" style="fill: #fff" >txnRep {:txn [["append" 5 3] ["r" 7 nil] ["appe…</text><text text-anchor="middle" x="75.66372975210778" y="-4" transform="rotate(180 75.66372975210778 0)" >txnRep {:txn [["append" 5 3] ["r" 7 nil] ["appe…</text></g><g transform="translate(975.0 1370.0) rotate(7.594643368591445) " ><rect x="0" y="-2.5" height="5" width="147.32745950421557" fill="#000" ><title >n2 → n3 {:msg_id 18, :type "txnRep", :txn [["append" 5 3] ["r" 7 nil] ["append" 9 3]], :originalid 5}</title></rect><use xlink:href="#ahead" x="151.32745950421557" y="0" /><text text-anchor="middle" x="75.66372975210778" y="-4" transform="" filter="url(#glow)" style="fill: #fff" >txnRep {:txn [["append" 5 3] ["r" 7 nil] ["appe…</text><text text-anchor="middle" x="75.66372975210778" y="-4" transform="" >txnRep {:txn [["append" 5 3] ["r" 7 nil] ["appe…</text></g><g transform="translate(825.0 1410.0) rotate(178.0908475670036) " ><rect x="0" y="-2.5" height="5" width="596.3332407921454" fill="#81BFFC" ><title >n1 → c9 {:msg_id 3, :in_reply_to 2, :type "txn_ok", :txn [["append" 8 3] ["append" 8 4] ["append" 9 2] ["append" 8 5]]}</title></rect><use xlink:href="#ahead" x="600.3332407921454" y="0" /><text text-anchor="middle" x="300.1666203960727" y="-4" transform="rotate(180 300.1666203960727 0)" filter="url(#glow)" style="fill: #fff" >txn_ok {:txn [["append" 8 3] ["append" 8 4] ["a…</text><text text-anchor="middle" x="300.1666203960727" y="-4" transform="rotate(180 300.1666203960727 0)" >txn_ok {:txn [["append" 8 3] ["append" 8 4] ["a…</text></g><g transform="translate(825.0 1450.0) rotate(172.40535663140858) " ><rect x="0" y="-2.5" height="5" width="147.32745950421557" fill="#000" ><title >n1 → n0 {:msg_id 4, :type "txnRep", :txn [["append" 8 3] ["append" 8 4] ["append" 9 2] ["append" 8 5]], :originalid 2}</title></rect><use xlink:href="#ahead" x="151.32745950421557" y="0" /><text text-anchor="middle" x="75.66372975210778" y="-4" transform="rotate(180 75.66372975210778 0)" filter="url(#glow)" style="fill: #fff" >txnRep {:txn [["append" 8 3] ["append" 8 4] ["a…</text><text text-anchor="middle" x="75.66372975210778" y="-4" transform="rotate(180 75.66372975210778 0)" >txnRep {:txn [["append" 8 3] ["append" 8 4] ["a…</text></g><g transform="translate(825.0 1490.0) rotate(7.594643368591445) " ><rect x="0" y="-2.5" height="5" width="147.32745950421557" fill="#000" ><title >n1 → n2 {:msg_id 5, :type "txnRep", :txn [["append" 8 3] ["append" 8 4] ["append" 9 2] ["append" 8 5]], :originalid 2}</title></rect><use xlink:href="#ahead" x="151.32745950421557" y="0" /><text text-anchor="middle" x="75.66372975210778" y="-4" transform="" filter="url(#glow)" style="fill: #fff" >txnRep {:txn [["append" 8 3] ["append" 8 4] ["a…</text><text text-anchor="middle" x="75.66372975210778" y="-4" transform="" >txnRep {:txn [["append" 8 3] ["append" 8 4] ["a…</text></g><g transform="translate(825.0 1530.0) rotate(3.8140748342903543) " ><rect x="0" y="-2.5" height="5" width="296.66592756745814" fill="#000" ><title >n1 → n3 {:msg_id 6, :type "txnRep", :txn [["append" 8 3] ["append" 8 4] ["append" 9 2] ["append" 8 5]], :originalid 2}</title></rect><use xlink:href="#ahead" x="300.66592756745814" y="0" /><text text-anchor="middle" x="150.33296378372907" y="-4" transform="" filter="url(#glow)" style="fill: #fff" >txnRep {:txn [["append" 8 3] ["append" 8 4] ["a…</text><text text-anchor="middle" x="150.33296378372907" y="-4" transform="" >txnRep {:txn [["append" 8 3] ["append" 8 4] ["a…</text></g><g transform="translate(1125.0 1570.0) rotate(178.47247455778708) " ><rect x="0" y="-2.5" height="5" width="746.2666192761077" fill="#81BFFC" ><title >n3 → c10 {:msg_id 3, :in_reply_to 2, :type "txn_ok", :txn [["append" 3 1] ["r" 8 [1]]]}</title></rect><use xlink:href="#ahead" x="750.2666192761077" y="0" /><text text-anchor="middle" x="375.13330963805384" y="-4" transform="rotate(180 375.13330963805384 0)" filter="url(#glow)" style="fill: #fff" >txn_ok {:txn [["append" 3 1] ["r" 8 [1]]]}</text><text text-anchor="middle" x="375.13330963805384" y="-4" transform="rotate(180 375.13330963805384 0)" >txn_ok {:txn [["append" 3 1] ["r" 8 [1]]]}</text></g><g transform="translate(1125.0 1610.0) rotate(177.4551956201869) " ><rect x="0" y="-2.5" height="5" width="446.4442251822083" fill="#000" ><title >n3 → n0 {:msg_id 4, :type "txnRep", :txn [["append" 3 1] ["r" 8 nil]], :originalid 2}</title></rect><use xlink:href="#ahead" x="450.4442251822083" y="0" /><text text-anchor="middle" x="225.22211259110415" y="-4" transform="rotate(180 225.22211259110415 0)" filter="url(#glow)" style="fill: #fff" >txnRep {:txn [["append" 3 1] ["r" 8 nil]], :ori…</text><text text-anchor="middle" x="225.22211259110415" y="-4" transform="rotate(180 225.22211259110415 0)" >txnRep {:txn [["append" 3 1] ["r" 8 nil]], :ori…</text></g><g transform="translate(1125.0 1650.0) rotate(176.18592516570965) " ><rect x="0" y="-2.5" height="5" width="296.66592756745814" fill="#000" ><title >n3 → n1 {:msg_id 5, :type "txnRep", :txn [["append" 3 1] ["r" 8 nil]], :originalid 2}</title></rect><use xlink:href="#ahead" x="300.66592756745814" y="0" /><text text-anchor="middle" x="150.33296378372907" y="-4" transform="rotate(180 150.33296378372907 0)" filter="url(#glow)" style="fill: #fff" >txnRep {:txn [["append" 3 1] ["r" 8 nil]], :ori…</text><text text-anchor="middle" x="150.33296378372907" y="-4" transform="rotate(180 150.33296378372907 0)" >txnRep {:txn [["append" 3 1] ["r" 8 nil]], :ori…</text></g><g transform="translate(1125.0 1690.0) rotate(172.40535663140858) " ><rect x="0" y="-2.5" height="5" width="147.32745950421557" fill="#000" ><title >n3 → n2 {:msg_id 6, :type "txnRep", :txn [["append" 3 1] ["r" 8 nil]], :originalid 2}</title></rect><use xlink:href="#ahead" x="151.32745950421557" y="0" /><text text-anchor="middle" x="75.66372975210778" y="-4" transform="rotate(180 75.66372975210778 0)" filter="url(#glow)" style="fill: #fff" >txnRep {:txn [["append" 3 1] ["r" 8 nil]], :ori…</text><text text-anchor="middle" x="75.66372975210778" y="-4" transform="rotate(180 75.66372975210778 0)" >txnRep {:txn [["append" 3 1] ["r" 8 nil]], :ori…</text></g><g transform="translate(675.0 1730.0) rotate(172.40535663140858) " ><rect x="0" y="-2.5" height="5" width="147.32745950421557" fill="#81BFFC" ><title >n0 → c11 {:msg_id 6, :in_reply_to 2, :type "txn_ok", :txn [["r" 8 [1]] ["r" 7 nil] ["r" 5 [1]]]}</title></rect><use xlink:href="#ahead" x="151.32745950421557" y="0" /><text text-anchor="middle" x="75.66372975210778" y="-4" transform="rotate(180 75.66372975210778 0)" filter="url(#glow)" style="fill: #fff" >txn_ok {:txn [["r" 8 [1]] ["r" 7 nil] ["r" 5 [1…</text><text text-anchor="middle" x="75.66372975210778" y="-4" transform="rotate(180 75.66372975210778 0)" >txn_ok {:txn [["r" 8 [1]] ["r" 7 nil] ["r" 5 [1…</text></g><g transform="translate(675.0 1770.0) rotate(7.594643368591445) " ><rect x="0" y="-2.5" height="5" width="147.32745950421557" fill="#000" ><title >n0 → n1 {:msg_id 7, :type "txnRep", :txn [["r" 8 nil] ["r" 7 nil] ["r" 5 nil]], :originalid 2}</title></rect><use xlink:href="#ahead" x="151.32745950421557" y="0" /><text text-anchor="middle" x="75.66372975210778" y="-4" transform="" filter="url(#glow)" style="fill: #fff" >txnRep {:txn [["r" 8 nil] ["r" 7 nil] ["r" 5 ni…</text><text text-anchor="middle" x="75.66372975210778" y="-4" transform="" >txnRep {:txn [["r" 8 nil] ["r" 7 nil] ["r" 5 ni…</text></g><g transform="translate(675.0 1810.0) rotate(3.8140748342903543) " ><rect x="0" y="-2.5" height="5" width="296.66592756745814" fill="#000" ><title >n0 → n2 {:msg_id 8, :type "txnRep", :txn [["r" 8 nil] ["r" 7 nil] ["r" 5 nil]], :originalid 2}</title></rect><use xlink:href="#ahead" x="300.66592756745814" y="0" /><text text-anchor="middle" x="150.33296378372907" y="-4" transform="" filter="url(#glow)" style="fill: #fff" >txnRep {:txn [["r" 8 nil] ["r" 7 nil] ["r" 5 ni…</text><text text-anchor="middle" x="150.33296378372907" y="-4" transform="" >txnRep {:txn [["r" 8 nil] ["r" 7 nil] ["r" 5 ni…</text></g><g transform="translate(675.0 1850.0) rotate(2.5448043798130957) " ><rect x="0" y="-2.5" height="5" width="446.4442251822083" fill="#000" ><title >n0 → n3 {:msg_id 9, :type "txnRep", :txn [["r" 8 nil] ["r" 7 nil] ["r" 5 nil]], :originalid 2}</title></rect><use xlink:href="#ahead" x="450.4442251822083" y="0" /><text text-anchor="middle" x="225.22211259110415" y="-4" transform="" filter="url(#glow)" style="fill: #fff" >txnRep {:txn [["r" 8 nil] ["r" 7 nil] ["r" 5 ni…</text><text text-anchor="middle" x="225.22211259110415" y="-4" transform="" >txnRep {:txn [["r" 8 nil] ["r" 7 nil] ["r" 5 ni…</text></g></g></svg>