<?xml version="1.0" encoding="UTF-8"?><svg xmlns:svg="http://www.w3.org/2000/svg" xmlns="http://www.w3.org/2000/svg" xmlns:xlink="http://www.w3.org/1999/xlink" version="2.0" width="1200" height="1700" ><style >
svg {
  font-family: Helvetica, Arial, sans-serif;
  font-size: 11px;
}
rect {
  stroke-linecap: butt;
  stroke-width: 3;
  stroke: #fff;
/*  stroke-opacity: 1; */
}
rect:hover {
  stroke: #fff;
/*  stroke-opacity: 1; /*
}
polygon { fill: #000; }</style><defs ><polygon id="ahead" points="0 0, -12 4, -12 -4" /><filter id="glow" x="0" y="0" ><feGaussianBlur in="SourceAlpha" stdDeviation="2" result="blurred" /><feFlood flood-color="#fff" /><feComposite operator="in" in2="blurred" /><feComponentTransfer ><feFuncA type="linear" slope="10" intercept="0" /></feComponentTransfer><feMerge ><feMergeNode /><feMergeNode in="SourceGraphic" /></feMerge></filter></defs><g ><text x="35.294117" y="20.0" text-anchor="middle" alignment-baseline="middle" fill="#000" >c10</text><text x="35.294117" y="1020.0" text-anchor="middle" alignment-baseline="middle" fill="#aaa" >c10</text><text x="105.882355" y="20.0" text-anchor="middle" alignment-baseline="middle" fill="#000" >c11</text><text x="105.882355" y="1020.0" text-anchor="middle" alignment-baseline="middle" fill="#aaa" >c11</text><text x="176.47058" y="20.0" text-anchor="middle" alignment-baseline="middle" fill="#000" >c12</text><text x="176.47058" y="1020.0" text-anchor="middle" alignment-baseline="middle" fill="#aaa" >c12</text><text x="247.05882" y="20.0" text-anchor="middle" alignment-baseline="middle" fill="#000" >c13</text><text x="247.05882" y="1020.0" text-anchor="middle" alignment-baseline="middle" fill="#aaa" >c13</text><text x="317.64706" y="20.0" text-anchor="middle" alignment-baseline="middle" fill="#000" >c14</text><text x="317.64706" y="1020.0" text-anchor="middle" alignment-baseline="middle" fill="#aaa" >c14</text><text x="388.2353" y="20.0" text-anchor="middle" alignment-baseline="middle" fill="#000" >c15</text><text x="388.2353" y="1020.0" text-anchor="middle" alignment-baseline="middle" fill="#aaa" >c15</text><text x="458.82352" y="20.0" text-anchor="middle" alignment-baseline="middle" fill="#000" >c16</text><text x="458.82352" y="1020.0" text-anchor="middle" alignment-baseline="middle" fill="#aaa" >c16</text><text x="529.41174" y="20.0" text-anchor="middle" alignment-baseline="middle" fill="#000" >c17</text><text x="529.41174" y="1020.0" text-anchor="middle" alignment-baseline="middle" fill="#aaa" >c17</text><text x="600.0" y="20.0" text-anchor="middle" alignment-baseline="middle" fill="#000" >c18</text><text x="600.0" y="1020.0" text-anchor="middle" alignment-baseline="middle" fill="#aaa" >c18</text><text x="670.58826" y="20.0" text-anchor="middle" alignment-baseline="middle" fill="#000" >c19</text><text x="670.58826" y="1020.0" text-anchor="middle" alignment-baseline="middle" fill="#aaa" >c19</text><text x="741.17645" y="20.0" text-anchor="middle" alignment-baseline="middle" fill="#000" >c20</text><text x="741.17645" y="1020.0" text-anchor="middle" alignment-baseline="middle" fill="#aaa" >c20</text><text x="811.7647" y="20.0" text-anchor="middle" alignment-baseline="middle" fill="#000" >c21</text><text x="811.7647" y="1020.0" text-anchor="middle" alignment-baseline="middle" fill="#aaa" >c21</text><text x="882.35297" y="20.0" text-anchor="middle" alignment-baseline="middle" fill="#000" >n1</text><text x="882.35297" y="1020.0" text-anchor="middle" alignment-baseline="middle" fill="#aaa" >n1</text><text x="952.94116" y="20.0" text-anchor="middle" alignment-baseline="middle" fill="#000" >n2</text><text x="952.94116" y="1020.0" text-anchor="middle" alignment-baseline="middle" fill="#aaa" >n2</text><text x="1023.5294" y="20.0" text-anchor="middle" alignment-baseline="middle" fill="#000" >n3</text><text x="1023.5294" y="1020.0" text-anchor="middle" alignment-baseline="middle" fill="#aaa" >n3</text><text x="1094.1177" y="20.0" text-anchor="middle" alignment-baseline="middle" fill="#000" >n4</text><text x="1094.1177" y="1020.0" text-anchor="middle" alignment-baseline="middle" fill="#aaa" >n4</text><text x="1164.7059" y="20.0" text-anchor="middle" alignment-baseline="middle" fill="#000" >n5</text><text x="1164.7059" y="1020.0" text-anchor="middle" alignment-baseline="middle" fill="#aaa" >n5</text></g><g ><line stroke="#ccc" x1="35.294117" y1="30.0" x2="35.294117" y2="1610.0" /><line stroke="#ccc" x1="105.882355" y1="30.0" x2="105.882355" y2="1610.0" /><line stroke="#ccc" x1="176.47058" y1="30.0" x2="176.47058" y2="1610.0" /><line stroke="#ccc" x1="247.05882" y1="30.0" x2="247.05882" y2="1610.0" /><line stroke="#ccc" x1="317.64706" y1="30.0" x2="317.64706" y2="1610.0" /><line stroke="#ccc" x1="388.2353" y1="30.0" x2="388.2353" y2="1610.0" /><line stroke="#ccc" x1="458.82352" y1="30.0" x2="458.82352" y2="1610.0" /><line stroke="#ccc" x1="529.41174" y1="30.0" x2="529.41174" y2="1610.0" /><line stroke="#ccc" x1="600.0" y1="30.0" x2="600.0" y2="1610.0" /><line stroke="#ccc" x1="670.58826" y1="30.0" x2="670.58826" y2="1610.0" /><line stroke="#ccc" x1="741.17645" y1="30.0" x2="741.17645" y2="1610.0" /><line stroke="#ccc" x1="811.7647" y1="30.0" x2="811.7647" y2="1610.0" /><line stroke="#ccc" x1="882.35297" y1="30.0" x2="882.35297" y2="1610.0" /><line stroke="#ccc" x1="952.94116" y1="30.0" x2="952.94116" y2="1610.0" /><line stroke="#ccc" x1="1023.5294" y1="30.0" x2="1023.5294" y2="1610.0" /><line stroke="#ccc" x1="1094.1177" y1="30.0" x2="1094.1177" y2="1610.0" /><line stroke="#ccc" x1="1164.7059" y1="30.0" x2="1164.7059" y2="1610.0" /></g><g ><g transform="translate(882.35297 50.0) rotate(15.819202355188114) " ><rect x="0" y="-2.5" height="5" width="69.36684119143628" fill="#000" ><title >n1 → n2 {:msg_id 2, :type "AppendEntries", :term 0, :prevIndex 0, :prevTerm 0, :entries [[["pass" nil] 0]], :commit 0}</title></rect><use xlink:href="#ahead" x="73.36684119143628" y="0" /><text text-anchor="middle" x="36.68342059571814" y="-4" transform="" filter="url(#glow)" style="fill: #fff" >AppendEntries {:term 0, :prevIndex 0, :prevTerm…</text><text text-anchor="middle" x="36.68342059571814" y="-4" transform="" >AppendEntries {:term 0, :prevIndex 0, :prevTerm…</text></g><g transform="translate(882.35297 90.0) rotate(8.06324717750837) " ><rect x="0" y="-2.5" height="5" width="138.5860819964126" fill="#000" ><title >n1 → n3 {:msg_id 3, :type "AppendEntries", :term 0, :prevIndex 0, :prevTerm 0, :entries [[["pass" nil] 0]], :commit 0}</title></rect><use xlink:href="#ahead" x="142.5860819964126" y="0" /><text text-anchor="middle" x="71.2930409982063" y="-4" transform="" filter="url(#glow)" style="fill: #fff" >AppendEntries {:term 0, :prevIndex 0, :prevTerm…</text><text text-anchor="middle" x="71.2930409982063" y="-4" transform="" >AppendEntries {:term 0, :prevIndex 0, :prevTerm…</text></g><g transform="translate(882.35297 130.0) rotate(5.395264477280413) " ><rect x="0" y="-2.5" height="5" width="208.7070571890799" fill="#000" ><title >n1 → n4 {:msg_id 4, :type "AppendEntries", :term 0, :prevIndex 0, :prevTerm 0, :entries [[["pass" nil] 0]], :commit 0}</title></rect><use xlink:href="#ahead" x="212.7070571890799" y="0" /><text text-anchor="middle" x="106.35352859453995" y="-4" transform="" filter="url(#glow)" style="fill: #fff" >AppendEntries {:term 0, :prevIndex 0, :prevTerm…</text><text text-anchor="middle" x="106.35352859453995" y="-4" transform="" >AppendEntries {:term 0, :prevIndex 0, :prevTerm…</text></g><g transform="translate(882.35297 170.0) rotate(4.05168347839079) " ><rect x="0" y="-2.5" height="5" width="279.0604133100598" fill="#000" ><title >n1 → n5 {:msg_id 5, :type "AppendEntries", :term 0, :prevIndex 0, :prevTerm 0, :entries [[["pass" nil] 0]], :commit 0}</title></rect><use xlink:href="#ahead" x="283.0604133100598" y="0" /><text text-anchor="middle" x="141.5302066550299" y="-4" transform="" filter="url(#glow)" style="fill: #fff" >AppendEntries {:term 0, :prevIndex 0, :prevTerm…</text><text text-anchor="middle" x="141.5302066550299" y="-4" transform="" >AppendEntries {:term 0, :prevIndex 0, :prevTerm…</text></g><g transform="translate(952.94116 210.0) rotate(164.1807976448119) " ><rect x="0" y="-2.5" height="5" width="69.36684119143628" fill="#000" ><title >n2 → n1 {:msg_id 2, :in_reply_to 2, :type "AppendEntriesRes", :res true, :term 0, :next 2, :commit 0}</title></rect><use xlink:href="#ahead" x="73.36684119143628" y="0" /><text text-anchor="middle" x="36.68342059571814" y="-4" transform="rotate(180 36.68342059571814 0)" filter="url(#glow)" style="fill: #fff" >AppendEntriesRes {:res true, :term 0, :next 2, …</text><text text-anchor="middle" x="36.68342059571814" y="-4" transform="rotate(180 36.68342059571814 0)" >AppendEntriesRes {:res true, :term 0, :next 2, …</text></g><g transform="translate(1023.5294 270.0) rotate(171.93675282249163) " ><rect x="0" y="-2.5" height="5" width="138.5860819964126" fill="#000" ><title >n3 → n1 {:msg_id 2, :in_reply_to 3, :type "AppendEntriesRes", :res true, :term 0, :next 2, :commit 0}</title></rect><use xlink:href="#ahead" x="142.5860819964126" y="0" /><text text-anchor="middle" x="71.2930409982063" y="-4" transform="rotate(180 71.2930409982063 0)" filter="url(#glow)" style="fill: #fff" >AppendEntriesRes {:res true, :term 0, :next 2, …</text><text text-anchor="middle" x="71.2930409982063" y="-4" transform="rotate(180 71.2930409982063 0)" >AppendEntriesRes {:res true, :term 0, :next 2, …</text></g><g transform="translate(1094.1177 250.0) rotate(164.18080630727815) " ><rect x="0" y="-2.5" height="5" width="216.10064102141664" fill="#000" ><title >n4 → n1 {:msg_id 2, :in_reply_to 4, :type "AppendEntriesRes", :res true, :term 0, :next 2, :commit 0}</title></rect><use xlink:href="#ahead" x="220.10064102141664" y="0" /><text text-anchor="middle" x="110.05032051070832" y="-4" transform="rotate(180 110.05032051070832 0)" filter="url(#glow)" style="fill: #fff" >AppendEntriesRes {:res true, :term 0, :next 2, …</text><text text-anchor="middle" x="110.05032051070832" y="-4" transform="rotate(180 110.05032051070832 0)" >AppendEntriesRes {:res true, :term 0, :next 2, …</text></g><g transform="translate(1164.7059 330.0) rotate(175.94831652160923) " ><rect x="0" y="-2.5" height="5" width="279.0604133100598" fill="#000" ><title >n5 → n1 {:msg_id 2, :in_reply_to 5, :type "AppendEntriesRes", :res true, :term 0, :next 2, :commit 0}</title></rect><use xlink:href="#ahead" x="283.0604133100598" y="0" /><text text-anchor="middle" x="141.5302066550299" y="-4" transform="rotate(180 141.5302066550299 0)" filter="url(#glow)" style="fill: #fff" >AppendEntriesRes {:res true, :term 0, :next 2, …</text><text text-anchor="middle" x="141.5302066550299" y="-4" transform="rotate(180 141.5302066550299 0)" >AppendEntriesRes {:res true, :term 0, :next 2, …</text></g><g transform="translate(35.294117 370.0) rotate(1.3525656676091318) " ><rect x="0" y="-2.5" height="5" width="843.294927540732" fill="#81BFFC" ><title >c10 → n1 {:key 1, :from 3, :to 0, :type "cas", :msg_id 1}</title></rect><use xlink:href="#ahead" x="847.294927540732" y="0" /><text text-anchor="middle" x="423.647463770366" y="-4" transform="" filter="url(#glow)" style="fill: #fff" >cas {:key 1, :from 3, :to 0}</text><text text-anchor="middle" x="423.647463770366" y="-4" transform="" >cas {:key 1, :from 3, :to 0}</text></g><g transform="translate(105.882355 410.0) rotate(1.082124878581169) " ><rect x="0" y="-2.5" height="5" width="1055.0124499156864" fill="#81BFFC" ><title >c11 → n5 {:key 1, :from 4, :to 2, :type "cas", :msg_id 1}</title></rect><use xlink:href="#ahead" x="1059.0124499156864" y="0" /><text text-anchor="middle" x="529.5062249578432" y="-4" transform="" filter="url(#glow)" style="fill: #fff" >cas {:key 1, :from 4, :to 2}</text><text text-anchor="middle" x="529.5062249578432" y="-4" transform="" >cas {:key 1, :from 4, :to 2}</text></g><g transform="translate(1164.7059 450.0) rotate(178.91787512141883) " ><rect x="0" y="-2.5" height="5" width="1055.0124499156864" fill="#FF1E90" ><title >n5 → c11 {:msg_id 3, :in_reply_to 1, :type "error", :code 11, :text "Not Leader"}</title></rect><use xlink:href="#ahead" x="1059.0124499156864" y="0" /><text text-anchor="middle" x="529.5062249578432" y="-4" transform="rotate(180 529.5062249578432 0)" filter="url(#glow)" style="fill: #fff" >error Not Leader</text><text text-anchor="middle" x="529.5062249578432" y="-4" transform="rotate(180 529.5062249578432 0)" >error Not Leader</text></g><g transform="translate(176.47058 490.0) rotate(1.1593991033386262) " ><rect x="0" y="-2.5" height="5" width="984.4377117845403" fill="#81BFFC" ><title >c12 → n5 {:key 1, :value 1, :type "write", :msg_id 1}</title></rect><use xlink:href="#ahead" x="988.4377117845403" y="0" /><text text-anchor="middle" x="494.21885589227014" y="-4" transform="" filter="url(#glow)" style="fill: #fff" >write {:key 1, :value 1}</text><text text-anchor="middle" x="494.21885589227014" y="-4" transform="" >write {:key 1, :value 1}</text></g><g transform="translate(1164.7059 530.0) rotate(178.84060089666139) " ><rect x="0" y="-2.5" height="5" width="984.4377117845403" fill="#FF1E90" ><title >n5 → c12 {:msg_id 4, :in_reply_to 1, :type "error", :code 11, :text "Not Leader"}</title></rect><use xlink:href="#ahead" x="988.4377117845403" y="0" /><text text-anchor="middle" x="494.21885589227014" y="-4" transform="rotate(180 494.21885589227014 0)" filter="url(#glow)" style="fill: #fff" >error Not Leader</text><text text-anchor="middle" x="494.21885589227014" y="-4" transform="rotate(180 494.21885589227014 0)" >error Not Leader</text></g><g transform="translate(247.05882 570.0) rotate(1.622946255019091) " ><rect x="0" y="-2.5" height="5" width="702.1656159756603" fill="#81BFFC" ><title >c13 → n2 {:key 0, :type "read", :msg_id 1}</title></rect><use xlink:href="#ahead" x="706.1656159756603" y="0" /><text text-anchor="middle" x="353.08280798783017" y="-4" transform="" filter="url(#glow)" style="fill: #fff" >read {:key 0}</text><text text-anchor="middle" x="353.08280798783017" y="-4" transform="" >read {:key 0}</text></g><g transform="translate(952.94116 610.0) rotate(178.3770537449809) " ><rect x="0" y="-2.5" height="5" width="702.1656159756603" fill="#FF1E90" ><title >n2 → c13 {:msg_id 3, :in_reply_to 1, :type "error", :code 11, :text "Not Leader"}</title></rect><use xlink:href="#ahead" x="706.1656159756603" y="0" /><text text-anchor="middle" x="353.08280798783017" y="-4" transform="rotate(180 353.08280798783017 0)" filter="url(#glow)" style="fill: #fff" >error Not Leader</text><text text-anchor="middle" x="353.08280798783017" y="-4" transform="rotate(180 353.08280798783017 0)" >error Not Leader</text></g><g transform="translate(317.64706 650.0) rotate(1.3525656371643064) " ><rect x="0" y="-2.5" height="5" width="843.2949466089041" fill="#81BFFC" ><title >c14 → n5 {:key 0, :from 1, :to 3, :type "cas", :msg_id 1}</title></rect><use xlink:href="#ahead" x="847.2949466089041" y="0" /><text text-anchor="middle" x="423.64747330445203" y="-4" transform="" filter="url(#glow)" style="fill: #fff" >cas {:key 0, :from 1, :to 3}</text><text text-anchor="middle" x="423.64747330445203" y="-4" transform="" >cas {:key 0, :from 1, :to 3}</text></g><g transform="translate(1164.7059 690.0) rotate(178.6474343628357) " ><rect x="0" y="-2.5" height="5" width="843.2949466089041" fill="#FF1E90" ><title >n5 → c14 {:msg_id 5, :in_reply_to 1, :type "error", :code 11, :text "Not Leader"}</title></rect><use xlink:href="#ahead" x="847.2949466089041" y="0" /><text text-anchor="middle" x="423.64747330445203" y="-4" transform="rotate(180 423.64747330445203 0)" filter="url(#glow)" style="fill: #fff" >error Not Leader</text><text text-anchor="middle" x="423.64747330445203" y="-4" transform="rotate(180 423.64747330445203 0)" >error Not Leader</text></g><g transform="translate(388.2353 730.0) rotate(1.622946149827557) " ><rect x="0" y="-2.5" height="5" width="702.1656617336644" fill="#81BFFC" ><title >c15 → n4 {:key 1, :from 0, :to 0, :type "cas", :msg_id 1}</title></rect><use xlink:href="#ahead" x="706.1656617336644" y="0" /><text text-anchor="middle" x="353.0828308668322" y="-4" transform="" filter="url(#glow)" style="fill: #fff" >cas {:key 1, :from 0, :to 0}</text><text text-anchor="middle" x="353.0828308668322" y="-4" transform="" >cas {:key 1, :from 0, :to 0}</text></g><g transform="translate(1094.1177 770.0) rotate(178.37705385017244) " ><rect x="0" y="-2.5" height="5" width="702.1656617336644" fill="#FF1E90" ><title >n4 → c15 {:msg_id 3, :in_reply_to 1, :type "error", :code 11, :text "Not Leader"}</title></rect><use xlink:href="#ahead" x="706.1656617336644" y="0" /><text text-anchor="middle" x="353.0828308668322" y="-4" transform="rotate(180 353.0828308668322 0)" filter="url(#glow)" style="fill: #fff" >error Not Leader</text><text text-anchor="middle" x="353.0828308668322" y="-4" transform="rotate(180 353.0828308668322 0)" >error Not Leader</text></g><g transform="translate(458.82352 810.0) rotate(1.622946079699875) " ><rect x="0" y="-2.5" height="5" width="702.1656922390005" fill="#81BFFC" ><title >c16 → n5 {:key 0, :type "read", :msg_id 1}</title></rect><use xlink:href="#ahead" x="706.1656922390005" y="0" /><text text-anchor="middle" x="353.08284611950023" y="-4" transform="" filter="url(#glow)" style="fill: #fff" >read {:key 0}</text><text text-anchor="middle" x="353.08284611950023" y="-4" transform="" >read {:key 0}</text></g><g transform="translate(1164.7059 850.0) rotate(178.37705392030014) " ><rect x="0" y="-2.5" height="5" width="702.1656922390005" fill="#FF1E90" ><title >n5 → c16 {:msg_id 6, :in_reply_to 1, :type "error", :code 11, :text "Not Leader"}</title></rect><use xlink:href="#ahead" x="706.1656922390005" y="0" /><text text-anchor="middle" x="353.08284611950023" y="-4" transform="rotate(180 353.08284611950023 0)" filter="url(#glow)" style="fill: #fff" >error Not Leader</text><text text-anchor="middle" x="353.08284611950023" y="-4" transform="rotate(180 353.08284611950023 0)" >error Not Leader</text></g><g transform="translate(529.41174 890.0) rotate(2.7036255410416428) " ><rect x="0" y="-2.5" height="5" width="420.001378196055" fill="#81BFFC" ><title >c17 → n2 {:key 0, :from 3, :to 1, :type "cas", :msg_id 1}</title></rect><use xlink:href="#ahead" x="424.001378196055" y="0" /><text text-anchor="middle" x="212.0006890980275" y="-4" transform="" filter="url(#glow)" style="fill: #fff" >cas {:key 0, :from 3, :to 1}</text><text text-anchor="middle" x="212.0006890980275" y="-4" transform="" >cas {:key 0, :from 3, :to 1}</text></g><g transform="translate(952.94116 930.0) rotate(177.29637445895838) " ><rect x="0" y="-2.5" height="5" width="420.001378196055" fill="#FF1E90" ><title >n2 → c17 {:msg_id 4, :in_reply_to 1, :type "error", :code 11, :text "Not Leader"}</title></rect><use xlink:href="#ahead" x="424.001378196055" y="0" /><text text-anchor="middle" x="212.0006890980275" y="-4" transform="rotate(180 212.0006890980275 0)" filter="url(#glow)" style="fill: #fff" >error Not Leader</text><text text-anchor="middle" x="212.0006890980275" y="-4" transform="rotate(180 212.0006890980275 0)" >error Not Leader</text></g><g transform="translate(529.41174 970.0) rotate(2.7036255410416428) " ><rect x="0" y="-2.5" height="5" width="420.001378196055" fill="#81BFFC" ><title >c17 → n2 {:key 0, :from 4, :to 0, :type "cas", :msg_id 2}</title></rect><use xlink:href="#ahead" x="424.001378196055" y="0" /><text text-anchor="middle" x="212.0006890980275" y="-4" transform="" filter="url(#glow)" style="fill: #fff" >cas {:key 0, :from 4, :to 0}</text><text text-anchor="middle" x="212.0006890980275" y="-4" transform="" >cas {:key 0, :from 4, :to 0}</text></g><g transform="translate(952.94116 1010.0) rotate(177.29637445895838) " ><rect x="0" y="-2.5" height="5" width="420.001378196055" fill="#FF1E90" ><title >n2 → c17 {:msg_id 5, :in_reply_to 2, :type "error", :code 11, :text "Not Leader"}</title></rect><use xlink:href="#ahead" x="424.001378196055" y="0" /><text text-anchor="middle" x="212.0006890980275" y="-4" transform="rotate(180 212.0006890980275 0)" filter="url(#glow)" style="fill: #fff" >error Not Leader</text><text text-anchor="middle" x="212.0006890980275" y="-4" transform="rotate(180 212.0006890980275 0)" >error Not Leader</text></g><g transform="translate(458.82352 1050.0) rotate(1.622946079699875) " ><rect x="0" y="-2.5" height="5" width="702.1656922390005" fill="#81BFFC" ><title >c16 → n5 {:key 0, :type "read", :msg_id 2}</title></rect><use xlink:href="#ahead" x="706.1656922390005" y="0" /><text text-anchor="middle" x="353.08284611950023" y="-4" transform="" filter="url(#glow)" style="fill: #fff" >read {:key 0}</text><text text-anchor="middle" x="353.08284611950023" y="-4" transform="" >read {:key 0}</text></g><g transform="translate(1164.7059 1090.0) rotate(178.37705392030014) " ><rect x="0" y="-2.5" height="5" width="702.1656922390005" fill="#FF1E90" ><title >n5 → c16 {:msg_id 7, :in_reply_to 2, :type "error", :code 11, :text "Not Leader"}</title></rect><use xlink:href="#ahead" x="706.1656922390005" y="0" /><text text-anchor="middle" x="353.08284611950023" y="-4" transform="rotate(180 353.08284611950023 0)" filter="url(#glow)" style="fill: #fff" >error Not Leader</text><text text-anchor="middle" x="353.08284611950023" y="-4" transform="rotate(180 353.08284611950023 0)" >error Not Leader</text></g><g transform="translate(600.0 1130.0) rotate(2.7036255410416428) " ><rect x="0" y="-2.5" height="5" width="420.001378196055" fill="#81BFFC" ><title >c18 → n3 {:key 0, :value 0, :type "write", :msg_id 1}</title></rect><use xlink:href="#ahead" x="424.001378196055" y="0" /><text text-anchor="middle" x="212.0006890980275" y="-4" transform="" filter="url(#glow)" style="fill: #fff" >write {:key 0, :value 0}</text><text text-anchor="middle" x="212.0006890980275" y="-4" transform="" >write {:key 0, :value 0}</text></g><g transform="translate(1023.5294 1170.0) rotate(177.29637445895838) " ><rect x="0" y="-2.5" height="5" width="420.001378196055" fill="#FF1E90" ><title >n3 → c18 {:msg_id 3, :in_reply_to 1, :type "error", :code 11, :text "Not Leader"}</title></rect><use xlink:href="#ahead" x="424.001378196055" y="0" /><text text-anchor="middle" x="212.0006890980275" y="-4" transform="rotate(180 212.0006890980275 0)" filter="url(#glow)" style="fill: #fff" >error Not Leader</text><text text-anchor="middle" x="212.0006890980275" y="-4" transform="rotate(180 212.0006890980275 0)" >error Not Leader</text></g><g transform="translate(670.58826 1210.0) rotate(4.051684351310921) " ><rect x="0" y="-2.5" height="5" width="279.06035242744747" fill="#81BFFC" ><title >c19 → n2 {:key 1, :from 0, :to 3, :type "cas", :msg_id 1}</title></rect><use xlink:href="#ahead" x="283.06035242744747" y="0" /><text text-anchor="middle" x="141.53017621372373" y="-4" transform="" filter="url(#glow)" style="fill: #fff" >cas {:key 1, :from 0, :to 3}</text><text text-anchor="middle" x="141.53017621372373" y="-4" transform="" >cas {:key 1, :from 0, :to 3}</text></g><g transform="translate(952.94116 1250.0) rotate(175.9483156486891) " ><rect x="0" y="-2.5" height="5" width="279.06035242744747" fill="#FF1E90" ><title >n2 → c19 {:msg_id 6, :in_reply_to 1, :type "error", :code 11, :text "Not Leader"}</title></rect><use xlink:href="#ahead" x="283.06035242744747" y="0" /><text text-anchor="middle" x="141.53017621372373" y="-4" transform="rotate(180 141.53017621372373 0)" filter="url(#glow)" style="fill: #fff" >error Not Leader</text><text text-anchor="middle" x="141.53017621372373" y="-4" transform="rotate(180 141.53017621372373 0)" >error Not Leader</text></g><g transform="translate(741.17645 1290.0) rotate(3.243291854789695) " ><rect x="0" y="-2.5" height="5" width="349.50743555794946" fill="#81BFFC" ><title >c20 → n4 {:key 0, :type "read", :msg_id 1}</title></rect><use xlink:href="#ahead" x="353.50743555794946" y="0" /><text text-anchor="middle" x="176.75371777897473" y="-4" transform="" filter="url(#glow)" style="fill: #fff" >read {:key 0}</text><text text-anchor="middle" x="176.75371777897473" y="-4" transform="" >read {:key 0}</text></g><g transform="translate(1094.1177 1330.0) rotate(176.75670814521033) " ><rect x="0" y="-2.5" height="5" width="349.50743555794946" fill="#FF1E90" ><title >n4 → c20 {:msg_id 4, :in_reply_to 1, :type "error", :code 11, :text "Not Leader"}</title></rect><use xlink:href="#ahead" x="353.50743555794946" y="0" /><text text-anchor="middle" x="176.75371777897473" y="-4" transform="rotate(180 176.75371777897473 0)" filter="url(#glow)" style="fill: #fff" >error Not Leader</text><text text-anchor="middle" x="176.75371777897473" y="-4" transform="rotate(180 176.75371777897473 0)" >error Not Leader</text></g><g transform="translate(811.7647 1370.0) rotate(8.06324717750837) " ><rect x="0" y="-2.5" height="5" width="138.5860819964126" fill="#81BFFC" ><title >c21 → n2 {:key 1, :from 2, :to 3, :type "cas", :msg_id 1}</title></rect><use xlink:href="#ahead" x="142.5860819964126" y="0" /><text text-anchor="middle" x="71.2930409982063" y="-4" transform="" filter="url(#glow)" style="fill: #fff" >cas {:key 1, :from 2, :to 3}</text><text text-anchor="middle" x="71.2930409982063" y="-4" transform="" >cas {:key 1, :from 2, :to 3}</text></g><g transform="translate(952.94116 1410.0) rotate(171.93675282249163) " ><rect x="0" y="-2.5" height="5" width="138.5860819964126" fill="#FF1E90" ><title >n2 → c21 {:msg_id 7, :in_reply_to 1, :type "error", :code 11, :text "Not Leader"}</title></rect><use xlink:href="#ahead" x="142.5860819964126" y="0" /><text text-anchor="middle" x="71.2930409982063" y="-4" transform="rotate(180 71.2930409982063 0)" filter="url(#glow)" style="fill: #fff" >error Not Leader</text><text text-anchor="middle" x="71.2930409982063" y="-4" transform="rotate(180 71.2930409982063 0)" >error Not Leader</text></g><g transform="translate(388.2353 1450.0) rotate(1.622946149827557) " ><rect x="0" y="-2.5" height="5" width="702.1656617336644" fill="#81BFFC" ><title >c15 → n4 {:key 1, :value 4, :type "write", :msg_id 2}</title></rect><use xlink:href="#ahead" x="706.1656617336644" y="0" /><text text-anchor="middle" x="353.0828308668322" y="-4" transform="" filter="url(#glow)" style="fill: #fff" >write {:key 1, :value 4}</text><text text-anchor="middle" x="353.0828308668322" y="-4" transform="" >write {:key 1, :value 4}</text></g><g transform="translate(1094.1177 1490.0) rotate(178.37705385017244) " ><rect x="0" y="-2.5" height="5" width="702.1656617336644" fill="#FF1E90" ><title >n4 → c15 {:msg_id 5, :in_reply_to 2, :type "error", :code 11, :text "Not Leader"}</title></rect><use xlink:href="#ahead" x="706.1656617336644" y="0" /><text text-anchor="middle" x="353.0828308668322" y="-4" transform="rotate(180 353.0828308668322 0)" filter="url(#glow)" style="fill: #fff" >error Not Leader</text><text text-anchor="middle" x="353.0828308668322" y="-4" transform="rotate(180 353.0828308668322 0)" >error Not Leader</text></g><g transform="translate(105.882355 1530.0) rotate(1.082124878581169) " ><rect x="0" y="-2.5" height="5" width="1055.0124499156864" fill="#81BFFC" ><title >c11 → n5 {:key 1, :from 1, :to 2, :type "cas", :msg_id 2}</title></rect><use xlink:href="#ahead" x="1059.0124499156864" y="0" /><text text-anchor="middle" x="529.5062249578432" y="-4" transform="" filter="url(#glow)" style="fill: #fff" >cas {:key 1, :from 1, :to 2}</text><text text-anchor="middle" x="529.5062249578432" y="-4" transform="" >cas {:key 1, :from 1, :to 2}</text></g><g transform="translate(1164.7059 1570.0) rotate(178.91787512141883) " ><rect x="0" y="-2.5" height="5" width="1055.0124499156864" fill="#FF1E90" ><title >n5 → c11 {:msg_id 8, :in_reply_to 2, :type "error", :code 11, :text "Not Leader"}</title></rect><use xlink:href="#ahead" x="1059.0124499156864" y="0" /><text text-anchor="middle" x="529.5062249578432" y="-4" transform="rotate(180 529.5062249578432 0)" filter="url(#glow)" style="fill: #fff" >error Not Leader</text><text text-anchor="middle" x="529.5062249578432" y="-4" transform="rotate(180 529.5062249578432 0)" >error Not Leader</text></g></g></svg>