<?xml version="1.0" encoding="UTF-8"?><svg xmlns:svg="http://www.w3.org/2000/svg" xmlns="http://www.w3.org/2000/svg" xmlns:xlink="http://www.w3.org/1999/xlink" version="2.0" width="1200" height="1580" ><style >
svg {
  font-family: Helvetica, Arial, sans-serif;
  font-size: 11px;
}
rect {
  stroke-linecap: butt;
  stroke-width: 3;
  stroke: #fff;
/*  stroke-opacity: 1; */
}
rect:hover {
  stroke: #fff;
/*  stroke-opacity: 1; /*
}
polygon { fill: #000; }</style><defs ><polygon id="ahead" points="0 0, -12 4, -12 -4" /><filter id="glow" x="0" y="0" ><feGaussianBlur in="SourceAlpha" stdDeviation="2" result="blurred" /><feFlood flood-color="#fff" /><feComposite operator="in" in2="blurred" /><feComponentTransfer ><feFuncA type="linear" slope="10" intercept="0" /></feComponentTransfer><feMerge ><feMergeNode /><feMergeNode in="SourceGraphic" /></feMerge></filter></defs><g ><text x="50.0" y="20.0" text-anchor="middle" alignment-baseline="middle" fill="#000" >c10</text><text x="50.0" y="1020.0" text-anchor="middle" alignment-baseline="middle" fill="#aaa" >c10</text><text x="150.0" y="20.0" text-anchor="middle" alignment-baseline="middle" fill="#000" >c11</text><text x="150.0" y="1020.0" text-anchor="middle" alignment-baseline="middle" fill="#aaa" >c11</text><text x="250.0" y="20.0" text-anchor="middle" alignment-baseline="middle" fill="#000" >c12</text><text x="250.0" y="1020.0" text-anchor="middle" alignment-baseline="middle" fill="#aaa" >c12</text><text x="350.0" y="20.0" text-anchor="middle" alignment-baseline="middle" fill="#000" >c13</text><text x="350.0" y="1020.0" text-anchor="middle" alignment-baseline="middle" fill="#aaa" >c13</text><text x="450.0" y="20.0" text-anchor="middle" alignment-baseline="middle" fill="#000" >c14</text><text x="450.0" y="1020.0" text-anchor="middle" alignment-baseline="middle" fill="#aaa" >c14</text><text x="550.0" y="20.0" text-anchor="middle" alignment-baseline="middle" fill="#000" >c15</text><text x="550.0" y="1020.0" text-anchor="middle" alignment-baseline="middle" fill="#aaa" >c15</text><text x="650.0" y="20.0" text-anchor="middle" alignment-baseline="middle" fill="#000" >c16</text><text x="650.0" y="1020.0" text-anchor="middle" alignment-baseline="middle" fill="#aaa" >c16</text><text x="750.0" y="20.0" text-anchor="middle" alignment-baseline="middle" fill="#000" >n1</text><text x="750.0" y="1020.0" text-anchor="middle" alignment-baseline="middle" fill="#aaa" >n1</text><text x="850.0" y="20.0" text-anchor="middle" alignment-baseline="middle" fill="#000" >n2</text><text x="850.0" y="1020.0" text-anchor="middle" alignment-baseline="middle" fill="#aaa" >n2</text><text x="950.0" y="20.0" text-anchor="middle" alignment-baseline="middle" fill="#000" >n3</text><text x="950.0" y="1020.0" text-anchor="middle" alignment-baseline="middle" fill="#aaa" >n3</text><text x="1050.0" y="20.0" text-anchor="middle" alignment-baseline="middle" fill="#000" >n4</text><text x="1050.0" y="1020.0" text-anchor="middle" alignment-baseline="middle" fill="#aaa" >n4</text><text x="1150.0" y="20.0" text-anchor="middle" alignment-baseline="middle" fill="#000" >n5</text><text x="1150.0" y="1020.0" text-anchor="middle" alignment-baseline="middle" fill="#aaa" >n5</text></g><g ><line stroke="#ccc" x1="50.0" y1="30.0" x2="50.0" y2="1490.0" /><line stroke="#ccc" x1="150.0" y1="30.0" x2="150.0" y2="1490.0" /><line stroke="#ccc" x1="250.0" y1="30.0" x2="250.0" y2="1490.0" /><line stroke="#ccc" x1="350.0" y1="30.0" x2="350.0" y2="1490.0" /><line stroke="#ccc" x1="450.0" y1="30.0" x2="450.0" y2="1490.0" /><line stroke="#ccc" x1="550.0" y1="30.0" x2="550.0" y2="1490.0" /><line stroke="#ccc" x1="650.0" y1="30.0" x2="650.0" y2="1490.0" /><line stroke="#ccc" x1="750.0" y1="30.0" x2="750.0" y2="1490.0" /><line stroke="#ccc" x1="850.0" y1="30.0" x2="850.0" y2="1490.0" /><line stroke="#ccc" x1="950.0" y1="30.0" x2="950.0" y2="1490.0" /><line stroke="#ccc" x1="1050.0" y1="30.0" x2="1050.0" y2="1490.0" /><line stroke="#ccc" x1="1150.0" y1="30.0" x2="1150.0" y2="1490.0" /></g><g ><g transform="translate(1150.0 50.0) rotate(168.69006752597983) " ><rect x="0" y="-2.5" height="5" width="403.9215610874228" fill="#000" ><title >n5 → n1 {:msg_id 2, :type "RequestVote", :term 1, :prevLogIndex 2, :lastLogTerm 0, :candidateId "n5"}</title></rect><use xlink:href="#ahead" x="407.9215610874228" y="0" /><text text-anchor="middle" x="203.9607805437114" y="-4" transform="rotate(180 203.9607805437114 0)" filter="url(#glow)" style="fill: #fff" >RequestVote {:term 1, :prevLogIndex 2, :lastLog…</text><text text-anchor="middle" x="203.9607805437114" y="-4" transform="rotate(180 203.9607805437114 0)" >RequestVote {:term 1, :prevLogIndex 2, :lastLog…</text></g><g transform="translate(1150.0 150.0) rotate(172.40535663140858) " ><rect x="0" y="-2.5" height="5" width="298.65491900843114" fill="#000" ><title >n5 → n2 {:msg_id 3, :type "RequestVote", :term 1, :prevLogIndex 2, :lastLogTerm 0, :candidateId "n5"}</title></rect><use xlink:href="#ahead" x="302.65491900843114" y="0" /><text text-anchor="middle" x="151.32745950421557" y="-4" transform="rotate(180 151.32745950421557 0)" filter="url(#glow)" style="fill: #fff" >RequestVote {:term 1, :prevLogIndex 2, :lastLog…</text><text text-anchor="middle" x="151.32745950421557" y="-4" transform="rotate(180 151.32745950421557 0)" >RequestVote {:term 1, :prevLogIndex 2, :lastLog…</text></g><g transform="translate(1050.0 70.0) rotate(154.98310652189997) " ><rect x="0" y="-2.5" height="5" width="327.058907144937" fill="#000" ><title >n4 → n1 {:msg_id 2, :type "RequestVote", :term 1, :prevLogIndex 2, :lastLogTerm 0, :candidateId "n4"}</title></rect><use xlink:href="#ahead" x="331.058907144937" y="0" /><text text-anchor="middle" x="165.5294535724685" y="-4" transform="rotate(180 165.5294535724685 0)" filter="url(#glow)" style="fill: #fff" >RequestVote {:term 1, :prevLogIndex 2, :lastLog…</text><text text-anchor="middle" x="165.5294535724685" y="-4" transform="rotate(180 165.5294535724685 0)" >RequestVote {:term 1, :prevLogIndex 2, :lastLog…</text></g><g transform="translate(950.0 90.0) rotate(141.34019174590992) " ><rect x="0" y="-2.5" height="5" width="252.12496949731394" fill="#000" ><title >n3 → n1 {:msg_id 2, :type "RequestVote", :term 1, :prevLogIndex 2, :lastLogTerm 0, :candidateId "n3"}</title></rect><use xlink:href="#ahead" x="256.12496949731394" y="0" /><text text-anchor="middle" x="128.06248474865697" y="-4" transform="rotate(180 128.06248474865697 0)" filter="url(#glow)" style="fill: #fff" >RequestVote {:term 1, :prevLogIndex 2, :lastLog…</text><text text-anchor="middle" x="128.06248474865697" y="-4" transform="rotate(180 128.06248474865697 0)" >RequestVote {:term 1, :prevLogIndex 2, :lastLog…</text></g><g transform="translate(1050.0 170.0) rotate(141.34019174590992) " ><rect x="0" y="-2.5" height="5" width="252.12496949731394" fill="#000" ><title >n4 → n2 {:msg_id 3, :type "RequestVote", :term 1, :prevLogIndex 2, :lastLogTerm 0, :candidateId "n4"}</title></rect><use xlink:href="#ahead" x="256.12496949731394" y="0" /><text text-anchor="middle" x="128.06248474865697" y="-4" transform="rotate(180 128.06248474865697 0)" filter="url(#glow)" style="fill: #fff" >RequestVote {:term 1, :prevLogIndex 2, :lastLog…</text><text text-anchor="middle" x="128.06248474865697" y="-4" transform="rotate(180 128.06248474865697 0)" >RequestVote {:term 1, :prevLogIndex 2, :lastLog…</text></g><g transform="translate(1050.0 310.0) rotate(90.0) " ><rect x="0" y="-2.5" height="5" width="56.0" fill="#000" ><title >n4 → n4 {:msg_id 5, :type "RequestVote", :term 1, :prevLogIndex 2, :lastLogTerm 0, :candidateId "n4"}</title></rect><use xlink:href="#ahead" x="60.0" y="0" /><text text-anchor="middle" x="30.0" y="-4" transform="rotate(180 30.0 0)" filter="url(#glow)" style="fill: #fff" >RequestVote {:term 1, :prevLogIndex 2, :lastLog…</text><text text-anchor="middle" x="30.0" y="-4" transform="rotate(180 30.0 0)" >RequestVote {:term 1, :prevLogIndex 2, :lastLog…</text></g><g transform="translate(950.0 230.0) rotate(119.05460409907714) " ><rect x="0" y="-2.5" height="5" width="201.91260281974002" fill="#000" ><title >n3 → n2 {:msg_id 3, :type "RequestVote", :term 1, :prevLogIndex 2, :lastLogTerm 0, :candidateId "n3"}</title></rect><use xlink:href="#ahead" x="205.91260281974002" y="0" /><text text-anchor="middle" x="102.95630140987001" y="-4" transform="rotate(180 102.95630140987001 0)" filter="url(#glow)" style="fill: #fff" >RequestVote {:term 1, :prevLogIndex 2, :lastLog…</text><text text-anchor="middle" x="102.95630140987001" y="-4" transform="rotate(180 102.95630140987001 0)" >RequestVote {:term 1, :prevLogIndex 2, :lastLog…</text></g><g transform="translate(950.0 390.0) rotate(21.801409486351815) " ><rect x="0" y="-2.5" height="5" width="103.70329614269008" fill="#000" ><title >n3 → n4 {:msg_id 5, :type "RequestVote", :term 1, :prevLogIndex 2, :lastLogTerm 0, :candidateId "n3"}</title></rect><use xlink:href="#ahead" x="107.70329614269008" y="0" /><text text-anchor="middle" x="53.85164807134504" y="-4" transform="" filter="url(#glow)" style="fill: #fff" >RequestVote {:term 1, :prevLogIndex 2, :lastLog…</text><text text-anchor="middle" x="53.85164807134504" y="-4" transform="" >RequestVote {:term 1, :prevLogIndex 2, :lastLog…</text></g><g transform="translate(850.0 350.0) rotate(90.0) " ><rect x="0" y="-2.5" height="5" width="116.0" fill="#000" ><title >n2 → n2 {:msg_id 3, :type "RequestVote", :term 1, :prevLogIndex 2, :lastLogTerm 0, :candidateId "n2"}</title></rect><use xlink:href="#ahead" x="120.0" y="0" /><text text-anchor="middle" x="60.0" y="-4" transform="rotate(180 60.0 0)" filter="url(#glow)" style="fill: #fff" >RequestVote {:term 1, :prevLogIndex 2, :lastLog…</text><text text-anchor="middle" x="60.0" y="-4" transform="rotate(180 60.0 0)" >RequestVote {:term 1, :prevLogIndex 2, :lastLog…</text></g><g transform="translate(1050.0 450.0) rotate(38.659808254090095) " ><rect x="0" y="-2.5" height="5" width="124.06248474865697" fill="#000" ><title >n4 → n5 {:msg_id 6, :type "RequestVote", :term 1, :prevLogIndex 2, :lastLogTerm 0, :candidateId "n4"}</title></rect><use xlink:href="#ahead" x="128.06248474865697" y="0" /><text text-anchor="middle" x="64.03124237432849" y="-4" transform="" filter="url(#glow)" style="fill: #fff" >RequestVote {:term 1, :prevLogIndex 2, :lastLog…</text><text text-anchor="middle" x="64.03124237432849" y="-4" transform="" >RequestVote {:term 1, :prevLogIndex 2, :lastLog…</text></g><g transform="translate(950.0 510.0) rotate(11.309932474020215) " ><rect x="0" y="-2.5" height="5" width="199.9607805437114" fill="#000" ><title >n3 → n5 {:msg_id 6, :type "RequestVote", :term 1, :prevLogIndex 2, :lastLogTerm 0, :candidateId "n3"}</title></rect><use xlink:href="#ahead" x="203.9607805437114" y="0" /><text text-anchor="middle" x="101.9803902718557" y="-4" transform="" filter="url(#glow)" style="fill: #fff" >RequestVote {:term 1, :prevLogIndex 2, :lastLog…</text><text text-anchor="middle" x="101.9803902718557" y="-4" transform="" >RequestVote {:term 1, :prevLogIndex 2, :lastLog…</text></g><g transform="translate(1050.0 270.0) rotate(105.52411099675427) " ><rect x="0" y="-2.5" height="5" width="369.6308338453881" fill="#000" ><title >n4 → n3 {:msg_id 4, :type "RequestVote", :term 1, :prevLogIndex 2, :lastLogTerm 0, :candidateId "n4"}</title></rect><use xlink:href="#ahead" x="373.6308338453881" y="0" /><text text-anchor="middle" x="186.81541692269406" y="-4" transform="rotate(180 186.81541692269406 0)" filter="url(#glow)" style="fill: #fff" >RequestVote {:term 1, :prevLogIndex 2, :lastLog…</text><text text-anchor="middle" x="186.81541692269406" y="-4" transform="rotate(180 186.81541692269406 0)" >RequestVote {:term 1, :prevLogIndex 2, :lastLog…</text></g><g transform="translate(950.0 290.0) rotate(90.0) " ><rect x="0" y="-2.5" height="5" width="376.0" fill="#000" ><title >n3 → n3 {:msg_id 4, :type "RequestVote", :term 1, :prevLogIndex 2, :lastLogTerm 0, :candidateId "n3"}</title></rect><use xlink:href="#ahead" x="380.0" y="0" /><text text-anchor="middle" x="190.0" y="-4" transform="rotate(180 190.0 0)" filter="url(#glow)" style="fill: #fff" >RequestVote {:term 1, :prevLogIndex 2, :lastLog…</text><text text-anchor="middle" x="190.0" y="-4" transform="rotate(180 190.0 0)" >RequestVote {:term 1, :prevLogIndex 2, :lastLog…</text></g><g transform="translate(850.0 490.0) rotate(63.43494882292201) " ><rect x="0" y="-2.5" height="5" width="219.60679774997897" fill="#000" ><title >n2 → n3 {:msg_id 4, :type "RequestVote", :term 1, :prevLogIndex 2, :lastLogTerm 0, :candidateId "n2"}</title></rect><use xlink:href="#ahead" x="223.60679774997897" y="0" /><text text-anchor="middle" x="111.80339887498948" y="-4" transform="" filter="url(#glow)" style="fill: #fff" >RequestVote {:term 1, :prevLogIndex 2, :lastLog…</text><text text-anchor="middle" x="111.80339887498948" y="-4" transform="" >RequestVote {:term 1, :prevLogIndex 2, :lastLog…</text></g><g transform="translate(1150.0 590.0) rotate(145.00797980144137) " ><rect x="0" y="-2.5" height="5" width="240.13111231467406" fill="#000" ><title >n5 → n3 {:msg_id 4, :type "RequestVote", :term 1, :prevLogIndex 2, :lastLogTerm 0, :candidateId "n5"}</title></rect><use xlink:href="#ahead" x="244.13111231467406" y="0" /><text text-anchor="middle" x="122.06555615733703" y="-4" transform="rotate(180 122.06555615733703 0)" filter="url(#glow)" style="fill: #fff" >RequestVote {:term 1, :prevLogIndex 2, :lastLog…</text><text text-anchor="middle" x="122.06555615733703" y="-4" transform="rotate(180 122.06555615733703 0)" >RequestVote {:term 1, :prevLogIndex 2, :lastLog…</text></g><g transform="translate(850.0 110.0) rotate(98.88065915052024) " ><rect x="0" y="-2.5" height="5" width="643.7653896280659" fill="#000" ><title >n2 → n1 {:msg_id 2, :type "RequestVote", :term 1, :prevLogIndex 2, :lastLogTerm 0, :candidateId "n2"}</title></rect><use xlink:href="#ahead" x="647.7653896280659" y="0" /><text text-anchor="middle" x="323.88269481403296" y="-4" transform="rotate(180 323.88269481403296 0)" filter="url(#glow)" style="fill: #fff" >RequestVote {:term 1, :prevLogIndex 2, :lastLog…</text><text text-anchor="middle" x="323.88269481403296" y="-4" transform="rotate(180 323.88269481403296 0)" >RequestVote {:term 1, :prevLogIndex 2, :lastLog…</text></g><g transform="translate(850.0 570.0) rotate(45.0) " ><rect x="0" y="-2.5" height="5" width="278.842712474619" fill="#000" ><title >n2 → n4 {:msg_id 5, :type "RequestVote", :term 1, :prevLogIndex 2, :lastLogTerm 0, :candidateId "n2"}</title></rect><use xlink:href="#ahead" x="282.842712474619" y="0" /><text text-anchor="middle" x="141.4213562373095" y="-4" transform="" filter="url(#glow)" style="fill: #fff" >RequestVote {:term 1, :prevLogIndex 2, :lastLog…</text><text text-anchor="middle" x="141.4213562373095" y="-4" transform="" >RequestVote {:term 1, :prevLogIndex 2, :lastLog…</text></g><g transform="translate(850.0 610.0) rotate(30.963756532073525) " ><rect x="0" y="-2.5" height="5" width="345.85711369071805" fill="#000" ><title >n2 → n5 {:msg_id 6, :type "RequestVote", :term 1, :prevLogIndex 2, :lastLogTerm 0, :candidateId "n2"}</title></rect><use xlink:href="#ahead" x="349.85711369071805" y="0" /><text text-anchor="middle" x="174.92855684535903" y="-4" transform="" filter="url(#glow)" style="fill: #fff" >RequestVote {:term 1, :prevLogIndex 2, :lastLog…</text><text text-anchor="middle" x="174.92855684535903" y="-4" transform="" >RequestVote {:term 1, :prevLogIndex 2, :lastLog…</text></g><g transform="translate(1150.0 650.0) rotate(122.00538320808353) " ><rect x="0" y="-2.5" height="5" width="184.67962264113208" fill="#000" ><title >n5 → n4 {:msg_id 5, :type "RequestVote", :term 1, :prevLogIndex 2, :lastLogTerm 0, :candidateId "n5"}</title></rect><use xlink:href="#ahead" x="188.67962264113208" y="0" /><text text-anchor="middle" x="94.33981132056604" y="-4" transform="rotate(180 94.33981132056604 0)" filter="url(#glow)" style="fill: #fff" >RequestVote {:term 1, :prevLogIndex 2, :lastLog…</text><text text-anchor="middle" x="94.33981132056604" y="-4" transform="rotate(180 94.33981132056604 0)" >RequestVote {:term 1, :prevLogIndex 2, :lastLog…</text></g><g transform="translate(1150.0 710.0) rotate(90.0) " ><rect x="0" y="-2.5" height="5" width="116.0" fill="#000" ><title >n5 → n5 {:msg_id 6, :type "RequestVote", :term 1, :prevLogIndex 2, :lastLogTerm 0, :candidateId "n5"}</title></rect><use xlink:href="#ahead" x="120.0" y="0" /><text text-anchor="middle" x="60.0" y="-4" transform="rotate(180 60.0 0)" filter="url(#glow)" style="fill: #fff" >RequestVote {:term 1, :prevLogIndex 2, :lastLog…</text><text text-anchor="middle" x="60.0" y="-4" transform="rotate(180 60.0 0)" >RequestVote {:term 1, :prevLogIndex 2, :lastLog…</text></g><g transform="translate(50.0 850.0) rotate(1.2730300200567113) " ><rect x="0" y="-2.5" height="5" width="896.222194794152" fill="#81BFFC" ><title >c10 → n3 {:key 1, :from 0, :to 0, :type "cas", :msg_id 1}</title></rect><use xlink:href="#ahead" x="900.222194794152" y="0" /><text text-anchor="middle" x="450.111097397076" y="-4" transform="" filter="url(#glow)" style="fill: #fff" >cas {:key 1, :from 0, :to 0}</text><text text-anchor="middle" x="450.111097397076" y="-4" transform="" >cas {:key 1, :from 0, :to 0}</text></g><g transform="translate(950.0 890.0) rotate(178.7269699799433) " ><rect x="0" y="-2.5" height="5" width="896.222194794152" fill="#FF1E90" ><title >n3 → c10 {:msg_id 7, :in_reply_to 1, :type "error", :code 11}</title></rect><use xlink:href="#ahead" x="900.222194794152" y="0" /><text text-anchor="middle" x="450.111097397076" y="-4" transform="rotate(180 450.111097397076 0)" filter="url(#glow)" style="fill: #fff" >error </text><text text-anchor="middle" x="450.111097397076" y="-4" transform="rotate(180 450.111097397076 0)" >error </text></g><g transform="translate(150.0 930.0) rotate(1.1457628381751035) " ><rect x="0" y="-2.5" height="5" width="996.199980003999" fill="#81BFFC" ><title >c11 → n5 {:key 0, :type "read", :msg_id 1}</title></rect><use xlink:href="#ahead" x="1000.199980003999" y="0" /><text text-anchor="middle" x="500.0999900019995" y="-4" transform="" filter="url(#glow)" style="fill: #fff" >read {:key 0}</text><text text-anchor="middle" x="500.0999900019995" y="-4" transform="" >read {:key 0}</text></g><g transform="translate(1150.0 970.0) rotate(178.8542371618249) " ><rect x="0" y="-2.5" height="5" width="996.199980003999" fill="#FF1E90" ><title >n5 → c11 {:msg_id 7, :in_reply_to 1, :type "error", :code 11}</title></rect><use xlink:href="#ahead" x="1000.199980003999" y="0" /><text text-anchor="middle" x="500.0999900019995" y="-4" transform="rotate(180 500.0999900019995 0)" filter="url(#glow)" style="fill: #fff" >error </text><text text-anchor="middle" x="500.0999900019995" y="-4" transform="rotate(180 500.0999900019995 0)" >error </text></g><g transform="translate(250.0 1010.0) rotate(2.29061004263853) " ><rect x="0" y="-2.5" height="5" width="496.39984012787215" fill="#81BFFC" ><title >c12 → n1 {:key 0, :type "read", :msg_id 1}</title></rect><use xlink:href="#ahead" x="500.39984012787215" y="0" /><text text-anchor="middle" x="250.19992006393608" y="-4" transform="" filter="url(#glow)" style="fill: #fff" >read {:key 0}</text><text text-anchor="middle" x="250.19992006393608" y="-4" transform="" >read {:key 0}</text></g><g transform="translate(750.0 1050.0) rotate(177.70938995736148) " ><rect x="0" y="-2.5" height="5" width="496.39984012787215" fill="#FF1E90" ><title >n1 → c12 {:msg_id 2, :in_reply_to 1, :type "error", :code 20, :text "Invalid Key"}</title></rect><use xlink:href="#ahead" x="500.39984012787215" y="0" /><text text-anchor="middle" x="250.19992006393608" y="-4" transform="rotate(180 250.19992006393608 0)" filter="url(#glow)" style="fill: #fff" >error Invalid Key</text><text text-anchor="middle" x="250.19992006393608" y="-4" transform="rotate(180 250.19992006393608 0)" >error Invalid Key</text></g><g transform="translate(350.0 1090.0) rotate(1.9091524329963763) " ><rect x="0" y="-2.5" height="5" width="596.3332407921454" fill="#81BFFC" ><title >c13 → n3 {:key 0, :from 4, :to 1, :type "cas", :msg_id 1}</title></rect><use xlink:href="#ahead" x="600.3332407921454" y="0" /><text text-anchor="middle" x="300.1666203960727" y="-4" transform="" filter="url(#glow)" style="fill: #fff" >cas {:key 0, :from 4, :to 1}</text><text text-anchor="middle" x="300.1666203960727" y="-4" transform="" >cas {:key 0, :from 4, :to 1}</text></g><g transform="translate(950.0 1130.0) rotate(178.0908475670036) " ><rect x="0" y="-2.5" height="5" width="596.3332407921454" fill="#FF1E90" ><title >n3 → c13 {:msg_id 8, :in_reply_to 1, :type "error", :code 11}</title></rect><use xlink:href="#ahead" x="600.3332407921454" y="0" /><text text-anchor="middle" x="300.1666203960727" y="-4" transform="rotate(180 300.1666203960727 0)" filter="url(#glow)" style="fill: #fff" >error </text><text text-anchor="middle" x="300.1666203960727" y="-4" transform="rotate(180 300.1666203960727 0)" >error </text></g><g transform="translate(450.0 1170.0) rotate(1.9091524329963763) " ><rect x="0" y="-2.5" height="5" width="596.3332407921454" fill="#81BFFC" ><title >c14 → n4 {:key 1, :from 3, :to 0, :type "cas", :msg_id 1}</title></rect><use xlink:href="#ahead" x="600.3332407921454" y="0" /><text text-anchor="middle" x="300.1666203960727" y="-4" transform="" filter="url(#glow)" style="fill: #fff" >cas {:key 1, :from 3, :to 0}</text><text text-anchor="middle" x="300.1666203960727" y="-4" transform="" >cas {:key 1, :from 3, :to 0}</text></g><g transform="translate(1050.0 1210.0) rotate(178.0908475670036) " ><rect x="0" y="-2.5" height="5" width="596.3332407921454" fill="#FF1E90" ><title >n4 → c14 {:msg_id 7, :in_reply_to 1, :type "error", :code 11}</title></rect><use xlink:href="#ahead" x="600.3332407921454" y="0" /><text text-anchor="middle" x="300.1666203960727" y="-4" transform="rotate(180 300.1666203960727 0)" filter="url(#glow)" style="fill: #fff" >error </text><text text-anchor="middle" x="300.1666203960727" y="-4" transform="rotate(180 300.1666203960727 0)" >error </text></g><g transform="translate(550.0 1250.0) rotate(3.8140748342903543) " ><rect x="0" y="-2.5" height="5" width="296.66592756745814" fill="#81BFFC" ><title >c15 → n2 {:key 1, :from 0, :to 0, :type "cas", :msg_id 1}</title></rect><use xlink:href="#ahead" x="300.66592756745814" y="0" /><text text-anchor="middle" x="150.33296378372907" y="-4" transform="" filter="url(#glow)" style="fill: #fff" >cas {:key 1, :from 0, :to 0}</text><text text-anchor="middle" x="150.33296378372907" y="-4" transform="" >cas {:key 1, :from 0, :to 0}</text></g><g transform="translate(850.0 1290.0) rotate(176.18592516570965) " ><rect x="0" y="-2.5" height="5" width="296.66592756745814" fill="#FF1E90" ><title >n2 → c15 {:msg_id 7, :in_reply_to 1, :type "error", :code 11}</title></rect><use xlink:href="#ahead" x="300.66592756745814" y="0" /><text text-anchor="middle" x="150.33296378372907" y="-4" transform="rotate(180 150.33296378372907 0)" filter="url(#glow)" style="fill: #fff" >error </text><text text-anchor="middle" x="150.33296378372907" y="-4" transform="rotate(180 150.33296378372907 0)" >error </text></g><g transform="translate(450.0 1330.0) rotate(1.9091524329963763) " ><rect x="0" y="-2.5" height="5" width="596.3332407921454" fill="#81BFFC" ><title >c14 → n4 {:key 1, :from 4, :to 3, :type "cas", :msg_id 2}</title></rect><use xlink:href="#ahead" x="600.3332407921454" y="0" /><text text-anchor="middle" x="300.1666203960727" y="-4" transform="" filter="url(#glow)" style="fill: #fff" >cas {:key 1, :from 4, :to 3}</text><text text-anchor="middle" x="300.1666203960727" y="-4" transform="" >cas {:key 1, :from 4, :to 3}</text></g><g transform="translate(1050.0 1370.0) rotate(178.0908475670036) " ><rect x="0" y="-2.5" height="5" width="596.3332407921454" fill="#FF1E90" ><title >n4 → c14 {:msg_id 8, :in_reply_to 2, :type "error", :code 11}</title></rect><use xlink:href="#ahead" x="600.3332407921454" y="0" /><text text-anchor="middle" x="300.1666203960727" y="-4" transform="rotate(180 300.1666203960727 0)" filter="url(#glow)" style="fill: #fff" >error </text><text text-anchor="middle" x="300.1666203960727" y="-4" transform="rotate(180 300.1666203960727 0)" >error </text></g><g transform="translate(650.0 1410.0) rotate(3.8140748342903543) " ><rect x="0" y="-2.5" height="5" width="296.66592756745814" fill="#81BFFC" ><title >c16 → n3 {:key 1, :from 2, :to 0, :type "cas", :msg_id 1}</title></rect><use xlink:href="#ahead" x="300.66592756745814" y="0" /><text text-anchor="middle" x="150.33296378372907" y="-4" transform="" filter="url(#glow)" style="fill: #fff" >cas {:key 1, :from 2, :to 0}</text><text text-anchor="middle" x="150.33296378372907" y="-4" transform="" >cas {:key 1, :from 2, :to 0}</text></g><g transform="translate(950.0 1450.0) rotate(176.18592516570965) " ><rect x="0" y="-2.5" height="5" width="296.66592756745814" fill="#FF1E90" ><title >n3 → c16 {:msg_id 9, :in_reply_to 1, :type "error", :code 11}</title></rect><use xlink:href="#ahead" x="300.66592756745814" y="0" /><text text-anchor="middle" x="150.33296378372907" y="-4" transform="rotate(180 150.33296378372907 0)" filter="url(#glow)" style="fill: #fff" >error </text><text text-anchor="middle" x="150.33296378372907" y="-4" transform="rotate(180 150.33296378372907 0)" >error </text></g></g></svg>