<?xml version="1.0" encoding="UTF-8"?><svg xmlns:svg="http://www.w3.org/2000/svg" xmlns="http://www.w3.org/2000/svg" xmlns:xlink="http://www.w3.org/1999/xlink" version="2.0" width="1200" height="1220" ><style >
svg {
  font-family: Helvetica, Arial, sans-serif;
  font-size: 11px;
}
rect {
  stroke-linecap: butt;
  stroke-width: 3;
  stroke: #fff;
/*  stroke-opacity: 1; */
}
rect:hover {
  stroke: #fff;
/*  stroke-opacity: 1; /*
}
polygon { fill: #000; }</style><defs ><polygon id="ahead" points="0 0, -12 4, -12 -4" /><filter id="glow" x="0" y="0" ><feGaussianBlur in="SourceAlpha" stdDeviation="2" result="blurred" /><feFlood flood-color="#fff" /><feComposite operator="in" in2="blurred" /><feComponentTransfer ><feFuncA type="linear" slope="10" intercept="0" /></feComponentTransfer><feMerge ><feMergeNode /><feMergeNode in="SourceGraphic" /></feMerge></filter></defs><g ><text x="46.153847" y="20.0" text-anchor="middle" alignment-baseline="middle" fill="#000" >c10</text><text x="46.153847" y="1020.0" text-anchor="middle" alignment-baseline="middle" fill="#aaa" >c10</text><text x="138.46153" y="20.0" text-anchor="middle" alignment-baseline="middle" fill="#000" >c11</text><text x="138.46153" y="1020.0" text-anchor="middle" alignment-baseline="middle" fill="#aaa" >c11</text><text x="230.76923" y="20.0" text-anchor="middle" alignment-baseline="middle" fill="#000" >c12</text><text x="230.76923" y="1020.0" text-anchor="middle" alignment-baseline="middle" fill="#aaa" >c12</text><text x="323.07693" y="20.0" text-anchor="middle" alignment-baseline="middle" fill="#000" >c13</text><text x="323.07693" y="1020.0" text-anchor="middle" alignment-baseline="middle" fill="#aaa" >c13</text><text x="415.3846" y="20.0" text-anchor="middle" alignment-baseline="middle" fill="#000" >c14</text><text x="415.3846" y="1020.0" text-anchor="middle" alignment-baseline="middle" fill="#aaa" >c14</text><text x="507.69232" y="20.0" text-anchor="middle" alignment-baseline="middle" fill="#000" >c15</text><text x="507.69232" y="1020.0" text-anchor="middle" alignment-baseline="middle" fill="#aaa" >c15</text><text x="600.0" y="20.0" text-anchor="middle" alignment-baseline="middle" fill="#000" >c16</text><text x="600.0" y="1020.0" text-anchor="middle" alignment-baseline="middle" fill="#aaa" >c16</text><text x="692.3077" y="20.0" text-anchor="middle" alignment-baseline="middle" fill="#000" >c17</text><text x="692.3077" y="1020.0" text-anchor="middle" alignment-baseline="middle" fill="#aaa" >c17</text><text x="784.61536" y="20.0" text-anchor="middle" alignment-baseline="middle" fill="#000" >n1</text><text x="784.61536" y="1020.0" text-anchor="middle" alignment-baseline="middle" fill="#aaa" >n1</text><text x="876.9231" y="20.0" text-anchor="middle" alignment-baseline="middle" fill="#000" >n2</text><text x="876.9231" y="1020.0" text-anchor="middle" alignment-baseline="middle" fill="#aaa" >n2</text><text x="969.2308" y="20.0" text-anchor="middle" alignment-baseline="middle" fill="#000" >n3</text><text x="969.2308" y="1020.0" text-anchor="middle" alignment-baseline="middle" fill="#aaa" >n3</text><text x="1061.5385" y="20.0" text-anchor="middle" alignment-baseline="middle" fill="#000" >n4</text><text x="1061.5385" y="1020.0" text-anchor="middle" alignment-baseline="middle" fill="#aaa" >n4</text><text x="1153.8462" y="20.0" text-anchor="middle" alignment-baseline="middle" fill="#000" >n5</text><text x="1153.8462" y="1020.0" text-anchor="middle" alignment-baseline="middle" fill="#aaa" >n5</text></g><g ><line stroke="#ccc" x1="46.153847" y1="30.0" x2="46.153847" y2="1130.0" /><line stroke="#ccc" x1="138.46153" y1="30.0" x2="138.46153" y2="1130.0" /><line stroke="#ccc" x1="230.76923" y1="30.0" x2="230.76923" y2="1130.0" /><line stroke="#ccc" x1="323.07693" y1="30.0" x2="323.07693" y2="1130.0" /><line stroke="#ccc" x1="415.3846" y1="30.0" x2="415.3846" y2="1130.0" /><line stroke="#ccc" x1="507.69232" y1="30.0" x2="507.69232" y2="1130.0" /><line stroke="#ccc" x1="600.0" y1="30.0" x2="600.0" y2="1130.0" /><line stroke="#ccc" x1="692.3077" y1="30.0" x2="692.3077" y2="1130.0" /><line stroke="#ccc" x1="784.61536" y1="30.0" x2="784.61536" y2="1130.0" /><line stroke="#ccc" x1="876.9231" y1="30.0" x2="876.9231" y2="1130.0" /><line stroke="#ccc" x1="969.2308" y1="30.0" x2="969.2308" y2="1130.0" /><line stroke="#ccc" x1="1061.5385" y1="30.0" x2="1061.5385" y2="1130.0" /><line stroke="#ccc" x1="1153.8462" y1="30.0" x2="1153.8462" y2="1130.0" /></g><g ><g transform="translate(784.61536 50.0) rotate(12.225116644730575) " ><rect x="0" y="-2.5" height="5" width="90.44955652033681" fill="#000" ><title >n1 → n2 {:msg_id 2, :type "AppendEntries", :term 0, :prevIndex 0, :prevTerm 0, :entries [[["pass" nil] 0]], :commit 0}</title></rect><use xlink:href="#ahead" x="94.44955652033681" y="0" /><text text-anchor="middle" x="47.22477826016841" y="-4" transform="" filter="url(#glow)" style="fill: #fff" >AppendEntries {:term 0, :prevIndex 0, :prevTerm…</text><text text-anchor="middle" x="47.22477826016841" y="-4" transform="" >AppendEntries {:term 0, :prevIndex 0, :prevTerm…</text></g><g transform="translate(784.61536 90.0) rotate(6.182929073793282) " ><rect x="0" y="-2.5" height="5" width="181.6955906086296" fill="#000" ><title >n1 → n3 {:msg_id 3, :type "AppendEntries", :term 0, :prevIndex 0, :prevTerm 0, :entries [[["pass" nil] 0]], :commit 0}</title></rect><use xlink:href="#ahead" x="185.6955906086296" y="0" /><text text-anchor="middle" x="92.8477953043148" y="-4" transform="" filter="url(#glow)" style="fill: #fff" >AppendEntries {:term 0, :prevIndex 0, :prevTerm…</text><text text-anchor="middle" x="92.8477953043148" y="-4" transform="" >AppendEntries {:term 0, :prevIndex 0, :prevTerm…</text></g><g transform="translate(784.61536 130.0) rotate(4.130855954104589) " ><rect x="0" y="-2.5" height="5" width="273.6443785380898" fill="#000" ><title >n1 → n4 {:msg_id 4, :type "AppendEntries", :term 0, :prevIndex 0, :prevTerm 0, :entries [[["pass" nil] 0]], :commit 0}</title></rect><use xlink:href="#ahead" x="277.6443785380898" y="0" /><text text-anchor="middle" x="138.8221892690449" y="-4" transform="" filter="url(#glow)" style="fill: #fff" >AppendEntries {:term 0, :prevIndex 0, :prevTerm…</text><text text-anchor="middle" x="138.8221892690449" y="-4" transform="" >AppendEntries {:term 0, :prevIndex 0, :prevTerm…</text></g><g transform="translate(784.61536 170.0) rotate(3.1004908989377333) " ><rect x="0" y="-2.5" height="5" width="365.77210479692906" fill="#000" ><title >n1 → n5 {:msg_id 5, :type "AppendEntries", :term 0, :prevIndex 0, :prevTerm 0, :entries [[["pass" nil] 0]], :commit 0}</title></rect><use xlink:href="#ahead" x="369.77210479692906" y="0" /><text text-anchor="middle" x="184.88605239846453" y="-4" transform="" filter="url(#glow)" style="fill: #fff" >AppendEntries {:term 0, :prevIndex 0, :prevTerm…</text><text text-anchor="middle" x="184.88605239846453" y="-4" transform="" >AppendEntries {:term 0, :prevIndex 0, :prevTerm…</text></g><g transform="translate(876.9231 210.0) rotate(146.97614576046664) " ><rect x="0" y="-2.5" height="5" width="106.09413575158442" fill="#000" ><title >n2 → n1 {:msg_id 2, :in_reply_to 2, :type "AppendEntriesRes", :res true, :term 0, :next 2, :commit 0}</title></rect><use xlink:href="#ahead" x="110.09413575158442" y="0" /><text text-anchor="middle" x="55.04706787579221" y="-4" transform="rotate(180 55.04706787579221 0)" filter="url(#glow)" style="fill: #fff" >AppendEntriesRes {:res true, :term 0, :next 2, …</text><text text-anchor="middle" x="55.04706787579221" y="-4" transform="rotate(180 55.04706787579221 0)" >AppendEntriesRes {:res true, :term 0, :next 2, …</text></g><g transform="translate(969.2308 230.0) rotate(161.99584139231652) " ><rect x="0" y="-2.5" height="5" width="190.12071597716655" fill="#000" ><title >n3 → n1 {:msg_id 2, :in_reply_to 3, :type "AppendEntriesRes", :res true, :term 0, :next 2, :commit 0}</title></rect><use xlink:href="#ahead" x="194.12071597716655" y="0" /><text text-anchor="middle" x="97.06035798858328" y="-4" transform="rotate(180 97.06035798858328 0)" filter="url(#glow)" style="fill: #fff" >AppendEntriesRes {:res true, :term 0, :next 2, …</text><text text-anchor="middle" x="97.06035798858328" y="-4" transform="rotate(180 97.06035798858328 0)" >AppendEntriesRes {:res true, :term 0, :next 2, …</text></g><g transform="translate(1061.5385 250.0) rotate(167.77487812839863) " ><rect x="0" y="-2.5" height="5" width="279.3485502588678" fill="#000" ><title >n4 → n1 {:msg_id 2, :in_reply_to 4, :type "AppendEntriesRes", :res true, :term 0, :next 2, :commit 0}</title></rect><use xlink:href="#ahead" x="283.3485502588678" y="0" /><text text-anchor="middle" x="141.6742751294339" y="-4" transform="rotate(180 141.6742751294339 0)" filter="url(#glow)" style="fill: #fff" >AppendEntriesRes {:res true, :term 0, :next 2, …</text><text text-anchor="middle" x="141.6742751294339" y="-4" transform="rotate(180 141.6742751294339 0)" >AppendEntriesRes {:res true, :term 0, :next 2, …</text></g><g transform="translate(1153.8462 330.0) rotate(176.89950910106228) " ><rect x="0" y="-2.5" height="5" width="365.77210479692906" fill="#000" ><title >n5 → n1 {:msg_id 2, :in_reply_to 5, :type "AppendEntriesRes", :res true, :term 0, :next 2, :commit 0}</title></rect><use xlink:href="#ahead" x="369.77210479692906" y="0" /><text text-anchor="middle" x="184.88605239846453" y="-4" transform="rotate(180 184.88605239846453 0)" filter="url(#glow)" style="fill: #fff" >AppendEntriesRes {:res true, :term 0, :next 2, …</text><text text-anchor="middle" x="184.88605239846453" y="-4" transform="rotate(180 184.88605239846453 0)" >AppendEntriesRes {:res true, :term 0, :next 2, …</text></g><g transform="translate(46.153847 370.0) rotate(1.1284073293854704) " ><rect x="0" y="-2.5" height="5" width="1011.5815560057108" fill="#81BFFC" ><title >c10 → n4 {:key 0, :type "read", :msg_id 1}</title></rect><use xlink:href="#ahead" x="1015.5815560057108" y="0" /><text text-anchor="middle" x="507.7907780028554" y="-4" transform="" filter="url(#glow)" style="fill: #fff" >read {:key 0}</text><text text-anchor="middle" x="507.7907780028554" y="-4" transform="" >read {:key 0}</text></g><g transform="translate(1061.5385 410.0) rotate(178.87159267061455) " ><rect x="0" y="-2.5" height="5" width="1011.5815560057108" fill="#FF1E90" ><title >n4 → c10 {:msg_id 3, :in_reply_to 1, :type "error", :code 11, :text "Not Leader"}</title></rect><use xlink:href="#ahead" x="1015.5815560057108" y="0" /><text text-anchor="middle" x="507.7907780028554" y="-4" transform="rotate(180 507.7907780028554 0)" filter="url(#glow)" style="fill: #fff" >error Not Leader</text><text text-anchor="middle" x="507.7907780028554" y="-4" transform="rotate(180 507.7907780028554 0)" >error Not Leader</text></g><g transform="translate(138.46153 450.0) rotate(1.5513814011984244) " ><rect x="0" y="-2.5" height="5" width="734.7323467883234" fill="#81BFFC" ><title >c11 → n2 {:key 1, :from 4, :to 3, :type "cas", :msg_id 1}</title></rect><use xlink:href="#ahead" x="738.7323467883234" y="0" /><text text-anchor="middle" x="369.3661733941617" y="-4" transform="" filter="url(#glow)" style="fill: #fff" >cas {:key 1, :from 4, :to 3}</text><text text-anchor="middle" x="369.3661733941617" y="-4" transform="" >cas {:key 1, :from 4, :to 3}</text></g><g transform="translate(876.9231 490.0) rotate(178.44861859880157) " ><rect x="0" y="-2.5" height="5" width="734.7323467883234" fill="#FF1E90" ><title >n2 → c11 {:msg_id 3, :in_reply_to 1, :type "error", :code 11, :text "Not Leader"}</title></rect><use xlink:href="#ahead" x="738.7323467883234" y="0" /><text text-anchor="middle" x="369.3661733941617" y="-4" transform="rotate(180 369.3661733941617 0)" filter="url(#glow)" style="fill: #fff" >error Not Leader</text><text text-anchor="middle" x="369.3661733941617" y="-4" transform="rotate(180 369.3661733941617 0)" >error Not Leader</text></g><g transform="translate(230.76923 530.0) rotate(1.7728747071649398) " ><rect x="0" y="-2.5" height="5" width="642.4633193278715" fill="#81BFFC" ><title >c12 → n2 {:key 0, :from 2, :to 2, :type "cas", :msg_id 1}</title></rect><use xlink:href="#ahead" x="646.4633193278715" y="0" /><text text-anchor="middle" x="323.2316596639358" y="-4" transform="" filter="url(#glow)" style="fill: #fff" >cas {:key 0, :from 2, :to 2}</text><text text-anchor="middle" x="323.2316596639358" y="-4" transform="" >cas {:key 0, :from 2, :to 2}</text></g><g transform="translate(876.9231 570.0) rotate(178.22712529283507) " ><rect x="0" y="-2.5" height="5" width="642.4633193278715" fill="#FF1E90" ><title >n2 → c12 {:msg_id 4, :in_reply_to 1, :type "error", :code 11, :text "Not Leader"}</title></rect><use xlink:href="#ahead" x="646.4633193278715" y="0" /><text text-anchor="middle" x="323.2316596639358" y="-4" transform="rotate(180 323.2316596639358 0)" filter="url(#glow)" style="fill: #fff" >error Not Leader</text><text text-anchor="middle" x="323.2316596639358" y="-4" transform="rotate(180 323.2316596639358 0)" >error Not Leader</text></g><g transform="translate(323.07693 610.0) rotate(2.4812650154739093) " ><rect x="0" y="-2.5" height="5" width="457.9715517664534" fill="#81BFFC" ><title >c13 → n1 {:key 0, :from 4, :to 3, :type "cas", :msg_id 1}</title></rect><use xlink:href="#ahead" x="461.9715517664534" y="0" /><text text-anchor="middle" x="230.9857758832267" y="-4" transform="" filter="url(#glow)" style="fill: #fff" >cas {:key 0, :from 4, :to 3}</text><text text-anchor="middle" x="230.9857758832267" y="-4" transform="" >cas {:key 0, :from 4, :to 3}</text></g><g transform="translate(415.3846 650.0) rotate(2.481264687754498) " ><rect x="0" y="-2.5" height="5" width="457.97161274438497" fill="#81BFFC" ><title >c14 → n2 {:key 0, :type "read", :msg_id 1}</title></rect><use xlink:href="#ahead" x="461.97161274438497" y="0" /><text text-anchor="middle" x="230.98580637219249" y="-4" transform="" filter="url(#glow)" style="fill: #fff" >read {:key 0}</text><text text-anchor="middle" x="230.98580637219249" y="-4" transform="" >read {:key 0}</text></g><g transform="translate(876.9231 690.0) rotate(177.5187353122455) " ><rect x="0" y="-2.5" height="5" width="457.97161274438497" fill="#FF1E90" ><title >n2 → c14 {:msg_id 5, :in_reply_to 1, :type "error", :code 11, :text "Not Leader"}</title></rect><use xlink:href="#ahead" x="461.97161274438497" y="0" /><text text-anchor="middle" x="230.98580637219249" y="-4" transform="rotate(180 230.98580637219249 0)" filter="url(#glow)" style="fill: #fff" >error Not Leader</text><text text-anchor="middle" x="230.98580637219249" y="-4" transform="rotate(180 230.98580637219249 0)" >error Not Leader</text></g><g transform="translate(507.69232 730.0) rotate(2.0681157107260364) " ><rect x="0" y="-2.5" height="5" width="550.2071238508529" fill="#81BFFC" ><title >c15 → n4 {:key 0, :from 2, :to 0, :type "cas", :msg_id 1}</title></rect><use xlink:href="#ahead" x="554.2071238508529" y="0" /><text text-anchor="middle" x="277.10356192542645" y="-4" transform="" filter="url(#glow)" style="fill: #fff" >cas {:key 0, :from 2, :to 0}</text><text text-anchor="middle" x="277.10356192542645" y="-4" transform="" >cas {:key 0, :from 2, :to 0}</text></g><g transform="translate(1061.5385 770.0) rotate(177.93188428927397) " ><rect x="0" y="-2.5" height="5" width="550.2071238508529" fill="#FF1E90" ><title >n4 → c15 {:msg_id 4, :in_reply_to 1, :type "error", :code 11, :text "Not Leader"}</title></rect><use xlink:href="#ahead" x="554.2071238508529" y="0" /><text text-anchor="middle" x="277.10356192542645" y="-4" transform="rotate(180 277.10356192542645 0)" filter="url(#glow)" style="fill: #fff" >error Not Leader</text><text text-anchor="middle" x="277.10356192542645" y="-4" transform="rotate(180 277.10356192542645 0)" >error Not Leader</text></g><g transform="translate(138.46153 810.0) rotate(1.5513814011984244) " ><rect x="0" y="-2.5" height="5" width="734.7323467883234" fill="#81BFFC" ><title >c11 → n2 {:key 1, :value 0, :type "write", :msg_id 2}</title></rect><use xlink:href="#ahead" x="738.7323467883234" y="0" /><text text-anchor="middle" x="369.3661733941617" y="-4" transform="" filter="url(#glow)" style="fill: #fff" >write {:key 1, :value 0}</text><text text-anchor="middle" x="369.3661733941617" y="-4" transform="" >write {:key 1, :value 0}</text></g><g transform="translate(876.9231 850.0) rotate(178.44861859880157) " ><rect x="0" y="-2.5" height="5" width="734.7323467883234" fill="#FF1E90" ><title >n2 → c11 {:msg_id 6, :in_reply_to 2, :type "error", :code 11, :text "Not Leader"}</title></rect><use xlink:href="#ahead" x="738.7323467883234" y="0" /><text text-anchor="middle" x="369.3661733941617" y="-4" transform="rotate(180 369.3661733941617 0)" filter="url(#glow)" style="fill: #fff" >error Not Leader</text><text text-anchor="middle" x="369.3661733941617" y="-4" transform="rotate(180 369.3661733941617 0)" >error Not Leader</text></g><g transform="translate(600.0 890.0) rotate(2.0681154830127175) " ><rect x="0" y="-2.5" height="5" width="550.2071848462527" fill="#81BFFC" ><title >c16 → n5 {:key 1, :from 0, :to 1, :type "cas", :msg_id 1}</title></rect><use xlink:href="#ahead" x="554.2071848462527" y="0" /><text text-anchor="middle" x="277.1035924231264" y="-4" transform="" filter="url(#glow)" style="fill: #fff" >cas {:key 1, :from 0, :to 1}</text><text text-anchor="middle" x="277.1035924231264" y="-4" transform="" >cas {:key 1, :from 0, :to 1}</text></g><g transform="translate(1153.8462 930.0) rotate(177.9318845169873) " ><rect x="0" y="-2.5" height="5" width="550.2071848462527" fill="#FF1E90" ><title >n5 → c16 {:msg_id 3, :in_reply_to 1, :type "error", :code 11, :text "Not Leader"}</title></rect><use xlink:href="#ahead" x="554.2071848462527" y="0" /><text text-anchor="middle" x="277.1035924231264" y="-4" transform="rotate(180 277.1035924231264 0)" filter="url(#glow)" style="fill: #fff" >error Not Leader</text><text text-anchor="middle" x="277.1035924231264" y="-4" transform="rotate(180 277.1035924231264 0)" >error Not Leader</text></g><g transform="translate(692.3077 970.0) rotate(2.4812645238948243) " ><rect x="0" y="-2.5" height="5" width="457.9716432333508" fill="#81BFFC" ><title >c17 → n5 {:key 1, :from 0, :to 2, :type "cas", :msg_id 1}</title></rect><use xlink:href="#ahead" x="461.9716432333508" y="0" /><text text-anchor="middle" x="230.9858216166754" y="-4" transform="" filter="url(#glow)" style="fill: #fff" >cas {:key 1, :from 0, :to 2}</text><text text-anchor="middle" x="230.9858216166754" y="-4" transform="" >cas {:key 1, :from 0, :to 2}</text></g><g transform="translate(1153.8462 1010.0) rotate(177.51873547610518) " ><rect x="0" y="-2.5" height="5" width="457.9716432333508" fill="#FF1E90" ><title >n5 → c17 {:msg_id 4, :in_reply_to 1, :type "error", :code 11, :text "Not Leader"}</title></rect><use xlink:href="#ahead" x="461.9716432333508" y="0" /><text text-anchor="middle" x="230.9858216166754" y="-4" transform="rotate(180 230.9858216166754 0)" filter="url(#glow)" style="fill: #fff" >error Not Leader</text><text text-anchor="middle" x="230.9858216166754" y="-4" transform="rotate(180 230.9858216166754 0)" >error Not Leader</text></g><g transform="translate(600.0 1050.0) rotate(2.0681154830127175) " ><rect x="0" y="-2.5" height="5" width="550.2071848462527" fill="#81BFFC" ><title >c16 → n5 {:key 1, :from 4, :to 1, :type "cas", :msg_id 2}</title></rect><use xlink:href="#ahead" x="554.2071848462527" y="0" /><text text-anchor="middle" x="277.1035924231264" y="-4" transform="" filter="url(#glow)" style="fill: #fff" >cas {:key 1, :from 4, :to 1}</text><text text-anchor="middle" x="277.1035924231264" y="-4" transform="" >cas {:key 1, :from 4, :to 1}</text></g><g transform="translate(1153.8462 1090.0) rotate(177.9318845169873) " ><rect x="0" y="-2.5" height="5" width="550.2071848462527" fill="#FF1E90" ><title >n5 → c16 {:msg_id 5, :in_reply_to 2, :type "error", :code 11, :text "Not Leader"}</title></rect><use xlink:href="#ahead" x="554.2071848462527" y="0" /><text text-anchor="middle" x="277.1035924231264" y="-4" transform="rotate(180 277.1035924231264 0)" filter="url(#glow)" style="fill: #fff" >error Not Leader</text><text text-anchor="middle" x="277.1035924231264" y="-4" transform="rotate(180 277.1035924231264 0)" >error Not Leader</text></g></g></svg>