<?xml version="1.0" encoding="UTF-8"?><svg xmlns:svg="http://www.w3.org/2000/svg" xmlns="http://www.w3.org/2000/svg" xmlns:xlink="http://www.w3.org/1999/xlink" version="2.0" width="1200" height="1140" ><style >
svg {
  font-family: Helvetica, Arial, sans-serif;
  font-size: 11px;
}
rect {
  stroke-linecap: butt;
  stroke-width: 3;
  stroke: #fff;
/*  stroke-opacity: 1; */
}
rect:hover {
  stroke: #fff;
/*  stroke-opacity: 1; /*
}
polygon { fill: #000; }</style><defs ><polygon id="ahead" points="0 0, -12 4, -12 -4" /><filter id="glow" x="0" y="0" ><feGaussianBlur in="SourceAlpha" stdDeviation="2" result="blurred" /><feFlood flood-color="#fff" /><feComposite operator="in" in2="blurred" /><feComponentTransfer ><feFuncA type="linear" slope="10" intercept="0" /></feComponentTransfer><feMerge ><feMergeNode /><feMergeNode in="SourceGraphic" /></feMerge></filter></defs><g ><text x="46.153847" y="20.0" text-anchor="middle" alignment-baseline="middle" fill="#000" >c10</text><text x="138.46153" y="20.0" text-anchor="middle" alignment-baseline="middle" fill="#000" >c11</text><text x="230.76923" y="20.0" text-anchor="middle" alignment-baseline="middle" fill="#000" >c12</text><text x="323.07693" y="20.0" text-anchor="middle" alignment-baseline="middle" fill="#000" >c13</text><text x="415.3846" y="20.0" text-anchor="middle" alignment-baseline="middle" fill="#000" >c14</text><text x="507.69232" y="20.0" text-anchor="middle" alignment-baseline="middle" fill="#000" >c15</text><text x="600.0" y="20.0" text-anchor="middle" alignment-baseline="middle" fill="#000" >c16</text><text x="692.3077" y="20.0" text-anchor="middle" alignment-baseline="middle" fill="#000" >c17</text><text x="784.61536" y="20.0" text-anchor="middle" alignment-baseline="middle" fill="#000" >n1</text><text x="876.9231" y="20.0" text-anchor="middle" alignment-baseline="middle" fill="#000" >n2</text><text x="969.2308" y="20.0" text-anchor="middle" alignment-baseline="middle" fill="#000" >n3</text><text x="1061.5385" y="20.0" text-anchor="middle" alignment-baseline="middle" fill="#000" >n4</text><text x="1153.8462" y="20.0" text-anchor="middle" alignment-baseline="middle" fill="#000" >n5</text></g><g ><line stroke="#ccc" x1="46.153847" y1="30.0" x2="46.153847" y2="1050.0" /><line stroke="#ccc" x1="138.46153" y1="30.0" x2="138.46153" y2="1050.0" /><line stroke="#ccc" x1="230.76923" y1="30.0" x2="230.76923" y2="1050.0" /><line stroke="#ccc" x1="323.07693" y1="30.0" x2="323.07693" y2="1050.0" /><line stroke="#ccc" x1="415.3846" y1="30.0" x2="415.3846" y2="1050.0" /><line stroke="#ccc" x1="507.69232" y1="30.0" x2="507.69232" y2="1050.0" /><line stroke="#ccc" x1="600.0" y1="30.0" x2="600.0" y2="1050.0" /><line stroke="#ccc" x1="692.3077" y1="30.0" x2="692.3077" y2="1050.0" /><line stroke="#ccc" x1="784.61536" y1="30.0" x2="784.61536" y2="1050.0" /><line stroke="#ccc" x1="876.9231" y1="30.0" x2="876.9231" y2="1050.0" /><line stroke="#ccc" x1="969.2308" y1="30.0" x2="969.2308" y2="1050.0" /><line stroke="#ccc" x1="1061.5385" y1="30.0" x2="1061.5385" y2="1050.0" /><line stroke="#ccc" x1="1153.8462" y1="30.0" x2="1153.8462" y2="1050.0" /></g><g ><g transform="translate(46.153847 50.0) rotate(1.3790764314393882) " ><rect x="0" y="-2.5" height="5" width="827.0099548269889" fill="#81BFFC" ><title >c10 → n2 {:key 1, :value 3, :type "write", :msg_id 1}</title></rect><use xlink:href="#ahead" x="831.0099548269889" y="0" /><text text-anchor="middle" x="415.50497741349443" y="-4" transform="" filter="url(#glow)" style="fill: #fff" >write {:key 1, :value 3}</text><text text-anchor="middle" x="415.50497741349443" y="-4" transform="" >write {:key 1, :value 3}</text></g><g transform="translate(876.9231 90.0) rotate(178.6209235685606) " ><rect x="0" y="-2.5" height="5" width="827.0099548269889" fill="#FF1E90" ><title >n2 → c10 {:msg_id 2, :in_reply_to 1, :type "error", :code 11, :text "Not Leader"}</title></rect><use xlink:href="#ahead" x="831.0099548269889" y="0" /><text text-anchor="middle" x="415.50497741349443" y="-4" transform="rotate(180 415.50497741349443 0)" filter="url(#glow)" style="fill: #fff" >error Not Leader</text><text text-anchor="middle" x="415.50497741349443" y="-4" transform="rotate(180 415.50497741349443 0)" >error Not Leader</text></g><g transform="translate(138.46153 130.0) rotate(1.7728748326829968) " ><rect x="0" y="-2.5" height="5" width="642.4632735734166" fill="#81BFFC" ><title >c11 → n1 {:key 0, :type "read", :msg_id 1}</title></rect><use xlink:href="#ahead" x="646.4632735734166" y="0" /><text text-anchor="middle" x="323.2316367867083" y="-4" transform="" filter="url(#glow)" style="fill: #fff" >read {:key 0}</text><text text-anchor="middle" x="323.2316367867083" y="-4" transform="" >read {:key 0}</text></g><g transform="translate(784.61536 170.0) rotate(178.227125167317) " ><rect x="0" y="-2.5" height="5" width="642.4632735734166" fill="#FF1E90" ><title >n1 → c11 {:msg_id 2, :in_reply_to 1, :type "error", :code 20, :text "Invalid Key"}</title></rect><use xlink:href="#ahead" x="646.4632735734166" y="0" /><text text-anchor="middle" x="323.2316367867083" y="-4" transform="rotate(180 323.2316367867083 0)" filter="url(#glow)" style="fill: #fff" >error Invalid Key</text><text text-anchor="middle" x="323.2316367867083" y="-4" transform="rotate(180 323.2316367867083 0)" >error Invalid Key</text></g><g transform="translate(230.76923 210.0) rotate(1.5513814332388647) " ><rect x="0" y="-2.5" height="5" width="734.7323315351275" fill="#81BFFC" ><title >c12 → n3 {:key 0, :type "read", :msg_id 1}</title></rect><use xlink:href="#ahead" x="738.7323315351275" y="0" /><text text-anchor="middle" x="369.36616576756376" y="-4" transform="" filter="url(#glow)" style="fill: #fff" >read {:key 0}</text><text text-anchor="middle" x="369.36616576756376" y="-4" transform="" >read {:key 0}</text></g><g transform="translate(969.2308 250.0) rotate(178.44861856676113) " ><rect x="0" y="-2.5" height="5" width="734.7323315351275" fill="#FF1E90" ><title >n3 → c12 {:msg_id 2, :in_reply_to 1, :type "error", :code 11, :text "Not Leader"}</title></rect><use xlink:href="#ahead" x="738.7323315351275" y="0" /><text text-anchor="middle" x="369.36616576756376" y="-4" transform="rotate(180 369.36616576756376 0)" filter="url(#glow)" style="fill: #fff" >error Not Leader</text><text text-anchor="middle" x="369.36616576756376" y="-4" transform="rotate(180 369.36616576756376 0)" >error Not Leader</text></g><g transform="translate(323.07693 290.0) rotate(1.379076418779489) " ><rect x="0" y="-2.5" height="5" width="827.0099624541735" fill="#81BFFC" ><title >c13 → n5 {:key 1, :value 0, :type "write", :msg_id 1}</title></rect><use xlink:href="#ahead" x="831.0099624541735" y="0" /><text text-anchor="middle" x="415.5049812270868" y="-4" transform="" filter="url(#glow)" style="fill: #fff" >write {:key 1, :value 0}</text><text text-anchor="middle" x="415.5049812270868" y="-4" transform="" >write {:key 1, :value 0}</text></g><g transform="translate(1153.8462 330.0) rotate(178.62092358122052) " ><rect x="0" y="-2.5" height="5" width="827.0099624541735" fill="#FF1E90" ><title >n5 → c13 {:msg_id 2, :in_reply_to 1, :type "error", :code 11, :text "Not Leader"}</title></rect><use xlink:href="#ahead" x="831.0099624541735" y="0" /><text text-anchor="middle" x="415.5049812270868" y="-4" transform="rotate(180 415.5049812270868 0)" filter="url(#glow)" style="fill: #fff" >error Not Leader</text><text text-anchor="middle" x="415.5049812270868" y="-4" transform="rotate(180 415.5049812270868 0)" >error Not Leader</text></g><g transform="translate(46.153847 370.0) rotate(1.3790764314393882) " ><rect x="0" y="-2.5" height="5" width="827.0099548269889" fill="#81BFFC" ><title >c10 → n2 {:key 1, :from 1, :to 1, :type "cas", :msg_id 2}</title></rect><use xlink:href="#ahead" x="831.0099548269889" y="0" /><text text-anchor="middle" x="415.50497741349443" y="-4" transform="" filter="url(#glow)" style="fill: #fff" >cas {:key 1, :from 1, :to 1}</text><text text-anchor="middle" x="415.50497741349443" y="-4" transform="" >cas {:key 1, :from 1, :to 1}</text></g><g transform="translate(876.9231 410.0) rotate(178.6209235685606) " ><rect x="0" y="-2.5" height="5" width="827.0099548269889" fill="#FF1E90" ><title >n2 → c10 {:msg_id 3, :in_reply_to 2, :type "error", :code 11, :text "Not Leader"}</title></rect><use xlink:href="#ahead" x="831.0099548269889" y="0" /><text text-anchor="middle" x="415.50497741349443" y="-4" transform="rotate(180 415.50497741349443 0)" filter="url(#glow)" style="fill: #fff" >error Not Leader</text><text text-anchor="middle" x="415.50497741349443" y="-4" transform="rotate(180 415.50497741349443 0)" >error Not Leader</text></g><g transform="translate(415.3846 450.0) rotate(2.0681155968693705) " ><rect x="0" y="-2.5" height="5" width="550.2071543485528" fill="#81BFFC" ><title >c14 → n3 {:key 0, :from 0, :to 3, :type "cas", :msg_id 1}</title></rect><use xlink:href="#ahead" x="554.2071543485528" y="0" /><text text-anchor="middle" x="277.1035771742764" y="-4" transform="" filter="url(#glow)" style="fill: #fff" >cas {:key 0, :from 0, :to 3}</text><text text-anchor="middle" x="277.1035771742764" y="-4" transform="" >cas {:key 0, :from 0, :to 3}</text></g><g transform="translate(969.2308 490.0) rotate(177.93188440313065) " ><rect x="0" y="-2.5" height="5" width="550.2071543485528" fill="#FF1E90" ><title >n3 → c14 {:msg_id 3, :in_reply_to 1, :type "error", :code 11, :text "Not Leader"}</title></rect><use xlink:href="#ahead" x="554.2071543485528" y="0" /><text text-anchor="middle" x="277.1035771742764" y="-4" transform="rotate(180 277.1035771742764 0)" filter="url(#glow)" style="fill: #fff" >error Not Leader</text><text text-anchor="middle" x="277.1035771742764" y="-4" transform="rotate(180 277.1035771742764 0)" >error Not Leader</text></g><g transform="translate(507.69232 530.0) rotate(3.1004914104599126) " ><rect x="0" y="-2.5" height="5" width="365.77204385111565" fill="#81BFFC" ><title >c15 → n2 {:key 0, :from 1, :to 3, :type "cas", :msg_id 1}</title></rect><use xlink:href="#ahead" x="369.77204385111565" y="0" /><text text-anchor="middle" x="184.88602192555783" y="-4" transform="" filter="url(#glow)" style="fill: #fff" >cas {:key 0, :from 1, :to 3}</text><text text-anchor="middle" x="184.88602192555783" y="-4" transform="" >cas {:key 0, :from 1, :to 3}</text></g><g transform="translate(876.9231 570.0) rotate(176.8995085895401) " ><rect x="0" y="-2.5" height="5" width="365.77204385111565" fill="#FF1E90" ><title >n2 → c15 {:msg_id 4, :in_reply_to 1, :type "error", :code 11, :text "Not Leader"}</title></rect><use xlink:href="#ahead" x="369.77204385111565" y="0" /><text text-anchor="middle" x="184.88602192555783" y="-4" transform="rotate(180 184.88602192555783 0)" filter="url(#glow)" style="fill: #fff" >error Not Leader</text><text text-anchor="middle" x="184.88602192555783" y="-4" transform="rotate(180 184.88602192555783 0)" >error Not Leader</text></g><g transform="translate(600.0 610.0) rotate(2.4812648516141924) " ><rect x="0" y="-2.5" height="5" width="457.9715822554192" fill="#81BFFC" ><title >c16 → n4 {:key 0, :type "read", :msg_id 1}</title></rect><use xlink:href="#ahead" x="461.9715822554192" y="0" /><text text-anchor="middle" x="230.9857911277096" y="-4" transform="" filter="url(#glow)" style="fill: #fff" >read {:key 0}</text><text text-anchor="middle" x="230.9857911277096" y="-4" transform="" >read {:key 0}</text></g><g transform="translate(1061.5385 650.0) rotate(177.51873514838582) " ><rect x="0" y="-2.5" height="5" width="457.9715822554192" fill="#FF1E90" ><title >n4 → c16 {:msg_id 2, :in_reply_to 1, :type "error", :code 11, :text "Not Leader"}</title></rect><use xlink:href="#ahead" x="461.9715822554192" y="0" /><text text-anchor="middle" x="230.9857911277096" y="-4" transform="rotate(180 230.9857911277096 0)" filter="url(#glow)" style="fill: #fff" >error Not Leader</text><text text-anchor="middle" x="230.9857911277096" y="-4" transform="rotate(180 230.9857911277096 0)" >error Not Leader</text></g><g transform="translate(692.3077 690.0) rotate(12.22512448503845) " ><rect x="0" y="-2.5" height="5" width="90.44949686926579" fill="#81BFFC" ><title >c17 → n1 {:key 1, :value 0, :type "write", :msg_id 1}</title></rect><use xlink:href="#ahead" x="94.44949686926579" y="0" /><text text-anchor="middle" x="47.22474843463289" y="-4" transform="" filter="url(#glow)" style="fill: #fff" >write {:key 1, :value 0}</text><text text-anchor="middle" x="47.22474843463289" y="-4" transform="" >write {:key 1, :value 0}</text></g><g transform="translate(784.61536 730.0) rotate(12.225116644730575) " ><rect x="0" y="-2.5" height="5" width="90.44955652033681" fill="#000" ><title >n1 → n2 {:msg_id 3, :type "AppendEntries", :term 0, :prevIndex 0, :prevTerm 0, :entries [["write" [1 0] 0]], :commit 0}</title></rect><use xlink:href="#ahead" x="94.44955652033681" y="0" /><text text-anchor="middle" x="47.22477826016841" y="-4" transform="" filter="url(#glow)" style="fill: #fff" >AppendEntries {:term 0, :prevIndex 0, :prevTerm…</text><text text-anchor="middle" x="47.22477826016841" y="-4" transform="" >AppendEntries {:term 0, :prevIndex 0, :prevTerm…</text></g><g transform="translate(784.61536 770.0) rotate(6.182929073793282) " ><rect x="0" y="-2.5" height="5" width="181.6955906086296" fill="#000" ><title >n1 → n3 {:msg_id 4, :type "AppendEntries", :term 0, :prevIndex 0, :prevTerm 0, :entries [["write" [1 0] 0]], :commit 0}</title></rect><use xlink:href="#ahead" x="185.6955906086296" y="0" /><text text-anchor="middle" x="92.8477953043148" y="-4" transform="" filter="url(#glow)" style="fill: #fff" >AppendEntries {:term 0, :prevIndex 0, :prevTerm…</text><text text-anchor="middle" x="92.8477953043148" y="-4" transform="" >AppendEntries {:term 0, :prevIndex 0, :prevTerm…</text></g><g transform="translate(784.61536 810.0) rotate(4.130855954104589) " ><rect x="0" y="-2.5" height="5" width="273.6443785380898" fill="#000" ><title >n1 → n4 {:msg_id 5, :type "AppendEntries", :term 0, :prevIndex 0, :prevTerm 0, :entries [["write" [1 0] 0]], :commit 0}</title></rect><use xlink:href="#ahead" x="277.6443785380898" y="0" /><text text-anchor="middle" x="138.8221892690449" y="-4" transform="" filter="url(#glow)" style="fill: #fff" >AppendEntries {:term 0, :prevIndex 0, :prevTerm…</text><text text-anchor="middle" x="138.8221892690449" y="-4" transform="" >AppendEntries {:term 0, :prevIndex 0, :prevTerm…</text></g><g transform="translate(784.61536 870.0) rotate(3.1004908989377333) " ><rect x="0" y="-2.5" height="5" width="365.77210479692906" fill="#000" ><title >n1 → n5 {:msg_id 6, :type "AppendEntries", :term 0, :prevIndex 0, :prevTerm 0, :entries [["write" [1 0] 0]], :commit 0}</title></rect><use xlink:href="#ahead" x="369.77210479692906" y="0" /><text text-anchor="middle" x="184.88605239846453" y="-4" transform="" filter="url(#glow)" style="fill: #fff" >AppendEntries {:term 0, :prevIndex 0, :prevTerm…</text><text text-anchor="middle" x="184.88605239846453" y="-4" transform="" >AppendEntries {:term 0, :prevIndex 0, :prevTerm…</text></g><g transform="translate(876.9231 850.0) rotate(146.97614576046664) " ><rect x="0" y="-2.5" height="5" width="106.09413575158442" fill="#000" ><title >n2 → n1 {:msg_id 5, :in_reply_to 3, :type "AppendEntriesRes", :res true, :term 0, :next 1}</title></rect><use xlink:href="#ahead" x="110.09413575158442" y="0" /><text text-anchor="middle" x="55.04706787579221" y="-4" transform="rotate(180 55.04706787579221 0)" filter="url(#glow)" style="fill: #fff" >AppendEntriesRes {:res true, :term 0, :next 1}</text><text text-anchor="middle" x="55.04706787579221" y="-4" transform="rotate(180 55.04706787579221 0)" >AppendEntriesRes {:res true, :term 0, :next 1}</text></g><g transform="translate(969.2308 930.0) rotate(173.81707092620672) " ><rect x="0" y="-2.5" height="5" width="181.6955906086296" fill="#000" ><title >n3 → n1 {:msg_id 4, :in_reply_to 4, :type "AppendEntriesRes", :res true, :term 0, :next 1}</title></rect><use xlink:href="#ahead" x="185.6955906086296" y="0" /><text text-anchor="middle" x="92.8477953043148" y="-4" transform="rotate(180 92.8477953043148 0)" filter="url(#glow)" style="fill: #fff" >AppendEntriesRes {:res true, :term 0, :next 1}</text><text text-anchor="middle" x="92.8477953043148" y="-4" transform="rotate(180 92.8477953043148 0)" >AppendEntriesRes {:res true, :term 0, :next 1}</text></g><g transform="translate(1061.5385 970.0) rotate(175.86914404589544) " ><rect x="0" y="-2.5" height="5" width="273.6443785380898" fill="#000" ><title >n4 → n1 {:msg_id 3, :in_reply_to 5, :type "AppendEntriesRes", :res true, :term 0, :next 1}</title></rect><use xlink:href="#ahead" x="277.6443785380898" y="0" /><text text-anchor="middle" x="138.8221892690449" y="-4" transform="rotate(180 138.8221892690449 0)" filter="url(#glow)" style="fill: #fff" >AppendEntriesRes {:res true, :term 0, :next 1}</text><text text-anchor="middle" x="138.8221892690449" y="-4" transform="rotate(180 138.8221892690449 0)" >AppendEntriesRes {:res true, :term 0, :next 1}</text></g><g transform="translate(1153.8462 1010.0) rotate(176.89950910106228) " ><rect x="0" y="-2.5" height="5" width="365.77210479692906" fill="#000" ><title >n5 → n1 {:msg_id 3, :in_reply_to 6, :type "AppendEntriesRes", :res true, :term 0, :next 1}</title></rect><use xlink:href="#ahead" x="369.77210479692906" y="0" /><text text-anchor="middle" x="184.88605239846453" y="-4" transform="rotate(180 184.88605239846453 0)" filter="url(#glow)" style="fill: #fff" >AppendEntriesRes {:res true, :term 0, :next 1}</text><text text-anchor="middle" x="184.88605239846453" y="-4" transform="rotate(180 184.88605239846453 0)" >AppendEntriesRes {:res true, :term 0, :next 1}</text></g></g></svg>