<?xml version="1.0" encoding="UTF-8"?><svg xmlns:svg="http://www.w3.org/2000/svg" xmlns="http://www.w3.org/2000/svg" xmlns:xlink="http://www.w3.org/1999/xlink" version="2.0" width="1200" height="1940" ><style >
svg {
  font-family: Helvetica, Arial, sans-serif;
  font-size: 11px;
}
rect {
  stroke-linecap: butt;
  stroke-width: 3;
  stroke: #fff;
/*  stroke-opacity: 1; */
}
rect:hover {
  stroke: #fff;
/*  stroke-opacity: 1; /*
}
polygon { fill: #000; }</style><defs ><polygon id="ahead" points="0 0, -12 4, -12 -4" /><filter id="glow" x="0" y="0" ><feGaussianBlur in="SourceAlpha" stdDeviation="2" result="blurred" /><feFlood flood-color="#fff" /><feComposite operator="in" in2="blurred" /><feComponentTransfer ><feFuncA type="linear" slope="10" intercept="0" /></feComponentTransfer><feMerge ><feMergeNode /><feMergeNode in="SourceGraphic" /></feMerge></filter></defs><g ><text x="46.153847" y="20.0" text-anchor="middle" alignment-baseline="middle" fill="#000" >c10</text><text x="46.153847" y="1020.0" text-anchor="middle" alignment-baseline="middle" fill="#aaa" >c10</text><text x="138.46153" y="20.0" text-anchor="middle" alignment-baseline="middle" fill="#000" >c11</text><text x="138.46153" y="1020.0" text-anchor="middle" alignment-baseline="middle" fill="#aaa" >c11</text><text x="230.76923" y="20.0" text-anchor="middle" alignment-baseline="middle" fill="#000" >c12</text><text x="230.76923" y="1020.0" text-anchor="middle" alignment-baseline="middle" fill="#aaa" >c12</text><text x="323.07693" y="20.0" text-anchor="middle" alignment-baseline="middle" fill="#000" >c13</text><text x="323.07693" y="1020.0" text-anchor="middle" alignment-baseline="middle" fill="#aaa" >c13</text><text x="415.3846" y="20.0" text-anchor="middle" alignment-baseline="middle" fill="#000" >c14</text><text x="415.3846" y="1020.0" text-anchor="middle" alignment-baseline="middle" fill="#aaa" >c14</text><text x="507.69232" y="20.0" text-anchor="middle" alignment-baseline="middle" fill="#000" >c15</text><text x="507.69232" y="1020.0" text-anchor="middle" alignment-baseline="middle" fill="#aaa" >c15</text><text x="600.0" y="20.0" text-anchor="middle" alignment-baseline="middle" fill="#000" >c16</text><text x="600.0" y="1020.0" text-anchor="middle" alignment-baseline="middle" fill="#aaa" >c16</text><text x="692.3077" y="20.0" text-anchor="middle" alignment-baseline="middle" fill="#000" >c17</text><text x="692.3077" y="1020.0" text-anchor="middle" alignment-baseline="middle" fill="#aaa" >c17</text><text x="784.61536" y="20.0" text-anchor="middle" alignment-baseline="middle" fill="#000" >n1</text><text x="784.61536" y="1020.0" text-anchor="middle" alignment-baseline="middle" fill="#aaa" >n1</text><text x="876.9231" y="20.0" text-anchor="middle" alignment-baseline="middle" fill="#000" >n2</text><text x="876.9231" y="1020.0" text-anchor="middle" alignment-baseline="middle" fill="#aaa" >n2</text><text x="969.2308" y="20.0" text-anchor="middle" alignment-baseline="middle" fill="#000" >n3</text><text x="969.2308" y="1020.0" text-anchor="middle" alignment-baseline="middle" fill="#aaa" >n3</text><text x="1061.5385" y="20.0" text-anchor="middle" alignment-baseline="middle" fill="#000" >n4</text><text x="1061.5385" y="1020.0" text-anchor="middle" alignment-baseline="middle" fill="#aaa" >n4</text><text x="1153.8462" y="20.0" text-anchor="middle" alignment-baseline="middle" fill="#000" >n5</text><text x="1153.8462" y="1020.0" text-anchor="middle" alignment-baseline="middle" fill="#aaa" >n5</text></g><g ><line stroke="#ccc" x1="46.153847" y1="30.0" x2="46.153847" y2="1850.0" /><line stroke="#ccc" x1="138.46153" y1="30.0" x2="138.46153" y2="1850.0" /><line stroke="#ccc" x1="230.76923" y1="30.0" x2="230.76923" y2="1850.0" /><line stroke="#ccc" x1="323.07693" y1="30.0" x2="323.07693" y2="1850.0" /><line stroke="#ccc" x1="415.3846" y1="30.0" x2="415.3846" y2="1850.0" /><line stroke="#ccc" x1="507.69232" y1="30.0" x2="507.69232" y2="1850.0" /><line stroke="#ccc" x1="600.0" y1="30.0" x2="600.0" y2="1850.0" /><line stroke="#ccc" x1="692.3077" y1="30.0" x2="692.3077" y2="1850.0" /><line stroke="#ccc" x1="784.61536" y1="30.0" x2="784.61536" y2="1850.0" /><line stroke="#ccc" x1="876.9231" y1="30.0" x2="876.9231" y2="1850.0" /><line stroke="#ccc" x1="969.2308" y1="30.0" x2="969.2308" y2="1850.0" /><line stroke="#ccc" x1="1061.5385" y1="30.0" x2="1061.5385" y2="1850.0" /><line stroke="#ccc" x1="1153.8462" y1="30.0" x2="1153.8462" y2="1850.0" /></g><g ><g transform="translate(876.9231 90.0) rotate(156.571317823088) " ><rect x="0" y="-2.5" height="5" width="96.60178292102133" fill="#000" ><title >n2 → n1 {:msg_id 2, :type "RequestVote", :term 1, :prevLogIndex 2, :lastLogTerm 0, :candidateId "n2"}</title></rect><use xlink:href="#ahead" x="100.60178292102133" y="0" /><text text-anchor="middle" x="50.30089146051066" y="-4" transform="rotate(180 50.30089146051066 0)" filter="url(#glow)" style="fill: #fff" >RequestVote {:term 1, :prevLogIndex 2, :lastLog…</text><text text-anchor="middle" x="50.30089146051066" y="-4" transform="rotate(180 50.30089146051066 0)" >RequestVote {:term 1, :prevLogIndex 2, :lastLog…</text></g><g transform="translate(1061.5385 110.0) rotate(163.88658280295758) " ><rect x="0" y="-2.5" height="5" width="284.2471178239292" fill="#000" ><title >n4 → n1 {:msg_id 2, :type "RequestVote", :term 1, :prevLogIndex 2, :lastLogTerm 0, :candidateId "n4"}</title></rect><use xlink:href="#ahead" x="288.2471178239292" y="0" /><text text-anchor="middle" x="144.1235589119646" y="-4" transform="rotate(180 144.1235589119646 0)" filter="url(#glow)" style="fill: #fff" >RequestVote {:term 1, :prevLogIndex 2, :lastLog…</text><text text-anchor="middle" x="144.1235589119646" y="-4" transform="rotate(180 144.1235589119646 0)" >RequestVote {:term 1, :prevLogIndex 2, :lastLog…</text></g><g transform="translate(1061.5385 150.0) rotate(161.9958358241745) " ><rect x="0" y="-2.5" height="5" width="190.1206579306535" fill="#000" ><title >n4 → n2 {:msg_id 3, :type "RequestVote", :term 1, :prevLogIndex 2, :lastLogTerm 0, :candidateId "n4"}</title></rect><use xlink:href="#ahead" x="194.1206579306535" y="0" /><text text-anchor="middle" x="97.06032896532675" y="-4" transform="rotate(180 97.06032896532675 0)" filter="url(#glow)" style="fill: #fff" >RequestVote {:term 1, :prevLogIndex 2, :lastLog…</text><text text-anchor="middle" x="97.06032896532675" y="-4" transform="rotate(180 97.06032896532675 0)" >RequestVote {:term 1, :prevLogIndex 2, :lastLog…</text></g><g transform="translate(1153.8462 70.0) rotate(154.01077043374215) " ><rect x="0" y="-2.5" height="5" width="406.7692898525291" fill="#000" ><title >n5 → n1 {:msg_id 2, :type "RequestVote", :term 1, :prevLogIndex 2, :lastLogTerm 0, :candidateId "n5"}</title></rect><use xlink:href="#ahead" x="410.7692898525291" y="0" /><text text-anchor="middle" x="205.38464492626454" y="-4" transform="rotate(180 205.38464492626454 0)" filter="url(#glow)" style="fill: #fff" >RequestVote {:term 1, :prevLogIndex 2, :lastLog…</text><text text-anchor="middle" x="205.38464492626454" y="-4" transform="rotate(180 205.38464492626454 0)" >RequestVote {:term 1, :prevLogIndex 2, :lastLog…</text></g><g transform="translate(876.9231 170.0) rotate(90.0) " ><rect x="0" y="-2.5" height="5" width="96.0" fill="#000" ><title >n2 → n2 {:msg_id 3, :type "RequestVote", :term 1, :prevLogIndex 2, :lastLogTerm 0, :candidateId "n2"}</title></rect><use xlink:href="#ahead" x="100.0" y="0" /><text text-anchor="middle" x="50.0" y="-4" transform="rotate(180 50.0 0)" filter="url(#glow)" style="fill: #fff" >RequestVote {:term 1, :prevLogIndex 2, :lastLog…</text><text text-anchor="middle" x="50.0" y="-4" transform="rotate(180 50.0 0)" >RequestVote {:term 1, :prevLogIndex 2, :lastLog…</text></g><g transform="translate(1153.8462 230.0) rotate(163.88658280295758) " ><rect x="0" y="-2.5" height="5" width="284.2471178239292" fill="#000" ><title >n5 → n2 {:msg_id 3, :type "RequestVote", :term 1, :prevLogIndex 2, :lastLogTerm 0, :candidateId "n5"}</title></rect><use xlink:href="#ahead" x="288.2471178239292" y="0" /><text text-anchor="middle" x="144.1235589119646" y="-4" transform="rotate(180 144.1235589119646 0)" filter="url(#glow)" style="fill: #fff" >RequestVote {:term 1, :prevLogIndex 2, :lastLog…</text><text text-anchor="middle" x="144.1235589119646" y="-4" transform="rotate(180 144.1235589119646 0)" >RequestVote {:term 1, :prevLogIndex 2, :lastLog…</text></g><g transform="translate(969.2308 50.0) rotate(118.50136389192896) " ><rect x="0" y="-2.5" height="5" width="382.88868214447393" fill="#000" ><title >n3 → n1 {:msg_id 2, :type "RequestVote", :term 1, :prevLogIndex 2, :lastLogTerm 0, :candidateId "n3"}</title></rect><use xlink:href="#ahead" x="386.88868214447393" y="0" /><text text-anchor="middle" x="193.44434107223697" y="-4" transform="rotate(180 193.44434107223697 0)" filter="url(#glow)" style="fill: #fff" >RequestVote {:term 1, :prevLogIndex 2, :lastLog…</text><text text-anchor="middle" x="193.44434107223697" y="-4" transform="rotate(180 193.44434107223697 0)" >RequestVote {:term 1, :prevLogIndex 2, :lastLog…</text></g><g transform="translate(876.9231 350.0) rotate(28.442932285711898) " ><rect x="0" y="-2.5" height="5" width="205.959114675762" fill="#000" ><title >n2 → n4 {:msg_id 5, :type "RequestVote", :term 1, :prevLogIndex 2, :lastLogTerm 0, :candidateId "n2"}</title></rect><use xlink:href="#ahead" x="209.959114675762" y="0" /><text text-anchor="middle" x="104.979557337881" y="-4" transform="" filter="url(#glow)" style="fill: #fff" >RequestVote {:term 1, :prevLogIndex 2, :lastLog…</text><text text-anchor="middle" x="104.979557337881" y="-4" transform="" >RequestVote {:term 1, :prevLogIndex 2, :lastLog…</text></g><g transform="translate(969.2308 490.0) rotate(167.77487551496154) " ><rect x="0" y="-2.5" height="5" width="90.44949686926579" fill="#000" ><title >n3 → n2 {:msg_id 3, :type "RequestVote", :term 1, :prevLogIndex 2, :lastLogTerm 0, :candidateId "n3"}</title></rect><use xlink:href="#ahead" x="94.44949686926579" y="0" /><text text-anchor="middle" x="47.22474843463289" y="-4" transform="rotate(180 47.22474843463289 0)" filter="url(#glow)" style="fill: #fff" >RequestVote {:term 1, :prevLogIndex 2, :lastLog…</text><text text-anchor="middle" x="47.22474843463289" y="-4" transform="rotate(180 47.22474843463289 0)" >RequestVote {:term 1, :prevLogIndex 2, :lastLog…</text></g><g transform="translate(1153.8462 370.0) rotate(119.98165198309276) " ><rect x="0" y="-2.5" height="5" width="180.71794370577078" fill="#000" ><title >n5 → n4 {:msg_id 5, :type "RequestVote", :term 1, :prevLogIndex 2, :lastLogTerm 0, :candidateId "n5"}</title></rect><use xlink:href="#ahead" x="184.71794370577078" y="0" /><text text-anchor="middle" x="92.35897185288539" y="-4" transform="rotate(180 92.35897185288539 0)" filter="url(#glow)" style="fill: #fff" >RequestVote {:term 1, :prevLogIndex 2, :lastLog…</text><text text-anchor="middle" x="92.35897185288539" y="-4" transform="rotate(180 92.35897185288539 0)" >RequestVote {:term 1, :prevLogIndex 2, :lastLog…</text></g><g transform="translate(876.9231 290.0) rotate(71.75414807207467) " ><rect x="0" y="-2.5" height="5" width="290.82317998905285" fill="#000" ><title >n2 → n3 {:msg_id 4, :type "RequestVote", :term 1, :prevLogIndex 2, :lastLogTerm 0, :candidateId "n2"}</title></rect><use xlink:href="#ahead" x="294.82317998905285" y="0" /><text text-anchor="middle" x="147.41158999452642" y="-4" transform="" filter="url(#glow)" style="fill: #fff" >RequestVote {:term 1, :prevLogIndex 2, :lastLog…</text><text text-anchor="middle" x="147.41158999452642" y="-4" transform="" >RequestVote {:term 1, :prevLogIndex 2, :lastLog…</text></g><g transform="translate(1061.5385 550.0) rotate(90.0) " ><rect x="0" y="-2.5" height="5" width="36.0" fill="#000" ><title >n4 → n4 {:msg_id 5, :type "RequestVote", :term 1, :prevLogIndex 2, :lastLogTerm 0, :candidateId "n4"}</title></rect><use xlink:href="#ahead" x="40.0" y="0" /><text text-anchor="middle" x="20.0" y="-4" transform="rotate(180 20.0 0)" filter="url(#glow)" style="fill: #fff" >RequestVote {:term 1, :prevLogIndex 2, :lastLog…</text><text text-anchor="middle" x="20.0" y="-4" transform="rotate(180 20.0 0)" >RequestVote {:term 1, :prevLogIndex 2, :lastLog…</text></g><g transform="translate(1153.8462 330.0) rotate(121.60750679892641) " ><rect x="0" y="-2.5" height="5" width="348.2539600508244" fill="#000" ><title >n5 → n3 {:msg_id 4, :type "RequestVote", :term 1, :prevLogIndex 2, :lastLogTerm 0, :candidateId "n5"}</title></rect><use xlink:href="#ahead" x="352.2539600508244" y="0" /><text text-anchor="middle" x="176.1269800254122" y="-4" transform="rotate(180 176.1269800254122 0)" filter="url(#glow)" style="fill: #fff" >RequestVote {:term 1, :prevLogIndex 2, :lastLog…</text><text text-anchor="middle" x="176.1269800254122" y="-4" transform="rotate(180 176.1269800254122 0)" >RequestVote {:term 1, :prevLogIndex 2, :lastLog…</text></g><g transform="translate(1061.5385 410.0) rotate(111.03750809618599) " ><rect x="0" y="-2.5" height="5" width="253.1394708302431" fill="#000" ><title >n4 → n3 {:msg_id 4, :type "RequestVote", :term 1, :prevLogIndex 2, :lastLogTerm 0, :candidateId "n4"}</title></rect><use xlink:href="#ahead" x="257.1394708302431" y="0" /><text text-anchor="middle" x="128.56973541512156" y="-4" transform="rotate(180 128.56973541512156 0)" filter="url(#glow)" style="fill: #fff" >RequestVote {:term 1, :prevLogIndex 2, :lastLog…</text><text text-anchor="middle" x="128.56973541512156" y="-4" transform="rotate(180 128.56973541512156 0)" >RequestVote {:term 1, :prevLogIndex 2, :lastLog…</text></g><g transform="translate(969.2308 670.0) rotate(12.22512448503845) " ><rect x="0" y="-2.5" height="5" width="90.44949686926579" fill="#000" ><title >n3 → n4 {:msg_id 5, :type "RequestVote", :term 1, :prevLogIndex 2, :lastLogTerm 0, :candidateId "n3"}</title></rect><use xlink:href="#ahead" x="94.44949686926579" y="0" /><text text-anchor="middle" x="47.22474843463289" y="-4" transform="" filter="url(#glow)" style="fill: #fff" >RequestVote {:term 1, :prevLogIndex 2, :lastLog…</text><text text-anchor="middle" x="47.22474843463289" y="-4" transform="" >RequestVote {:term 1, :prevLogIndex 2, :lastLog…</text></g><g transform="translate(969.2308 610.0) rotate(90.0) " ><rect x="0" y="-2.5" height="5" width="96.0" fill="#000" ><title >n3 → n3 {:msg_id 4, :type "RequestVote", :term 1, :prevLogIndex 2, :lastLogTerm 0, :candidateId "n3"}</title></rect><use xlink:href="#ahead" x="100.0" y="0" /><text text-anchor="middle" x="50.0" y="-4" transform="rotate(180 50.0 0)" filter="url(#glow)" style="fill: #fff" >RequestVote {:term 1, :prevLogIndex 2, :lastLog…</text><text text-anchor="middle" x="50.0" y="-4" transform="rotate(180 50.0 0)" >RequestVote {:term 1, :prevLogIndex 2, :lastLog…</text></g><g transform="translate(876.9231 430.0) rotate(50.83788354967967) " ><rect x="0" y="-2.5" height="5" width="434.50473308027375" fill="#000" ><title >n2 → n5 {:msg_id 6, :type "RequestVote", :term 1, :prevLogIndex 2, :lastLogTerm 0, :candidateId "n2"}</title></rect><use xlink:href="#ahead" x="438.50473308027375" y="0" /><text text-anchor="middle" x="219.25236654013688" y="-4" transform="" filter="url(#glow)" style="fill: #fff" >RequestVote {:term 1, :prevLogIndex 2, :lastLog…</text><text text-anchor="middle" x="219.25236654013688" y="-4" transform="" >RequestVote {:term 1, :prevLogIndex 2, :lastLog…</text></g><g transform="translate(1153.8462 470.0) rotate(90.0) " ><rect x="0" y="-2.5" height="5" width="316.0" fill="#000" ><title >n5 → n5 {:msg_id 6, :type "RequestVote", :term 1, :prevLogIndex 2, :lastLogTerm 0, :candidateId "n5"}</title></rect><use xlink:href="#ahead" x="320.0" y="0" /><text text-anchor="middle" x="160.0" y="-4" transform="rotate(180 160.0 0)" filter="url(#glow)" style="fill: #fff" >RequestVote {:term 1, :prevLogIndex 2, :lastLog…</text><text text-anchor="middle" x="160.0" y="-4" transform="rotate(180 160.0 0)" >RequestVote {:term 1, :prevLogIndex 2, :lastLog…</text></g><g transform="translate(1061.5385 730.0) rotate(40.91436879688873) " ><rect x="0" y="-2.5" height="5" width="118.15039388756918" fill="#000" ><title >n4 → n5 {:msg_id 6, :type "RequestVote", :term 1, :prevLogIndex 2, :lastLogTerm 0, :candidateId "n4"}</title></rect><use xlink:href="#ahead" x="122.15039388756918" y="0" /><text text-anchor="middle" x="61.07519694378459" y="-4" transform="" filter="url(#glow)" style="fill: #fff" >RequestVote {:term 1, :prevLogIndex 2, :lastLog…</text><text text-anchor="middle" x="61.07519694378459" y="-4" transform="" >RequestVote {:term 1, :prevLogIndex 2, :lastLog…</text></g><g transform="translate(969.2308 750.0) rotate(23.428689087602677) " ><rect x="0" y="-2.5" height="5" width="197.20350983888866" fill="#000" ><title >n3 → n5 {:msg_id 6, :type "RequestVote", :term 1, :prevLogIndex 2, :lastLogTerm 0, :candidateId "n3"}</title></rect><use xlink:href="#ahead" x="201.20350983888866" y="0" /><text text-anchor="middle" x="100.60175491944433" y="-4" transform="" filter="url(#glow)" style="fill: #fff" >RequestVote {:term 1, :prevLogIndex 2, :lastLog…</text><text text-anchor="middle" x="100.60175491944433" y="-4" transform="" >RequestVote {:term 1, :prevLogIndex 2, :lastLog…</text></g><g transform="translate(784.61536 850.0) rotate(90.0) " ><rect x="0" y="-2.5" height="5" width="16.0" fill="#000" ><title >n1 → n1 {:msg_id 2, :type "RequestVote", :term 1, :prevLogIndex 2, :lastLogTerm 0, :candidateId "n1"}</title></rect><use xlink:href="#ahead" x="20.0" y="0" /><text text-anchor="middle" x="10.0" y="-4" transform="rotate(180 10.0 0)" filter="url(#glow)" style="fill: #fff" >RequestVote {:term 1, :prevLogIndex 2, :lastLog…</text><text text-anchor="middle" x="10.0" y="-4" transform="rotate(180 10.0 0)" >RequestVote {:term 1, :prevLogIndex 2, :lastLog…</text></g><g transform="translate(784.61536 890.0) rotate(12.225116644730575) " ><rect x="0" y="-2.5" height="5" width="90.44955652033681" fill="#000" ><title >n1 → n2 {:msg_id 3, :type "RequestVote", :term 1, :prevLogIndex 2, :lastLogTerm 0, :candidateId "n1"}</title></rect><use xlink:href="#ahead" x="94.44955652033681" y="0" /><text text-anchor="middle" x="47.22477826016841" y="-4" transform="" filter="url(#glow)" style="fill: #fff" >RequestVote {:term 1, :prevLogIndex 2, :lastLog…</text><text text-anchor="middle" x="47.22477826016841" y="-4" transform="" >RequestVote {:term 1, :prevLogIndex 2, :lastLog…</text></g><g transform="translate(784.61536 930.0) rotate(6.182929073793282) " ><rect x="0" y="-2.5" height="5" width="181.6955906086296" fill="#000" ><title >n1 → n3 {:msg_id 4, :type "RequestVote", :term 1, :prevLogIndex 2, :lastLogTerm 0, :candidateId "n1"}</title></rect><use xlink:href="#ahead" x="185.6955906086296" y="0" /><text text-anchor="middle" x="92.8477953043148" y="-4" transform="" filter="url(#glow)" style="fill: #fff" >RequestVote {:term 1, :prevLogIndex 2, :lastLog…</text><text text-anchor="middle" x="92.8477953043148" y="-4" transform="" >RequestVote {:term 1, :prevLogIndex 2, :lastLog…</text></g><g transform="translate(784.61536 970.0) rotate(4.130855954104589) " ><rect x="0" y="-2.5" height="5" width="273.6443785380898" fill="#000" ><title >n1 → n4 {:msg_id 5, :type "RequestVote", :term 1, :prevLogIndex 2, :lastLogTerm 0, :candidateId "n1"}</title></rect><use xlink:href="#ahead" x="277.6443785380898" y="0" /><text text-anchor="middle" x="138.8221892690449" y="-4" transform="" filter="url(#glow)" style="fill: #fff" >RequestVote {:term 1, :prevLogIndex 2, :lastLog…</text><text text-anchor="middle" x="138.8221892690449" y="-4" transform="" >RequestVote {:term 1, :prevLogIndex 2, :lastLog…</text></g><g transform="translate(784.61536 1010.0) rotate(3.1004908989377333) " ><rect x="0" y="-2.5" height="5" width="365.77210479692906" fill="#000" ><title >n1 → n5 {:msg_id 6, :type "RequestVote", :term 1, :prevLogIndex 2, :lastLogTerm 0, :candidateId "n1"}</title></rect><use xlink:href="#ahead" x="369.77210479692906" y="0" /><text text-anchor="middle" x="184.88605239846453" y="-4" transform="" filter="url(#glow)" style="fill: #fff" >RequestVote {:term 1, :prevLogIndex 2, :lastLog…</text><text text-anchor="middle" x="184.88605239846453" y="-4" transform="" >RequestVote {:term 1, :prevLogIndex 2, :lastLog…</text></g><g transform="translate(46.153847 1050.0) rotate(1.3790764314393882) " ><rect x="0" y="-2.5" height="5" width="827.0099548269889" fill="#81BFFC" ><title >c10 → n2 {:key 1, :from 3, :to 2, :type "cas", :msg_id 1}</title></rect><use xlink:href="#ahead" x="831.0099548269889" y="0" /><text text-anchor="middle" x="415.50497741349443" y="-4" transform="" filter="url(#glow)" style="fill: #fff" >cas {:key 1, :from 3, :to 2}</text><text text-anchor="middle" x="415.50497741349443" y="-4" transform="" >cas {:key 1, :from 3, :to 2}</text></g><g transform="translate(876.9231 1090.0) rotate(178.6209235685606) " ><rect x="0" y="-2.5" height="5" width="827.0099548269889" fill="#FF1E90" ><title >n2 → c10 {:msg_id 7, :in_reply_to 1, :type "error", :code 11}</title></rect><use xlink:href="#ahead" x="831.0099548269889" y="0" /><text text-anchor="middle" x="415.50497741349443" y="-4" transform="rotate(180 415.50497741349443 0)" filter="url(#glow)" style="fill: #fff" >error </text><text text-anchor="middle" x="415.50497741349443" y="-4" transform="rotate(180 415.50497741349443 0)" >error </text></g><g transform="translate(138.46153 1130.0) rotate(1.3790764440992878) " ><rect x="0" y="-2.5" height="5" width="827.0099471998042" fill="#81BFFC" ><title >c11 → n3 {:key 0, :type "read", :msg_id 1}</title></rect><use xlink:href="#ahead" x="831.0099471998042" y="0" /><text text-anchor="middle" x="415.5049735999021" y="-4" transform="" filter="url(#glow)" style="fill: #fff" >read {:key 0}</text><text text-anchor="middle" x="415.5049735999021" y="-4" transform="" >read {:key 0}</text></g><g transform="translate(969.2308 1170.0) rotate(178.62092355590073) " ><rect x="0" y="-2.5" height="5" width="827.0099471998042" fill="#FF1E90" ><title >n3 → c11 {:msg_id 7, :in_reply_to 1, :type "error", :code 11}</title></rect><use xlink:href="#ahead" x="831.0099471998042" y="0" /><text text-anchor="middle" x="415.5049735999021" y="-4" transform="rotate(180 415.5049735999021 0)" filter="url(#glow)" style="fill: #fff" >error </text><text text-anchor="middle" x="415.5049735999021" y="-4" transform="rotate(180 415.5049735999021 0)" >error </text></g><g transform="translate(230.76923 1210.0) rotate(2.0681157107260364) " ><rect x="0" y="-2.5" height="5" width="550.2071238508529" fill="#81BFFC" ><title >c12 → n1 {:key 1, :from 2, :to 3, :type "cas", :msg_id 1}</title></rect><use xlink:href="#ahead" x="554.2071238508529" y="0" /><text text-anchor="middle" x="277.10356192542645" y="-4" transform="" filter="url(#glow)" style="fill: #fff" >cas {:key 1, :from 2, :to 3}</text><text text-anchor="middle" x="277.10356192542645" y="-4" transform="" >cas {:key 1, :from 2, :to 3}</text></g><g transform="translate(784.61536 1250.0) rotate(177.93188428927397) " ><rect x="0" y="-2.5" height="5" width="550.2071238508529" fill="#FF1E90" ><title >n1 → c12 {:msg_id 7, :in_reply_to 1, :type "error", :code 11}</title></rect><use xlink:href="#ahead" x="554.2071238508529" y="0" /><text text-anchor="middle" x="277.10356192542645" y="-4" transform="rotate(180 277.10356192542645 0)" filter="url(#glow)" style="fill: #fff" >error </text><text text-anchor="middle" x="277.10356192542645" y="-4" transform="rotate(180 277.10356192542645 0)" >error </text></g><g transform="translate(323.07693 1290.0) rotate(1.5513814973197493) " ><rect x="0" y="-2.5" height="5" width="734.7323010287356" fill="#81BFFC" ><title >c13 → n4 {:key 1, :from 3, :to 4, :type "cas", :msg_id 1}</title></rect><use xlink:href="#ahead" x="738.7323010287356" y="0" /><text text-anchor="middle" x="369.3661505143678" y="-4" transform="" filter="url(#glow)" style="fill: #fff" >cas {:key 1, :from 3, :to 4}</text><text text-anchor="middle" x="369.3661505143678" y="-4" transform="" >cas {:key 1, :from 3, :to 4}</text></g><g transform="translate(1061.5385 1330.0) rotate(178.44861850268026) " ><rect x="0" y="-2.5" height="5" width="734.7323010287356" fill="#FF1E90" ><title >n4 → c13 {:msg_id 7, :in_reply_to 1, :type "error", :code 11}</title></rect><use xlink:href="#ahead" x="738.7323010287356" y="0" /><text text-anchor="middle" x="369.3661505143678" y="-4" transform="rotate(180 369.3661505143678 0)" filter="url(#glow)" style="fill: #fff" >error </text><text text-anchor="middle" x="369.3661505143678" y="-4" transform="rotate(180 369.3661505143678 0)" >error </text></g><g transform="translate(415.3846 1370.0) rotate(2.0681155968693705) " ><rect x="0" y="-2.5" height="5" width="550.2071543485528" fill="#81BFFC" ><title >c14 → n3 {:key 1, :value 0, :type "write", :msg_id 1}</title></rect><use xlink:href="#ahead" x="554.2071543485528" y="0" /><text text-anchor="middle" x="277.1035771742764" y="-4" transform="" filter="url(#glow)" style="fill: #fff" >write {:key 1, :value 0}</text><text text-anchor="middle" x="277.1035771742764" y="-4" transform="" >write {:key 1, :value 0}</text></g><g transform="translate(969.2308 1410.0) rotate(177.93188440313065) " ><rect x="0" y="-2.5" height="5" width="550.2071543485528" fill="#FF1E90" ><title >n3 → c14 {:msg_id 8, :in_reply_to 1, :type "error", :code 11}</title></rect><use xlink:href="#ahead" x="554.2071543485528" y="0" /><text text-anchor="middle" x="277.1035771742764" y="-4" transform="rotate(180 277.1035771742764 0)" filter="url(#glow)" style="fill: #fff" >error </text><text text-anchor="middle" x="277.1035771742764" y="-4" transform="rotate(180 277.1035771742764 0)" >error </text></g><g transform="translate(507.69232 1450.0) rotate(4.130856861413162) " ><rect x="0" y="-2.5" height="5" width="273.64431766149477" fill="#81BFFC" ><title >c15 → n1 {:key 0, :from 2, :to 2, :type "cas", :msg_id 1}</title></rect><use xlink:href="#ahead" x="277.64431766149477" y="0" /><text text-anchor="middle" x="138.82215883074738" y="-4" transform="" filter="url(#glow)" style="fill: #fff" >cas {:key 0, :from 2, :to 2}</text><text text-anchor="middle" x="138.82215883074738" y="-4" transform="" >cas {:key 0, :from 2, :to 2}</text></g><g transform="translate(784.61536 1490.0) rotate(175.86914313858685) " ><rect x="0" y="-2.5" height="5" width="273.64431766149477" fill="#FF1E90" ><title >n1 → c15 {:msg_id 8, :in_reply_to 1, :type "error", :code 11}</title></rect><use xlink:href="#ahead" x="277.64431766149477" y="0" /><text text-anchor="middle" x="138.82215883074738" y="-4" transform="rotate(180 138.82215883074738 0)" filter="url(#glow)" style="fill: #fff" >error </text><text text-anchor="middle" x="138.82215883074738" y="-4" transform="rotate(180 138.82215883074738 0)" >error </text></g><g transform="translate(600.0 1530.0) rotate(4.130855954104589) " ><rect x="0" y="-2.5" height="5" width="273.6443785380898" fill="#81BFFC" ><title >c16 → n2 {:key 1, :from 4, :to 0, :type "cas", :msg_id 1}</title></rect><use xlink:href="#ahead" x="277.6443785380898" y="0" /><text text-anchor="middle" x="138.8221892690449" y="-4" transform="" filter="url(#glow)" style="fill: #fff" >cas {:key 1, :from 4, :to 0}</text><text text-anchor="middle" x="138.8221892690449" y="-4" transform="" >cas {:key 1, :from 4, :to 0}</text></g><g transform="translate(876.9231 1570.0) rotate(175.86914404589544) " ><rect x="0" y="-2.5" height="5" width="273.6443785380898" fill="#FF1E90" ><title >n2 → c16 {:msg_id 8, :in_reply_to 1, :type "error", :code 11}</title></rect><use xlink:href="#ahead" x="277.6443785380898" y="0" /><text text-anchor="middle" x="138.8221892690449" y="-4" transform="rotate(180 138.8221892690449 0)" filter="url(#glow)" style="fill: #fff" >error </text><text text-anchor="middle" x="138.8221892690449" y="-4" transform="rotate(180 138.8221892690449 0)" >error </text></g><g transform="translate(46.153847 1610.0) rotate(1.3790764314393882) " ><rect x="0" y="-2.5" height="5" width="827.0099548269889" fill="#81BFFC" ><title >c10 → n2 {:key 1, :value 3, :type "write", :msg_id 2}</title></rect><use xlink:href="#ahead" x="831.0099548269889" y="0" /><text text-anchor="middle" x="415.50497741349443" y="-4" transform="" filter="url(#glow)" style="fill: #fff" >write {:key 1, :value 3}</text><text text-anchor="middle" x="415.50497741349443" y="-4" transform="" >write {:key 1, :value 3}</text></g><g transform="translate(876.9231 1650.0) rotate(178.6209235685606) " ><rect x="0" y="-2.5" height="5" width="827.0099548269889" fill="#FF1E90" ><title >n2 → c10 {:msg_id 9, :in_reply_to 2, :type "error", :code 11}</title></rect><use xlink:href="#ahead" x="831.0099548269889" y="0" /><text text-anchor="middle" x="415.50497741349443" y="-4" transform="rotate(180 415.50497741349443 0)" filter="url(#glow)" style="fill: #fff" >error </text><text text-anchor="middle" x="415.50497741349443" y="-4" transform="rotate(180 415.50497741349443 0)" >error </text></g><g transform="translate(323.07693 1690.0) rotate(1.5513814973197493) " ><rect x="0" y="-2.5" height="5" width="734.7323010287356" fill="#81BFFC" ><title >c13 → n4 {:key 1, :from 4, :to 0, :type "cas", :msg_id 2}</title></rect><use xlink:href="#ahead" x="738.7323010287356" y="0" /><text text-anchor="middle" x="369.3661505143678" y="-4" transform="" filter="url(#glow)" style="fill: #fff" >cas {:key 1, :from 4, :to 0}</text><text text-anchor="middle" x="369.3661505143678" y="-4" transform="" >cas {:key 1, :from 4, :to 0}</text></g><g transform="translate(1061.5385 1730.0) rotate(178.44861850268026) " ><rect x="0" y="-2.5" height="5" width="734.7323010287356" fill="#FF1E90" ><title >n4 → c13 {:msg_id 8, :in_reply_to 2, :type "error", :code 11}</title></rect><use xlink:href="#ahead" x="738.7323010287356" y="0" /><text text-anchor="middle" x="369.3661505143678" y="-4" transform="rotate(180 369.3661505143678 0)" filter="url(#glow)" style="fill: #fff" >error </text><text text-anchor="middle" x="369.3661505143678" y="-4" transform="rotate(180 369.3661505143678 0)" >error </text></g><g transform="translate(692.3077 1770.0) rotate(2.4812645238948243) " ><rect x="0" y="-2.5" height="5" width="457.9716432333508" fill="#81BFFC" ><title >c17 → n5 {:key 1, :from 2, :to 0, :type "cas", :msg_id 1}</title></rect><use xlink:href="#ahead" x="461.9716432333508" y="0" /><text text-anchor="middle" x="230.9858216166754" y="-4" transform="" filter="url(#glow)" style="fill: #fff" >cas {:key 1, :from 2, :to 0}</text><text text-anchor="middle" x="230.9858216166754" y="-4" transform="" >cas {:key 1, :from 2, :to 0}</text></g><g transform="translate(1153.8462 1810.0) rotate(177.51873547610518) " ><rect x="0" y="-2.5" height="5" width="457.9716432333508" fill="#FF1E90" ><title >n5 → c17 {:msg_id 7, :in_reply_to 1, :type "error", :code 11}</title></rect><use xlink:href="#ahead" x="461.9716432333508" y="0" /><text text-anchor="middle" x="230.9858216166754" y="-4" transform="rotate(180 230.9858216166754 0)" filter="url(#glow)" style="fill: #fff" >error </text><text text-anchor="middle" x="230.9858216166754" y="-4" transform="rotate(180 230.9858216166754 0)" >error </text></g></g></svg>