<?xml version="1.0" encoding="UTF-8" standalone="no"?>
<!DOCTYPE svg PUBLIC "-//W3C//DTD SVG 1.1//EN"
 "http://www.w3.org/Graphics/SVG/1.1/DTD/svg11.dtd">
<!-- Generated by graphviz version 3.0.0 (0)
 -->
<!-- Title: a_graph Pages: 1 -->
<svg width="203pt" height="119pt"
 viewBox="0.00 0.00 203.00 119.00" xmlns="http://www.w3.org/2000/svg" xmlns:xlink="http://www.w3.org/1999/xlink">
<g id="graph0" class="graph" transform="scale(1 1) rotate(0) translate(4 115)">
<title>a_graph</title>
<polygon fill="white" stroke="transparent" points="-4,4 -4,-115 199,-115 199,4 -4,4"/>
<!-- T3 -->
<g id="node1" class="node">
<title>T3</title>
<polygon fill="none" stroke="#0058ad" points="2,-81.5 2,-110.5 147,-110.5 147,-81.5 2,-81.5"/>
<text text-anchor="middle" x="27" y="-92.3" font-family="Times,serif" font-size="14.00" fill="#0058ad">r 9 nil</text>
<polyline fill="none" stroke="#0058ad" points="52,-81.5 52,-110.5 "/>
<text text-anchor="middle" x="74" y="-92.3" font-family="Times,serif" font-size="14.00" fill="#0058ad">a 8 1</text>
<polyline fill="none" stroke="#0058ad" points="96,-81.5 96,-110.5 "/>
<text text-anchor="middle" x="121.5" y="-92.3" font-family="Times,serif" font-size="14.00" fill="#0058ad">r 8 [1]</text>
</g>
<!-- T6 -->
<g id="node2" class="node">
<title>T6</title>
<polygon fill="none" stroke="#0058ad" points="0,-0.5 0,-29.5 195,-29.5 195,-0.5 0,-0.5"/>
<text text-anchor="middle" x="25" y="-11.3" font-family="Times,serif" font-size="14.00" fill="#0058ad">r 8 nil</text>
<polyline fill="none" stroke="#0058ad" points="50,-0.5 50,-29.5 "/>
<text text-anchor="middle" x="72" y="-11.3" font-family="Times,serif" font-size="14.00" fill="#0058ad">a 9 3</text>
<polyline fill="none" stroke="#0058ad" points="94,-0.5 94,-29.5 "/>
<text text-anchor="middle" x="119" y="-11.3" font-family="Times,serif" font-size="14.00" fill="#0058ad">r 8 nil</text>
<polyline fill="none" stroke="#0058ad" points="144,-0.5 144,-29.5 "/>
<text text-anchor="middle" x="169.5" y="-11.3" font-family="Times,serif" font-size="14.00" fill="#0058ad">r 9 [3]</text>
</g>
<!-- T3&#45;&gt;T6 -->
<g id="edge1" class="edge">
<title>T3:f0&#45;&gt;T6:f1</title>
<path fill="none" stroke="#5b00c0" d="M26.5,-81C26.5,-66.09 23.37,-59.78 32.5,-48 41.18,-36.8 58.46,-42.83 66.79,-38.87"/>
<polygon fill="#5b00c0" stroke="#5b00c0" points="69.9,-40.47 71.5,-30 63.72,-37.19 69.9,-40.47"/>
<text text-anchor="middle" x="40" y="-51.8" font-family="Times,serif" font-size="14.00" fill="#5b00c0">rw</text>
</g>
<!-- T6&#45;&gt;T3 -->
<g id="edge2" class="edge">
<title>T6:f0&#45;&gt;T3:f1</title>
<path fill="none" stroke="#5b00c0" d="M24.5,-30C24.5,-42.98 38.31,-38.84 47.5,-48 57.83,-58.3 67.89,-61.25 71.8,-70.95"/>
<polygon fill="#5b00c0" stroke="#5b00c0" points="68.38,-71.73 73.5,-81 75.28,-70.56 68.38,-71.73"/>
<text text-anchor="middle" x="74" y="-51.8" font-family="Times,serif" font-size="14.00" fill="#5b00c0">rw</text>
</g>
</g>
</svg>
