<?xml version="1.0" encoding="UTF-8"?><svg xmlns:svg="http://www.w3.org/2000/svg" xmlns="http://www.w3.org/2000/svg" xmlns:xlink="http://www.w3.org/1999/xlink" version="2.0" width="1200" height="2220" ><style >
svg {
  font-family: Helvetica, Arial, sans-serif;
  font-size: 11px;
}
rect {
  stroke-linecap: butt;
  stroke-width: 3;
  stroke: #fff;
/*  stroke-opacity: 1; */
}
rect:hover {
  stroke: #fff;
/*  stroke-opacity: 1; /*
}
polygon { fill: #000; }</style><defs ><polygon id="ahead" points="0 0, -12 4, -12 -4" /><filter id="glow" x="0" y="0" ><feGaussianBlur in="SourceAlpha" stdDeviation="2" result="blurred" /><feFlood flood-color="#fff" /><feComposite operator="in" in2="blurred" /><feComponentTransfer ><feFuncA type="linear" slope="10" intercept="0" /></feComponentTransfer><feMerge ><feMergeNode /><feMergeNode in="SourceGraphic" /></feMerge></filter></defs><g ><text x="35.294117" y="20.0" text-anchor="middle" alignment-baseline="middle" fill="#000" >c10</text><text x="35.294117" y="1020.0" text-anchor="middle" alignment-baseline="middle" fill="#aaa" >c10</text><text x="35.294117" y="2020.0" text-anchor="middle" alignment-baseline="middle" fill="#aaa" >c10</text><text x="105.882355" y="20.0" text-anchor="middle" alignment-baseline="middle" fill="#000" >c11</text><text x="105.882355" y="1020.0" text-anchor="middle" alignment-baseline="middle" fill="#aaa" >c11</text><text x="105.882355" y="2020.0" text-anchor="middle" alignment-baseline="middle" fill="#aaa" >c11</text><text x="176.47058" y="20.0" text-anchor="middle" alignment-baseline="middle" fill="#000" >c12</text><text x="176.47058" y="1020.0" text-anchor="middle" alignment-baseline="middle" fill="#aaa" >c12</text><text x="176.47058" y="2020.0" text-anchor="middle" alignment-baseline="middle" fill="#aaa" >c12</text><text x="247.05882" y="20.0" text-anchor="middle" alignment-baseline="middle" fill="#000" >c13</text><text x="247.05882" y="1020.0" text-anchor="middle" alignment-baseline="middle" fill="#aaa" >c13</text><text x="247.05882" y="2020.0" text-anchor="middle" alignment-baseline="middle" fill="#aaa" >c13</text><text x="317.64706" y="20.0" text-anchor="middle" alignment-baseline="middle" fill="#000" >c14</text><text x="317.64706" y="1020.0" text-anchor="middle" alignment-baseline="middle" fill="#aaa" >c14</text><text x="317.64706" y="2020.0" text-anchor="middle" alignment-baseline="middle" fill="#aaa" >c14</text><text x="388.2353" y="20.0" text-anchor="middle" alignment-baseline="middle" fill="#000" >c15</text><text x="388.2353" y="1020.0" text-anchor="middle" alignment-baseline="middle" fill="#aaa" >c15</text><text x="388.2353" y="2020.0" text-anchor="middle" alignment-baseline="middle" fill="#aaa" >c15</text><text x="458.82352" y="20.0" text-anchor="middle" alignment-baseline="middle" fill="#000" >c16</text><text x="458.82352" y="1020.0" text-anchor="middle" alignment-baseline="middle" fill="#aaa" >c16</text><text x="458.82352" y="2020.0" text-anchor="middle" alignment-baseline="middle" fill="#aaa" >c16</text><text x="529.41174" y="20.0" text-anchor="middle" alignment-baseline="middle" fill="#000" >c17</text><text x="529.41174" y="1020.0" text-anchor="middle" alignment-baseline="middle" fill="#aaa" >c17</text><text x="529.41174" y="2020.0" text-anchor="middle" alignment-baseline="middle" fill="#aaa" >c17</text><text x="600.0" y="20.0" text-anchor="middle" alignment-baseline="middle" fill="#000" >c18</text><text x="600.0" y="1020.0" text-anchor="middle" alignment-baseline="middle" fill="#aaa" >c18</text><text x="600.0" y="2020.0" text-anchor="middle" alignment-baseline="middle" fill="#aaa" >c18</text><text x="670.58826" y="20.0" text-anchor="middle" alignment-baseline="middle" fill="#000" >c19</text><text x="670.58826" y="1020.0" text-anchor="middle" alignment-baseline="middle" fill="#aaa" >c19</text><text x="670.58826" y="2020.0" text-anchor="middle" alignment-baseline="middle" fill="#aaa" >c19</text><text x="741.17645" y="20.0" text-anchor="middle" alignment-baseline="middle" fill="#000" >c20</text><text x="741.17645" y="1020.0" text-anchor="middle" alignment-baseline="middle" fill="#aaa" >c20</text><text x="741.17645" y="2020.0" text-anchor="middle" alignment-baseline="middle" fill="#aaa" >c20</text><text x="811.7647" y="20.0" text-anchor="middle" alignment-baseline="middle" fill="#000" >c21</text><text x="811.7647" y="1020.0" text-anchor="middle" alignment-baseline="middle" fill="#aaa" >c21</text><text x="811.7647" y="2020.0" text-anchor="middle" alignment-baseline="middle" fill="#aaa" >c21</text><text x="882.35297" y="20.0" text-anchor="middle" alignment-baseline="middle" fill="#000" >n1</text><text x="882.35297" y="1020.0" text-anchor="middle" alignment-baseline="middle" fill="#aaa" >n1</text><text x="882.35297" y="2020.0" text-anchor="middle" alignment-baseline="middle" fill="#aaa" >n1</text><text x="952.94116" y="20.0" text-anchor="middle" alignment-baseline="middle" fill="#000" >n2</text><text x="952.94116" y="1020.0" text-anchor="middle" alignment-baseline="middle" fill="#aaa" >n2</text><text x="952.94116" y="2020.0" text-anchor="middle" alignment-baseline="middle" fill="#aaa" >n2</text><text x="1023.5294" y="20.0" text-anchor="middle" alignment-baseline="middle" fill="#000" >n3</text><text x="1023.5294" y="1020.0" text-anchor="middle" alignment-baseline="middle" fill="#aaa" >n3</text><text x="1023.5294" y="2020.0" text-anchor="middle" alignment-baseline="middle" fill="#aaa" >n3</text><text x="1094.1177" y="20.0" text-anchor="middle" alignment-baseline="middle" fill="#000" >n4</text><text x="1094.1177" y="1020.0" text-anchor="middle" alignment-baseline="middle" fill="#aaa" >n4</text><text x="1094.1177" y="2020.0" text-anchor="middle" alignment-baseline="middle" fill="#aaa" >n4</text><text x="1164.7059" y="20.0" text-anchor="middle" alignment-baseline="middle" fill="#000" >n5</text><text x="1164.7059" y="1020.0" text-anchor="middle" alignment-baseline="middle" fill="#aaa" >n5</text><text x="1164.7059" y="2020.0" text-anchor="middle" alignment-baseline="middle" fill="#aaa" >n5</text></g><g ><line stroke="#ccc" x1="35.294117" y1="30.0" x2="35.294117" y2="2130.0" /><line stroke="#ccc" x1="105.882355" y1="30.0" x2="105.882355" y2="2130.0" /><line stroke="#ccc" x1="176.47058" y1="30.0" x2="176.47058" y2="2130.0" /><line stroke="#ccc" x1="247.05882" y1="30.0" x2="247.05882" y2="2130.0" /><line stroke="#ccc" x1="317.64706" y1="30.0" x2="317.64706" y2="2130.0" /><line stroke="#ccc" x1="388.2353" y1="30.0" x2="388.2353" y2="2130.0" /><line stroke="#ccc" x1="458.82352" y1="30.0" x2="458.82352" y2="2130.0" /><line stroke="#ccc" x1="529.41174" y1="30.0" x2="529.41174" y2="2130.0" /><line stroke="#ccc" x1="600.0" y1="30.0" x2="600.0" y2="2130.0" /><line stroke="#ccc" x1="670.58826" y1="30.0" x2="670.58826" y2="2130.0" /><line stroke="#ccc" x1="741.17645" y1="30.0" x2="741.17645" y2="2130.0" /><line stroke="#ccc" x1="811.7647" y1="30.0" x2="811.7647" y2="2130.0" /><line stroke="#ccc" x1="882.35297" y1="30.0" x2="882.35297" y2="2130.0" /><line stroke="#ccc" x1="952.94116" y1="30.0" x2="952.94116" y2="2130.0" /><line stroke="#ccc" x1="1023.5294" y1="30.0" x2="1023.5294" y2="2130.0" /><line stroke="#ccc" x1="1094.1177" y1="30.0" x2="1094.1177" y2="2130.0" /><line stroke="#ccc" x1="1164.7059" y1="30.0" x2="1164.7059" y2="2130.0" /></g><g ><g transform="translate(882.35297 50.0) rotate(15.819202355188114) " ><rect x="0" y="-2.5" height="5" width="69.36684119143628" fill="#000" ><title >n1 → n2 {:msg_id 2, :type "AppendEntries", :term 0, :prevIndex 0, :prevTerm 0, :entries [[["pass" nil] 0]], :commit 0}</title></rect><use xlink:href="#ahead" x="73.36684119143628" y="0" /><text text-anchor="middle" x="36.68342059571814" y="-4" transform="" filter="url(#glow)" style="fill: #fff" >AppendEntries {:term 0, :prevIndex 0, :prevTerm…</text><text text-anchor="middle" x="36.68342059571814" y="-4" transform="" >AppendEntries {:term 0, :prevIndex 0, :prevTerm…</text></g><g transform="translate(882.35297 90.0) rotate(8.06324717750837) " ><rect x="0" y="-2.5" height="5" width="138.5860819964126" fill="#000" ><title >n1 → n3 {:msg_id 3, :type "AppendEntries", :term 0, :prevIndex 0, :prevTerm 0, :entries [[["pass" nil] 0]], :commit 0}</title></rect><use xlink:href="#ahead" x="142.5860819964126" y="0" /><text text-anchor="middle" x="71.2930409982063" y="-4" transform="" filter="url(#glow)" style="fill: #fff" >AppendEntries {:term 0, :prevIndex 0, :prevTerm…</text><text text-anchor="middle" x="71.2930409982063" y="-4" transform="" >AppendEntries {:term 0, :prevIndex 0, :prevTerm…</text></g><g transform="translate(882.35297 130.0) rotate(5.395264477280413) " ><rect x="0" y="-2.5" height="5" width="208.7070571890799" fill="#000" ><title >n1 → n4 {:msg_id 4, :type "AppendEntries", :term 0, :prevIndex 0, :prevTerm 0, :entries [[["pass" nil] 0]], :commit 0}</title></rect><use xlink:href="#ahead" x="212.7070571890799" y="0" /><text text-anchor="middle" x="106.35352859453995" y="-4" transform="" filter="url(#glow)" style="fill: #fff" >AppendEntries {:term 0, :prevIndex 0, :prevTerm…</text><text text-anchor="middle" x="106.35352859453995" y="-4" transform="" >AppendEntries {:term 0, :prevIndex 0, :prevTerm…</text></g><g transform="translate(882.35297 170.0) rotate(4.05168347839079) " ><rect x="0" y="-2.5" height="5" width="279.0604133100598" fill="#000" ><title >n1 → n5 {:msg_id 5, :type "AppendEntries", :term 0, :prevIndex 0, :prevTerm 0, :entries [[["pass" nil] 0]], :commit 0}</title></rect><use xlink:href="#ahead" x="283.0604133100598" y="0" /><text text-anchor="middle" x="141.5302066550299" y="-4" transform="" filter="url(#glow)" style="fill: #fff" >AppendEntries {:term 0, :prevIndex 0, :prevTerm…</text><text text-anchor="middle" x="141.5302066550299" y="-4" transform="" >AppendEntries {:term 0, :prevIndex 0, :prevTerm…</text></g><g transform="translate(952.94116 210.0) rotate(139.63544760808688) " ><rect x="0" y="-2.5" height="5" width="88.64282695605435" fill="#000" ><title >n2 → n1 {:msg_id 2, :in_reply_to 2, :type "AppendEntriesRes", :res true, :term 0, :next 2, :commit 0}</title></rect><use xlink:href="#ahead" x="92.64282695605435" y="0" /><text text-anchor="middle" x="46.321413478027175" y="-4" transform="rotate(180 46.321413478027175 0)" filter="url(#glow)" style="fill: #fff" >AppendEntriesRes {:res true, :term 0, :next 2, …</text><text text-anchor="middle" x="46.321413478027175" y="-4" transform="rotate(180 46.321413478027175 0)" >AppendEntriesRes {:res true, :term 0, :next 2, …</text></g><g transform="translate(1023.5294 230.0) rotate(156.97450536883332) " ><rect x="0" y="-2.5" height="5" width="149.39749274055197" fill="#000" ><title >n3 → n1 {:msg_id 2, :in_reply_to 3, :type "AppendEntriesRes", :res true, :term 0, :next 2, :commit 0}</title></rect><use xlink:href="#ahead" x="153.39749274055197" y="0" /><text text-anchor="middle" x="76.69874637027598" y="-4" transform="rotate(180 76.69874637027598 0)" filter="url(#glow)" style="fill: #fff" >AppendEntriesRes {:res true, :term 0, :next 2, …</text><text text-anchor="middle" x="76.69874637027598" y="-4" transform="rotate(180 76.69874637027598 0)" >AppendEntriesRes {:res true, :term 0, :next 2, …</text></g><g transform="translate(1094.1177 250.0) rotate(159.30454958707958) " ><rect x="0" y="-2.5" height="5" width="222.37202163261807" fill="#000" ><title >n4 → n1 {:msg_id 2, :in_reply_to 4, :type "AppendEntriesRes", :res true, :term 0, :next 2, :commit 0}</title></rect><use xlink:href="#ahead" x="226.37202163261807" y="0" /><text text-anchor="middle" x="113.18601081630904" y="-4" transform="rotate(180 113.18601081630904 0)" filter="url(#glow)" style="fill: #fff" >AppendEntriesRes {:res true, :term 0, :next 2, …</text><text text-anchor="middle" x="113.18601081630904" y="-4" transform="rotate(180 113.18601081630904 0)" >AppendEntriesRes {:res true, :term 0, :next 2, …</text></g><g transform="translate(1164.7059 310.0) rotate(171.93675454257038) " ><rect x="0" y="-2.5" height="5" width="281.172224424578" fill="#000" ><title >n5 → n1 {:msg_id 2, :in_reply_to 5, :type "AppendEntriesRes", :res true, :term 0, :next 2, :commit 0}</title></rect><use xlink:href="#ahead" x="285.172224424578" y="0" /><text text-anchor="middle" x="142.586112212289" y="-4" transform="rotate(180 142.586112212289 0)" filter="url(#glow)" style="fill: #fff" >AppendEntriesRes {:res true, :term 0, :next 2, …</text><text text-anchor="middle" x="142.586112212289" y="-4" transform="rotate(180 142.586112212289 0)" >AppendEntriesRes {:res true, :term 0, :next 2, …</text></g><g transform="translate(35.294117 370.0) rotate(1.1593991615030548) " ><rect x="0" y="-2.5" height="5" width="984.4376622036285" fill="#81BFFC" ><title >c10 → n3 {:key 0, :value 1, :type "write", :msg_id 1}</title></rect><use xlink:href="#ahead" x="988.4376622036285" y="0" /><text text-anchor="middle" x="494.21883110181426" y="-4" transform="" filter="url(#glow)" style="fill: #fff" >write {:key 0, :value 1}</text><text text-anchor="middle" x="494.21883110181426" y="-4" transform="" >write {:key 0, :value 1}</text></g><g transform="translate(1023.5294 410.0) rotate(178.84060083849698) " ><rect x="0" y="-2.5" height="5" width="984.4376622036285" fill="#FF1E90" ><title >n3 → c10 {:msg_id 3, :in_reply_to 1, :type "error", :code 11, :text "Not Leader"}</title></rect><use xlink:href="#ahead" x="988.4376622036285" y="0" /><text text-anchor="middle" x="494.21883110181426" y="-4" transform="rotate(180 494.21883110181426 0)" filter="url(#glow)" style="fill: #fff" >error Not Leader</text><text text-anchor="middle" x="494.21883110181426" y="-4" transform="rotate(180 494.21883110181426 0)" >error Not Leader</text></g><g transform="translate(35.294117 450.0) rotate(1.1593991615030548) " ><rect x="0" y="-2.5" height="5" width="984.4376622036285" fill="#81BFFC" ><title >c10 → n3 {:key 0, :from 3, :to 3, :type "cas", :msg_id 2}</title></rect><use xlink:href="#ahead" x="988.4376622036285" y="0" /><text text-anchor="middle" x="494.21883110181426" y="-4" transform="" filter="url(#glow)" style="fill: #fff" >cas {:key 0, :from 3, :to 3}</text><text text-anchor="middle" x="494.21883110181426" y="-4" transform="" >cas {:key 0, :from 3, :to 3}</text></g><g transform="translate(1023.5294 490.0) rotate(178.84060083849698) " ><rect x="0" y="-2.5" height="5" width="984.4376622036285" fill="#FF1E90" ><title >n3 → c10 {:msg_id 4, :in_reply_to 2, :type "error", :code 11, :text "Not Leader"}</title></rect><use xlink:href="#ahead" x="988.4376622036285" y="0" /><text text-anchor="middle" x="494.21883110181426" y="-4" transform="rotate(180 494.21883110181426 0)" filter="url(#glow)" style="fill: #fff" >error Not Leader</text><text text-anchor="middle" x="494.21883110181426" y="-4" transform="rotate(180 494.21883110181426 0)" >error Not Leader</text></g><g transform="translate(105.882355 530.0) rotate(1.3525657345877524) " ><rect x="0" y="-2.5" height="5" width="843.2948855907538" fill="#81BFFC" ><title >c11 → n2 {:key 0, :type "read", :msg_id 1}</title></rect><use xlink:href="#ahead" x="847.2948855907538" y="0" /><text text-anchor="middle" x="423.6474427953769" y="-4" transform="" filter="url(#glow)" style="fill: #fff" >read {:key 0}</text><text text-anchor="middle" x="423.6474427953769" y="-4" transform="" >read {:key 0}</text></g><g transform="translate(952.94116 570.0) rotate(178.64743426541227) " ><rect x="0" y="-2.5" height="5" width="843.2948855907538" fill="#FF1E90" ><title >n2 → c11 {:msg_id 3, :in_reply_to 1, :type "error", :code 11, :text "Not Leader"}</title></rect><use xlink:href="#ahead" x="847.2948855907538" y="0" /><text text-anchor="middle" x="423.6474427953769" y="-4" transform="rotate(180 423.6474427953769 0)" filter="url(#glow)" style="fill: #fff" >error Not Leader</text><text text-anchor="middle" x="423.6474427953769" y="-4" transform="rotate(180 423.6474427953769 0)" >error Not Leader</text></g><g transform="translate(176.47058 610.0) rotate(1.4754741503083382) " ><rect x="0" y="-2.5" height="5" width="772.7281141064768" fill="#81BFFC" ><title >c12 → n2 {:key 1, :from 3, :to 3, :type "cas", :msg_id 1}</title></rect><use xlink:href="#ahead" x="776.7281141064768" y="0" /><text text-anchor="middle" x="388.3640570532384" y="-4" transform="" filter="url(#glow)" style="fill: #fff" >cas {:key 1, :from 3, :to 3}</text><text text-anchor="middle" x="388.3640570532384" y="-4" transform="" >cas {:key 1, :from 3, :to 3}</text></g><g transform="translate(952.94116 650.0) rotate(178.52452584969168) " ><rect x="0" y="-2.5" height="5" width="772.7281141064768" fill="#FF1E90" ><title >n2 → c12 {:msg_id 4, :in_reply_to 1, :type "error", :code 11, :text "Not Leader"}</title></rect><use xlink:href="#ahead" x="776.7281141064768" y="0" /><text text-anchor="middle" x="388.3640570532384" y="-4" transform="rotate(180 388.3640570532384 0)" filter="url(#glow)" style="fill: #fff" >error Not Leader</text><text text-anchor="middle" x="388.3640570532384" y="-4" transform="rotate(180 388.3640570532384 0)" >error Not Leader</text></g><g transform="translate(247.05882 690.0) rotate(1.4754741213259186) " ><rect x="0" y="-2.5" height="5" width="772.7281293602066" fill="#81BFFC" ><title >c13 → n3 {:key 1, :value 4, :type "write", :msg_id 1}</title></rect><use xlink:href="#ahead" x="776.7281293602066" y="0" /><text text-anchor="middle" x="388.3640646801033" y="-4" transform="" filter="url(#glow)" style="fill: #fff" >write {:key 1, :value 4}</text><text text-anchor="middle" x="388.3640646801033" y="-4" transform="" >write {:key 1, :value 4}</text></g><g transform="translate(1023.5294 730.0) rotate(178.52452587867407) " ><rect x="0" y="-2.5" height="5" width="772.7281293602066" fill="#FF1E90" ><title >n3 → c13 {:msg_id 5, :in_reply_to 1, :type "error", :code 11, :text "Not Leader"}</title></rect><use xlink:href="#ahead" x="776.7281293602066" y="0" /><text text-anchor="middle" x="388.3640646801033" y="-4" transform="rotate(180 388.3640646801033 0)" filter="url(#glow)" style="fill: #fff" >error Not Leader</text><text text-anchor="middle" x="388.3640646801033" y="-4" transform="rotate(180 388.3640646801033 0)" >error Not Leader</text></g><g transform="translate(176.47058 770.0) rotate(1.4754741503083382) " ><rect x="0" y="-2.5" height="5" width="772.7281141064768" fill="#81BFFC" ><title >c12 → n2 {:key 1, :from 2, :to 2, :type "cas", :msg_id 2}</title></rect><use xlink:href="#ahead" x="776.7281141064768" y="0" /><text text-anchor="middle" x="388.3640570532384" y="-4" transform="" filter="url(#glow)" style="fill: #fff" >cas {:key 1, :from 2, :to 2}</text><text text-anchor="middle" x="388.3640570532384" y="-4" transform="" >cas {:key 1, :from 2, :to 2}</text></g><g transform="translate(952.94116 810.0) rotate(178.52452584969168) " ><rect x="0" y="-2.5" height="5" width="772.7281141064768" fill="#FF1E90" ><title >n2 → c12 {:msg_id 5, :in_reply_to 2, :type "error", :code 11, :text "Not Leader"}</title></rect><use xlink:href="#ahead" x="776.7281141064768" y="0" /><text text-anchor="middle" x="388.3640570532384" y="-4" transform="rotate(180 388.3640570532384 0)" filter="url(#glow)" style="fill: #fff" >error Not Leader</text><text text-anchor="middle" x="388.3640570532384" y="-4" transform="rotate(180 388.3640570532384 0)" >error Not Leader</text></g><g transform="translate(317.64706 850.0) rotate(1.3525656371643064) " ><rect x="0" y="-2.5" height="5" width="843.2949466089041" fill="#81BFFC" ><title >c14 → n5 {:key 0, :from 0, :to 4, :type "cas", :msg_id 1}</title></rect><use xlink:href="#ahead" x="847.2949466089041" y="0" /><text text-anchor="middle" x="423.64747330445203" y="-4" transform="" filter="url(#glow)" style="fill: #fff" >cas {:key 0, :from 0, :to 4}</text><text text-anchor="middle" x="423.64747330445203" y="-4" transform="" >cas {:key 0, :from 0, :to 4}</text></g><g transform="translate(1164.7059 890.0) rotate(178.6474343628357) " ><rect x="0" y="-2.5" height="5" width="843.2949466089041" fill="#FF1E90" ><title >n5 → c14 {:msg_id 3, :in_reply_to 1, :type "error", :code 11, :text "Not Leader"}</title></rect><use xlink:href="#ahead" x="847.2949466089041" y="0" /><text text-anchor="middle" x="423.64747330445203" y="-4" transform="rotate(180 423.64747330445203 0)" filter="url(#glow)" style="fill: #fff" >error Not Leader</text><text text-anchor="middle" x="423.64747330445203" y="-4" transform="rotate(180 423.64747330445203 0)" >error Not Leader</text></g><g transform="translate(388.2353 930.0) rotate(1.622946149827557) " ><rect x="0" y="-2.5" height="5" width="702.1656617336644" fill="#81BFFC" ><title >c15 → n4 {:key 1, :value 3, :type "write", :msg_id 1}</title></rect><use xlink:href="#ahead" x="706.1656617336644" y="0" /><text text-anchor="middle" x="353.0828308668322" y="-4" transform="" filter="url(#glow)" style="fill: #fff" >write {:key 1, :value 3}</text><text text-anchor="middle" x="353.0828308668322" y="-4" transform="" >write {:key 1, :value 3}</text></g><g transform="translate(1094.1177 970.0) rotate(178.37705385017244) " ><rect x="0" y="-2.5" height="5" width="702.1656617336644" fill="#FF1E90" ><title >n4 → c15 {:msg_id 3, :in_reply_to 1, :type "error", :code 11, :text "Not Leader"}</title></rect><use xlink:href="#ahead" x="706.1656617336644" y="0" /><text text-anchor="middle" x="353.0828308668322" y="-4" transform="rotate(180 353.0828308668322 0)" filter="url(#glow)" style="fill: #fff" >error Not Leader</text><text text-anchor="middle" x="353.0828308668322" y="-4" transform="rotate(180 353.0828308668322 0)" >error Not Leader</text></g><g transform="translate(458.82352 1010.0) rotate(2.7036253465199116) " ><rect x="0" y="-2.5" height="5" width="420.0014086796637" fill="#81BFFC" ><title >c16 → n1 {:key 1, :value 2, :type "write", :msg_id 1}</title></rect><use xlink:href="#ahead" x="424.0014086796637" y="0" /><text text-anchor="middle" x="212.00070433983186" y="-4" transform="" filter="url(#glow)" style="fill: #fff" >write {:key 1, :value 2}</text><text text-anchor="middle" x="212.00070433983186" y="-4" transform="" >write {:key 1, :value 2}</text></g><g transform="translate(529.41174 1050.0) rotate(3.243291854789695) " ><rect x="0" y="-2.5" height="5" width="349.50743555794946" fill="#81BFFC" ><title >c17 → n1 {:key 1, :from 0, :to 1, :type "cas", :msg_id 1}</title></rect><use xlink:href="#ahead" x="353.50743555794946" y="0" /><text text-anchor="middle" x="176.75371777897473" y="-4" transform="" filter="url(#glow)" style="fill: #fff" >cas {:key 1, :from 0, :to 1}</text><text text-anchor="middle" x="176.75371777897473" y="-4" transform="" >cas {:key 1, :from 0, :to 1}</text></g><g transform="translate(882.35297 1090.0) rotate(15.819202355188114) " ><rect x="0" y="-2.5" height="5" width="69.36684119143628" fill="#000" ><title >n1 → n2 {:msg_id 6, :type "AppendEntries", :term 0, :prevIndex 1, :prevTerm 0, :entries [[["cas" [1 [0 1]]] 0]], :commit 0}</title></rect><use xlink:href="#ahead" x="73.36684119143628" y="0" /><text text-anchor="middle" x="36.68342059571814" y="-4" transform="" filter="url(#glow)" style="fill: #fff" >AppendEntries {:term 0, :prevIndex 1, :prevTerm…</text><text text-anchor="middle" x="36.68342059571814" y="-4" transform="" >AppendEntries {:term 0, :prevIndex 1, :prevTerm…</text></g><g transform="translate(882.35297 1130.0) rotate(8.06324717750837) " ><rect x="0" y="-2.5" height="5" width="138.5860819964126" fill="#000" ><title >n1 → n3 {:msg_id 7, :type "AppendEntries", :term 0, :prevIndex 1, :prevTerm 0, :entries [[["cas" [1 [0 1]]] 0]], :commit 0}</title></rect><use xlink:href="#ahead" x="142.5860819964126" y="0" /><text text-anchor="middle" x="71.2930409982063" y="-4" transform="" filter="url(#glow)" style="fill: #fff" >AppendEntries {:term 0, :prevIndex 1, :prevTerm…</text><text text-anchor="middle" x="71.2930409982063" y="-4" transform="" >AppendEntries {:term 0, :prevIndex 1, :prevTerm…</text></g><g transform="translate(882.35297 1170.0) rotate(5.395264477280413) " ><rect x="0" y="-2.5" height="5" width="208.7070571890799" fill="#000" ><title >n1 → n4 {:msg_id 8, :type "AppendEntries", :term 0, :prevIndex 1, :prevTerm 0, :entries [[["cas" [1 [0 1]]] 0]], :commit 0}</title></rect><use xlink:href="#ahead" x="212.7070571890799" y="0" /><text text-anchor="middle" x="106.35352859453995" y="-4" transform="" filter="url(#glow)" style="fill: #fff" >AppendEntries {:term 0, :prevIndex 1, :prevTerm…</text><text text-anchor="middle" x="106.35352859453995" y="-4" transform="" >AppendEntries {:term 0, :prevIndex 1, :prevTerm…</text></g><g transform="translate(882.35297 1210.0) rotate(4.05168347839079) " ><rect x="0" y="-2.5" height="5" width="279.0604133100598" fill="#000" ><title >n1 → n5 {:msg_id 9, :type "AppendEntries", :term 0, :prevIndex 1, :prevTerm 0, :entries [[["cas" [1 [0 1]]] 0]], :commit 0}</title></rect><use xlink:href="#ahead" x="283.0604133100598" y="0" /><text text-anchor="middle" x="141.5302066550299" y="-4" transform="" filter="url(#glow)" style="fill: #fff" >AppendEntries {:term 0, :prevIndex 1, :prevTerm…</text><text text-anchor="middle" x="141.5302066550299" y="-4" transform="" >AppendEntries {:term 0, :prevIndex 1, :prevTerm…</text></g><g transform="translate(1023.5294 1250.0) rotate(171.93675282249163) " ><rect x="0" y="-2.5" height="5" width="138.5860819964126" fill="#000" ><title >n3 → n1 {:msg_id 6, :in_reply_to 7, :type "AppendEntriesRes", :res true, :term 0, :next 3, :commit 0}</title></rect><use xlink:href="#ahead" x="142.5860819964126" y="0" /><text text-anchor="middle" x="71.2930409982063" y="-4" transform="rotate(180 71.2930409982063 0)" filter="url(#glow)" style="fill: #fff" >AppendEntriesRes {:res true, :term 0, :next 3, …</text><text text-anchor="middle" x="71.2930409982063" y="-4" transform="rotate(180 71.2930409982063 0)" >AppendEntriesRes {:res true, :term 0, :next 3, …</text></g><g transform="translate(952.94116 1290.0) rotate(164.1807976448119) " ><rect x="0" y="-2.5" height="5" width="69.36684119143628" fill="#000" ><title >n2 → n1 {:msg_id 6, :in_reply_to 6, :type "AppendEntriesRes", :res true, :term 0, :next 3, :commit 0}</title></rect><use xlink:href="#ahead" x="73.36684119143628" y="0" /><text text-anchor="middle" x="36.68342059571814" y="-4" transform="rotate(180 36.68342059571814 0)" filter="url(#glow)" style="fill: #fff" >AppendEntriesRes {:res true, :term 0, :next 3, …</text><text text-anchor="middle" x="36.68342059571814" y="-4" transform="rotate(180 36.68342059571814 0)" >AppendEntriesRes {:res true, :term 0, :next 3, …</text></g><g transform="translate(1094.1177 1330.0) rotate(174.60473552271958) " ><rect x="0" y="-2.5" height="5" width="208.7070571890799" fill="#000" ><title >n4 → n1 {:msg_id 4, :in_reply_to 8, :type "AppendEntriesRes", :res true, :term 0, :next 3, :commit 0}</title></rect><use xlink:href="#ahead" x="212.7070571890799" y="0" /><text text-anchor="middle" x="106.35352859453995" y="-4" transform="rotate(180 106.35352859453995 0)" filter="url(#glow)" style="fill: #fff" >AppendEntriesRes {:res true, :term 0, :next 3, …</text><text text-anchor="middle" x="106.35352859453995" y="-4" transform="rotate(180 106.35352859453995 0)" >AppendEntriesRes {:res true, :term 0, :next 3, …</text></g><g transform="translate(1164.7059 1370.0) rotate(175.94831652160923) " ><rect x="0" y="-2.5" height="5" width="279.0604133100598" fill="#000" ><title >n5 → n1 {:msg_id 4, :in_reply_to 9, :type "AppendEntriesRes", :res true, :term 0, :next 3, :commit 0}</title></rect><use xlink:href="#ahead" x="283.0604133100598" y="0" /><text text-anchor="middle" x="141.5302066550299" y="-4" transform="rotate(180 141.5302066550299 0)" filter="url(#glow)" style="fill: #fff" >AppendEntriesRes {:res true, :term 0, :next 3, …</text><text text-anchor="middle" x="141.5302066550299" y="-4" transform="rotate(180 141.5302066550299 0)" >AppendEntriesRes {:res true, :term 0, :next 3, …</text></g><g transform="translate(600.0 1410.0) rotate(2.3178495083163426) " ><rect x="0" y="-2.5" height="5" width="490.52227201559333" fill="#81BFFC" ><title >c18 → n4 {:key 0, :type "read", :msg_id 1}</title></rect><use xlink:href="#ahead" x="494.52227201559333" y="0" /><text text-anchor="middle" x="247.26113600779667" y="-4" transform="" filter="url(#glow)" style="fill: #fff" >read {:key 0}</text><text text-anchor="middle" x="247.26113600779667" y="-4" transform="" >read {:key 0}</text></g><g transform="translate(1094.1177 1450.0) rotate(177.68215049168367) " ><rect x="0" y="-2.5" height="5" width="490.52227201559333" fill="#FF1E90" ><title >n4 → c18 {:msg_id 5, :in_reply_to 1, :type "error", :code 11, :text "Not Leader"}</title></rect><use xlink:href="#ahead" x="494.52227201559333" y="0" /><text text-anchor="middle" x="247.26113600779667" y="-4" transform="rotate(180 247.26113600779667 0)" filter="url(#glow)" style="fill: #fff" >error Not Leader</text><text text-anchor="middle" x="247.26113600779667" y="-4" transform="rotate(180 247.26113600779667 0)" >error Not Leader</text></g><g transform="translate(670.58826 1490.0) rotate(5.395264477280413) " ><rect x="0" y="-2.5" height="5" width="208.7070571890799" fill="#81BFFC" ><title >c19 → n1 {:key 0, :type "read", :msg_id 1}</title></rect><use xlink:href="#ahead" x="212.7070571890799" y="0" /><text text-anchor="middle" x="106.35352859453995" y="-4" transform="" filter="url(#glow)" style="fill: #fff" >read {:key 0}</text><text text-anchor="middle" x="106.35352859453995" y="-4" transform="" >read {:key 0}</text></g><g transform="translate(882.35297 1530.0) rotate(174.60473552271958) " ><rect x="0" y="-2.5" height="5" width="208.7070571890799" fill="#FF1E90" ><title >n1 → c19 {:msg_id 10, :in_reply_to 1, :type "error", :code 20, :text "Invalid Key"}</title></rect><use xlink:href="#ahead" x="212.7070571890799" y="0" /><text text-anchor="middle" x="106.35352859453995" y="-4" transform="rotate(180 106.35352859453995 0)" filter="url(#glow)" style="fill: #fff" >error Invalid Key</text><text text-anchor="middle" x="106.35352859453995" y="-4" transform="rotate(180 106.35352859453995 0)" >error Invalid Key</text></g><g transform="translate(317.64706 1570.0) rotate(1.3525656371643064) " ><rect x="0" y="-2.5" height="5" width="843.2949466089041" fill="#81BFFC" ><title >c14 → n5 {:key 0, :from 0, :to 2, :type "cas", :msg_id 2}</title></rect><use xlink:href="#ahead" x="847.2949466089041" y="0" /><text text-anchor="middle" x="423.64747330445203" y="-4" transform="" filter="url(#glow)" style="fill: #fff" >cas {:key 0, :from 0, :to 2}</text><text text-anchor="middle" x="423.64747330445203" y="-4" transform="" >cas {:key 0, :from 0, :to 2}</text></g><g transform="translate(1164.7059 1610.0) rotate(178.6474343628357) " ><rect x="0" y="-2.5" height="5" width="843.2949466089041" fill="#FF1E90" ><title >n5 → c14 {:msg_id 5, :in_reply_to 2, :type "error", :code 11, :text "Not Leader"}</title></rect><use xlink:href="#ahead" x="847.2949466089041" y="0" /><text text-anchor="middle" x="423.64747330445203" y="-4" transform="rotate(180 423.64747330445203 0)" filter="url(#glow)" style="fill: #fff" >error Not Leader</text><text text-anchor="middle" x="423.64747330445203" y="-4" transform="rotate(180 423.64747330445203 0)" >error Not Leader</text></g><g transform="translate(670.58826 1650.0) rotate(5.395264477280413) " ><rect x="0" y="-2.5" height="5" width="208.7070571890799" fill="#81BFFC" ><title >c19 → n1 {:key 0, :type "read", :msg_id 2}</title></rect><use xlink:href="#ahead" x="212.7070571890799" y="0" /><text text-anchor="middle" x="106.35352859453995" y="-4" transform="" filter="url(#glow)" style="fill: #fff" >read {:key 0}</text><text text-anchor="middle" x="106.35352859453995" y="-4" transform="" >read {:key 0}</text></g><g transform="translate(882.35297 1690.0) rotate(174.60473552271958) " ><rect x="0" y="-2.5" height="5" width="208.7070571890799" fill="#FF1E90" ><title >n1 → c19 {:msg_id 11, :in_reply_to 2, :type "error", :code 20, :text "Invalid Key"}</title></rect><use xlink:href="#ahead" x="212.7070571890799" y="0" /><text text-anchor="middle" x="106.35352859453995" y="-4" transform="rotate(180 106.35352859453995 0)" filter="url(#glow)" style="fill: #fff" >error Invalid Key</text><text text-anchor="middle" x="106.35352859453995" y="-4" transform="rotate(180 106.35352859453995 0)" >error Invalid Key</text></g><g transform="translate(247.05882 1730.0) rotate(1.4754741213259186) " ><rect x="0" y="-2.5" height="5" width="772.7281293602066" fill="#81BFFC" ><title >c13 → n3 {:key 1, :value 3, :type "write", :msg_id 2}</title></rect><use xlink:href="#ahead" x="776.7281293602066" y="0" /><text text-anchor="middle" x="388.3640646801033" y="-4" transform="" filter="url(#glow)" style="fill: #fff" >write {:key 1, :value 3}</text><text text-anchor="middle" x="388.3640646801033" y="-4" transform="" >write {:key 1, :value 3}</text></g><g transform="translate(1023.5294 1770.0) rotate(178.52452587867407) " ><rect x="0" y="-2.5" height="5" width="772.7281293602066" fill="#FF1E90" ><title >n3 → c13 {:msg_id 7, :in_reply_to 2, :type "error", :code 11, :text "Not Leader"}</title></rect><use xlink:href="#ahead" x="776.7281293602066" y="0" /><text text-anchor="middle" x="388.3640646801033" y="-4" transform="rotate(180 388.3640646801033 0)" filter="url(#glow)" style="fill: #fff" >error Not Leader</text><text text-anchor="middle" x="388.3640646801033" y="-4" transform="rotate(180 388.3640646801033 0)" >error Not Leader</text></g><g transform="translate(741.17645 1810.0) rotate(3.243291854789695) " ><rect x="0" y="-2.5" height="5" width="349.50743555794946" fill="#81BFFC" ><title >c20 → n4 {:key 1, :value 2, :type "write", :msg_id 1}</title></rect><use xlink:href="#ahead" x="353.50743555794946" y="0" /><text text-anchor="middle" x="176.75371777897473" y="-4" transform="" filter="url(#glow)" style="fill: #fff" >write {:key 1, :value 2}</text><text text-anchor="middle" x="176.75371777897473" y="-4" transform="" >write {:key 1, :value 2}</text></g><g transform="translate(1094.1177 1850.0) rotate(176.75670814521033) " ><rect x="0" y="-2.5" height="5" width="349.50743555794946" fill="#FF1E90" ><title >n4 → c20 {:msg_id 6, :in_reply_to 1, :type "error", :code 11, :text "Not Leader"}</title></rect><use xlink:href="#ahead" x="353.50743555794946" y="0" /><text text-anchor="middle" x="176.75371777897473" y="-4" transform="rotate(180 176.75371777897473 0)" filter="url(#glow)" style="fill: #fff" >error Not Leader</text><text text-anchor="middle" x="176.75371777897473" y="-4" transform="rotate(180 176.75371777897473 0)" >error Not Leader</text></g><g transform="translate(811.7647 1890.0) rotate(3.243291854789695) " ><rect x="0" y="-2.5" height="5" width="349.50743555794946" fill="#81BFFC" ><title >c21 → n5 {:key 1, :from 3, :to 0, :type "cas", :msg_id 1}</title></rect><use xlink:href="#ahead" x="353.50743555794946" y="0" /><text text-anchor="middle" x="176.75371777897473" y="-4" transform="" filter="url(#glow)" style="fill: #fff" >cas {:key 1, :from 3, :to 0}</text><text text-anchor="middle" x="176.75371777897473" y="-4" transform="" >cas {:key 1, :from 3, :to 0}</text></g><g transform="translate(1164.7059 1930.0) rotate(176.75670814521033) " ><rect x="0" y="-2.5" height="5" width="349.50743555794946" fill="#FF1E90" ><title >n5 → c21 {:msg_id 6, :in_reply_to 1, :type "error", :code 11, :text "Not Leader"}</title></rect><use xlink:href="#ahead" x="353.50743555794946" y="0" /><text text-anchor="middle" x="176.75371777897473" y="-4" transform="rotate(180 176.75371777897473 0)" filter="url(#glow)" style="fill: #fff" >error Not Leader</text><text text-anchor="middle" x="176.75371777897473" y="-4" transform="rotate(180 176.75371777897473 0)" >error Not Leader</text></g><g transform="translate(741.17645 1970.0) rotate(3.243291854789695) " ><rect x="0" y="-2.5" height="5" width="349.50743555794946" fill="#81BFFC" ><title >c20 → n4 {:key 1, :from 3, :to 3, :type "cas", :msg_id 2}</title></rect><use xlink:href="#ahead" x="353.50743555794946" y="0" /><text text-anchor="middle" x="176.75371777897473" y="-4" transform="" filter="url(#glow)" style="fill: #fff" >cas {:key 1, :from 3, :to 3}</text><text text-anchor="middle" x="176.75371777897473" y="-4" transform="" >cas {:key 1, :from 3, :to 3}</text></g><g transform="translate(1094.1177 2010.0) rotate(176.75670814521033) " ><rect x="0" y="-2.5" height="5" width="349.50743555794946" fill="#FF1E90" ><title >n4 → c20 {:msg_id 7, :in_reply_to 2, :type "error", :code 11, :text "Not Leader"}</title></rect><use xlink:href="#ahead" x="353.50743555794946" y="0" /><text text-anchor="middle" x="176.75371777897473" y="-4" transform="rotate(180 176.75371777897473 0)" filter="url(#glow)" style="fill: #fff" >error Not Leader</text><text text-anchor="middle" x="176.75371777897473" y="-4" transform="rotate(180 176.75371777897473 0)" >error Not Leader</text></g><g transform="translate(388.2353 2050.0) rotate(1.622946149827557) " ><rect x="0" y="-2.5" height="5" width="702.1656617336644" fill="#81BFFC" ><title >c15 → n4 {:key 1, :from 1, :to 1, :type "cas", :msg_id 2}</title></rect><use xlink:href="#ahead" x="706.1656617336644" y="0" /><text text-anchor="middle" x="353.0828308668322" y="-4" transform="" filter="url(#glow)" style="fill: #fff" >cas {:key 1, :from 1, :to 1}</text><text text-anchor="middle" x="353.0828308668322" y="-4" transform="" >cas {:key 1, :from 1, :to 1}</text></g><g transform="translate(1094.1177 2090.0) rotate(178.37705385017244) " ><rect x="0" y="-2.5" height="5" width="702.1656617336644" fill="#FF1E90" ><title >n4 → c15 {:msg_id 8, :in_reply_to 2, :type "error", :code 11, :text "Not Leader"}</title></rect><use xlink:href="#ahead" x="706.1656617336644" y="0" /><text text-anchor="middle" x="353.0828308668322" y="-4" transform="rotate(180 353.0828308668322 0)" filter="url(#glow)" style="fill: #fff" >error Not Leader</text><text text-anchor="middle" x="353.0828308668322" y="-4" transform="rotate(180 353.0828308668322 0)" >error Not Leader</text></g></g></svg>