<?xml version="1.0" encoding="UTF-8"?><svg xmlns:svg="http://www.w3.org/2000/svg" xmlns="http://www.w3.org/2000/svg" xmlns:xlink="http://www.w3.org/1999/xlink" version="2.0" width="1200" height="980" ><style >
svg {
  font-family: Helvetica, Arial, sans-serif;
  font-size: 11px;
}
rect {
  stroke-linecap: butt;
  stroke-width: 3;
  stroke: #fff;
/*  stroke-opacity: 1; */
}
rect:hover {
  stroke: #fff;
/*  stroke-opacity: 1; /*
}
polygon { fill: #000; }</style><defs ><polygon id="ahead" points="0 0, -12 4, -12 -4" /><filter id="glow" x="0" y="0" ><feGaussianBlur in="SourceAlpha" stdDeviation="2" result="blurred" /><feFlood flood-color="#fff" /><feComposite operator="in" in2="blurred" /><feComponentTransfer ><feFuncA type="linear" slope="10" intercept="0" /></feComponentTransfer><feMerge ><feMergeNode /><feMergeNode in="SourceGraphic" /></feMerge></filter></defs><g ><text x="75.0" y="20.0" text-anchor="middle" alignment-baseline="middle" fill="#000" >c8</text><text x="225.0" y="20.0" text-anchor="middle" alignment-baseline="middle" fill="#000" >c9</text><text x="375.0" y="20.0" text-anchor="middle" alignment-baseline="middle" fill="#000" >c10</text><text x="525.0" y="20.0" text-anchor="middle" alignment-baseline="middle" fill="#000" >c11</text><text x="675.0" y="20.0" text-anchor="middle" alignment-baseline="middle" fill="#000" >n0</text><text x="825.0" y="20.0" text-anchor="middle" alignment-baseline="middle" fill="#000" >n1</text><text x="975.0" y="20.0" text-anchor="middle" alignment-baseline="middle" fill="#000" >n2</text><text x="1125.0" y="20.0" text-anchor="middle" alignment-baseline="middle" fill="#000" >n3</text></g><g ><line stroke="#ccc" x1="75.0" y1="30.0" x2="75.0" y2="890.0" /><line stroke="#ccc" x1="225.0" y1="30.0" x2="225.0" y2="890.0" /><line stroke="#ccc" x1="375.0" y1="30.0" x2="375.0" y2="890.0" /><line stroke="#ccc" x1="525.0" y1="30.0" x2="525.0" y2="890.0" /><line stroke="#ccc" x1="675.0" y1="30.0" x2="675.0" y2="890.0" /><line stroke="#ccc" x1="825.0" y1="30.0" x2="825.0" y2="890.0" /><line stroke="#ccc" x1="975.0" y1="30.0" x2="975.0" y2="890.0" /><line stroke="#ccc" x1="1125.0" y1="30.0" x2="1125.0" y2="890.0" /></g><g ><g transform="translate(75.0 50.0) rotate(1.2730300200567113) " ><rect x="0" y="-2.5" height="5" width="896.222194794152" fill="#81BFFC" ><title >c8 → n2 {:txn [["r" 9 nil] ["r" 9 nil]], :type "txn", :msg_id 1}</title></rect><use xlink:href="#ahead" x="900.222194794152" y="0" /><text text-anchor="middle" x="450.111097397076" y="-4" transform="" filter="url(#glow)" style="fill: #fff" >txn {:txn [["r" 9 nil] ["r" 9 nil]]}</text><text text-anchor="middle" x="450.111097397076" y="-4" transform="" >txn {:txn [["r" 9 nil] ["r" 9 nil]]}</text></g><g transform="translate(975.0 90.0) rotate(178.7269699799433) " ><rect x="0" y="-2.5" height="5" width="896.222194794152" fill="#FF1E90" ><title >n2 → c8 {:msg_id 2, :in_reply_to 1, :type "error", :code 14, :text "transaction aborted"}</title></rect><use xlink:href="#ahead" x="900.222194794152" y="0" /><text text-anchor="middle" x="450.111097397076" y="-4" transform="rotate(180 450.111097397076 0)" filter="url(#glow)" style="fill: #fff" >error transaction aborted</text><text text-anchor="middle" x="450.111097397076" y="-4" transform="rotate(180 450.111097397076 0)" >error transaction aborted</text></g><g transform="translate(225.0 130.0) rotate(2.5448043798130957) " ><rect x="0" y="-2.5" height="5" width="446.4442251822083" fill="#81BFFC" ><title >c9 → n0 {:txn [["append" 6 1] ["append" 7 1]], :type "txn", :msg_id 1}</title></rect><use xlink:href="#ahead" x="450.4442251822083" y="0" /><text text-anchor="middle" x="225.22211259110415" y="-4" transform="" filter="url(#glow)" style="fill: #fff" >txn {:txn [["append" 6 1] ["append" 7 1]]}</text><text text-anchor="middle" x="225.22211259110415" y="-4" transform="" >txn {:txn [["append" 6 1] ["append" 7 1]]}</text></g><g transform="translate(675.0 170.0) rotate(177.4551956201869) " ><rect x="0" y="-2.5" height="5" width="446.4442251822083" fill="#81BFFC" ><title >n0 → c9 {:msg_id 2, :in_reply_to 1, :type "txn_ok", :txn [["append" 6 1] ["append" 7 1]]}</title></rect><use xlink:href="#ahead" x="450.4442251822083" y="0" /><text text-anchor="middle" x="225.22211259110415" y="-4" transform="rotate(180 225.22211259110415 0)" filter="url(#glow)" style="fill: #fff" >txn_ok {:txn [["append" 6 1] ["append" 7 1]]}</text><text text-anchor="middle" x="225.22211259110415" y="-4" transform="rotate(180 225.22211259110415 0)" >txn_ok {:txn [["append" 6 1] ["append" 7 1]]}</text></g><g transform="translate(375.0 210.0) rotate(2.5448043798130957) " ><rect x="0" y="-2.5" height="5" width="446.4442251822083" fill="#81BFFC" ><title >c10 → n1 {:txn [["append" 9 1] ["append" 9 2]], :type "txn", :msg_id 1}</title></rect><use xlink:href="#ahead" x="450.4442251822083" y="0" /><text text-anchor="middle" x="225.22211259110415" y="-4" transform="" filter="url(#glow)" style="fill: #fff" >txn {:txn [["append" 9 1] ["append" 9 2]]}</text><text text-anchor="middle" x="225.22211259110415" y="-4" transform="" >txn {:txn [["append" 9 1] ["append" 9 2]]}</text></g><g transform="translate(825.0 250.0) rotate(177.4551956201869) " ><rect x="0" y="-2.5" height="5" width="446.4442251822083" fill="#FF1E90" ><title >n1 → c10 {:msg_id 2, :in_reply_to 1, :type "error", :code 14, :text "transaction aborted"}</title></rect><use xlink:href="#ahead" x="450.4442251822083" y="0" /><text text-anchor="middle" x="225.22211259110415" y="-4" transform="rotate(180 225.22211259110415 0)" filter="url(#glow)" style="fill: #fff" >error transaction aborted</text><text text-anchor="middle" x="225.22211259110415" y="-4" transform="rotate(180 225.22211259110415 0)" >error transaction aborted</text></g><g transform="translate(75.0 290.0) rotate(1.2730300200567113) " ><rect x="0" y="-2.5" height="5" width="896.222194794152" fill="#81BFFC" ><title >c8 → n2 {:txn [["append" 7 2] ["r" 8 nil]], :type "txn", :msg_id 2}</title></rect><use xlink:href="#ahead" x="900.222194794152" y="0" /><text text-anchor="middle" x="450.111097397076" y="-4" transform="" filter="url(#glow)" style="fill: #fff" >txn {:txn [["append" 7 2] ["r" 8 nil]]}</text><text text-anchor="middle" x="450.111097397076" y="-4" transform="" >txn {:txn [["append" 7 2] ["r" 8 nil]]}</text></g><g transform="translate(225.0 330.0) rotate(2.5448043798130957) " ><rect x="0" y="-2.5" height="5" width="446.4442251822083" fill="#81BFFC" ><title >c9 → n0 {:txn [["append" 8 1] ["append" 4 1]], :type "txn", :msg_id 2}</title></rect><use xlink:href="#ahead" x="450.4442251822083" y="0" /><text text-anchor="middle" x="225.22211259110415" y="-4" transform="" filter="url(#glow)" style="fill: #fff" >txn {:txn [["append" 8 1] ["append" 4 1]]}</text><text text-anchor="middle" x="225.22211259110415" y="-4" transform="" >txn {:txn [["append" 8 1] ["append" 4 1]]}</text></g><g transform="translate(975.0 370.0) rotate(178.7269699799433) " ><rect x="0" y="-2.5" height="5" width="896.222194794152" fill="#81BFFC" ><title >n2 → c8 {:msg_id 3, :in_reply_to 2, :type "txn_ok", :txn [["append" 7 2] ["r" 8 nil]]}</title></rect><use xlink:href="#ahead" x="900.222194794152" y="0" /><text text-anchor="middle" x="450.111097397076" y="-4" transform="rotate(180 450.111097397076 0)" filter="url(#glow)" style="fill: #fff" >txn_ok {:txn [["append" 7 2] ["r" 8 nil]]}</text><text text-anchor="middle" x="450.111097397076" y="-4" transform="rotate(180 450.111097397076 0)" >txn_ok {:txn [["append" 7 2] ["r" 8 nil]]}</text></g><g transform="translate(675.0 410.0) rotate(177.4551956201869) " ><rect x="0" y="-2.5" height="5" width="446.4442251822083" fill="#81BFFC" ><title >n0 → c9 {:msg_id 3, :in_reply_to 2, :type "txn_ok", :txn [["append" 8 1] ["append" 4 1]]}</title></rect><use xlink:href="#ahead" x="450.4442251822083" y="0" /><text text-anchor="middle" x="225.22211259110415" y="-4" transform="rotate(180 225.22211259110415 0)" filter="url(#glow)" style="fill: #fff" >txn_ok {:txn [["append" 8 1] ["append" 4 1]]}</text><text text-anchor="middle" x="225.22211259110415" y="-4" transform="rotate(180 225.22211259110415 0)" >txn_ok {:txn [["append" 8 1] ["append" 4 1]]}</text></g><g transform="translate(75.0 450.0) rotate(1.2730300200567113) " ><rect x="0" y="-2.5" height="5" width="896.222194794152" fill="#81BFFC" ><title >c8 → n2 {:txn [["r" 9 nil] ["r" 6 nil] ["r" 9 nil] ["r" 9 nil]], :type "txn", :msg_id 3}</title></rect><use xlink:href="#ahead" x="900.222194794152" y="0" /><text text-anchor="middle" x="450.111097397076" y="-4" transform="" filter="url(#glow)" style="fill: #fff" >txn {:txn [["r" 9 nil] ["r" 6 nil] ["r" 9 nil] …</text><text text-anchor="middle" x="450.111097397076" y="-4" transform="" >txn {:txn [["r" 9 nil] ["r" 6 nil] ["r" 9 nil] …</text></g><g transform="translate(375.0 490.0) rotate(2.5448043798130957) " ><rect x="0" y="-2.5" height="5" width="446.4442251822083" fill="#81BFFC" ><title >c10 → n1 {:txn [["append" 7 3] ["append" 9 3] ["append" 9 4]], :type "txn", :msg_id 2}</title></rect><use xlink:href="#ahead" x="450.4442251822083" y="0" /><text text-anchor="middle" x="225.22211259110415" y="-4" transform="" filter="url(#glow)" style="fill: #fff" >txn {:txn [["append" 7 3] ["append" 9 3] ["appe…</text><text text-anchor="middle" x="225.22211259110415" y="-4" transform="" >txn {:txn [["append" 7 3] ["append" 9 3] ["appe…</text></g><g transform="translate(225.0 530.0) rotate(2.5448043798130957) " ><rect x="0" y="-2.5" height="5" width="446.4442251822083" fill="#81BFFC" ><title >c9 → n0 {:txn [["append" 9 5] ["append" 6 2] ["append" 7 4]], :type "txn", :msg_id 3}</title></rect><use xlink:href="#ahead" x="450.4442251822083" y="0" /><text text-anchor="middle" x="225.22211259110415" y="-4" transform="" filter="url(#glow)" style="fill: #fff" >txn {:txn [["append" 9 5] ["append" 6 2] ["appe…</text><text text-anchor="middle" x="225.22211259110415" y="-4" transform="" >txn {:txn [["append" 9 5] ["append" 6 2] ["appe…</text></g><g transform="translate(975.0 570.0) rotate(178.7269699799433) " ><rect x="0" y="-2.5" height="5" width="896.222194794152" fill="#81BFFC" ><title >n2 → c8 {:msg_id 4, :in_reply_to 3, :type "txn_ok", :txn [["r" 9 nil] ["r" 6 nil] ["r" 9 nil] ["r" 9 nil]]}</title></rect><use xlink:href="#ahead" x="900.222194794152" y="0" /><text text-anchor="middle" x="450.111097397076" y="-4" transform="rotate(180 450.111097397076 0)" filter="url(#glow)" style="fill: #fff" >txn_ok {:txn [["r" 9 nil] ["r" 6 nil] ["r" 9 ni…</text><text text-anchor="middle" x="450.111097397076" y="-4" transform="rotate(180 450.111097397076 0)" >txn_ok {:txn [["r" 9 nil] ["r" 6 nil] ["r" 9 ni…</text></g><g transform="translate(825.0 610.0) rotate(177.4551956201869) " ><rect x="0" y="-2.5" height="5" width="446.4442251822083" fill="#81BFFC" ><title >n1 → c10 {:msg_id 3, :in_reply_to 2, :type "txn_ok", :txn [["append" 7 3] ["append" 9 3] ["append" 9 4]]}</title></rect><use xlink:href="#ahead" x="450.4442251822083" y="0" /><text text-anchor="middle" x="225.22211259110415" y="-4" transform="rotate(180 225.22211259110415 0)" filter="url(#glow)" style="fill: #fff" >txn_ok {:txn [["append" 7 3] ["append" 9 3] ["a…</text><text text-anchor="middle" x="225.22211259110415" y="-4" transform="rotate(180 225.22211259110415 0)" >txn_ok {:txn [["append" 7 3] ["append" 9 3] ["a…</text></g><g transform="translate(75.0 650.0) rotate(1.2730300200567113) " ><rect x="0" y="-2.5" height="5" width="896.222194794152" fill="#81BFFC" ><title >c8 → n2 {:txn [["append" 7 5] ["r" 9 nil]], :type "txn", :msg_id 4}</title></rect><use xlink:href="#ahead" x="900.222194794152" y="0" /><text text-anchor="middle" x="450.111097397076" y="-4" transform="" filter="url(#glow)" style="fill: #fff" >txn {:txn [["append" 7 5] ["r" 9 nil]]}</text><text text-anchor="middle" x="450.111097397076" y="-4" transform="" >txn {:txn [["append" 7 5] ["r" 9 nil]]}</text></g><g transform="translate(525.0 690.0) rotate(1.9091524329963763) " ><rect x="0" y="-2.5" height="5" width="596.3332407921454" fill="#81BFFC" ><title >c11 → n3 {:txn [["r" 9 nil] ["append" 9 6]], :type "txn", :msg_id 1}</title></rect><use xlink:href="#ahead" x="600.3332407921454" y="0" /><text text-anchor="middle" x="300.1666203960727" y="-4" transform="" filter="url(#glow)" style="fill: #fff" >txn {:txn [["r" 9 nil] ["append" 9 6]]}</text><text text-anchor="middle" x="300.1666203960727" y="-4" transform="" >txn {:txn [["r" 9 nil] ["append" 9 6]]}</text></g><g transform="translate(375.0 730.0) rotate(2.5448043798130957) " ><rect x="0" y="-2.5" height="5" width="446.4442251822083" fill="#81BFFC" ><title >c10 → n1 {:txn [["append" 9 7] ["append" 8 2] ["append" 9 8] ["r" 8 nil]], :type "txn", :msg_id 3}</title></rect><use xlink:href="#ahead" x="450.4442251822083" y="0" /><text text-anchor="middle" x="225.22211259110415" y="-4" transform="" filter="url(#glow)" style="fill: #fff" >txn {:txn [["append" 9 7] ["append" 8 2] ["appe…</text><text text-anchor="middle" x="225.22211259110415" y="-4" transform="" >txn {:txn [["append" 9 7] ["append" 8 2] ["appe…</text></g><g transform="translate(1125.0 770.0) rotate(178.0908475670036) " ><rect x="0" y="-2.5" height="5" width="596.3332407921454" fill="#FF1E90" ><title >n3 → c11 {:msg_id 2, :in_reply_to 1, :type "error", :code 14, :text "transaction aborted"}</title></rect><use xlink:href="#ahead" x="600.3332407921454" y="0" /><text text-anchor="middle" x="300.1666203960727" y="-4" transform="rotate(180 300.1666203960727 0)" filter="url(#glow)" style="fill: #fff" >error transaction aborted</text><text text-anchor="middle" x="300.1666203960727" y="-4" transform="rotate(180 300.1666203960727 0)" >error transaction aborted</text></g><g transform="translate(525.0 810.0) rotate(1.9091524329963763) " ><rect x="0" y="-2.5" height="5" width="596.3332407921454" fill="#81BFFC" ><title >c11 → n3 {:txn [["r" 5 nil] ["append" 5 1] ["r" 7 nil] ["append" 9 9]], :type "txn", :msg_id 2}</title></rect><use xlink:href="#ahead" x="600.3332407921454" y="0" /><text text-anchor="middle" x="300.1666203960727" y="-4" transform="" filter="url(#glow)" style="fill: #fff" >txn {:txn [["r" 5 nil] ["append" 5 1] ["r" 7 ni…</text><text text-anchor="middle" x="300.1666203960727" y="-4" transform="" >txn {:txn [["r" 5 nil] ["append" 5 1] ["r" 7 ni…</text></g><g transform="translate(1125.0 850.0) rotate(178.0908475670036) " ><rect x="0" y="-2.5" height="5" width="596.3332407921454" fill="#81BFFC" ><title >n3 → c11 {:msg_id 3, :in_reply_to 2, :type "txn_ok", :txn [["r" 5 nil] ["append" 5 1] ["r" 7 nil] ["append" 9 9]]}</title></rect><use xlink:href="#ahead" x="600.3332407921454" y="0" /><text text-anchor="middle" x="300.1666203960727" y="-4" transform="rotate(180 300.1666203960727 0)" filter="url(#glow)" style="fill: #fff" >txn_ok {:txn [["r" 5 nil] ["append" 5 1] ["r" 7…</text><text text-anchor="middle" x="300.1666203960727" y="-4" transform="rotate(180 300.1666203960727 0)" >txn_ok {:txn [["r" 5 nil] ["append" 5 1] ["r" 7…</text></g></g></svg>