<?xml version="1.0" encoding="UTF-8"?><svg xmlns:svg="http://www.w3.org/2000/svg" xmlns="http://www.w3.org/2000/svg" xmlns:xlink="http://www.w3.org/1999/xlink" version="2.0" width="1200" height="1780" ><style >
svg {
  font-family: Helvetica, Arial, sans-serif;
  font-size: 11px;
}
rect {
  stroke-linecap: butt;
  stroke-width: 3;
  stroke: #fff;
/*  stroke-opacity: 1; */
}
rect:hover {
  stroke: #fff;
/*  stroke-opacity: 1; /*
}
polygon { fill: #000; }</style><defs ><polygon id="ahead" points="0 0, -12 4, -12 -4" /><filter id="glow" x="0" y="0" ><feGaussianBlur in="SourceAlpha" stdDeviation="2" result="blurred" /><feFlood flood-color="#fff" /><feComposite operator="in" in2="blurred" /><feComponentTransfer ><feFuncA type="linear" slope="10" intercept="0" /></feComponentTransfer><feMerge ><feMergeNode /><feMergeNode in="SourceGraphic" /></feMerge></filter></defs><g ><text x="50.0" y="20.0" text-anchor="middle" alignment-baseline="middle" fill="#000" >c10</text><text x="50.0" y="1020.0" text-anchor="middle" alignment-baseline="middle" fill="#aaa" >c10</text><text x="150.0" y="20.0" text-anchor="middle" alignment-baseline="middle" fill="#000" >c11</text><text x="150.0" y="1020.0" text-anchor="middle" alignment-baseline="middle" fill="#aaa" >c11</text><text x="250.0" y="20.0" text-anchor="middle" alignment-baseline="middle" fill="#000" >c12</text><text x="250.0" y="1020.0" text-anchor="middle" alignment-baseline="middle" fill="#aaa" >c12</text><text x="350.0" y="20.0" text-anchor="middle" alignment-baseline="middle" fill="#000" >c13</text><text x="350.0" y="1020.0" text-anchor="middle" alignment-baseline="middle" fill="#aaa" >c13</text><text x="450.0" y="20.0" text-anchor="middle" alignment-baseline="middle" fill="#000" >c14</text><text x="450.0" y="1020.0" text-anchor="middle" alignment-baseline="middle" fill="#aaa" >c14</text><text x="550.0" y="20.0" text-anchor="middle" alignment-baseline="middle" fill="#000" >c15</text><text x="550.0" y="1020.0" text-anchor="middle" alignment-baseline="middle" fill="#aaa" >c15</text><text x="650.0" y="20.0" text-anchor="middle" alignment-baseline="middle" fill="#000" >c16</text><text x="650.0" y="1020.0" text-anchor="middle" alignment-baseline="middle" fill="#aaa" >c16</text><text x="750.0" y="20.0" text-anchor="middle" alignment-baseline="middle" fill="#000" >n1</text><text x="750.0" y="1020.0" text-anchor="middle" alignment-baseline="middle" fill="#aaa" >n1</text><text x="850.0" y="20.0" text-anchor="middle" alignment-baseline="middle" fill="#000" >n2</text><text x="850.0" y="1020.0" text-anchor="middle" alignment-baseline="middle" fill="#aaa" >n2</text><text x="950.0" y="20.0" text-anchor="middle" alignment-baseline="middle" fill="#000" >n3</text><text x="950.0" y="1020.0" text-anchor="middle" alignment-baseline="middle" fill="#aaa" >n3</text><text x="1050.0" y="20.0" text-anchor="middle" alignment-baseline="middle" fill="#000" >n4</text><text x="1050.0" y="1020.0" text-anchor="middle" alignment-baseline="middle" fill="#aaa" >n4</text><text x="1150.0" y="20.0" text-anchor="middle" alignment-baseline="middle" fill="#000" >n5</text><text x="1150.0" y="1020.0" text-anchor="middle" alignment-baseline="middle" fill="#aaa" >n5</text></g><g ><line stroke="#ccc" x1="50.0" y1="30.0" x2="50.0" y2="1690.0" /><line stroke="#ccc" x1="150.0" y1="30.0" x2="150.0" y2="1690.0" /><line stroke="#ccc" x1="250.0" y1="30.0" x2="250.0" y2="1690.0" /><line stroke="#ccc" x1="350.0" y1="30.0" x2="350.0" y2="1690.0" /><line stroke="#ccc" x1="450.0" y1="30.0" x2="450.0" y2="1690.0" /><line stroke="#ccc" x1="550.0" y1="30.0" x2="550.0" y2="1690.0" /><line stroke="#ccc" x1="650.0" y1="30.0" x2="650.0" y2="1690.0" /><line stroke="#ccc" x1="750.0" y1="30.0" x2="750.0" y2="1690.0" /><line stroke="#ccc" x1="850.0" y1="30.0" x2="850.0" y2="1690.0" /><line stroke="#ccc" x1="950.0" y1="30.0" x2="950.0" y2="1690.0" /><line stroke="#ccc" x1="1050.0" y1="30.0" x2="1050.0" y2="1690.0" /><line stroke="#ccc" x1="1150.0" y1="30.0" x2="1150.0" y2="1690.0" /></g><g ><g transform="translate(950.0 90.0) rotate(163.3007557660064) " ><rect x="0" y="-2.5" height="5" width="204.806130178211" fill="#000" ><title >n3 → n1 {:msg_id 2, :type "RequestVote", :term 1, :prevLogIndex 2, :lastLogTerm 0, :candidateId "n3"}</title></rect><use xlink:href="#ahead" x="208.806130178211" y="0" /><text text-anchor="middle" x="104.4030650891055" y="-4" transform="rotate(180 104.4030650891055 0)" filter="url(#glow)" style="fill: #fff" >RequestVote {:term 1, :prevLogIndex 2, :lastLog…</text><text text-anchor="middle" x="104.4030650891055" y="-4" transform="rotate(180 104.4030650891055 0)" >RequestVote {:term 1, :prevLogIndex 2, :lastLog…</text></g><g transform="translate(750.0 110.0) rotate(90.0) " ><rect x="0" y="-2.5" height="5" width="96.0" fill="#000" ><title >n1 → n1 {:msg_id 2, :type "RequestVote", :term 1, :prevLogIndex 2, :lastLogTerm 0, :candidateId "n1"}</title></rect><use xlink:href="#ahead" x="100.0" y="0" /><text text-anchor="middle" x="50.0" y="-4" transform="rotate(180 50.0 0)" filter="url(#glow)" style="fill: #fff" >RequestVote {:term 1, :prevLogIndex 2, :lastLog…</text><text text-anchor="middle" x="50.0" y="-4" transform="rotate(180 50.0 0)" >RequestVote {:term 1, :prevLogIndex 2, :lastLog…</text></g><g transform="translate(950.0 190.0) rotate(158.19859051364818) " ><rect x="0" y="-2.5" height="5" width="103.70329614269008" fill="#000" ><title >n3 → n2 {:msg_id 3, :type "RequestVote", :term 1, :prevLogIndex 2, :lastLogTerm 0, :candidateId "n3"}</title></rect><use xlink:href="#ahead" x="107.70329614269008" y="0" /><text text-anchor="middle" x="53.85164807134504" y="-4" transform="rotate(180 53.85164807134504 0)" filter="url(#glow)" style="fill: #fff" >RequestVote {:term 1, :prevLogIndex 2, :lastLog…</text><text text-anchor="middle" x="53.85164807134504" y="-4" transform="rotate(180 53.85164807134504 0)" >RequestVote {:term 1, :prevLogIndex 2, :lastLog…</text></g><g transform="translate(1150.0 50.0) rotate(146.97613244420336) " ><rect x="0" y="-2.5" height="5" width="473.07441767506253" fill="#000" ><title >n5 → n1 {:msg_id 2, :type "RequestVote", :term 1, :prevLogIndex 2, :lastLogTerm 0, :candidateId "n5"}</title></rect><use xlink:href="#ahead" x="477.07441767506253" y="0" /><text text-anchor="middle" x="238.53720883753127" y="-4" transform="rotate(180 238.53720883753127 0)" filter="url(#glow)" style="fill: #fff" >RequestVote {:term 1, :prevLogIndex 2, :lastLog…</text><text text-anchor="middle" x="238.53720883753127" y="-4" transform="rotate(180 238.53720883753127 0)" >RequestVote {:term 1, :prevLogIndex 2, :lastLog…</text></g><g transform="translate(850.0 250.0) rotate(90.0) " ><rect x="0" y="-2.5" height="5" width="76.0" fill="#000" ><title >n2 → n2 {:msg_id 3, :type "RequestVote", :term 1, :prevLogIndex 2, :lastLogTerm 0, :candidateId "n2"}</title></rect><use xlink:href="#ahead" x="80.0" y="0" /><text text-anchor="middle" x="40.0" y="-4" transform="rotate(180 40.0 0)" filter="url(#glow)" style="fill: #fff" >RequestVote {:term 1, :prevLogIndex 2, :lastLog…</text><text text-anchor="middle" x="40.0" y="-4" transform="rotate(180 40.0 0)" >RequestVote {:term 1, :prevLogIndex 2, :lastLog…</text></g><g transform="translate(1050.0 70.0) rotate(135.0) " ><rect x="0" y="-2.5" height="5" width="420.26406871192853" fill="#000" ><title >n4 → n1 {:msg_id 2, :type "RequestVote", :term 1, :prevLogIndex 2, :lastLogTerm 0, :candidateId "n4"}</title></rect><use xlink:href="#ahead" x="424.26406871192853" y="0" /><text text-anchor="middle" x="212.13203435596427" y="-4" transform="rotate(180 212.13203435596427 0)" filter="url(#glow)" style="fill: #fff" >RequestVote {:term 1, :prevLogIndex 2, :lastLog…</text><text text-anchor="middle" x="212.13203435596427" y="-4" transform="rotate(180 212.13203435596427 0)" >RequestVote {:term 1, :prevLogIndex 2, :lastLog…</text></g><g transform="translate(750.0 270.0) rotate(54.46232220802562) " ><rect x="0" y="-2.5" height="5" width="168.04650534085255" fill="#000" ><title >n1 → n2 {:msg_id 3, :type "RequestVote", :term 1, :prevLogIndex 2, :lastLogTerm 0, :candidateId "n1"}</title></rect><use xlink:href="#ahead" x="172.04650534085255" y="0" /><text text-anchor="middle" x="86.02325267042627" y="-4" transform="" filter="url(#glow)" style="fill: #fff" >RequestVote {:term 1, :prevLogIndex 2, :lastLog…</text><text text-anchor="middle" x="86.02325267042627" y="-4" transform="" >RequestVote {:term 1, :prevLogIndex 2, :lastLog…</text></g><g transform="translate(850.0 130.0) rotate(106.38954033403479) " ><rect x="0" y="-2.5" height="5" width="350.400902933387" fill="#000" ><title >n2 → n1 {:msg_id 2, :type "RequestVote", :term 1, :prevLogIndex 2, :lastLogTerm 0, :candidateId "n2"}</title></rect><use xlink:href="#ahead" x="354.400902933387" y="0" /><text text-anchor="middle" x="177.2004514666935" y="-4" transform="rotate(180 177.2004514666935 0)" filter="url(#glow)" style="fill: #fff" >RequestVote {:term 1, :prevLogIndex 2, :lastLog…</text><text text-anchor="middle" x="177.2004514666935" y="-4" transform="rotate(180 177.2004514666935 0)" >RequestVote {:term 1, :prevLogIndex 2, :lastLog…</text></g><g transform="translate(1150.0 290.0) rotate(146.30993247402023) " ><rect x="0" y="-2.5" height="5" width="356.5551275463989" fill="#000" ><title >n5 → n2 {:msg_id 3, :type "RequestVote", :term 1, :prevLogIndex 2, :lastLogTerm 0, :candidateId "n5"}</title></rect><use xlink:href="#ahead" x="360.5551275463989" y="0" /><text text-anchor="middle" x="180.27756377319946" y="-4" transform="rotate(180 180.27756377319946 0)" filter="url(#glow)" style="fill: #fff" >RequestVote {:term 1, :prevLogIndex 2, :lastLog…</text><text text-anchor="middle" x="180.27756377319946" y="-4" transform="rotate(180 180.27756377319946 0)" >RequestVote {:term 1, :prevLogIndex 2, :lastLog…</text></g><g transform="translate(950.0 510.0) rotate(30.963756532073525) " ><rect x="0" y="-2.5" height="5" width="112.61903789690601" fill="#000" ><title >n3 → n4 {:msg_id 5, :type "RequestVote", :term 1, :prevLogIndex 2, :lastLogTerm 0, :candidateId "n3"}</title></rect><use xlink:href="#ahead" x="116.61903789690601" y="0" /><text text-anchor="middle" x="58.309518948453004" y="-4" transform="" filter="url(#glow)" style="fill: #fff" >RequestVote {:term 1, :prevLogIndex 2, :lastLog…</text><text text-anchor="middle" x="58.309518948453004" y="-4" transform="" >RequestVote {:term 1, :prevLogIndex 2, :lastLog…</text></g><g transform="translate(850.0 550.0) rotate(16.69924423399362) " ><rect x="0" y="-2.5" height="5" width="204.806130178211" fill="#000" ><title >n2 → n4 {:msg_id 5, :type "RequestVote", :term 1, :prevLogIndex 2, :lastLogTerm 0, :candidateId "n2"}</title></rect><use xlink:href="#ahead" x="208.806130178211" y="0" /><text text-anchor="middle" x="104.4030650891055" y="-4" transform="" filter="url(#glow)" style="fill: #fff" >RequestVote {:term 1, :prevLogIndex 2, :lastLog…</text><text text-anchor="middle" x="104.4030650891055" y="-4" transform="" >RequestVote {:term 1, :prevLogIndex 2, :lastLog…</text></g><g transform="translate(1150.0 590.0) rotate(141.34019174590992) " ><rect x="0" y="-2.5" height="5" width="124.06248474865697" fill="#000" ><title >n5 → n4 {:msg_id 5, :type "RequestVote", :term 1, :prevLogIndex 2, :lastLogTerm 0, :candidateId "n5"}</title></rect><use xlink:href="#ahead" x="128.06248474865697" y="0" /><text text-anchor="middle" x="64.03124237432849" y="-4" transform="rotate(180 64.03124237432849 0)" filter="url(#glow)" style="fill: #fff" >RequestVote {:term 1, :prevLogIndex 2, :lastLog…</text><text text-anchor="middle" x="64.03124237432849" y="-4" transform="rotate(180 64.03124237432849 0)" >RequestVote {:term 1, :prevLogIndex 2, :lastLog…</text></g><g transform="translate(950.0 630.0) rotate(16.69924423399362) " ><rect x="0" y="-2.5" height="5" width="204.806130178211" fill="#000" ><title >n3 → n5 {:msg_id 6, :type "RequestVote", :term 1, :prevLogIndex 2, :lastLogTerm 0, :candidateId "n3"}</title></rect><use xlink:href="#ahead" x="208.806130178211" y="0" /><text text-anchor="middle" x="104.4030650891055" y="-4" transform="" filter="url(#glow)" style="fill: #fff" >RequestVote {:term 1, :prevLogIndex 2, :lastLog…</text><text text-anchor="middle" x="104.4030650891055" y="-4" transform="" >RequestVote {:term 1, :prevLogIndex 2, :lastLog…</text></g><g transform="translate(950.0 350.0) rotate(90.0) " ><rect x="0" y="-2.5" height="5" width="376.0" fill="#000" ><title >n3 → n3 {:msg_id 4, :type "RequestVote", :term 1, :prevLogIndex 2, :lastLogTerm 0, :candidateId "n3"}</title></rect><use xlink:href="#ahead" x="380.0" y="0" /><text text-anchor="middle" x="190.0" y="-4" transform="rotate(180 190.0 0)" filter="url(#glow)" style="fill: #fff" >RequestVote {:term 1, :prevLogIndex 2, :lastLog…</text><text text-anchor="middle" x="190.0" y="-4" transform="rotate(180 190.0 0)" >RequestVote {:term 1, :prevLogIndex 2, :lastLog…</text></g><g transform="translate(1150.0 710.0) rotate(90.0) " ><rect x="0" y="-2.5" height="5" width="36.0" fill="#000" ><title >n5 → n5 {:msg_id 6, :type "RequestVote", :term 1, :prevLogIndex 2, :lastLogTerm 0, :candidateId "n5"}</title></rect><use xlink:href="#ahead" x="40.0" y="0" /><text text-anchor="middle" x="20.0" y="-4" transform="rotate(180 20.0 0)" filter="url(#glow)" style="fill: #fff" >RequestVote {:term 1, :prevLogIndex 2, :lastLog…</text><text text-anchor="middle" x="20.0" y="-4" transform="rotate(180 20.0 0)" >RequestVote {:term 1, :prevLogIndex 2, :lastLog…</text></g><g transform="translate(750.0 390.0) rotate(62.24145939893998) " ><rect x="0" y="-2.5" height="5" width="425.4182110716778" fill="#000" ><title >n1 → n3 {:msg_id 4, :type "RequestVote", :term 1, :prevLogIndex 2, :lastLogTerm 0, :candidateId "n1"}</title></rect><use xlink:href="#ahead" x="429.4182110716778" y="0" /><text text-anchor="middle" x="214.7091055358389" y="-4" transform="" filter="url(#glow)" style="fill: #fff" >RequestVote {:term 1, :prevLogIndex 2, :lastLog…</text><text text-anchor="middle" x="214.7091055358389" y="-4" transform="" >RequestVote {:term 1, :prevLogIndex 2, :lastLog…</text></g><g transform="translate(1050.0 170.0) rotate(107.87869659584135) " ><rect x="0" y="-2.5" height="5" width="647.4598989960932" fill="#000" ><title >n4 → n2 {:msg_id 3, :type "RequestVote", :term 1, :prevLogIndex 2, :lastLogTerm 0, :candidateId "n4"}</title></rect><use xlink:href="#ahead" x="651.4598989960932" y="0" /><text text-anchor="middle" x="325.7299494980466" y="-4" transform="rotate(180 325.7299494980466 0)" filter="url(#glow)" style="fill: #fff" >RequestVote {:term 1, :prevLogIndex 2, :lastLog…</text><text text-anchor="middle" x="325.7299494980466" y="-4" transform="rotate(180 325.7299494980466 0)" >RequestVote {:term 1, :prevLogIndex 2, :lastLog…</text></g><g transform="translate(850.0 430.0) rotate(75.25643716352927) " ><rect x="0" y="-2.5" height="5" width="388.93765408777" fill="#000" ><title >n2 → n3 {:msg_id 4, :type "RequestVote", :term 1, :prevLogIndex 2, :lastLogTerm 0, :candidateId "n2"}</title></rect><use xlink:href="#ahead" x="392.93765408777" y="0" /><text text-anchor="middle" x="196.468827043885" y="-4" transform="" filter="url(#glow)" style="fill: #fff" >RequestVote {:term 1, :prevLogIndex 2, :lastLog…</text><text text-anchor="middle" x="196.468827043885" y="-4" transform="" >RequestVote {:term 1, :prevLogIndex 2, :lastLog…</text></g><g transform="translate(750.0 530.0) rotate(45.0) " ><rect x="0" y="-2.5" height="5" width="420.26406871192853" fill="#000" ><title >n1 → n4 {:msg_id 5, :type "RequestVote", :term 1, :prevLogIndex 2, :lastLogTerm 0, :candidateId "n1"}</title></rect><use xlink:href="#ahead" x="424.26406871192853" y="0" /><text text-anchor="middle" x="212.13203435596427" y="-4" transform="" filter="url(#glow)" style="fill: #fff" >RequestVote {:term 1, :prevLogIndex 2, :lastLog…</text><text text-anchor="middle" x="212.13203435596427" y="-4" transform="" >RequestVote {:term 1, :prevLogIndex 2, :lastLog…</text></g><g transform="translate(1150.0 450.0) rotate(116.56505117707799) " ><rect x="0" y="-2.5" height="5" width="443.21359549995793" fill="#000" ><title >n5 → n3 {:msg_id 4, :type "RequestVote", :term 1, :prevLogIndex 2, :lastLogTerm 0, :candidateId "n5"}</title></rect><use xlink:href="#ahead" x="447.21359549995793" y="0" /><text text-anchor="middle" x="223.60679774997897" y="-4" transform="rotate(180 223.60679774997897 0)" filter="url(#glow)" style="fill: #fff" >RequestVote {:term 1, :prevLogIndex 2, :lastLog…</text><text text-anchor="middle" x="223.60679774997897" y="-4" transform="rotate(180 223.60679774997897 0)" >RequestVote {:term 1, :prevLogIndex 2, :lastLog…</text></g><g transform="translate(850.0 650.0) rotate(36.2538377374448) " ><rect x="0" y="-2.5" height="5" width="368.0215047547655" fill="#000" ><title >n2 → n5 {:msg_id 6, :type "RequestVote", :term 1, :prevLogIndex 2, :lastLogTerm 0, :candidateId "n2"}</title></rect><use xlink:href="#ahead" x="372.0215047547655" y="0" /><text text-anchor="middle" x="186.01075237738274" y="-4" transform="" filter="url(#glow)" style="fill: #fff" >RequestVote {:term 1, :prevLogIndex 2, :lastLog…</text><text text-anchor="middle" x="186.01075237738274" y="-4" transform="" >RequestVote {:term 1, :prevLogIndex 2, :lastLog…</text></g><g transform="translate(750.0 910.0) rotate(2.862405226111748) " ><rect x="0" y="-2.5" height="5" width="396.4996878900157" fill="#000" ><title >n1 → n5 {:msg_id 6, :type "RequestVote", :term 1, :prevLogIndex 2, :lastLogTerm 0, :candidateId "n1"}</title></rect><use xlink:href="#ahead" x="400.4996878900157" y="0" /><text text-anchor="middle" x="200.24984394500785" y="-4" transform="" filter="url(#glow)" style="fill: #fff" >RequestVote {:term 1, :prevLogIndex 2, :lastLog…</text><text text-anchor="middle" x="200.24984394500785" y="-4" transform="" >RequestVote {:term 1, :prevLogIndex 2, :lastLog…</text></g><g transform="translate(1050.0 950.0) rotate(90.0) " ><rect x="0" y="-2.5" height="5" width="36.0" fill="#000" ><title >n4 → n4 {:msg_id 5, :type "RequestVote", :term 1, :prevLogIndex 2, :lastLogTerm 0, :candidateId "n4"}</title></rect><use xlink:href="#ahead" x="40.0" y="0" /><text text-anchor="middle" x="20.0" y="-4" transform="rotate(180 20.0 0)" filter="url(#glow)" style="fill: #fff" >RequestVote {:term 1, :prevLogIndex 2, :lastLog…</text><text text-anchor="middle" x="20.0" y="-4" transform="rotate(180 20.0 0)" >RequestVote {:term 1, :prevLogIndex 2, :lastLog…</text></g><g transform="translate(1050.0 890.0) rotate(129.8055710922652) " ><rect x="0" y="-2.5" height="5" width="152.20499351813308" fill="#000" ><title >n4 → n3 {:msg_id 4, :type "RequestVote", :term 1, :prevLogIndex 2, :lastLogTerm 0, :candidateId "n4"}</title></rect><use xlink:href="#ahead" x="156.20499351813308" y="0" /><text text-anchor="middle" x="78.10249675906654" y="-4" transform="rotate(180 78.10249675906654 0)" filter="url(#glow)" style="fill: #fff" >RequestVote {:term 1, :prevLogIndex 2, :lastLog…</text><text text-anchor="middle" x="78.10249675906654" y="-4" transform="rotate(180 78.10249675906654 0)" >RequestVote {:term 1, :prevLogIndex 2, :lastLog…</text></g><g transform="translate(1050.0 970.0) rotate(30.963756532073525) " ><rect x="0" y="-2.5" height="5" width="112.61903789690601" fill="#000" ><title >n4 → n5 {:msg_id 6, :type "RequestVote", :term 1, :prevLogIndex 2, :lastLogTerm 0, :candidateId "n4"}</title></rect><use xlink:href="#ahead" x="116.61903789690601" y="0" /><text text-anchor="middle" x="58.309518948453004" y="-4" transform="" filter="url(#glow)" style="fill: #fff" >RequestVote {:term 1, :prevLogIndex 2, :lastLog…</text><text text-anchor="middle" x="58.309518948453004" y="-4" transform="" >RequestVote {:term 1, :prevLogIndex 2, :lastLog…</text></g><g transform="translate(50.0 1050.0) rotate(1.2730300200567113) " ><rect x="0" y="-2.5" height="5" width="896.222194794152" fill="#81BFFC" ><title >c10 → n3 {:key 1, :from 0, :to 0, :type "cas", :msg_id 1}</title></rect><use xlink:href="#ahead" x="900.222194794152" y="0" /><text text-anchor="middle" x="450.111097397076" y="-4" transform="" filter="url(#glow)" style="fill: #fff" >cas {:key 1, :from 0, :to 0}</text><text text-anchor="middle" x="450.111097397076" y="-4" transform="" >cas {:key 1, :from 0, :to 0}</text></g><g transform="translate(950.0 1090.0) rotate(178.7269699799433) " ><rect x="0" y="-2.5" height="5" width="896.222194794152" fill="#FF1E90" ><title >n3 → c10 {:msg_id 7, :in_reply_to 1, :type "error", :code 11}</title></rect><use xlink:href="#ahead" x="900.222194794152" y="0" /><text text-anchor="middle" x="450.111097397076" y="-4" transform="rotate(180 450.111097397076 0)" filter="url(#glow)" style="fill: #fff" >error </text><text text-anchor="middle" x="450.111097397076" y="-4" transform="rotate(180 450.111097397076 0)" >error </text></g><g transform="translate(150.0 1130.0) rotate(1.4320961841646465) " ><rect x="0" y="-2.5" height="5" width="796.2499609497023" fill="#81BFFC" ><title >c11 → n3 {:key 0, :from 1, :to 3, :type "cas", :msg_id 1}</title></rect><use xlink:href="#ahead" x="800.2499609497023" y="0" /><text text-anchor="middle" x="400.12498047485116" y="-4" transform="" filter="url(#glow)" style="fill: #fff" >cas {:key 0, :from 1, :to 3}</text><text text-anchor="middle" x="400.12498047485116" y="-4" transform="" >cas {:key 0, :from 1, :to 3}</text></g><g transform="translate(950.0 1170.0) rotate(178.56790381583536) " ><rect x="0" y="-2.5" height="5" width="796.2499609497023" fill="#FF1E90" ><title >n3 → c11 {:msg_id 8, :in_reply_to 1, :type "error", :code 11}</title></rect><use xlink:href="#ahead" x="800.2499609497023" y="0" /><text text-anchor="middle" x="400.12498047485116" y="-4" transform="rotate(180 400.12498047485116 0)" filter="url(#glow)" style="fill: #fff" >error </text><text text-anchor="middle" x="400.12498047485116" y="-4" transform="rotate(180 400.12498047485116 0)" >error </text></g><g transform="translate(250.0 1210.0) rotate(1.4320961841646465) " ><rect x="0" y="-2.5" height="5" width="796.2499609497023" fill="#81BFFC" ><title >c12 → n4 {:key 1, :from 1, :to 0, :type "cas", :msg_id 1}</title></rect><use xlink:href="#ahead" x="800.2499609497023" y="0" /><text text-anchor="middle" x="400.12498047485116" y="-4" transform="" filter="url(#glow)" style="fill: #fff" >cas {:key 1, :from 1, :to 0}</text><text text-anchor="middle" x="400.12498047485116" y="-4" transform="" >cas {:key 1, :from 1, :to 0}</text></g><g transform="translate(1050.0 1250.0) rotate(178.56790381583536) " ><rect x="0" y="-2.5" height="5" width="796.2499609497023" fill="#FF1E90" ><title >n4 → c12 {:msg_id 7, :in_reply_to 1, :type "error", :code 11}</title></rect><use xlink:href="#ahead" x="800.2499609497023" y="0" /><text text-anchor="middle" x="400.12498047485116" y="-4" transform="rotate(180 400.12498047485116 0)" filter="url(#glow)" style="fill: #fff" >error </text><text text-anchor="middle" x="400.12498047485116" y="-4" transform="rotate(180 400.12498047485116 0)" >error </text></g><g transform="translate(350.0 1290.0) rotate(1.9091524329963763) " ><rect x="0" y="-2.5" height="5" width="596.3332407921454" fill="#81BFFC" ><title >c13 → n3 {:key 1, :from 3, :to 2, :type "cas", :msg_id 1}</title></rect><use xlink:href="#ahead" x="600.3332407921454" y="0" /><text text-anchor="middle" x="300.1666203960727" y="-4" transform="" filter="url(#glow)" style="fill: #fff" >cas {:key 1, :from 3, :to 2}</text><text text-anchor="middle" x="300.1666203960727" y="-4" transform="" >cas {:key 1, :from 3, :to 2}</text></g><g transform="translate(950.0 1330.0) rotate(178.0908475670036) " ><rect x="0" y="-2.5" height="5" width="596.3332407921454" fill="#FF1E90" ><title >n3 → c13 {:msg_id 9, :in_reply_to 1, :type "error", :code 11}</title></rect><use xlink:href="#ahead" x="600.3332407921454" y="0" /><text text-anchor="middle" x="300.1666203960727" y="-4" transform="rotate(180 300.1666203960727 0)" filter="url(#glow)" style="fill: #fff" >error </text><text text-anchor="middle" x="300.1666203960727" y="-4" transform="rotate(180 300.1666203960727 0)" >error </text></g><g transform="translate(450.0 1370.0) rotate(2.862405226111748) " ><rect x="0" y="-2.5" height="5" width="396.4996878900157" fill="#81BFFC" ><title >c14 → n2 {:key 0, :type "read", :msg_id 1}</title></rect><use xlink:href="#ahead" x="400.4996878900157" y="0" /><text text-anchor="middle" x="200.24984394500785" y="-4" transform="" filter="url(#glow)" style="fill: #fff" >read {:key 0}</text><text text-anchor="middle" x="200.24984394500785" y="-4" transform="" >read {:key 0}</text></g><g transform="translate(850.0 1410.0) rotate(177.13759477388828) " ><rect x="0" y="-2.5" height="5" width="396.4996878900157" fill="#FF1E90" ><title >n2 → c14 {:msg_id 7, :in_reply_to 1, :type "error", :code 11}</title></rect><use xlink:href="#ahead" x="400.4996878900157" y="0" /><text text-anchor="middle" x="200.24984394500785" y="-4" transform="rotate(180 200.24984394500785 0)" filter="url(#glow)" style="fill: #fff" >error </text><text text-anchor="middle" x="200.24984394500785" y="-4" transform="rotate(180 200.24984394500785 0)" >error </text></g><g transform="translate(350.0 1450.0) rotate(1.9091524329963763) " ><rect x="0" y="-2.5" height="5" width="596.3332407921454" fill="#81BFFC" ><title >c13 → n3 {:key 1, :value 1, :type "write", :msg_id 2}</title></rect><use xlink:href="#ahead" x="600.3332407921454" y="0" /><text text-anchor="middle" x="300.1666203960727" y="-4" transform="" filter="url(#glow)" style="fill: #fff" >write {:key 1, :value 1}</text><text text-anchor="middle" x="300.1666203960727" y="-4" transform="" >write {:key 1, :value 1}</text></g><g transform="translate(950.0 1490.0) rotate(178.0908475670036) " ><rect x="0" y="-2.5" height="5" width="596.3332407921454" fill="#FF1E90" ><title >n3 → c13 {:msg_id 10, :in_reply_to 2, :type "error", :code 11}</title></rect><use xlink:href="#ahead" x="600.3332407921454" y="0" /><text text-anchor="middle" x="300.1666203960727" y="-4" transform="rotate(180 300.1666203960727 0)" filter="url(#glow)" style="fill: #fff" >error </text><text text-anchor="middle" x="300.1666203960727" y="-4" transform="rotate(180 300.1666203960727 0)" >error </text></g><g transform="translate(550.0 1530.0) rotate(2.29061004263853) " ><rect x="0" y="-2.5" height="5" width="496.39984012787215" fill="#81BFFC" ><title >c15 → n4 {:key 0, :from 4, :to 1, :type "cas", :msg_id 1}</title></rect><use xlink:href="#ahead" x="500.39984012787215" y="0" /><text text-anchor="middle" x="250.19992006393608" y="-4" transform="" filter="url(#glow)" style="fill: #fff" >cas {:key 0, :from 4, :to 1}</text><text text-anchor="middle" x="250.19992006393608" y="-4" transform="" >cas {:key 0, :from 4, :to 1}</text></g><g transform="translate(1050.0 1570.0) rotate(177.70938995736148) " ><rect x="0" y="-2.5" height="5" width="496.39984012787215" fill="#FF1E90" ><title >n4 → c15 {:msg_id 8, :in_reply_to 1, :type "error", :code 11}</title></rect><use xlink:href="#ahead" x="500.39984012787215" y="0" /><text text-anchor="middle" x="250.19992006393608" y="-4" transform="rotate(180 250.19992006393608 0)" filter="url(#glow)" style="fill: #fff" >error </text><text text-anchor="middle" x="250.19992006393608" y="-4" transform="rotate(180 250.19992006393608 0)" >error </text></g><g transform="translate(650.0 1610.0) rotate(11.309932474020215) " ><rect x="0" y="-2.5" height="5" width="97.9803902718557" fill="#81BFFC" ><title >c16 → n1 {:key 0, :type "read", :msg_id 1}</title></rect><use xlink:href="#ahead" x="101.9803902718557" y="0" /><text text-anchor="middle" x="50.99019513592785" y="-4" transform="" filter="url(#glow)" style="fill: #fff" >read {:key 0}</text><text text-anchor="middle" x="50.99019513592785" y="-4" transform="" >read {:key 0}</text></g><g transform="translate(750.0 1650.0) rotate(168.69006752597983) " ><rect x="0" y="-2.5" height="5" width="97.9803902718557" fill="#FF1E90" ><title >n1 → c16 {:msg_id 7, :in_reply_to 1, :type "error", :code 11}</title></rect><use xlink:href="#ahead" x="101.9803902718557" y="0" /><text text-anchor="middle" x="50.99019513592785" y="-4" transform="rotate(180 50.99019513592785 0)" filter="url(#glow)" style="fill: #fff" >error </text><text text-anchor="middle" x="50.99019513592785" y="-4" transform="rotate(180 50.99019513592785 0)" >error </text></g></g></svg>