<?xml version="1.0" encoding="UTF-8"?><svg xmlns:svg="http://www.w3.org/2000/svg" xmlns="http://www.w3.org/2000/svg" xmlns:xlink="http://www.w3.org/1999/xlink" version="2.0" width="1200" height="1220" ><style >
svg {
  font-family: Helvetica, Arial, sans-serif;
  font-size: 11px;
}
rect {
  stroke-linecap: butt;
  stroke-width: 3;
  stroke: #fff;
/*  stroke-opacity: 1; */
}
rect:hover {
  stroke: #fff;
/*  stroke-opacity: 1; /*
}
polygon { fill: #000; }</style><defs ><polygon id="ahead" points="0 0, -12 4, -12 -4" /><filter id="glow" x="0" y="0" ><feGaussianBlur in="SourceAlpha" stdDeviation="2" result="blurred" /><feFlood flood-color="#fff" /><feComposite operator="in" in2="blurred" /><feComponentTransfer ><feFuncA type="linear" slope="10" intercept="0" /></feComponentTransfer><feMerge ><feMergeNode /><feMergeNode in="SourceGraphic" /></feMerge></filter></defs><g ><text x="50.0" y="20.0" text-anchor="middle" alignment-baseline="middle" fill="#000" >c10</text><text x="50.0" y="1020.0" text-anchor="middle" alignment-baseline="middle" fill="#aaa" >c10</text><text x="150.0" y="20.0" text-anchor="middle" alignment-baseline="middle" fill="#000" >c11</text><text x="150.0" y="1020.0" text-anchor="middle" alignment-baseline="middle" fill="#aaa" >c11</text><text x="250.0" y="20.0" text-anchor="middle" alignment-baseline="middle" fill="#000" >c12</text><text x="250.0" y="1020.0" text-anchor="middle" alignment-baseline="middle" fill="#aaa" >c12</text><text x="350.0" y="20.0" text-anchor="middle" alignment-baseline="middle" fill="#000" >c13</text><text x="350.0" y="1020.0" text-anchor="middle" alignment-baseline="middle" fill="#aaa" >c13</text><text x="450.0" y="20.0" text-anchor="middle" alignment-baseline="middle" fill="#000" >c14</text><text x="450.0" y="1020.0" text-anchor="middle" alignment-baseline="middle" fill="#aaa" >c14</text><text x="550.0" y="20.0" text-anchor="middle" alignment-baseline="middle" fill="#000" >c15</text><text x="550.0" y="1020.0" text-anchor="middle" alignment-baseline="middle" fill="#aaa" >c15</text><text x="650.0" y="20.0" text-anchor="middle" alignment-baseline="middle" fill="#000" >c16</text><text x="650.0" y="1020.0" text-anchor="middle" alignment-baseline="middle" fill="#aaa" >c16</text><text x="750.0" y="20.0" text-anchor="middle" alignment-baseline="middle" fill="#000" >n1</text><text x="750.0" y="1020.0" text-anchor="middle" alignment-baseline="middle" fill="#aaa" >n1</text><text x="850.0" y="20.0" text-anchor="middle" alignment-baseline="middle" fill="#000" >n2</text><text x="850.0" y="1020.0" text-anchor="middle" alignment-baseline="middle" fill="#aaa" >n2</text><text x="950.0" y="20.0" text-anchor="middle" alignment-baseline="middle" fill="#000" >n3</text><text x="950.0" y="1020.0" text-anchor="middle" alignment-baseline="middle" fill="#aaa" >n3</text><text x="1050.0" y="20.0" text-anchor="middle" alignment-baseline="middle" fill="#000" >n4</text><text x="1050.0" y="1020.0" text-anchor="middle" alignment-baseline="middle" fill="#aaa" >n4</text><text x="1150.0" y="20.0" text-anchor="middle" alignment-baseline="middle" fill="#000" >n5</text><text x="1150.0" y="1020.0" text-anchor="middle" alignment-baseline="middle" fill="#aaa" >n5</text></g><g ><line stroke="#ccc" x1="50.0" y1="30.0" x2="50.0" y2="1130.0" /><line stroke="#ccc" x1="150.0" y1="30.0" x2="150.0" y2="1130.0" /><line stroke="#ccc" x1="250.0" y1="30.0" x2="250.0" y2="1130.0" /><line stroke="#ccc" x1="350.0" y1="30.0" x2="350.0" y2="1130.0" /><line stroke="#ccc" x1="450.0" y1="30.0" x2="450.0" y2="1130.0" /><line stroke="#ccc" x1="550.0" y1="30.0" x2="550.0" y2="1130.0" /><line stroke="#ccc" x1="650.0" y1="30.0" x2="650.0" y2="1130.0" /><line stroke="#ccc" x1="750.0" y1="30.0" x2="750.0" y2="1130.0" /><line stroke="#ccc" x1="850.0" y1="30.0" x2="850.0" y2="1130.0" /><line stroke="#ccc" x1="950.0" y1="30.0" x2="950.0" y2="1130.0" /><line stroke="#ccc" x1="1050.0" y1="30.0" x2="1050.0" y2="1130.0" /><line stroke="#ccc" x1="1150.0" y1="30.0" x2="1150.0" y2="1130.0" /></g><g ><g transform="translate(750.0 50.0) rotate(11.309932474020215) " ><rect x="0" y="-2.5" height="5" width="97.9803902718557" fill="#000" ><title >n1 → n2 {:msg_id 2, :type "AppendEntries", :term 0, :prevIndex 0, :prevTerm 0, :entries [[["pass" nil] 0]], :commit 0}</title></rect><use xlink:href="#ahead" x="101.9803902718557" y="0" /><text text-anchor="middle" x="50.99019513592785" y="-4" transform="" filter="url(#glow)" style="fill: #fff" >AppendEntries {:term 0, :prevIndex 0, :prevTerm…</text><text text-anchor="middle" x="50.99019513592785" y="-4" transform="" >AppendEntries {:term 0, :prevIndex 0, :prevTerm…</text></g><g transform="translate(750.0 90.0) rotate(5.710593137499643) " ><rect x="0" y="-2.5" height="5" width="196.9975124224178" fill="#000" ><title >n1 → n3 {:msg_id 3, :type "AppendEntries", :term 0, :prevIndex 0, :prevTerm 0, :entries [[["pass" nil] 0]], :commit 0}</title></rect><use xlink:href="#ahead" x="200.9975124224178" y="0" /><text text-anchor="middle" x="100.4987562112089" y="-4" transform="" filter="url(#glow)" style="fill: #fff" >AppendEntries {:term 0, :prevIndex 0, :prevTerm…</text><text text-anchor="middle" x="100.4987562112089" y="-4" transform="" >AppendEntries {:term 0, :prevIndex 0, :prevTerm…</text></g><g transform="translate(750.0 130.0) rotate(3.8140748342903543) " ><rect x="0" y="-2.5" height="5" width="296.66592756745814" fill="#000" ><title >n1 → n4 {:msg_id 4, :type "AppendEntries", :term 0, :prevIndex 0, :prevTerm 0, :entries [[["pass" nil] 0]], :commit 0}</title></rect><use xlink:href="#ahead" x="300.66592756745814" y="0" /><text text-anchor="middle" x="150.33296378372907" y="-4" transform="" filter="url(#glow)" style="fill: #fff" >AppendEntries {:term 0, :prevIndex 0, :prevTerm…</text><text text-anchor="middle" x="150.33296378372907" y="-4" transform="" >AppendEntries {:term 0, :prevIndex 0, :prevTerm…</text></g><g transform="translate(850.0 170.0) rotate(168.69006752597983) " ><rect x="0" y="-2.5" height="5" width="97.9803902718557" fill="#000" ><title >n2 → n1 {:msg_id 2, :in_reply_to 2, :type "AppendEntriesRes", :res true, :term 0, :next 1, :commit 0}</title></rect><use xlink:href="#ahead" x="101.9803902718557" y="0" /><text text-anchor="middle" x="50.99019513592785" y="-4" transform="rotate(180 50.99019513592785 0)" filter="url(#glow)" style="fill: #fff" >AppendEntriesRes {:res true, :term 0, :next 1, …</text><text text-anchor="middle" x="50.99019513592785" y="-4" transform="rotate(180 50.99019513592785 0)" >AppendEntriesRes {:res true, :term 0, :next 1, …</text></g><g transform="translate(750.0 210.0) rotate(2.862405226111748) " ><rect x="0" y="-2.5" height="5" width="396.4996878900157" fill="#000" ><title >n1 → n5 {:msg_id 5, :type "AppendEntries", :term 0, :prevIndex 0, :prevTerm 0, :entries [[["pass" nil] 0]], :commit 0}</title></rect><use xlink:href="#ahead" x="400.4996878900157" y="0" /><text text-anchor="middle" x="200.24984394500785" y="-4" transform="" filter="url(#glow)" style="fill: #fff" >AppendEntries {:term 0, :prevIndex 0, :prevTerm…</text><text text-anchor="middle" x="200.24984394500785" y="-4" transform="" >AppendEntries {:term 0, :prevIndex 0, :prevTerm…</text></g><g transform="translate(950.0 250.0) rotate(168.69006752597983) " ><rect x="0" y="-2.5" height="5" width="199.9607805437114" fill="#000" ><title >n3 → n1 {:msg_id 2, :in_reply_to 3, :type "AppendEntriesRes", :res true, :term 0, :next 1, :commit 0}</title></rect><use xlink:href="#ahead" x="203.9607805437114" y="0" /><text text-anchor="middle" x="101.9803902718557" y="-4" transform="rotate(180 101.9803902718557 0)" filter="url(#glow)" style="fill: #fff" >AppendEntriesRes {:res true, :term 0, :next 1, …</text><text text-anchor="middle" x="101.9803902718557" y="-4" transform="rotate(180 101.9803902718557 0)" >AppendEntriesRes {:res true, :term 0, :next 1, …</text></g><g transform="translate(1050.0 270.0) rotate(172.40535663140858) " ><rect x="0" y="-2.5" height="5" width="298.65491900843114" fill="#000" ><title >n4 → n1 {:msg_id 2, :in_reply_to 4, :type "AppendEntriesRes", :res true, :term 0, :next 1, :commit 0}</title></rect><use xlink:href="#ahead" x="302.65491900843114" y="0" /><text text-anchor="middle" x="151.32745950421557" y="-4" transform="rotate(180 151.32745950421557 0)" filter="url(#glow)" style="fill: #fff" >AppendEntriesRes {:res true, :term 0, :next 1, …</text><text text-anchor="middle" x="151.32745950421557" y="-4" transform="rotate(180 151.32745950421557 0)" >AppendEntriesRes {:res true, :term 0, :next 1, …</text></g><g transform="translate(1150.0 330.0) rotate(177.13759477388828) " ><rect x="0" y="-2.5" height="5" width="396.4996878900157" fill="#000" ><title >n5 → n1 {:msg_id 2, :in_reply_to 5, :type "AppendEntriesRes", :res true, :term 0, :next 1, :commit 0}</title></rect><use xlink:href="#ahead" x="400.4996878900157" y="0" /><text text-anchor="middle" x="200.24984394500785" y="-4" transform="rotate(180 200.24984394500785 0)" filter="url(#glow)" style="fill: #fff" >AppendEntriesRes {:res true, :term 0, :next 1, …</text><text text-anchor="middle" x="200.24984394500785" y="-4" transform="rotate(180 200.24984394500785 0)" >AppendEntriesRes {:res true, :term 0, :next 1, …</text></g><g transform="translate(50.0 370.0) rotate(1.4320961841646465) " ><rect x="0" y="-2.5" height="5" width="796.2499609497023" fill="#81BFFC" ><title >c10 → n2 {:key 0, :type "read", :msg_id 1}</title></rect><use xlink:href="#ahead" x="800.2499609497023" y="0" /><text text-anchor="middle" x="400.12498047485116" y="-4" transform="" filter="url(#glow)" style="fill: #fff" >read {:key 0}</text><text text-anchor="middle" x="400.12498047485116" y="-4" transform="" >read {:key 0}</text></g><g transform="translate(850.0 410.0) rotate(178.56790381583536) " ><rect x="0" y="-2.5" height="5" width="796.2499609497023" fill="#FF1E90" ><title >n2 → c10 {:msg_id 3, :in_reply_to 1, :type "error", :code 11, :text "Not Leader"}</title></rect><use xlink:href="#ahead" x="800.2499609497023" y="0" /><text text-anchor="middle" x="400.12498047485116" y="-4" transform="rotate(180 400.12498047485116 0)" filter="url(#glow)" style="fill: #fff" >error Not Leader</text><text text-anchor="middle" x="400.12498047485116" y="-4" transform="rotate(180 400.12498047485116 0)" >error Not Leader</text></g><g transform="translate(150.0 450.0) rotate(1.4320961841646465) " ><rect x="0" y="-2.5" height="5" width="796.2499609497023" fill="#81BFFC" ><title >c11 → n3 {:key 1, :from 4, :to 1, :type "cas", :msg_id 1}</title></rect><use xlink:href="#ahead" x="800.2499609497023" y="0" /><text text-anchor="middle" x="400.12498047485116" y="-4" transform="" filter="url(#glow)" style="fill: #fff" >cas {:key 1, :from 4, :to 1}</text><text text-anchor="middle" x="400.12498047485116" y="-4" transform="" >cas {:key 1, :from 4, :to 1}</text></g><g transform="translate(950.0 490.0) rotate(178.56790381583536) " ><rect x="0" y="-2.5" height="5" width="796.2499609497023" fill="#FF1E90" ><title >n3 → c11 {:msg_id 3, :in_reply_to 1, :type "error", :code 11, :text "Not Leader"}</title></rect><use xlink:href="#ahead" x="800.2499609497023" y="0" /><text text-anchor="middle" x="400.12498047485116" y="-4" transform="rotate(180 400.12498047485116 0)" filter="url(#glow)" style="fill: #fff" >error Not Leader</text><text text-anchor="middle" x="400.12498047485116" y="-4" transform="rotate(180 400.12498047485116 0)" >error Not Leader</text></g><g transform="translate(250.0 530.0) rotate(2.29061004263853) " ><rect x="0" y="-2.5" height="5" width="496.39984012787215" fill="#81BFFC" ><title >c12 → n1 {:key 0, :type "read", :msg_id 1}</title></rect><use xlink:href="#ahead" x="500.39984012787215" y="0" /><text text-anchor="middle" x="250.19992006393608" y="-4" transform="" filter="url(#glow)" style="fill: #fff" >read {:key 0}</text><text text-anchor="middle" x="250.19992006393608" y="-4" transform="" >read {:key 0}</text></g><g transform="translate(750.0 570.0) rotate(177.70938995736148) " ><rect x="0" y="-2.5" height="5" width="496.39984012787215" fill="#FF1E90" ><title >n1 → c12 {:msg_id 6, :in_reply_to 1, :type "error", :code 20, :text "Invalid Key"}</title></rect><use xlink:href="#ahead" x="500.39984012787215" y="0" /><text text-anchor="middle" x="250.19992006393608" y="-4" transform="rotate(180 250.19992006393608 0)" filter="url(#glow)" style="fill: #fff" >error Invalid Key</text><text text-anchor="middle" x="250.19992006393608" y="-4" transform="rotate(180 250.19992006393608 0)" >error Invalid Key</text></g><g transform="translate(350.0 610.0) rotate(1.6365770416167182) " ><rect x="0" y="-2.5" height="5" width="696.2856560004639" fill="#81BFFC" ><title >c13 → n4 {:key 1, :from 2, :to 1, :type "cas", :msg_id 1}</title></rect><use xlink:href="#ahead" x="700.2856560004639" y="0" /><text text-anchor="middle" x="350.14282800023193" y="-4" transform="" filter="url(#glow)" style="fill: #fff" >cas {:key 1, :from 2, :to 1}</text><text text-anchor="middle" x="350.14282800023193" y="-4" transform="" >cas {:key 1, :from 2, :to 1}</text></g><g transform="translate(1050.0 650.0) rotate(178.3634229583833) " ><rect x="0" y="-2.5" height="5" width="696.2856560004639" fill="#FF1E90" ><title >n4 → c13 {:msg_id 3, :in_reply_to 1, :type "error", :code 11, :text "Not Leader"}</title></rect><use xlink:href="#ahead" x="700.2856560004639" y="0" /><text text-anchor="middle" x="350.14282800023193" y="-4" transform="rotate(180 350.14282800023193 0)" filter="url(#glow)" style="fill: #fff" >error Not Leader</text><text text-anchor="middle" x="350.14282800023193" y="-4" transform="rotate(180 350.14282800023193 0)" >error Not Leader</text></g><g transform="translate(450.0 690.0) rotate(1.9091524329963763) " ><rect x="0" y="-2.5" height="5" width="596.3332407921454" fill="#81BFFC" ><title >c14 → n4 {:key 0, :type "read", :msg_id 1}</title></rect><use xlink:href="#ahead" x="600.3332407921454" y="0" /><text text-anchor="middle" x="300.1666203960727" y="-4" transform="" filter="url(#glow)" style="fill: #fff" >read {:key 0}</text><text text-anchor="middle" x="300.1666203960727" y="-4" transform="" >read {:key 0}</text></g><g transform="translate(1050.0 730.0) rotate(178.0908475670036) " ><rect x="0" y="-2.5" height="5" width="596.3332407921454" fill="#FF1E90" ><title >n4 → c14 {:msg_id 4, :in_reply_to 1, :type "error", :code 11, :text "Not Leader"}</title></rect><use xlink:href="#ahead" x="600.3332407921454" y="0" /><text text-anchor="middle" x="300.1666203960727" y="-4" transform="rotate(180 300.1666203960727 0)" filter="url(#glow)" style="fill: #fff" >error Not Leader</text><text text-anchor="middle" x="300.1666203960727" y="-4" transform="rotate(180 300.1666203960727 0)" >error Not Leader</text></g><g transform="translate(550.0 770.0) rotate(1.9091524329963763) " ><rect x="0" y="-2.5" height="5" width="596.3332407921454" fill="#81BFFC" ><title >c15 → n5 {:key 1, :from 4, :to 1, :type "cas", :msg_id 1}</title></rect><use xlink:href="#ahead" x="600.3332407921454" y="0" /><text text-anchor="middle" x="300.1666203960727" y="-4" transform="" filter="url(#glow)" style="fill: #fff" >cas {:key 1, :from 4, :to 1}</text><text text-anchor="middle" x="300.1666203960727" y="-4" transform="" >cas {:key 1, :from 4, :to 1}</text></g><g transform="translate(1150.0 810.0) rotate(178.0908475670036) " ><rect x="0" y="-2.5" height="5" width="596.3332407921454" fill="#FF1E90" ><title >n5 → c15 {:msg_id 3, :in_reply_to 1, :type "error", :code 11, :text "Not Leader"}</title></rect><use xlink:href="#ahead" x="600.3332407921454" y="0" /><text text-anchor="middle" x="300.1666203960727" y="-4" transform="rotate(180 300.1666203960727 0)" filter="url(#glow)" style="fill: #fff" >error Not Leader</text><text text-anchor="middle" x="300.1666203960727" y="-4" transform="rotate(180 300.1666203960727 0)" >error Not Leader</text></g><g transform="translate(150.0 850.0) rotate(1.4320961841646465) " ><rect x="0" y="-2.5" height="5" width="796.2499609497023" fill="#81BFFC" ><title >c11 → n3 {:key 1, :from 4, :to 1, :type "cas", :msg_id 2}</title></rect><use xlink:href="#ahead" x="800.2499609497023" y="0" /><text text-anchor="middle" x="400.12498047485116" y="-4" transform="" filter="url(#glow)" style="fill: #fff" >cas {:key 1, :from 4, :to 1}</text><text text-anchor="middle" x="400.12498047485116" y="-4" transform="" >cas {:key 1, :from 4, :to 1}</text></g><g transform="translate(950.0 890.0) rotate(178.56790381583536) " ><rect x="0" y="-2.5" height="5" width="796.2499609497023" fill="#FF1E90" ><title >n3 → c11 {:msg_id 4, :in_reply_to 2, :type "error", :code 11, :text "Not Leader"}</title></rect><use xlink:href="#ahead" x="800.2499609497023" y="0" /><text text-anchor="middle" x="400.12498047485116" y="-4" transform="rotate(180 400.12498047485116 0)" filter="url(#glow)" style="fill: #fff" >error Not Leader</text><text text-anchor="middle" x="400.12498047485116" y="-4" transform="rotate(180 400.12498047485116 0)" >error Not Leader</text></g><g transform="translate(650.0 930.0) rotate(11.309932474020215) " ><rect x="0" y="-2.5" height="5" width="97.9803902718557" fill="#81BFFC" ><title >c16 → n1 {:key 1, :from 3, :to 1, :type "cas", :msg_id 1}</title></rect><use xlink:href="#ahead" x="101.9803902718557" y="0" /><text text-anchor="middle" x="50.99019513592785" y="-4" transform="" filter="url(#glow)" style="fill: #fff" >cas {:key 1, :from 3, :to 1}</text><text text-anchor="middle" x="50.99019513592785" y="-4" transform="" >cas {:key 1, :from 3, :to 1}</text></g><g transform="translate(550.0 970.0) rotate(1.9091524329963763) " ><rect x="0" y="-2.5" height="5" width="596.3332407921454" fill="#81BFFC" ><title >c15 → n5 {:key 1, :from 4, :to 4, :type "cas", :msg_id 2}</title></rect><use xlink:href="#ahead" x="600.3332407921454" y="0" /><text text-anchor="middle" x="300.1666203960727" y="-4" transform="" filter="url(#glow)" style="fill: #fff" >cas {:key 1, :from 4, :to 4}</text><text text-anchor="middle" x="300.1666203960727" y="-4" transform="" >cas {:key 1, :from 4, :to 4}</text></g><g transform="translate(1150.0 1010.0) rotate(178.0908475670036) " ><rect x="0" y="-2.5" height="5" width="596.3332407921454" fill="#FF1E90" ><title >n5 → c15 {:msg_id 4, :in_reply_to 2, :type "error", :code 11, :text "Not Leader"}</title></rect><use xlink:href="#ahead" x="600.3332407921454" y="0" /><text text-anchor="middle" x="300.1666203960727" y="-4" transform="rotate(180 300.1666203960727 0)" filter="url(#glow)" style="fill: #fff" >error Not Leader</text><text text-anchor="middle" x="300.1666203960727" y="-4" transform="rotate(180 300.1666203960727 0)" >error Not Leader</text></g><g transform="translate(250.0 1050.0) rotate(2.29061004263853) " ><rect x="0" y="-2.5" height="5" width="496.39984012787215" fill="#81BFFC" ><title >c12 → n1 {:key 0, :type "read", :msg_id 2}</title></rect><use xlink:href="#ahead" x="500.39984012787215" y="0" /><text text-anchor="middle" x="250.19992006393608" y="-4" transform="" filter="url(#glow)" style="fill: #fff" >read {:key 0}</text><text text-anchor="middle" x="250.19992006393608" y="-4" transform="" >read {:key 0}</text></g><g transform="translate(750.0 1090.0) rotate(177.70938995736148) " ><rect x="0" y="-2.5" height="5" width="496.39984012787215" fill="#FF1E90" ><title >n1 → c12 {:msg_id 7, :in_reply_to 2, :type "error", :code 20, :text "Invalid Key"}</title></rect><use xlink:href="#ahead" x="500.39984012787215" y="0" /><text text-anchor="middle" x="250.19992006393608" y="-4" transform="rotate(180 250.19992006393608 0)" filter="url(#glow)" style="fill: #fff" >error Invalid Key</text><text text-anchor="middle" x="250.19992006393608" y="-4" transform="rotate(180 250.19992006393608 0)" >error Invalid Key</text></g></g></svg>