<?xml version="1.0" encoding="UTF-8"?><svg xmlns:svg="http://www.w3.org/2000/svg" xmlns="http://www.w3.org/2000/svg" xmlns:xlink="http://www.w3.org/1999/xlink" version="2.0" width="1200" height="2580" ><style >
svg {
  font-family: Helvetica, Arial, sans-serif;
  font-size: 11px;
}
rect {
  stroke-linecap: butt;
  stroke-width: 3;
  stroke: #fff;
/*  stroke-opacity: 1; */
}
rect:hover {
  stroke: #fff;
/*  stroke-opacity: 1; /*
}
polygon { fill: #000; }</style><defs ><polygon id="ahead" points="0 0, -12 4, -12 -4" /><filter id="glow" x="0" y="0" ><feGaussianBlur in="SourceAlpha" stdDeviation="2" result="blurred" /><feFlood flood-color="#fff" /><feComposite operator="in" in2="blurred" /><feComponentTransfer ><feFuncA type="linear" slope="10" intercept="0" /></feComponentTransfer><feMerge ><feMergeNode /><feMergeNode in="SourceGraphic" /></feMerge></filter></defs><g ><text x="30.0" y="20.0" text-anchor="middle" alignment-baseline="middle" fill="#000" >c10</text><text x="30.0" y="1020.0" text-anchor="middle" alignment-baseline="middle" fill="#aaa" >c10</text><text x="30.0" y="2020.0" text-anchor="middle" alignment-baseline="middle" fill="#aaa" >c10</text><text x="90.0" y="20.0" text-anchor="middle" alignment-baseline="middle" fill="#000" >c11</text><text x="90.0" y="1020.0" text-anchor="middle" alignment-baseline="middle" fill="#aaa" >c11</text><text x="90.0" y="2020.0" text-anchor="middle" alignment-baseline="middle" fill="#aaa" >c11</text><text x="150.0" y="20.0" text-anchor="middle" alignment-baseline="middle" fill="#000" >c12</text><text x="150.0" y="1020.0" text-anchor="middle" alignment-baseline="middle" fill="#aaa" >c12</text><text x="150.0" y="2020.0" text-anchor="middle" alignment-baseline="middle" fill="#aaa" >c12</text><text x="210.0" y="20.0" text-anchor="middle" alignment-baseline="middle" fill="#000" >c13</text><text x="210.0" y="1020.0" text-anchor="middle" alignment-baseline="middle" fill="#aaa" >c13</text><text x="210.0" y="2020.0" text-anchor="middle" alignment-baseline="middle" fill="#aaa" >c13</text><text x="270.0" y="20.0" text-anchor="middle" alignment-baseline="middle" fill="#000" >c14</text><text x="270.0" y="1020.0" text-anchor="middle" alignment-baseline="middle" fill="#aaa" >c14</text><text x="270.0" y="2020.0" text-anchor="middle" alignment-baseline="middle" fill="#aaa" >c14</text><text x="330.0" y="20.0" text-anchor="middle" alignment-baseline="middle" fill="#000" >c15</text><text x="330.0" y="1020.0" text-anchor="middle" alignment-baseline="middle" fill="#aaa" >c15</text><text x="330.0" y="2020.0" text-anchor="middle" alignment-baseline="middle" fill="#aaa" >c15</text><text x="390.0" y="20.0" text-anchor="middle" alignment-baseline="middle" fill="#000" >c16</text><text x="390.0" y="1020.0" text-anchor="middle" alignment-baseline="middle" fill="#aaa" >c16</text><text x="390.0" y="2020.0" text-anchor="middle" alignment-baseline="middle" fill="#aaa" >c16</text><text x="450.0" y="20.0" text-anchor="middle" alignment-baseline="middle" fill="#000" >c17</text><text x="450.0" y="1020.0" text-anchor="middle" alignment-baseline="middle" fill="#aaa" >c17</text><text x="450.0" y="2020.0" text-anchor="middle" alignment-baseline="middle" fill="#aaa" >c17</text><text x="510.0" y="20.0" text-anchor="middle" alignment-baseline="middle" fill="#000" >c18</text><text x="510.0" y="1020.0" text-anchor="middle" alignment-baseline="middle" fill="#aaa" >c18</text><text x="510.0" y="2020.0" text-anchor="middle" alignment-baseline="middle" fill="#aaa" >c18</text><text x="570.0" y="20.0" text-anchor="middle" alignment-baseline="middle" fill="#000" >c19</text><text x="570.0" y="1020.0" text-anchor="middle" alignment-baseline="middle" fill="#aaa" >c19</text><text x="570.0" y="2020.0" text-anchor="middle" alignment-baseline="middle" fill="#aaa" >c19</text><text x="630.0" y="20.0" text-anchor="middle" alignment-baseline="middle" fill="#000" >c20</text><text x="630.0" y="1020.0" text-anchor="middle" alignment-baseline="middle" fill="#aaa" >c20</text><text x="630.0" y="2020.0" text-anchor="middle" alignment-baseline="middle" fill="#aaa" >c20</text><text x="690.0" y="20.0" text-anchor="middle" alignment-baseline="middle" fill="#000" >c21</text><text x="690.0" y="1020.0" text-anchor="middle" alignment-baseline="middle" fill="#aaa" >c21</text><text x="690.0" y="2020.0" text-anchor="middle" alignment-baseline="middle" fill="#aaa" >c21</text><text x="750.0" y="20.0" text-anchor="middle" alignment-baseline="middle" fill="#000" >c22</text><text x="750.0" y="1020.0" text-anchor="middle" alignment-baseline="middle" fill="#aaa" >c22</text><text x="750.0" y="2020.0" text-anchor="middle" alignment-baseline="middle" fill="#aaa" >c22</text><text x="810.0" y="20.0" text-anchor="middle" alignment-baseline="middle" fill="#000" >c23</text><text x="810.0" y="1020.0" text-anchor="middle" alignment-baseline="middle" fill="#aaa" >c23</text><text x="810.0" y="2020.0" text-anchor="middle" alignment-baseline="middle" fill="#aaa" >c23</text><text x="870.0" y="20.0" text-anchor="middle" alignment-baseline="middle" fill="#000" >c24</text><text x="870.0" y="1020.0" text-anchor="middle" alignment-baseline="middle" fill="#aaa" >c24</text><text x="870.0" y="2020.0" text-anchor="middle" alignment-baseline="middle" fill="#aaa" >c24</text><text x="930.0" y="20.0" text-anchor="middle" alignment-baseline="middle" fill="#000" >n1</text><text x="930.0" y="1020.0" text-anchor="middle" alignment-baseline="middle" fill="#aaa" >n1</text><text x="930.0" y="2020.0" text-anchor="middle" alignment-baseline="middle" fill="#aaa" >n1</text><text x="990.0" y="20.0" text-anchor="middle" alignment-baseline="middle" fill="#000" >n2</text><text x="990.0" y="1020.0" text-anchor="middle" alignment-baseline="middle" fill="#aaa" >n2</text><text x="990.0" y="2020.0" text-anchor="middle" alignment-baseline="middle" fill="#aaa" >n2</text><text x="1050.0" y="20.0" text-anchor="middle" alignment-baseline="middle" fill="#000" >n3</text><text x="1050.0" y="1020.0" text-anchor="middle" alignment-baseline="middle" fill="#aaa" >n3</text><text x="1050.0" y="2020.0" text-anchor="middle" alignment-baseline="middle" fill="#aaa" >n3</text><text x="1110.0" y="20.0" text-anchor="middle" alignment-baseline="middle" fill="#000" >n4</text><text x="1110.0" y="1020.0" text-anchor="middle" alignment-baseline="middle" fill="#aaa" >n4</text><text x="1110.0" y="2020.0" text-anchor="middle" alignment-baseline="middle" fill="#aaa" >n4</text><text x="1170.0" y="20.0" text-anchor="middle" alignment-baseline="middle" fill="#000" >n5</text><text x="1170.0" y="1020.0" text-anchor="middle" alignment-baseline="middle" fill="#aaa" >n5</text><text x="1170.0" y="2020.0" text-anchor="middle" alignment-baseline="middle" fill="#aaa" >n5</text></g><g ><line stroke="#ccc" x1="30.0" y1="30.0" x2="30.0" y2="2490.0" /><line stroke="#ccc" x1="90.0" y1="30.0" x2="90.0" y2="2490.0" /><line stroke="#ccc" x1="150.0" y1="30.0" x2="150.0" y2="2490.0" /><line stroke="#ccc" x1="210.0" y1="30.0" x2="210.0" y2="2490.0" /><line stroke="#ccc" x1="270.0" y1="30.0" x2="270.0" y2="2490.0" /><line stroke="#ccc" x1="330.0" y1="30.0" x2="330.0" y2="2490.0" /><line stroke="#ccc" x1="390.0" y1="30.0" x2="390.0" y2="2490.0" /><line stroke="#ccc" x1="450.0" y1="30.0" x2="450.0" y2="2490.0" /><line stroke="#ccc" x1="510.0" y1="30.0" x2="510.0" y2="2490.0" /><line stroke="#ccc" x1="570.0" y1="30.0" x2="570.0" y2="2490.0" /><line stroke="#ccc" x1="630.0" y1="30.0" x2="630.0" y2="2490.0" /><line stroke="#ccc" x1="690.0" y1="30.0" x2="690.0" y2="2490.0" /><line stroke="#ccc" x1="750.0" y1="30.0" x2="750.0" y2="2490.0" /><line stroke="#ccc" x1="810.0" y1="30.0" x2="810.0" y2="2490.0" /><line stroke="#ccc" x1="870.0" y1="30.0" x2="870.0" y2="2490.0" /><line stroke="#ccc" x1="930.0" y1="30.0" x2="930.0" y2="2490.0" /><line stroke="#ccc" x1="990.0" y1="30.0" x2="990.0" y2="2490.0" /><line stroke="#ccc" x1="1050.0" y1="30.0" x2="1050.0" y2="2490.0" /><line stroke="#ccc" x1="1110.0" y1="30.0" x2="1110.0" y2="2490.0" /><line stroke="#ccc" x1="1170.0" y1="30.0" x2="1170.0" y2="2490.0" /></g><g ><g transform="translate(930.0 50.0) rotate(18.43494882292201) " ><rect x="0" y="-2.5" height="5" width="59.245553203367585" fill="#000" ><title >n1 → n2 {:msg_id 2, :type "AppendEntries", :term 0, :prevIndex 0, :prevTerm 0, :entries [[["pass" nil] 0]], :commit 0}</title></rect><use xlink:href="#ahead" x="63.245553203367585" y="0" /><text text-anchor="middle" x="31.622776601683793" y="-4" transform="" filter="url(#glow)" style="fill: #fff" >AppendEntries {:term 0, :prevIndex 0, :prevTerm…</text><text text-anchor="middle" x="31.622776601683793" y="-4" transform="" >AppendEntries {:term 0, :prevIndex 0, :prevTerm…</text></g><g transform="translate(930.0 90.0) rotate(9.462322208025618) " ><rect x="0" y="-2.5" height="5" width="117.6552506059644" fill="#000" ><title >n1 → n3 {:msg_id 3, :type "AppendEntries", :term 0, :prevIndex 0, :prevTerm 0, :entries [[["pass" nil] 0]], :commit 0}</title></rect><use xlink:href="#ahead" x="121.6552506059644" y="0" /><text text-anchor="middle" x="60.8276253029822" y="-4" transform="" filter="url(#glow)" style="fill: #fff" >AppendEntries {:term 0, :prevIndex 0, :prevTerm…</text><text text-anchor="middle" x="60.8276253029822" y="-4" transform="" >AppendEntries {:term 0, :prevIndex 0, :prevTerm…</text></g><g transform="translate(930.0 130.0) rotate(6.340191745909909) " ><rect x="0" y="-2.5" height="5" width="177.10770276274835" fill="#000" ><title >n1 → n4 {:msg_id 4, :type "AppendEntries", :term 0, :prevIndex 0, :prevTerm 0, :entries [[["pass" nil] 0]], :commit 0}</title></rect><use xlink:href="#ahead" x="181.10770276274835" y="0" /><text text-anchor="middle" x="90.55385138137417" y="-4" transform="" filter="url(#glow)" style="fill: #fff" >AppendEntries {:term 0, :prevIndex 0, :prevTerm…</text><text text-anchor="middle" x="90.55385138137417" y="-4" transform="" >AppendEntries {:term 0, :prevIndex 0, :prevTerm…</text></g><g transform="translate(930.0 170.0) rotate(9.462322208025618) " ><rect x="0" y="-2.5" height="5" width="239.3105012119288" fill="#000" ><title >n1 → n5 {:msg_id 5, :type "AppendEntries", :term 0, :prevIndex 0, :prevTerm 0, :entries [[["pass" nil] 0]], :commit 0}</title></rect><use xlink:href="#ahead" x="243.3105012119288" y="0" /><text text-anchor="middle" x="121.6552506059644" y="-4" transform="" filter="url(#glow)" style="fill: #fff" >AppendEntries {:term 0, :prevIndex 0, :prevTerm…</text><text text-anchor="middle" x="121.6552506059644" y="-4" transform="" >AppendEntries {:term 0, :prevIndex 0, :prevTerm…</text></g><g transform="translate(990.0 190.0) rotate(146.30993247402023) " ><rect x="0" y="-2.5" height="5" width="68.11102550927978" fill="#000" ><title >n2 → n1 {:msg_id 2, :in_reply_to 2, :type "AppendEntriesRes", :res true, :term 0, :next 1, :commit 0}</title></rect><use xlink:href="#ahead" x="72.11102550927978" y="0" /><text text-anchor="middle" x="36.05551275463989" y="-4" transform="rotate(180 36.05551275463989 0)" filter="url(#glow)" style="fill: #fff" >AppendEntriesRes {:res true, :term 0, :next 1, …</text><text text-anchor="middle" x="36.05551275463989" y="-4" transform="rotate(180 36.05551275463989 0)" >AppendEntriesRes {:res true, :term 0, :next 1, …</text></g><g transform="translate(1110.0 250.0) rotate(173.6598082540901) " ><rect x="0" y="-2.5" height="5" width="177.10770276274835" fill="#000" ><title >n4 → n1 {:msg_id 2, :in_reply_to 4, :type "AppendEntriesRes", :res true, :term 0, :next 1, :commit 0}</title></rect><use xlink:href="#ahead" x="181.10770276274835" y="0" /><text text-anchor="middle" x="90.55385138137417" y="-4" transform="rotate(180 90.55385138137417 0)" filter="url(#glow)" style="fill: #fff" >AppendEntriesRes {:res true, :term 0, :next 1, …</text><text text-anchor="middle" x="90.55385138137417" y="-4" transform="rotate(180 90.55385138137417 0)" >AppendEntriesRes {:res true, :term 0, :next 1, …</text></g><g transform="translate(1170.0 290.0) rotate(170.53767779197437) " ><rect x="0" y="-2.5" height="5" width="239.3105012119288" fill="#000" ><title >n5 → n1 {:msg_id 2, :in_reply_to 5, :type "AppendEntriesRes", :res true, :term 0, :next 1, :commit 0}</title></rect><use xlink:href="#ahead" x="243.3105012119288" y="0" /><text text-anchor="middle" x="121.6552506059644" y="-4" transform="rotate(180 121.6552506059644 0)" filter="url(#glow)" style="fill: #fff" >AppendEntriesRes {:res true, :term 0, :next 1, …</text><text text-anchor="middle" x="121.6552506059644" y="-4" transform="rotate(180 121.6552506059644 0)" >AppendEntriesRes {:res true, :term 0, :next 1, …</text></g><g transform="translate(1050.0 310.0) rotate(161.56505117707798) " ><rect x="0" y="-2.5" height="5" width="122.49110640673517" fill="#000" ><title >n3 → n1 {:msg_id 2, :in_reply_to 3, :type "AppendEntriesRes", :res true, :term 0, :next 1, :commit 0}</title></rect><use xlink:href="#ahead" x="126.49110640673517" y="0" /><text text-anchor="middle" x="63.245553203367585" y="-4" transform="rotate(180 63.245553203367585 0)" filter="url(#glow)" style="fill: #fff" >AppendEntriesRes {:res true, :term 0, :next 1, …</text><text text-anchor="middle" x="63.245553203367585" y="-4" transform="rotate(180 63.245553203367585 0)" >AppendEntriesRes {:res true, :term 0, :next 1, …</text></g><g transform="translate(930.0 370.0) rotate(6.340191745909909) " ><rect x="0" y="-2.5" height="5" width="177.10770276274835" fill="#FF1E90" ><title >n1 → n4 {:msg_id 6, :in_reply_to 2, :type "error", :code 11, :text "Not Leader"}</title></rect><use xlink:href="#ahead" x="181.10770276274835" y="0" /><text text-anchor="middle" x="90.55385138137417" y="-4" transform="" filter="url(#glow)" style="fill: #fff" >error Not Leader</text><text text-anchor="middle" x="90.55385138137417" y="-4" transform="" >error Not Leader</text></g><g transform="translate(930.0 410.0) rotate(4.763641690726177) " ><rect x="0" y="-2.5" height="5" width="236.8318915758459" fill="#FF1E90" ><title >n1 → n5 {:msg_id 7, :in_reply_to 2, :type "error", :code 11, :text "Not Leader"}</title></rect><use xlink:href="#ahead" x="240.8318915758459" y="0" /><text text-anchor="middle" x="120.41594578792295" y="-4" transform="" filter="url(#glow)" style="fill: #fff" >error Not Leader</text><text text-anchor="middle" x="120.41594578792295" y="-4" transform="" >error Not Leader</text></g><g transform="translate(930.0 450.0) rotate(9.462322208025618) " ><rect x="0" y="-2.5" height="5" width="117.6552506059644" fill="#FF1E90" ><title >n1 → n3 {:msg_id 8, :in_reply_to 2, :type "error", :code 11, :text "Not Leader"}</title></rect><use xlink:href="#ahead" x="121.6552506059644" y="0" /><text text-anchor="middle" x="60.8276253029822" y="-4" transform="" filter="url(#glow)" style="fill: #fff" >error Not Leader</text><text text-anchor="middle" x="60.8276253029822" y="-4" transform="" >error Not Leader</text></g><g transform="translate(30.0 490.0) rotate(1.123302714075429) " ><rect x="0" y="-2.5" height="5" width="1016.1960595885479" fill="#81BFFC" ><title >c10 → n3 {:key 0, :from 4, :to 3, :type "cas", :msg_id 1}</title></rect><use xlink:href="#ahead" x="1020.1960595885479" y="0" /><text text-anchor="middle" x="510.09802979427394" y="-4" transform="" filter="url(#glow)" style="fill: #fff" >cas {:key 0, :from 4, :to 3}</text><text text-anchor="middle" x="510.09802979427394" y="-4" transform="" >cas {:key 0, :from 4, :to 3}</text></g><g transform="translate(1050.0 530.0) rotate(178.87669728592456) " ><rect x="0" y="-2.5" height="5" width="1016.1960595885479" fill="#FF1E90" ><title >n3 → c10 {:msg_id 3, :in_reply_to 1, :type "error", :code 11, :text "Not Leader"}</title></rect><use xlink:href="#ahead" x="1020.1960595885479" y="0" /><text text-anchor="middle" x="510.09802979427394" y="-4" transform="rotate(180 510.09802979427394 0)" filter="url(#glow)" style="fill: #fff" >error Not Leader</text><text text-anchor="middle" x="510.09802979427394" y="-4" transform="rotate(180 510.09802979427394 0)" >error Not Leader</text></g><g transform="translate(90.0 570.0) rotate(1.0609116902642277) " ><rect x="0" y="-2.5" height="5" width="1076.1851693112621" fill="#81BFFC" ><title >c11 → n5 {:key 0, :type "read", :msg_id 1}</title></rect><use xlink:href="#ahead" x="1080.1851693112621" y="0" /><text text-anchor="middle" x="540.0925846556311" y="-4" transform="" filter="url(#glow)" style="fill: #fff" >read {:key 0}</text><text text-anchor="middle" x="540.0925846556311" y="-4" transform="" >read {:key 0}</text></g><g transform="translate(1170.0 610.0) rotate(178.93908830973578) " ><rect x="0" y="-2.5" height="5" width="1076.1851693112621" fill="#FF1E90" ><title >n5 → c11 {:msg_id 3, :in_reply_to 1, :type "error", :code 11, :text "Not Leader"}</title></rect><use xlink:href="#ahead" x="1080.1851693112621" y="0" /><text text-anchor="middle" x="540.0925846556311" y="-4" transform="rotate(180 540.0925846556311 0)" filter="url(#glow)" style="fill: #fff" >error Not Leader</text><text text-anchor="middle" x="540.0925846556311" y="-4" transform="rotate(180 540.0925846556311 0)" >error Not Leader</text></g><g transform="translate(150.0 650.0) rotate(1.2730300200567113) " ><rect x="0" y="-2.5" height="5" width="896.222194794152" fill="#81BFFC" ><title >c12 → n3 {:key 1, :value 0, :type "write", :msg_id 1}</title></rect><use xlink:href="#ahead" x="900.222194794152" y="0" /><text text-anchor="middle" x="450.111097397076" y="-4" transform="" filter="url(#glow)" style="fill: #fff" >write {:key 1, :value 0}</text><text text-anchor="middle" x="450.111097397076" y="-4" transform="" >write {:key 1, :value 0}</text></g><g transform="translate(1050.0 690.0) rotate(178.7269699799433) " ><rect x="0" y="-2.5" height="5" width="896.222194794152" fill="#FF1E90" ><title >n3 → c12 {:msg_id 4, :in_reply_to 1, :type "error", :code 11, :text "Not Leader"}</title></rect><use xlink:href="#ahead" x="900.222194794152" y="0" /><text text-anchor="middle" x="450.111097397076" y="-4" transform="rotate(180 450.111097397076 0)" filter="url(#glow)" style="fill: #fff" >error Not Leader</text><text text-anchor="middle" x="450.111097397076" y="-4" transform="rotate(180 450.111097397076 0)" >error Not Leader</text></g><g transform="translate(90.0 730.0) rotate(1.0609116902642277) " ><rect x="0" y="-2.5" height="5" width="1076.1851693112621" fill="#81BFFC" ><title >c11 → n5 {:key 0, :type "read", :msg_id 2}</title></rect><use xlink:href="#ahead" x="1080.1851693112621" y="0" /><text text-anchor="middle" x="540.0925846556311" y="-4" transform="" filter="url(#glow)" style="fill: #fff" >read {:key 0}</text><text text-anchor="middle" x="540.0925846556311" y="-4" transform="" >read {:key 0}</text></g><g transform="translate(1170.0 770.0) rotate(178.93908830973578) " ><rect x="0" y="-2.5" height="5" width="1076.1851693112621" fill="#FF1E90" ><title >n5 → c11 {:msg_id 4, :in_reply_to 2, :type "error", :code 11, :text "Not Leader"}</title></rect><use xlink:href="#ahead" x="1080.1851693112621" y="0" /><text text-anchor="middle" x="540.0925846556311" y="-4" transform="rotate(180 540.0925846556311 0)" filter="url(#glow)" style="fill: #fff" >error Not Leader</text><text text-anchor="middle" x="540.0925846556311" y="-4" transform="rotate(180 540.0925846556311 0)" >error Not Leader</text></g><g transform="translate(210.0 810.0) rotate(1.2730300200567113) " ><rect x="0" y="-2.5" height="5" width="896.222194794152" fill="#81BFFC" ><title >c13 → n4 {:key 1, :from 0, :to 3, :type "cas", :msg_id 1}</title></rect><use xlink:href="#ahead" x="900.222194794152" y="0" /><text text-anchor="middle" x="450.111097397076" y="-4" transform="" filter="url(#glow)" style="fill: #fff" >cas {:key 1, :from 0, :to 3}</text><text text-anchor="middle" x="450.111097397076" y="-4" transform="" >cas {:key 1, :from 0, :to 3}</text></g><g transform="translate(1110.0 850.0) rotate(178.7269699799433) " ><rect x="0" y="-2.5" height="5" width="896.222194794152" fill="#FF1E90" ><title >n4 → c13 {:msg_id 3, :in_reply_to 1, :type "error", :code 11, :text "Not Leader"}</title></rect><use xlink:href="#ahead" x="900.222194794152" y="0" /><text text-anchor="middle" x="450.111097397076" y="-4" transform="rotate(180 450.111097397076 0)" filter="url(#glow)" style="fill: #fff" >error Not Leader</text><text text-anchor="middle" x="450.111097397076" y="-4" transform="rotate(180 450.111097397076 0)" >error Not Leader</text></g><g transform="translate(270.0 890.0) rotate(1.4688007143858246) " ><rect x="0" y="-2.5" height="5" width="776.2563681252464" fill="#81BFFC" ><title >c14 → n3 {:key 1, :from 1, :to 1, :type "cas", :msg_id 1}</title></rect><use xlink:href="#ahead" x="780.2563681252464" y="0" /><text text-anchor="middle" x="390.1281840626232" y="-4" transform="" filter="url(#glow)" style="fill: #fff" >cas {:key 1, :from 1, :to 1}</text><text text-anchor="middle" x="390.1281840626232" y="-4" transform="" >cas {:key 1, :from 1, :to 1}</text></g><g transform="translate(1050.0 930.0) rotate(178.5311992856142) " ><rect x="0" y="-2.5" height="5" width="776.2563681252464" fill="#FF1E90" ><title >n3 → c14 {:msg_id 5, :in_reply_to 1, :type "error", :code 11, :text "Not Leader"}</title></rect><use xlink:href="#ahead" x="780.2563681252464" y="0" /><text text-anchor="middle" x="390.1281840626232" y="-4" transform="rotate(180 390.1281840626232 0)" filter="url(#glow)" style="fill: #fff" >error Not Leader</text><text text-anchor="middle" x="390.1281840626232" y="-4" transform="rotate(180 390.1281840626232 0)" >error Not Leader</text></g><g transform="translate(330.0 970.0) rotate(1.7357045889283889) " ><rect x="0" y="-2.5" height="5" width="656.3029607687671" fill="#81BFFC" ><title >c15 → n2 {:key 0, :type "read", :msg_id 1}</title></rect><use xlink:href="#ahead" x="660.3029607687671" y="0" /><text text-anchor="middle" x="330.15148038438355" y="-4" transform="" filter="url(#glow)" style="fill: #fff" >read {:key 0}</text><text text-anchor="middle" x="330.15148038438355" y="-4" transform="" >read {:key 0}</text></g><g transform="translate(990.0 1010.0) rotate(178.26429541107163) " ><rect x="0" y="-2.5" height="5" width="656.3029607687671" fill="#FF1E90" ><title >n2 → c15 {:msg_id 3, :in_reply_to 1, :type "error", :code 11, :text "Not Leader"}</title></rect><use xlink:href="#ahead" x="660.3029607687671" y="0" /><text text-anchor="middle" x="330.15148038438355" y="-4" transform="rotate(180 330.15148038438355 0)" filter="url(#glow)" style="fill: #fff" >error Not Leader</text><text text-anchor="middle" x="330.15148038438355" y="-4" transform="rotate(180 330.15148038438355 0)" >error Not Leader</text></g><g transform="translate(330.0 1050.0) rotate(1.7357045889283889) " ><rect x="0" y="-2.5" height="5" width="656.3029607687671" fill="#81BFFC" ><title >c15 → n2 {:key 0, :type "read", :msg_id 2}</title></rect><use xlink:href="#ahead" x="660.3029607687671" y="0" /><text text-anchor="middle" x="330.15148038438355" y="-4" transform="" filter="url(#glow)" style="fill: #fff" >read {:key 0}</text><text text-anchor="middle" x="330.15148038438355" y="-4" transform="" >read {:key 0}</text></g><g transform="translate(990.0 1090.0) rotate(178.26429541107163) " ><rect x="0" y="-2.5" height="5" width="656.3029607687671" fill="#FF1E90" ><title >n2 → c15 {:msg_id 4, :in_reply_to 2, :type "error", :code 11, :text "Not Leader"}</title></rect><use xlink:href="#ahead" x="660.3029607687671" y="0" /><text text-anchor="middle" x="330.15148038438355" y="-4" transform="rotate(180 330.15148038438355 0)" filter="url(#glow)" style="fill: #fff" >error Not Leader</text><text text-anchor="middle" x="330.15148038438355" y="-4" transform="rotate(180 330.15148038438355 0)" >error Not Leader</text></g><g transform="translate(390.0 1130.0) rotate(1.7357045889283889) " ><rect x="0" y="-2.5" height="5" width="656.3029607687671" fill="#81BFFC" ><title >c16 → n3 {:key 0, :type "read", :msg_id 1}</title></rect><use xlink:href="#ahead" x="660.3029607687671" y="0" /><text text-anchor="middle" x="330.15148038438355" y="-4" transform="" filter="url(#glow)" style="fill: #fff" >read {:key 0}</text><text text-anchor="middle" x="330.15148038438355" y="-4" transform="" >read {:key 0}</text></g><g transform="translate(1050.0 1170.0) rotate(178.26429541107163) " ><rect x="0" y="-2.5" height="5" width="656.3029607687671" fill="#FF1E90" ><title >n3 → c16 {:msg_id 6, :in_reply_to 1, :type "error", :code 11, :text "Not Leader"}</title></rect><use xlink:href="#ahead" x="660.3029607687671" y="0" /><text text-anchor="middle" x="330.15148038438355" y="-4" transform="rotate(180 330.15148038438355 0)" filter="url(#glow)" style="fill: #fff" >error Not Leader</text><text text-anchor="middle" x="330.15148038438355" y="-4" transform="rotate(180 330.15148038438355 0)" >error Not Leader</text></g><g transform="translate(450.0 1210.0) rotate(1.5911402711945872) " ><rect x="0" y="-2.5" height="5" width="716.2777242147642" fill="#81BFFC" ><title >c17 → n5 {:key 1, :value 2, :type "write", :msg_id 1}</title></rect><use xlink:href="#ahead" x="720.2777242147642" y="0" /><text text-anchor="middle" x="360.1388621073821" y="-4" transform="" filter="url(#glow)" style="fill: #fff" >write {:key 1, :value 2}</text><text text-anchor="middle" x="360.1388621073821" y="-4" transform="" >write {:key 1, :value 2}</text></g><g transform="translate(1170.0 1250.0) rotate(178.4088597288054) " ><rect x="0" y="-2.5" height="5" width="716.2777242147642" fill="#FF1E90" ><title >n5 → c17 {:msg_id 5, :in_reply_to 1, :type "error", :code 11, :text "Not Leader"}</title></rect><use xlink:href="#ahead" x="720.2777242147642" y="0" /><text text-anchor="middle" x="360.1388621073821" y="-4" transform="rotate(180 360.1388621073821 0)" filter="url(#glow)" style="fill: #fff" >error Not Leader</text><text text-anchor="middle" x="360.1388621073821" y="-4" transform="rotate(180 360.1388621073821 0)" >error Not Leader</text></g><g transform="translate(390.0 1290.0) rotate(1.7357045889283889) " ><rect x="0" y="-2.5" height="5" width="656.3029607687671" fill="#81BFFC" ><title >c16 → n3 {:key 0, :type "read", :msg_id 2}</title></rect><use xlink:href="#ahead" x="660.3029607687671" y="0" /><text text-anchor="middle" x="330.15148038438355" y="-4" transform="" filter="url(#glow)" style="fill: #fff" >read {:key 0}</text><text text-anchor="middle" x="330.15148038438355" y="-4" transform="" >read {:key 0}</text></g><g transform="translate(1050.0 1330.0) rotate(178.26429541107163) " ><rect x="0" y="-2.5" height="5" width="656.3029607687671" fill="#FF1E90" ><title >n3 → c16 {:msg_id 7, :in_reply_to 2, :type "error", :code 11, :text "Not Leader"}</title></rect><use xlink:href="#ahead" x="660.3029607687671" y="0" /><text text-anchor="middle" x="330.15148038438355" y="-4" transform="rotate(180 330.15148038438355 0)" filter="url(#glow)" style="fill: #fff" >error Not Leader</text><text text-anchor="middle" x="330.15148038438355" y="-4" transform="rotate(180 330.15148038438355 0)" >error Not Leader</text></g><g transform="translate(510.0 1370.0) rotate(2.7263109939062655) " ><rect x="0" y="-2.5" height="5" width="416.47592083257274" fill="#81BFFC" ><title >c18 → n1 {:key 0, :from 1, :to 0, :type "cas", :msg_id 1}</title></rect><use xlink:href="#ahead" x="420.47592083257274" y="0" /><text text-anchor="middle" x="210.23796041628637" y="-4" transform="" filter="url(#glow)" style="fill: #fff" >cas {:key 0, :from 1, :to 0}</text><text text-anchor="middle" x="210.23796041628637" y="-4" transform="" >cas {:key 0, :from 1, :to 0}</text></g><g transform="translate(930.0 1410.0) rotate(177.27368900609375) " ><rect x="0" y="-2.5" height="5" width="416.47592083257274" fill="#FF1E90" ><title >n1 → c18 {:msg_id 9, :in_reply_to 1, :type "error", :code 11, :text "Not Leader"}</title></rect><use xlink:href="#ahead" x="420.47592083257274" y="0" /><text text-anchor="middle" x="210.23796041628637" y="-4" transform="rotate(180 210.23796041628637 0)" filter="url(#glow)" style="fill: #fff" >error Not Leader</text><text text-anchor="middle" x="210.23796041628637" y="-4" transform="rotate(180 210.23796041628637 0)" >error Not Leader</text></g><g transform="translate(570.0 1450.0) rotate(3.179830119864234) " ><rect x="0" y="-2.5" height="5" width="356.5551275463989" fill="#81BFFC" ><title >c19 → n1 {:key 1, :from 4, :to 3, :type "cas", :msg_id 1}</title></rect><use xlink:href="#ahead" x="360.5551275463989" y="0" /><text text-anchor="middle" x="180.27756377319946" y="-4" transform="" filter="url(#glow)" style="fill: #fff" >cas {:key 1, :from 4, :to 3}</text><text text-anchor="middle" x="180.27756377319946" y="-4" transform="" >cas {:key 1, :from 4, :to 3}</text></g><g transform="translate(930.0 1490.0) rotate(176.82016988013578) " ><rect x="0" y="-2.5" height="5" width="356.5551275463989" fill="#FF1E90" ><title >n1 → c19 {:msg_id 10, :in_reply_to 1, :type "error", :code 11, :text "Not Leader"}</title></rect><use xlink:href="#ahead" x="360.5551275463989" y="0" /><text text-anchor="middle" x="180.27756377319946" y="-4" transform="rotate(180 180.27756377319946 0)" filter="url(#glow)" style="fill: #fff" >error Not Leader</text><text text-anchor="middle" x="180.27756377319946" y="-4" transform="rotate(180 180.27756377319946 0)" >error Not Leader</text></g><g transform="translate(630.0 1530.0) rotate(3.8140748342903543) " ><rect x="0" y="-2.5" height="5" width="296.66592756745814" fill="#81BFFC" ><title >c20 → n1 {:key 0, :type "read", :msg_id 1}</title></rect><use xlink:href="#ahead" x="300.66592756745814" y="0" /><text text-anchor="middle" x="150.33296378372907" y="-4" transform="" filter="url(#glow)" style="fill: #fff" >read {:key 0}</text><text text-anchor="middle" x="150.33296378372907" y="-4" transform="" >read {:key 0}</text></g><g transform="translate(930.0 1570.0) rotate(176.18592516570965) " ><rect x="0" y="-2.5" height="5" width="296.66592756745814" fill="#FF1E90" ><title >n1 → c20 {:msg_id 11, :in_reply_to 1, :type "error", :code 11, :text "Not Leader"}</title></rect><use xlink:href="#ahead" x="300.66592756745814" y="0" /><text text-anchor="middle" x="150.33296378372907" y="-4" transform="rotate(180 150.33296378372907 0)" filter="url(#glow)" style="fill: #fff" >error Not Leader</text><text text-anchor="middle" x="150.33296378372907" y="-4" transform="rotate(180 150.33296378372907 0)" >error Not Leader</text></g><g transform="translate(510.0 1610.0) rotate(2.7263109939062655) " ><rect x="0" y="-2.5" height="5" width="416.47592083257274" fill="#81BFFC" ><title >c18 → n1 {:key 0, :from 2, :to 2, :type "cas", :msg_id 2}</title></rect><use xlink:href="#ahead" x="420.47592083257274" y="0" /><text text-anchor="middle" x="210.23796041628637" y="-4" transform="" filter="url(#glow)" style="fill: #fff" >cas {:key 0, :from 2, :to 2}</text><text text-anchor="middle" x="210.23796041628637" y="-4" transform="" >cas {:key 0, :from 2, :to 2}</text></g><g transform="translate(930.0 1650.0) rotate(177.27368900609375) " ><rect x="0" y="-2.5" height="5" width="416.47592083257274" fill="#FF1E90" ><title >n1 → c18 {:msg_id 12, :in_reply_to 2, :type "error", :code 11, :text "Not Leader"}</title></rect><use xlink:href="#ahead" x="420.47592083257274" y="0" /><text text-anchor="middle" x="210.23796041628637" y="-4" transform="rotate(180 210.23796041628637 0)" filter="url(#glow)" style="fill: #fff" >error Not Leader</text><text text-anchor="middle" x="210.23796041628637" y="-4" transform="rotate(180 210.23796041628637 0)" >error Not Leader</text></g><g transform="translate(30.0 1690.0) rotate(1.123302714075429) " ><rect x="0" y="-2.5" height="5" width="1016.1960595885479" fill="#81BFFC" ><title >c10 → n3 {:key 0, :from 3, :to 4, :type "cas", :msg_id 2}</title></rect><use xlink:href="#ahead" x="1020.1960595885479" y="0" /><text text-anchor="middle" x="510.09802979427394" y="-4" transform="" filter="url(#glow)" style="fill: #fff" >cas {:key 0, :from 3, :to 4}</text><text text-anchor="middle" x="510.09802979427394" y="-4" transform="" >cas {:key 0, :from 3, :to 4}</text></g><g transform="translate(1050.0 1730.0) rotate(178.87669728592456) " ><rect x="0" y="-2.5" height="5" width="1016.1960595885479" fill="#FF1E90" ><title >n3 → c10 {:msg_id 8, :in_reply_to 2, :type "error", :code 11, :text "Not Leader"}</title></rect><use xlink:href="#ahead" x="1020.1960595885479" y="0" /><text text-anchor="middle" x="510.09802979427394" y="-4" transform="rotate(180 510.09802979427394 0)" filter="url(#glow)" style="fill: #fff" >error Not Leader</text><text text-anchor="middle" x="510.09802979427394" y="-4" transform="rotate(180 510.09802979427394 0)" >error Not Leader</text></g><g transform="translate(690.0 1770.0) rotate(2.7263109939062655) " ><rect x="0" y="-2.5" height="5" width="416.47592083257274" fill="#81BFFC" ><title >c21 → n4 {:key 0, :type "read", :msg_id 1}</title></rect><use xlink:href="#ahead" x="420.47592083257274" y="0" /><text text-anchor="middle" x="210.23796041628637" y="-4" transform="" filter="url(#glow)" style="fill: #fff" >read {:key 0}</text><text text-anchor="middle" x="210.23796041628637" y="-4" transform="" >read {:key 0}</text></g><g transform="translate(1110.0 1810.0) rotate(177.27368900609375) " ><rect x="0" y="-2.5" height="5" width="416.47592083257274" fill="#FF1E90" ><title >n4 → c21 {:msg_id 4, :in_reply_to 1, :type "error", :code 11, :text "Not Leader"}</title></rect><use xlink:href="#ahead" x="420.47592083257274" y="0" /><text text-anchor="middle" x="210.23796041628637" y="-4" transform="rotate(180 210.23796041628637 0)" filter="url(#glow)" style="fill: #fff" >error Not Leader</text><text text-anchor="middle" x="210.23796041628637" y="-4" transform="rotate(180 210.23796041628637 0)" >error Not Leader</text></g><g transform="translate(210.0 1850.0) rotate(1.2730300200567113) " ><rect x="0" y="-2.5" height="5" width="896.222194794152" fill="#81BFFC" ><title >c13 → n4 {:key 1, :from 2, :to 1, :type "cas", :msg_id 2}</title></rect><use xlink:href="#ahead" x="900.222194794152" y="0" /><text text-anchor="middle" x="450.111097397076" y="-4" transform="" filter="url(#glow)" style="fill: #fff" >cas {:key 1, :from 2, :to 1}</text><text text-anchor="middle" x="450.111097397076" y="-4" transform="" >cas {:key 1, :from 2, :to 1}</text></g><g transform="translate(1110.0 1890.0) rotate(178.7269699799433) " ><rect x="0" y="-2.5" height="5" width="896.222194794152" fill="#FF1E90" ><title >n4 → c13 {:msg_id 5, :in_reply_to 2, :type "error", :code 11, :text "Not Leader"}</title></rect><use xlink:href="#ahead" x="900.222194794152" y="0" /><text text-anchor="middle" x="450.111097397076" y="-4" transform="rotate(180 450.111097397076 0)" filter="url(#glow)" style="fill: #fff" >error Not Leader</text><text text-anchor="middle" x="450.111097397076" y="-4" transform="rotate(180 450.111097397076 0)" >error Not Leader</text></g><g transform="translate(150.0 1930.0) rotate(1.2730300200567113) " ><rect x="0" y="-2.5" height="5" width="896.222194794152" fill="#81BFFC" ><title >c12 → n3 {:key 1, :from 0, :to 3, :type "cas", :msg_id 2}</title></rect><use xlink:href="#ahead" x="900.222194794152" y="0" /><text text-anchor="middle" x="450.111097397076" y="-4" transform="" filter="url(#glow)" style="fill: #fff" >cas {:key 1, :from 0, :to 3}</text><text text-anchor="middle" x="450.111097397076" y="-4" transform="" >cas {:key 1, :from 0, :to 3}</text></g><g transform="translate(1050.0 1970.0) rotate(178.7269699799433) " ><rect x="0" y="-2.5" height="5" width="896.222194794152" fill="#FF1E90" ><title >n3 → c12 {:msg_id 9, :in_reply_to 2, :type "error", :code 11, :text "Not Leader"}</title></rect><use xlink:href="#ahead" x="900.222194794152" y="0" /><text text-anchor="middle" x="450.111097397076" y="-4" transform="rotate(180 450.111097397076 0)" filter="url(#glow)" style="fill: #fff" >error Not Leader</text><text text-anchor="middle" x="450.111097397076" y="-4" transform="rotate(180 450.111097397076 0)" >error Not Leader</text></g><g transform="translate(270.0 2010.0) rotate(1.4688007143858246) " ><rect x="0" y="-2.5" height="5" width="776.2563681252464" fill="#81BFFC" ><title >c14 → n3 {:key 1, :value 1, :type "write", :msg_id 2}</title></rect><use xlink:href="#ahead" x="780.2563681252464" y="0" /><text text-anchor="middle" x="390.1281840626232" y="-4" transform="" filter="url(#glow)" style="fill: #fff" >write {:key 1, :value 1}</text><text text-anchor="middle" x="390.1281840626232" y="-4" transform="" >write {:key 1, :value 1}</text></g><g transform="translate(1050.0 2050.0) rotate(178.5311992856142) " ><rect x="0" y="-2.5" height="5" width="776.2563681252464" fill="#FF1E90" ><title >n3 → c14 {:msg_id 10, :in_reply_to 2, :type "error", :code 11, :text "Not Leader"}</title></rect><use xlink:href="#ahead" x="780.2563681252464" y="0" /><text text-anchor="middle" x="390.1281840626232" y="-4" transform="rotate(180 390.1281840626232 0)" filter="url(#glow)" style="fill: #fff" >error Not Leader</text><text text-anchor="middle" x="390.1281840626232" y="-4" transform="rotate(180 390.1281840626232 0)" >error Not Leader</text></g><g transform="translate(690.0 2090.0) rotate(2.7263109939062655) " ><rect x="0" y="-2.5" height="5" width="416.47592083257274" fill="#81BFFC" ><title >c21 → n4 {:key 0, :type "read", :msg_id 2}</title></rect><use xlink:href="#ahead" x="420.47592083257274" y="0" /><text text-anchor="middle" x="210.23796041628637" y="-4" transform="" filter="url(#glow)" style="fill: #fff" >read {:key 0}</text><text text-anchor="middle" x="210.23796041628637" y="-4" transform="" >read {:key 0}</text></g><g transform="translate(1110.0 2130.0) rotate(177.27368900609375) " ><rect x="0" y="-2.5" height="5" width="416.47592083257274" fill="#FF1E90" ><title >n4 → c21 {:msg_id 6, :in_reply_to 2, :type "error", :code 11, :text "Not Leader"}</title></rect><use xlink:href="#ahead" x="420.47592083257274" y="0" /><text text-anchor="middle" x="210.23796041628637" y="-4" transform="rotate(180 210.23796041628637 0)" filter="url(#glow)" style="fill: #fff" >error Not Leader</text><text text-anchor="middle" x="210.23796041628637" y="-4" transform="rotate(180 210.23796041628637 0)" >error Not Leader</text></g><g transform="translate(750.0 2170.0) rotate(2.7263109939062655) " ><rect x="0" y="-2.5" height="5" width="416.47592083257274" fill="#81BFFC" ><title >c22 → n5 {:key 0, :from 3, :to 0, :type "cas", :msg_id 1}</title></rect><use xlink:href="#ahead" x="420.47592083257274" y="0" /><text text-anchor="middle" x="210.23796041628637" y="-4" transform="" filter="url(#glow)" style="fill: #fff" >cas {:key 0, :from 3, :to 0}</text><text text-anchor="middle" x="210.23796041628637" y="-4" transform="" >cas {:key 0, :from 3, :to 0}</text></g><g transform="translate(1170.0 2210.0) rotate(177.27368900609375) " ><rect x="0" y="-2.5" height="5" width="416.47592083257274" fill="#FF1E90" ><title >n5 → c22 {:msg_id 6, :in_reply_to 1, :type "error", :code 11, :text "Not Leader"}</title></rect><use xlink:href="#ahead" x="420.47592083257274" y="0" /><text text-anchor="middle" x="210.23796041628637" y="-4" transform="rotate(180 210.23796041628637 0)" filter="url(#glow)" style="fill: #fff" >error Not Leader</text><text text-anchor="middle" x="210.23796041628637" y="-4" transform="rotate(180 210.23796041628637 0)" >error Not Leader</text></g><g transform="translate(150.0 2250.0) rotate(1.2730300200567113) " ><rect x="0" y="-2.5" height="5" width="896.222194794152" fill="#81BFFC" ><title >c12 → n3 {:key 1, :from 3, :to 2, :type "cas", :msg_id 3}</title></rect><use xlink:href="#ahead" x="900.222194794152" y="0" /><text text-anchor="middle" x="450.111097397076" y="-4" transform="" filter="url(#glow)" style="fill: #fff" >cas {:key 1, :from 3, :to 2}</text><text text-anchor="middle" x="450.111097397076" y="-4" transform="" >cas {:key 1, :from 3, :to 2}</text></g><g transform="translate(1050.0 2290.0) rotate(178.7269699799433) " ><rect x="0" y="-2.5" height="5" width="896.222194794152" fill="#FF1E90" ><title >n3 → c12 {:msg_id 11, :in_reply_to 3, :type "error", :code 11, :text "Not Leader"}</title></rect><use xlink:href="#ahead" x="900.222194794152" y="0" /><text text-anchor="middle" x="450.111097397076" y="-4" transform="rotate(180 450.111097397076 0)" filter="url(#glow)" style="fill: #fff" >error Not Leader</text><text text-anchor="middle" x="450.111097397076" y="-4" transform="rotate(180 450.111097397076 0)" >error Not Leader</text></g><g transform="translate(810.0 2330.0) rotate(3.8140748342903543) " ><rect x="0" y="-2.5" height="5" width="296.66592756745814" fill="#81BFFC" ><title >c23 → n4 {:key 0, :from 2, :to 2, :type "cas", :msg_id 1}</title></rect><use xlink:href="#ahead" x="300.66592756745814" y="0" /><text text-anchor="middle" x="150.33296378372907" y="-4" transform="" filter="url(#glow)" style="fill: #fff" >cas {:key 0, :from 2, :to 2}</text><text text-anchor="middle" x="150.33296378372907" y="-4" transform="" >cas {:key 0, :from 2, :to 2}</text></g><g transform="translate(1110.0 2370.0) rotate(176.18592516570965) " ><rect x="0" y="-2.5" height="5" width="296.66592756745814" fill="#FF1E90" ><title >n4 → c23 {:msg_id 7, :in_reply_to 1, :type "error", :code 11, :text "Not Leader"}</title></rect><use xlink:href="#ahead" x="300.66592756745814" y="0" /><text text-anchor="middle" x="150.33296378372907" y="-4" transform="rotate(180 150.33296378372907 0)" filter="url(#glow)" style="fill: #fff" >error Not Leader</text><text text-anchor="middle" x="150.33296378372907" y="-4" transform="rotate(180 150.33296378372907 0)" >error Not Leader</text></g><g transform="translate(870.0 2410.0) rotate(18.43494882292201) " ><rect x="0" y="-2.5" height="5" width="59.245553203367585" fill="#81BFFC" ><title >c24 → n1 {:key 1, :from 2, :to 1, :type "cas", :msg_id 1}</title></rect><use xlink:href="#ahead" x="63.245553203367585" y="0" /><text text-anchor="middle" x="31.622776601683793" y="-4" transform="" filter="url(#glow)" style="fill: #fff" >cas {:key 1, :from 2, :to 1}</text><text text-anchor="middle" x="31.622776601683793" y="-4" transform="" >cas {:key 1, :from 2, :to 1}</text></g><g transform="translate(930.0 2450.0) rotate(161.56505117707798) " ><rect x="0" y="-2.5" height="5" width="59.245553203367585" fill="#FF1E90" ><title >n1 → c24 {:msg_id 13, :in_reply_to 1, :type "error", :code 11, :text "Not Leader"}</title></rect><use xlink:href="#ahead" x="63.245553203367585" y="0" /><text text-anchor="middle" x="31.622776601683793" y="-4" transform="rotate(180 31.622776601683793 0)" filter="url(#glow)" style="fill: #fff" >error Not Leader</text><text text-anchor="middle" x="31.622776601683793" y="-4" transform="rotate(180 31.622776601683793 0)" >error Not Leader</text></g></g></svg>