<?xml version="1.0" encoding="UTF-8"?><svg xmlns:svg="http://www.w3.org/2000/svg" xmlns="http://www.w3.org/2000/svg" xmlns:xlink="http://www.w3.org/1999/xlink" version="2.0" width="1200" height="1860" ><style >
svg {
  font-family: Helvetica, Arial, sans-serif;
  font-size: 11px;
}
rect {
  stroke-linecap: butt;
  stroke-width: 3;
  stroke: #fff;
/*  stroke-opacity: 1; */
}
rect:hover {
  stroke: #fff;
/*  stroke-opacity: 1; /*
}
polygon { fill: #000; }</style><defs ><polygon id="ahead" points="0 0, -12 4, -12 -4" /><filter id="glow" x="0" y="0" ><feGaussianBlur in="SourceAlpha" stdDeviation="2" result="blurred" /><feFlood flood-color="#fff" /><feComposite operator="in" in2="blurred" /><feComponentTransfer ><feFuncA type="linear" slope="10" intercept="0" /></feComponentTransfer><feMerge ><feMergeNode /><feMergeNode in="SourceGraphic" /></feMerge></filter></defs><g ><text x="50.0" y="20.0" text-anchor="middle" alignment-baseline="middle" fill="#000" >c10</text><text x="50.0" y="1020.0" text-anchor="middle" alignment-baseline="middle" fill="#aaa" >c10</text><text x="150.0" y="20.0" text-anchor="middle" alignment-baseline="middle" fill="#000" >c11</text><text x="150.0" y="1020.0" text-anchor="middle" alignment-baseline="middle" fill="#aaa" >c11</text><text x="250.0" y="20.0" text-anchor="middle" alignment-baseline="middle" fill="#000" >c12</text><text x="250.0" y="1020.0" text-anchor="middle" alignment-baseline="middle" fill="#aaa" >c12</text><text x="350.0" y="20.0" text-anchor="middle" alignment-baseline="middle" fill="#000" >c13</text><text x="350.0" y="1020.0" text-anchor="middle" alignment-baseline="middle" fill="#aaa" >c13</text><text x="450.0" y="20.0" text-anchor="middle" alignment-baseline="middle" fill="#000" >c14</text><text x="450.0" y="1020.0" text-anchor="middle" alignment-baseline="middle" fill="#aaa" >c14</text><text x="550.0" y="20.0" text-anchor="middle" alignment-baseline="middle" fill="#000" >c15</text><text x="550.0" y="1020.0" text-anchor="middle" alignment-baseline="middle" fill="#aaa" >c15</text><text x="650.0" y="20.0" text-anchor="middle" alignment-baseline="middle" fill="#000" >c16</text><text x="650.0" y="1020.0" text-anchor="middle" alignment-baseline="middle" fill="#aaa" >c16</text><text x="750.0" y="20.0" text-anchor="middle" alignment-baseline="middle" fill="#000" >n1</text><text x="750.0" y="1020.0" text-anchor="middle" alignment-baseline="middle" fill="#aaa" >n1</text><text x="850.0" y="20.0" text-anchor="middle" alignment-baseline="middle" fill="#000" >n2</text><text x="850.0" y="1020.0" text-anchor="middle" alignment-baseline="middle" fill="#aaa" >n2</text><text x="950.0" y="20.0" text-anchor="middle" alignment-baseline="middle" fill="#000" >n3</text><text x="950.0" y="1020.0" text-anchor="middle" alignment-baseline="middle" fill="#aaa" >n3</text><text x="1050.0" y="20.0" text-anchor="middle" alignment-baseline="middle" fill="#000" >n4</text><text x="1050.0" y="1020.0" text-anchor="middle" alignment-baseline="middle" fill="#aaa" >n4</text><text x="1150.0" y="20.0" text-anchor="middle" alignment-baseline="middle" fill="#000" >n5</text><text x="1150.0" y="1020.0" text-anchor="middle" alignment-baseline="middle" fill="#aaa" >n5</text></g><g ><line stroke="#ccc" x1="50.0" y1="30.0" x2="50.0" y2="1770.0" /><line stroke="#ccc" x1="150.0" y1="30.0" x2="150.0" y2="1770.0" /><line stroke="#ccc" x1="250.0" y1="30.0" x2="250.0" y2="1770.0" /><line stroke="#ccc" x1="350.0" y1="30.0" x2="350.0" y2="1770.0" /><line stroke="#ccc" x1="450.0" y1="30.0" x2="450.0" y2="1770.0" /><line stroke="#ccc" x1="550.0" y1="30.0" x2="550.0" y2="1770.0" /><line stroke="#ccc" x1="650.0" y1="30.0" x2="650.0" y2="1770.0" /><line stroke="#ccc" x1="750.0" y1="30.0" x2="750.0" y2="1770.0" /><line stroke="#ccc" x1="850.0" y1="30.0" x2="850.0" y2="1770.0" /><line stroke="#ccc" x1="950.0" y1="30.0" x2="950.0" y2="1770.0" /><line stroke="#ccc" x1="1050.0" y1="30.0" x2="1050.0" y2="1770.0" /><line stroke="#ccc" x1="1150.0" y1="30.0" x2="1150.0" y2="1770.0" /></g><g ><g transform="translate(750.0 70.0) rotate(90.0) " ><rect x="0" y="-2.5" height="5" width="16.0" fill="#000" ><title >n1 → n1 {:msg_id 2, :type "RequestVote", :term 1, :prevLogIndex 2, :lastLogTerm 0, :candidateId "n1"}</title></rect><use xlink:href="#ahead" x="20.0" y="0" /><text text-anchor="middle" x="10.0" y="-4" transform="rotate(180 10.0 0)" filter="url(#glow)" style="fill: #fff" >RequestVote {:term 1, :prevLogIndex 2, :lastLog…</text><text text-anchor="middle" x="10.0" y="-4" transform="rotate(180 10.0 0)" >RequestVote {:term 1, :prevLogIndex 2, :lastLog…</text></g><g transform="translate(850.0 50.0) rotate(141.34019174590992) " ><rect x="0" y="-2.5" height="5" width="124.06248474865697" fill="#000" ><title >n2 → n1 {:msg_id 2, :type "RequestVote", :term 1, :prevLogIndex 2, :lastLogTerm 0, :candidateId "n2"}</title></rect><use xlink:href="#ahead" x="128.06248474865697" y="0" /><text text-anchor="middle" x="64.03124237432849" y="-4" transform="rotate(180 64.03124237432849 0)" filter="url(#glow)" style="fill: #fff" >RequestVote {:term 1, :prevLogIndex 2, :lastLog…</text><text text-anchor="middle" x="64.03124237432849" y="-4" transform="rotate(180 64.03124237432849 0)" >RequestVote {:term 1, :prevLogIndex 2, :lastLog…</text></g><g transform="translate(750.0 110.0) rotate(21.801409486351815) " ><rect x="0" y="-2.5" height="5" width="103.70329614269008" fill="#000" ><title >n1 → n2 {:msg_id 3, :type "RequestVote", :term 1, :prevLogIndex 2, :lastLogTerm 0, :candidateId "n1"}</title></rect><use xlink:href="#ahead" x="107.70329614269008" y="0" /><text text-anchor="middle" x="53.85164807134504" y="-4" transform="" filter="url(#glow)" style="fill: #fff" >RequestVote {:term 1, :prevLogIndex 2, :lastLog…</text><text text-anchor="middle" x="53.85164807134504" y="-4" transform="" >RequestVote {:term 1, :prevLogIndex 2, :lastLog…</text></g><g transform="translate(850.0 210.0) rotate(90.0) " ><rect x="0" y="-2.5" height="5" width="36.0" fill="#000" ><title >n2 → n2 {:msg_id 3, :type "RequestVote", :term 1, :prevLogIndex 2, :lastLogTerm 0, :candidateId "n2"}</title></rect><use xlink:href="#ahead" x="40.0" y="0" /><text text-anchor="middle" x="20.0" y="-4" transform="rotate(180 20.0 0)" filter="url(#glow)" style="fill: #fff" >RequestVote {:term 1, :prevLogIndex 2, :lastLog…</text><text text-anchor="middle" x="20.0" y="-4" transform="rotate(180 20.0 0)" >RequestVote {:term 1, :prevLogIndex 2, :lastLog…</text></g><g transform="translate(750.0 230.0) rotate(5.710593137499643) " ><rect x="0" y="-2.5" height="5" width="397.9950248448356" fill="#000" ><title >n1 → n5 {:msg_id 6, :type "RequestVote", :term 1, :prevLogIndex 2, :lastLogTerm 0, :candidateId "n1"}</title></rect><use xlink:href="#ahead" x="401.9950248448356" y="0" /><text text-anchor="middle" x="200.9975124224178" y="-4" transform="" filter="url(#glow)" style="fill: #fff" >RequestVote {:term 1, :prevLogIndex 2, :lastLog…</text><text text-anchor="middle" x="200.9975124224178" y="-4" transform="" >RequestVote {:term 1, :prevLogIndex 2, :lastLog…</text></g><g transform="translate(750.0 190.0) rotate(21.801409486351815) " ><rect x="0" y="-2.5" height="5" width="319.10988842807024" fill="#000" ><title >n1 → n4 {:msg_id 5, :type "RequestVote", :term 1, :prevLogIndex 2, :lastLogTerm 0, :candidateId "n1"}</title></rect><use xlink:href="#ahead" x="323.10988842807024" y="0" /><text text-anchor="middle" x="161.55494421403512" y="-4" transform="" filter="url(#glow)" style="fill: #fff" >RequestVote {:term 1, :prevLogIndex 2, :lastLog…</text><text text-anchor="middle" x="161.55494421403512" y="-4" transform="" >RequestVote {:term 1, :prevLogIndex 2, :lastLog…</text></g><g transform="translate(750.0 170.0) rotate(38.659808254090095) " ><rect x="0" y="-2.5" height="5" width="252.12496949731394" fill="#000" ><title >n1 → n3 {:msg_id 4, :type "RequestVote", :term 1, :prevLogIndex 2, :lastLogTerm 0, :candidateId "n1"}</title></rect><use xlink:href="#ahead" x="256.12496949731394" y="0" /><text text-anchor="middle" x="128.06248474865697" y="-4" transform="" filter="url(#glow)" style="fill: #fff" >RequestVote {:term 1, :prevLogIndex 2, :lastLog…</text><text text-anchor="middle" x="128.06248474865697" y="-4" transform="" >RequestVote {:term 1, :prevLogIndex 2, :lastLog…</text></g><g transform="translate(850.0 290.0) rotate(38.659808254090095) " ><rect x="0" y="-2.5" height="5" width="124.06248474865697" fill="#000" ><title >n2 → n3 {:msg_id 4, :type "RequestVote", :term 1, :prevLogIndex 2, :lastLogTerm 0, :candidateId "n2"}</title></rect><use xlink:href="#ahead" x="128.06248474865697" y="0" /><text text-anchor="middle" x="64.03124237432849" y="-4" transform="" filter="url(#glow)" style="fill: #fff" >RequestVote {:term 1, :prevLogIndex 2, :lastLog…</text><text text-anchor="middle" x="64.03124237432849" y="-4" transform="" >RequestVote {:term 1, :prevLogIndex 2, :lastLog…</text></g><g transform="translate(850.0 350.0) rotate(11.309932474020215) " ><rect x="0" y="-2.5" height="5" width="199.9607805437114" fill="#000" ><title >n2 → n4 {:msg_id 5, :type "RequestVote", :term 1, :prevLogIndex 2, :lastLogTerm 0, :candidateId "n2"}</title></rect><use xlink:href="#ahead" x="203.9607805437114" y="0" /><text text-anchor="middle" x="101.9803902718557" y="-4" transform="" filter="url(#glow)" style="fill: #fff" >RequestVote {:term 1, :prevLogIndex 2, :lastLog…</text><text text-anchor="middle" x="101.9803902718557" y="-4" transform="" >RequestVote {:term 1, :prevLogIndex 2, :lastLog…</text></g><g transform="translate(850.0 410.0) rotate(3.8140748342903543) " ><rect x="0" y="-2.5" height="5" width="296.66592756745814" fill="#000" ><title >n2 → n5 {:msg_id 6, :type "RequestVote", :term 1, :prevLogIndex 2, :lastLogTerm 0, :candidateId "n2"}</title></rect><use xlink:href="#ahead" x="300.66592756745814" y="0" /><text text-anchor="middle" x="150.33296378372907" y="-4" transform="" filter="url(#glow)" style="fill: #fff" >RequestVote {:term 1, :prevLogIndex 2, :lastLog…</text><text text-anchor="middle" x="150.33296378372907" y="-4" transform="" >RequestVote {:term 1, :prevLogIndex 2, :lastLog…</text></g><g transform="translate(1150.0 450.0) rotate(177.13759477388828) " ><rect x="0" y="-2.5" height="5" width="396.4996878900157" fill="#000" ><title >n5 → n1 {:msg_id 2, :type "RequestVote", :term 1, :prevLogIndex 2, :lastLogTerm 0, :candidateId "n5"}</title></rect><use xlink:href="#ahead" x="400.4996878900157" y="0" /><text text-anchor="middle" x="200.24984394500785" y="-4" transform="rotate(180 200.24984394500785 0)" filter="url(#glow)" style="fill: #fff" >RequestVote {:term 1, :prevLogIndex 2, :lastLog…</text><text text-anchor="middle" x="200.24984394500785" y="-4" transform="rotate(180 200.24984394500785 0)" >RequestVote {:term 1, :prevLogIndex 2, :lastLog…</text></g><g transform="translate(1150.0 490.0) rotate(176.18592516570965) " ><rect x="0" y="-2.5" height="5" width="296.66592756745814" fill="#000" ><title >n5 → n2 {:msg_id 3, :type "RequestVote", :term 1, :prevLogIndex 2, :lastLogTerm 0, :candidateId "n5"}</title></rect><use xlink:href="#ahead" x="300.66592756745814" y="0" /><text text-anchor="middle" x="150.33296378372907" y="-4" transform="rotate(180 150.33296378372907 0)" filter="url(#glow)" style="fill: #fff" >RequestVote {:term 1, :prevLogIndex 2, :lastLog…</text><text text-anchor="middle" x="150.33296378372907" y="-4" transform="rotate(180 150.33296378372907 0)" >RequestVote {:term 1, :prevLogIndex 2, :lastLog…</text></g><g transform="translate(1150.0 530.0) rotate(174.28940686250036) " ><rect x="0" y="-2.5" height="5" width="196.9975124224178" fill="#000" ><title >n5 → n3 {:msg_id 4, :type "RequestVote", :term 1, :prevLogIndex 2, :lastLogTerm 0, :candidateId "n5"}</title></rect><use xlink:href="#ahead" x="200.9975124224178" y="0" /><text text-anchor="middle" x="100.4987562112089" y="-4" transform="rotate(180 100.4987562112089 0)" filter="url(#glow)" style="fill: #fff" >RequestVote {:term 1, :prevLogIndex 2, :lastLog…</text><text text-anchor="middle" x="100.4987562112089" y="-4" transform="rotate(180 100.4987562112089 0)" >RequestVote {:term 1, :prevLogIndex 2, :lastLog…</text></g><g transform="translate(950.0 570.0) rotate(174.28940686250036) " ><rect x="0" y="-2.5" height="5" width="196.9975124224178" fill="#000" ><title >n3 → n1 {:msg_id 2, :type "RequestVote", :term 1, :prevLogIndex 2, :lastLogTerm 0, :candidateId "n3"}</title></rect><use xlink:href="#ahead" x="200.9975124224178" y="0" /><text text-anchor="middle" x="100.4987562112089" y="-4" transform="rotate(180 100.4987562112089 0)" filter="url(#glow)" style="fill: #fff" >RequestVote {:term 1, :prevLogIndex 2, :lastLog…</text><text text-anchor="middle" x="100.4987562112089" y="-4" transform="rotate(180 100.4987562112089 0)" >RequestVote {:term 1, :prevLogIndex 2, :lastLog…</text></g><g transform="translate(950.0 610.0) rotate(168.69006752597983) " ><rect x="0" y="-2.5" height="5" width="97.9803902718557" fill="#000" ><title >n3 → n2 {:msg_id 3, :type "RequestVote", :term 1, :prevLogIndex 2, :lastLogTerm 0, :candidateId "n3"}</title></rect><use xlink:href="#ahead" x="101.9803902718557" y="0" /><text text-anchor="middle" x="50.99019513592785" y="-4" transform="rotate(180 50.99019513592785 0)" filter="url(#glow)" style="fill: #fff" >RequestVote {:term 1, :prevLogIndex 2, :lastLog…</text><text text-anchor="middle" x="50.99019513592785" y="-4" transform="rotate(180 50.99019513592785 0)" >RequestVote {:term 1, :prevLogIndex 2, :lastLog…</text></g><g transform="translate(1150.0 650.0) rotate(168.69006752597983) " ><rect x="0" y="-2.5" height="5" width="97.9803902718557" fill="#000" ><title >n5 → n4 {:msg_id 5, :type "RequestVote", :term 1, :prevLogIndex 2, :lastLogTerm 0, :candidateId "n5"}</title></rect><use xlink:href="#ahead" x="101.9803902718557" y="0" /><text text-anchor="middle" x="50.99019513592785" y="-4" transform="rotate(180 50.99019513592785 0)" filter="url(#glow)" style="fill: #fff" >RequestVote {:term 1, :prevLogIndex 2, :lastLog…</text><text text-anchor="middle" x="50.99019513592785" y="-4" transform="rotate(180 50.99019513592785 0)" >RequestVote {:term 1, :prevLogIndex 2, :lastLog…</text></g><g transform="translate(1150.0 690.0) rotate(90.0) " ><rect x="0" y="-2.5" height="5" width="36.0" fill="#000" ><title >n5 → n5 {:msg_id 6, :type "RequestVote", :term 1, :prevLogIndex 2, :lastLogTerm 0, :candidateId "n5"}</title></rect><use xlink:href="#ahead" x="40.0" y="0" /><text text-anchor="middle" x="20.0" y="-4" transform="rotate(180 20.0 0)" filter="url(#glow)" style="fill: #fff" >RequestVote {:term 1, :prevLogIndex 2, :lastLog…</text><text text-anchor="middle" x="20.0" y="-4" transform="rotate(180 20.0 0)" >RequestVote {:term 1, :prevLogIndex 2, :lastLog…</text></g><g transform="translate(950.0 710.0) rotate(90.0) " ><rect x="0" y="-2.5" height="5" width="36.0" fill="#000" ><title >n3 → n3 {:msg_id 4, :type "RequestVote", :term 1, :prevLogIndex 2, :lastLogTerm 0, :candidateId "n3"}</title></rect><use xlink:href="#ahead" x="40.0" y="0" /><text text-anchor="middle" x="20.0" y="-4" transform="rotate(180 20.0 0)" filter="url(#glow)" style="fill: #fff" >RequestVote {:term 1, :prevLogIndex 2, :lastLog…</text><text text-anchor="middle" x="20.0" y="-4" transform="rotate(180 20.0 0)" >RequestVote {:term 1, :prevLogIndex 2, :lastLog…</text></g><g transform="translate(950.0 770.0) rotate(11.309932474020215) " ><rect x="0" y="-2.5" height="5" width="97.9803902718557" fill="#000" ><title >n3 → n4 {:msg_id 5, :type "RequestVote", :term 1, :prevLogIndex 2, :lastLogTerm 0, :candidateId "n3"}</title></rect><use xlink:href="#ahead" x="101.9803902718557" y="0" /><text text-anchor="middle" x="50.99019513592785" y="-4" transform="" filter="url(#glow)" style="fill: #fff" >RequestVote {:term 1, :prevLogIndex 2, :lastLog…</text><text text-anchor="middle" x="50.99019513592785" y="-4" transform="" >RequestVote {:term 1, :prevLogIndex 2, :lastLog…</text></g><g transform="translate(950.0 810.0) rotate(5.710593137499643) " ><rect x="0" y="-2.5" height="5" width="196.9975124224178" fill="#000" ><title >n3 → n5 {:msg_id 6, :type "RequestVote", :term 1, :prevLogIndex 2, :lastLogTerm 0, :candidateId "n3"}</title></rect><use xlink:href="#ahead" x="200.9975124224178" y="0" /><text text-anchor="middle" x="100.4987562112089" y="-4" transform="" filter="url(#glow)" style="fill: #fff" >RequestVote {:term 1, :prevLogIndex 2, :lastLog…</text><text text-anchor="middle" x="100.4987562112089" y="-4" transform="" >RequestVote {:term 1, :prevLogIndex 2, :lastLog…</text></g><g transform="translate(1050.0 850.0) rotate(176.18592516570965) " ><rect x="0" y="-2.5" height="5" width="296.66592756745814" fill="#000" ><title >n4 → n1 {:msg_id 2, :type "RequestVote", :term 1, :prevLogIndex 2, :lastLogTerm 0, :candidateId "n4"}</title></rect><use xlink:href="#ahead" x="300.66592756745814" y="0" /><text text-anchor="middle" x="150.33296378372907" y="-4" transform="rotate(180 150.33296378372907 0)" filter="url(#glow)" style="fill: #fff" >RequestVote {:term 1, :prevLogIndex 2, :lastLog…</text><text text-anchor="middle" x="150.33296378372907" y="-4" transform="rotate(180 150.33296378372907 0)" >RequestVote {:term 1, :prevLogIndex 2, :lastLog…</text></g><g transform="translate(1050.0 890.0) rotate(174.28940686250036) " ><rect x="0" y="-2.5" height="5" width="196.9975124224178" fill="#000" ><title >n4 → n2 {:msg_id 3, :type "RequestVote", :term 1, :prevLogIndex 2, :lastLogTerm 0, :candidateId "n4"}</title></rect><use xlink:href="#ahead" x="200.9975124224178" y="0" /><text text-anchor="middle" x="100.4987562112089" y="-4" transform="rotate(180 100.4987562112089 0)" filter="url(#glow)" style="fill: #fff" >RequestVote {:term 1, :prevLogIndex 2, :lastLog…</text><text text-anchor="middle" x="100.4987562112089" y="-4" transform="rotate(180 100.4987562112089 0)" >RequestVote {:term 1, :prevLogIndex 2, :lastLog…</text></g><g transform="translate(1050.0 950.0) rotate(90.0) " ><rect x="0" y="-2.5" height="5" width="16.0" fill="#000" ><title >n4 → n4 {:msg_id 5, :type "RequestVote", :term 1, :prevLogIndex 2, :lastLogTerm 0, :candidateId "n4"}</title></rect><use xlink:href="#ahead" x="20.0" y="0" /><text text-anchor="middle" x="10.0" y="-4" transform="rotate(180 10.0 0)" filter="url(#glow)" style="fill: #fff" >RequestVote {:term 1, :prevLogIndex 2, :lastLog…</text><text text-anchor="middle" x="10.0" y="-4" transform="rotate(180 10.0 0)" >RequestVote {:term 1, :prevLogIndex 2, :lastLog…</text></g><g transform="translate(1050.0 990.0) rotate(11.309932474020215) " ><rect x="0" y="-2.5" height="5" width="97.9803902718557" fill="#000" ><title >n4 → n5 {:msg_id 6, :type "RequestVote", :term 1, :prevLogIndex 2, :lastLogTerm 0, :candidateId "n4"}</title></rect><use xlink:href="#ahead" x="101.9803902718557" y="0" /><text text-anchor="middle" x="50.99019513592785" y="-4" transform="" filter="url(#glow)" style="fill: #fff" >RequestVote {:term 1, :prevLogIndex 2, :lastLog…</text><text text-anchor="middle" x="50.99019513592785" y="-4" transform="" >RequestVote {:term 1, :prevLogIndex 2, :lastLog…</text></g><g transform="translate(1050.0 930.0) rotate(135.0) " ><rect x="0" y="-2.5" height="5" width="137.4213562373095" fill="#000" ><title >n4 → n3 {:msg_id 4, :type "RequestVote", :term 1, :prevLogIndex 2, :lastLogTerm 0, :candidateId "n4"}</title></rect><use xlink:href="#ahead" x="141.4213562373095" y="0" /><text text-anchor="middle" x="70.71067811865476" y="-4" transform="rotate(180 70.71067811865476 0)" filter="url(#glow)" style="fill: #fff" >RequestVote {:term 1, :prevLogIndex 2, :lastLog…</text><text text-anchor="middle" x="70.71067811865476" y="-4" transform="rotate(180 70.71067811865476 0)" >RequestVote {:term 1, :prevLogIndex 2, :lastLog…</text></g><g transform="translate(50.0 1050.0) rotate(1.4320961841646465) " ><rect x="0" y="-2.5" height="5" width="796.2499609497023" fill="#81BFFC" ><title >c10 → n2 {:key 1, :from 1, :to 1, :type "cas", :msg_id 1}</title></rect><use xlink:href="#ahead" x="800.2499609497023" y="0" /><text text-anchor="middle" x="400.12498047485116" y="-4" transform="" filter="url(#glow)" style="fill: #fff" >cas {:key 1, :from 1, :to 1}</text><text text-anchor="middle" x="400.12498047485116" y="-4" transform="" >cas {:key 1, :from 1, :to 1}</text></g><g transform="translate(850.0 1090.0) rotate(178.56790381583536) " ><rect x="0" y="-2.5" height="5" width="796.2499609497023" fill="#FF1E90" ><title >n2 → c10 {:msg_id 7, :in_reply_to 1, :type "error", :code 11}</title></rect><use xlink:href="#ahead" x="800.2499609497023" y="0" /><text text-anchor="middle" x="400.12498047485116" y="-4" transform="rotate(180 400.12498047485116 0)" filter="url(#glow)" style="fill: #fff" >error </text><text text-anchor="middle" x="400.12498047485116" y="-4" transform="rotate(180 400.12498047485116 0)" >error </text></g><g transform="translate(150.0 1130.0) rotate(1.9091524329963763) " ><rect x="0" y="-2.5" height="5" width="596.3332407921454" fill="#81BFFC" ><title >c11 → n1 {:key 1, :value 3, :type "write", :msg_id 1}</title></rect><use xlink:href="#ahead" x="600.3332407921454" y="0" /><text text-anchor="middle" x="300.1666203960727" y="-4" transform="" filter="url(#glow)" style="fill: #fff" >write {:key 1, :value 3}</text><text text-anchor="middle" x="300.1666203960727" y="-4" transform="" >write {:key 1, :value 3}</text></g><g transform="translate(750.0 1170.0) rotate(178.0908475670036) " ><rect x="0" y="-2.5" height="5" width="596.3332407921454" fill="#FF1E90" ><title >n1 → c11 {:msg_id 7, :in_reply_to 1, :type "error", :code 11}</title></rect><use xlink:href="#ahead" x="600.3332407921454" y="0" /><text text-anchor="middle" x="300.1666203960727" y="-4" transform="rotate(180 300.1666203960727 0)" filter="url(#glow)" style="fill: #fff" >error </text><text text-anchor="middle" x="300.1666203960727" y="-4" transform="rotate(180 300.1666203960727 0)" >error </text></g><g transform="translate(250.0 1210.0) rotate(1.2730300200567113) " ><rect x="0" y="-2.5" height="5" width="896.222194794152" fill="#81BFFC" ><title >c12 → n5 {:key 0, :from 3, :to 4, :type "cas", :msg_id 1}</title></rect><use xlink:href="#ahead" x="900.222194794152" y="0" /><text text-anchor="middle" x="450.111097397076" y="-4" transform="" filter="url(#glow)" style="fill: #fff" >cas {:key 0, :from 3, :to 4}</text><text text-anchor="middle" x="450.111097397076" y="-4" transform="" >cas {:key 0, :from 3, :to 4}</text></g><g transform="translate(1150.0 1250.0) rotate(178.7269699799433) " ><rect x="0" y="-2.5" height="5" width="896.222194794152" fill="#FF1E90" ><title >n5 → c12 {:msg_id 7, :in_reply_to 1, :type "error", :code 11}</title></rect><use xlink:href="#ahead" x="900.222194794152" y="0" /><text text-anchor="middle" x="450.111097397076" y="-4" transform="rotate(180 450.111097397076 0)" filter="url(#glow)" style="fill: #fff" >error </text><text text-anchor="middle" x="450.111097397076" y="-4" transform="rotate(180 450.111097397076 0)" >error </text></g><g transform="translate(350.0 1290.0) rotate(1.9091524329963763) " ><rect x="0" y="-2.5" height="5" width="596.3332407921454" fill="#81BFFC" ><title >c13 → n3 {:key 0, :from 4, :to 1, :type "cas", :msg_id 1}</title></rect><use xlink:href="#ahead" x="600.3332407921454" y="0" /><text text-anchor="middle" x="300.1666203960727" y="-4" transform="" filter="url(#glow)" style="fill: #fff" >cas {:key 0, :from 4, :to 1}</text><text text-anchor="middle" x="300.1666203960727" y="-4" transform="" >cas {:key 0, :from 4, :to 1}</text></g><g transform="translate(950.0 1330.0) rotate(178.0908475670036) " ><rect x="0" y="-2.5" height="5" width="596.3332407921454" fill="#FF1E90" ><title >n3 → c13 {:msg_id 7, :in_reply_to 1, :type "error", :code 11}</title></rect><use xlink:href="#ahead" x="600.3332407921454" y="0" /><text text-anchor="middle" x="300.1666203960727" y="-4" transform="rotate(180 300.1666203960727 0)" filter="url(#glow)" style="fill: #fff" >error </text><text text-anchor="middle" x="300.1666203960727" y="-4" transform="rotate(180 300.1666203960727 0)" >error </text></g><g transform="translate(450.0 1370.0) rotate(2.29061004263853) " ><rect x="0" y="-2.5" height="5" width="496.39984012787215" fill="#81BFFC" ><title >c14 → n3 {:key 0, :type "read", :msg_id 1}</title></rect><use xlink:href="#ahead" x="500.39984012787215" y="0" /><text text-anchor="middle" x="250.19992006393608" y="-4" transform="" filter="url(#glow)" style="fill: #fff" >read {:key 0}</text><text text-anchor="middle" x="250.19992006393608" y="-4" transform="" >read {:key 0}</text></g><g transform="translate(950.0 1410.0) rotate(177.70938995736148) " ><rect x="0" y="-2.5" height="5" width="496.39984012787215" fill="#FF1E90" ><title >n3 → c14 {:msg_id 8, :in_reply_to 1, :type "error", :code 11}</title></rect><use xlink:href="#ahead" x="500.39984012787215" y="0" /><text text-anchor="middle" x="250.19992006393608" y="-4" transform="rotate(180 250.19992006393608 0)" filter="url(#glow)" style="fill: #fff" >error </text><text text-anchor="middle" x="250.19992006393608" y="-4" transform="rotate(180 250.19992006393608 0)" >error </text></g><g transform="translate(250.0 1450.0) rotate(1.2730300200567113) " ><rect x="0" y="-2.5" height="5" width="896.222194794152" fill="#81BFFC" ><title >c12 → n5 {:key 0, :from 2, :to 4, :type "cas", :msg_id 2}</title></rect><use xlink:href="#ahead" x="900.222194794152" y="0" /><text text-anchor="middle" x="450.111097397076" y="-4" transform="" filter="url(#glow)" style="fill: #fff" >cas {:key 0, :from 2, :to 4}</text><text text-anchor="middle" x="450.111097397076" y="-4" transform="" >cas {:key 0, :from 2, :to 4}</text></g><g transform="translate(1150.0 1490.0) rotate(178.7269699799433) " ><rect x="0" y="-2.5" height="5" width="896.222194794152" fill="#FF1E90" ><title >n5 → c12 {:msg_id 8, :in_reply_to 2, :type "error", :code 11}</title></rect><use xlink:href="#ahead" x="900.222194794152" y="0" /><text text-anchor="middle" x="450.111097397076" y="-4" transform="rotate(180 450.111097397076 0)" filter="url(#glow)" style="fill: #fff" >error </text><text text-anchor="middle" x="450.111097397076" y="-4" transform="rotate(180 450.111097397076 0)" >error </text></g><g transform="translate(550.0 1530.0) rotate(1.9091524329963763) " ><rect x="0" y="-2.5" height="5" width="596.3332407921454" fill="#81BFFC" ><title >c15 → n5 {:key 1, :value 4, :type "write", :msg_id 1}</title></rect><use xlink:href="#ahead" x="600.3332407921454" y="0" /><text text-anchor="middle" x="300.1666203960727" y="-4" transform="" filter="url(#glow)" style="fill: #fff" >write {:key 1, :value 4}</text><text text-anchor="middle" x="300.1666203960727" y="-4" transform="" >write {:key 1, :value 4}</text></g><g transform="translate(1150.0 1570.0) rotate(178.0908475670036) " ><rect x="0" y="-2.5" height="5" width="596.3332407921454" fill="#FF1E90" ><title >n5 → c15 {:msg_id 9, :in_reply_to 1, :type "error", :code 11}</title></rect><use xlink:href="#ahead" x="600.3332407921454" y="0" /><text text-anchor="middle" x="300.1666203960727" y="-4" transform="rotate(180 300.1666203960727 0)" filter="url(#glow)" style="fill: #fff" >error </text><text text-anchor="middle" x="300.1666203960727" y="-4" transform="rotate(180 300.1666203960727 0)" >error </text></g><g transform="translate(350.0 1610.0) rotate(1.9091524329963763) " ><rect x="0" y="-2.5" height="5" width="596.3332407921454" fill="#81BFFC" ><title >c13 → n3 {:key 0, :value 1, :type "write", :msg_id 2}</title></rect><use xlink:href="#ahead" x="600.3332407921454" y="0" /><text text-anchor="middle" x="300.1666203960727" y="-4" transform="" filter="url(#glow)" style="fill: #fff" >write {:key 0, :value 1}</text><text text-anchor="middle" x="300.1666203960727" y="-4" transform="" >write {:key 0, :value 1}</text></g><g transform="translate(950.0 1650.0) rotate(178.0908475670036) " ><rect x="0" y="-2.5" height="5" width="596.3332407921454" fill="#FF1E90" ><title >n3 → c13 {:msg_id 9, :in_reply_to 2, :type "error", :code 11}</title></rect><use xlink:href="#ahead" x="600.3332407921454" y="0" /><text text-anchor="middle" x="300.1666203960727" y="-4" transform="rotate(180 300.1666203960727 0)" filter="url(#glow)" style="fill: #fff" >error </text><text text-anchor="middle" x="300.1666203960727" y="-4" transform="rotate(180 300.1666203960727 0)" >error </text></g><g transform="translate(650.0 1690.0) rotate(2.862405226111748) " ><rect x="0" y="-2.5" height="5" width="396.4996878900157" fill="#81BFFC" ><title >c16 → n4 {:key 0, :from 4, :to 1, :type "cas", :msg_id 1}</title></rect><use xlink:href="#ahead" x="400.4996878900157" y="0" /><text text-anchor="middle" x="200.24984394500785" y="-4" transform="" filter="url(#glow)" style="fill: #fff" >cas {:key 0, :from 4, :to 1}</text><text text-anchor="middle" x="200.24984394500785" y="-4" transform="" >cas {:key 0, :from 4, :to 1}</text></g><g transform="translate(1050.0 1730.0) rotate(177.13759477388828) " ><rect x="0" y="-2.5" height="5" width="396.4996878900157" fill="#FF1E90" ><title >n4 → c16 {:msg_id 7, :in_reply_to 1, :type "error", :code 11}</title></rect><use xlink:href="#ahead" x="400.4996878900157" y="0" /><text text-anchor="middle" x="200.24984394500785" y="-4" transform="rotate(180 200.24984394500785 0)" filter="url(#glow)" style="fill: #fff" >error </text><text text-anchor="middle" x="200.24984394500785" y="-4" transform="rotate(180 200.24984394500785 0)" >error </text></g></g></svg>