<?xml version="1.0" encoding="UTF-8"?><svg xmlns:svg="http://www.w3.org/2000/svg" xmlns="http://www.w3.org/2000/svg" xmlns:xlink="http://www.w3.org/1999/xlink" version="2.0" width="1200" height="1940" ><style >
svg {
  font-family: Helvetica, Arial, sans-serif;
  font-size: 11px;
}
rect {
  stroke-linecap: butt;
  stroke-width: 3;
  stroke: #fff;
/*  stroke-opacity: 1; */
}
rect:hover {
  stroke: #fff;
/*  stroke-opacity: 1; /*
}
polygon { fill: #000; }</style><defs ><polygon id="ahead" points="0 0, -12 4, -12 -4" /><filter id="glow" x="0" y="0" ><feGaussianBlur in="SourceAlpha" stdDeviation="2" result="blurred" /><feFlood flood-color="#fff" /><feComposite operator="in" in2="blurred" /><feComponentTransfer ><feFuncA type="linear" slope="10" intercept="0" /></feComponentTransfer><feMerge ><feMergeNode /><feMergeNode in="SourceGraphic" /></feMerge></filter></defs><g ><text x="46.153847" y="20.0" text-anchor="middle" alignment-baseline="middle" fill="#000" >c10</text><text x="46.153847" y="1020.0" text-anchor="middle" alignment-baseline="middle" fill="#aaa" >c10</text><text x="138.46153" y="20.0" text-anchor="middle" alignment-baseline="middle" fill="#000" >c11</text><text x="138.46153" y="1020.0" text-anchor="middle" alignment-baseline="middle" fill="#aaa" >c11</text><text x="230.76923" y="20.0" text-anchor="middle" alignment-baseline="middle" fill="#000" >c12</text><text x="230.76923" y="1020.0" text-anchor="middle" alignment-baseline="middle" fill="#aaa" >c12</text><text x="323.07693" y="20.0" text-anchor="middle" alignment-baseline="middle" fill="#000" >c13</text><text x="323.07693" y="1020.0" text-anchor="middle" alignment-baseline="middle" fill="#aaa" >c13</text><text x="415.3846" y="20.0" text-anchor="middle" alignment-baseline="middle" fill="#000" >c14</text><text x="415.3846" y="1020.0" text-anchor="middle" alignment-baseline="middle" fill="#aaa" >c14</text><text x="507.69232" y="20.0" text-anchor="middle" alignment-baseline="middle" fill="#000" >c15</text><text x="507.69232" y="1020.0" text-anchor="middle" alignment-baseline="middle" fill="#aaa" >c15</text><text x="600.0" y="20.0" text-anchor="middle" alignment-baseline="middle" fill="#000" >c16</text><text x="600.0" y="1020.0" text-anchor="middle" alignment-baseline="middle" fill="#aaa" >c16</text><text x="692.3077" y="20.0" text-anchor="middle" alignment-baseline="middle" fill="#000" >c17</text><text x="692.3077" y="1020.0" text-anchor="middle" alignment-baseline="middle" fill="#aaa" >c17</text><text x="784.61536" y="20.0" text-anchor="middle" alignment-baseline="middle" fill="#000" >n1</text><text x="784.61536" y="1020.0" text-anchor="middle" alignment-baseline="middle" fill="#aaa" >n1</text><text x="876.9231" y="20.0" text-anchor="middle" alignment-baseline="middle" fill="#000" >n2</text><text x="876.9231" y="1020.0" text-anchor="middle" alignment-baseline="middle" fill="#aaa" >n2</text><text x="969.2308" y="20.0" text-anchor="middle" alignment-baseline="middle" fill="#000" >n3</text><text x="969.2308" y="1020.0" text-anchor="middle" alignment-baseline="middle" fill="#aaa" >n3</text><text x="1061.5385" y="20.0" text-anchor="middle" alignment-baseline="middle" fill="#000" >n4</text><text x="1061.5385" y="1020.0" text-anchor="middle" alignment-baseline="middle" fill="#aaa" >n4</text><text x="1153.8462" y="20.0" text-anchor="middle" alignment-baseline="middle" fill="#000" >n5</text><text x="1153.8462" y="1020.0" text-anchor="middle" alignment-baseline="middle" fill="#aaa" >n5</text></g><g ><line stroke="#ccc" x1="46.153847" y1="30.0" x2="46.153847" y2="1850.0" /><line stroke="#ccc" x1="138.46153" y1="30.0" x2="138.46153" y2="1850.0" /><line stroke="#ccc" x1="230.76923" y1="30.0" x2="230.76923" y2="1850.0" /><line stroke="#ccc" x1="323.07693" y1="30.0" x2="323.07693" y2="1850.0" /><line stroke="#ccc" x1="415.3846" y1="30.0" x2="415.3846" y2="1850.0" /><line stroke="#ccc" x1="507.69232" y1="30.0" x2="507.69232" y2="1850.0" /><line stroke="#ccc" x1="600.0" y1="30.0" x2="600.0" y2="1850.0" /><line stroke="#ccc" x1="692.3077" y1="30.0" x2="692.3077" y2="1850.0" /><line stroke="#ccc" x1="784.61536" y1="30.0" x2="784.61536" y2="1850.0" /><line stroke="#ccc" x1="876.9231" y1="30.0" x2="876.9231" y2="1850.0" /><line stroke="#ccc" x1="969.2308" y1="30.0" x2="969.2308" y2="1850.0" /><line stroke="#ccc" x1="1061.5385" y1="30.0" x2="1061.5385" y2="1850.0" /><line stroke="#ccc" x1="1153.8462" y1="30.0" x2="1153.8462" y2="1850.0" /></g><g ><g transform="translate(1153.8462 90.0) rotate(176.89950910106228) " ><rect x="0" y="-2.5" height="5" width="365.77210479692906" fill="#000" ><title >n5 → n1 {:msg_id 2, :type "RequestVote", :term 1, :prevLogIndex 2, :lastLogTerm 0, :candidateId "n5"}</title></rect><use xlink:href="#ahead" x="369.77210479692906" y="0" /><text text-anchor="middle" x="184.88605239846453" y="-4" transform="rotate(180 184.88605239846453 0)" filter="url(#glow)" style="fill: #fff" >RequestVote {:term 1, :prevLogIndex 2, :lastLog…</text><text text-anchor="middle" x="184.88605239846453" y="-4" transform="rotate(180 184.88605239846453 0)" >RequestVote {:term 1, :prevLogIndex 2, :lastLog…</text></g><g transform="translate(969.2308 130.0) rotate(139.08561245303233) " ><rect x="0" y="-2.5" height="5" width="118.15034776396442" fill="#000" ><title >n3 → n2 {:msg_id 3, :type "RequestVote", :term 1, :prevLogIndex 2, :lastLogTerm 0, :candidateId "n3"}</title></rect><use xlink:href="#ahead" x="122.15034776396442" y="0" /><text text-anchor="middle" x="61.07517388198221" y="-4" transform="rotate(180 61.07517388198221 0)" filter="url(#glow)" style="fill: #fff" >RequestVote {:term 1, :prevLogIndex 2, :lastLog…</text><text text-anchor="middle" x="61.07517388198221" y="-4" transform="rotate(180 61.07517388198221 0)" >RequestVote {:term 1, :prevLogIndex 2, :lastLog…</text></g><g transform="translate(1061.5385 50.0) rotate(146.9761342197057) " ><rect x="0" y="-2.5" height="5" width="326.28230490567023" fill="#000" ><title >n4 → n1 {:msg_id 2, :type "RequestVote", :term 1, :prevLogIndex 2, :lastLogTerm 0, :candidateId "n4"}</title></rect><use xlink:href="#ahead" x="330.28230490567023" y="0" /><text text-anchor="middle" x="165.14115245283512" y="-4" transform="rotate(180 165.14115245283512 0)" filter="url(#glow)" style="fill: #fff" >RequestVote {:term 1, :prevLogIndex 2, :lastLog…</text><text text-anchor="middle" x="165.14115245283512" y="-4" transform="rotate(180 165.14115245283512 0)" >RequestVote {:term 1, :prevLogIndex 2, :lastLog…</text></g><g transform="translate(969.2308 70.0) rotate(135.7252293972993) " ><rect x="0" y="-2.5" height="5" width="253.84268919534594" fill="#000" ><title >n3 → n1 {:msg_id 2, :type "RequestVote", :term 1, :prevLogIndex 2, :lastLogTerm 0, :candidateId "n3"}</title></rect><use xlink:href="#ahead" x="257.84268919534594" y="0" /><text text-anchor="middle" x="128.92134459767297" y="-4" transform="rotate(180 128.92134459767297 0)" filter="url(#glow)" style="fill: #fff" >RequestVote {:term 1, :prevLogIndex 2, :lastLog…</text><text text-anchor="middle" x="128.92134459767297" y="-4" transform="rotate(180 128.92134459767297 0)" >RequestVote {:term 1, :prevLogIndex 2, :lastLog…</text></g><g transform="translate(1153.8462 170.0) rotate(160.14478687195503) " ><rect x="0" y="-2.5" height="5" width="290.42554395602656" fill="#000" ><title >n5 → n2 {:msg_id 3, :type "RequestVote", :term 1, :prevLogIndex 2, :lastLogTerm 0, :candidateId "n5"}</title></rect><use xlink:href="#ahead" x="294.42554395602656" y="0" /><text text-anchor="middle" x="147.21277197801328" y="-4" transform="rotate(180 147.21277197801328 0)" filter="url(#glow)" style="fill: #fff" >RequestVote {:term 1, :prevLogIndex 2, :lastLog…</text><text text-anchor="middle" x="147.21277197801328" y="-4" transform="rotate(180 147.21277197801328 0)" >RequestVote {:term 1, :prevLogIndex 2, :lastLog…</text></g><g transform="translate(876.9231 150.0) rotate(112.76197768152255) " ><rect x="0" y="-2.5" height="5" width="234.58063359562172" fill="#000" ><title >n2 → n1 {:msg_id 2, :type "RequestVote", :term 1, :prevLogIndex 2, :lastLogTerm 0, :candidateId "n2"}</title></rect><use xlink:href="#ahead" x="238.58063359562172" y="0" /><text text-anchor="middle" x="119.29031679781086" y="-4" transform="rotate(180 119.29031679781086 0)" filter="url(#glow)" style="fill: #fff" >RequestVote {:term 1, :prevLogIndex 2, :lastLog…</text><text text-anchor="middle" x="119.29031679781086" y="-4" transform="rotate(180 119.29031679781086 0)" >RequestVote {:term 1, :prevLogIndex 2, :lastLog…</text></g><g transform="translate(1061.5385 190.0) rotate(132.70938560000596) " ><rect x="0" y="-2.5" height="5" width="268.1816118613265" fill="#000" ><title >n4 → n2 {:msg_id 3, :type "RequestVote", :term 1, :prevLogIndex 2, :lastLogTerm 0, :candidateId "n4"}</title></rect><use xlink:href="#ahead" x="272.1816118613265" y="0" /><text text-anchor="middle" x="136.09080593066324" y="-4" transform="rotate(180 136.09080593066324 0)" filter="url(#glow)" style="fill: #fff" >RequestVote {:term 1, :prevLogIndex 2, :lastLog…</text><text text-anchor="middle" x="136.09080593066324" y="-4" transform="rotate(180 136.09080593066324 0)" >RequestVote {:term 1, :prevLogIndex 2, :lastLog…</text></g><g transform="translate(876.9231 290.0) rotate(90.0) " ><rect x="0" y="-2.5" height="5" width="116.0" fill="#000" ><title >n2 → n2 {:msg_id 3, :type "RequestVote", :term 1, :prevLogIndex 2, :lastLogTerm 0, :candidateId "n2"}</title></rect><use xlink:href="#ahead" x="120.0" y="0" /><text text-anchor="middle" x="60.0" y="-4" transform="rotate(180 60.0 0)" filter="url(#glow)" style="fill: #fff" >RequestVote {:term 1, :prevLogIndex 2, :lastLog…</text><text text-anchor="middle" x="60.0" y="-4" transform="rotate(180 60.0 0)" >RequestVote {:term 1, :prevLogIndex 2, :lastLog…</text></g><g transform="translate(1153.8462 310.0) rotate(146.9761371048966) " ><rect x="0" y="-2.5" height="5" width="216.1882203286265" fill="#000" ><title >n5 → n3 {:msg_id 4, :type "RequestVote", :term 1, :prevLogIndex 2, :lastLogTerm 0, :candidateId "n5"}</title></rect><use xlink:href="#ahead" x="220.1882203286265" y="0" /><text text-anchor="middle" x="110.09411016431325" y="-4" transform="rotate(180 110.09411016431325 0)" filter="url(#glow)" style="fill: #fff" >RequestVote {:term 1, :prevLogIndex 2, :lastLog…</text><text text-anchor="middle" x="110.09411016431325" y="-4" transform="rotate(180 110.09411016431325 0)" >RequestVote {:term 1, :prevLogIndex 2, :lastLog…</text></g><g transform="translate(969.2308 330.0) rotate(90.0) " ><rect x="0" y="-2.5" height="5" width="196.0" fill="#000" ><title >n3 → n3 {:msg_id 4, :type "RequestVote", :term 1, :prevLogIndex 2, :lastLogTerm 0, :candidateId "n3"}</title></rect><use xlink:href="#ahead" x="200.0" y="0" /><text text-anchor="middle" x="100.0" y="-4" transform="rotate(180 100.0 0)" filter="url(#glow)" style="fill: #fff" >RequestVote {:term 1, :prevLogIndex 2, :lastLog…</text><text text-anchor="middle" x="100.0" y="-4" transform="rotate(180 100.0 0)" >RequestVote {:term 1, :prevLogIndex 2, :lastLog…</text></g><g transform="translate(1061.5385 350.0) rotate(112.76196416530908) " ><rect x="0" y="-2.5" height="5" width="234.58060998089817" fill="#000" ><title >n4 → n3 {:msg_id 4, :type "RequestVote", :term 1, :prevLogIndex 2, :lastLogTerm 0, :candidateId "n4"}</title></rect><use xlink:href="#ahead" x="238.58060998089817" y="0" /><text text-anchor="middle" x="119.29030499044909" y="-4" transform="rotate(180 119.29030499044909 0)" filter="url(#glow)" style="fill: #fff" >RequestVote {:term 1, :prevLogIndex 2, :lastLog…</text><text text-anchor="middle" x="119.29030499044909" y="-4" transform="rotate(180 119.29030499044909 0)" >RequestVote {:term 1, :prevLogIndex 2, :lastLog…</text></g><g transform="translate(876.9231 470.0) rotate(62.85032185206643) " ><rect x="0" y="-2.5" height="5" width="198.28867358025127" fill="#000" ><title >n2 → n3 {:msg_id 4, :type "RequestVote", :term 1, :prevLogIndex 2, :lastLogTerm 0, :candidateId "n2"}</title></rect><use xlink:href="#ahead" x="202.28867358025127" y="0" /><text text-anchor="middle" x="101.14433679012564" y="-4" transform="" filter="url(#glow)" style="fill: #fff" >RequestVote {:term 1, :prevLogIndex 2, :lastLog…</text><text text-anchor="middle" x="101.14433679012564" y="-4" transform="" >RequestVote {:term 1, :prevLogIndex 2, :lastLog…</text></g><g transform="translate(1153.8462 550.0) rotate(90.0) " ><rect x="0" y="-2.5" height="5" width="116.0" fill="#000" ><title >n5 → n5 {:msg_id 6, :type "RequestVote", :term 1, :prevLogIndex 2, :lastLogTerm 0, :candidateId "n5"}</title></rect><use xlink:href="#ahead" x="120.0" y="0" /><text text-anchor="middle" x="60.0" y="-4" transform="rotate(180 60.0 0)" filter="url(#glow)" style="fill: #fff" >RequestVote {:term 1, :prevLogIndex 2, :lastLog…</text><text text-anchor="middle" x="60.0" y="-4" transform="rotate(180 60.0 0)" >RequestVote {:term 1, :prevLogIndex 2, :lastLog…</text></g><g transform="translate(1153.8462 450.0) rotate(111.0375207895404) " ><rect x="0" y="-2.5" height="5" width="253.1394927405907" fill="#000" ><title >n5 → n4 {:msg_id 5, :type "RequestVote", :term 1, :prevLogIndex 2, :lastLogTerm 0, :candidateId "n5"}</title></rect><use xlink:href="#ahead" x="257.1394927405907" y="0" /><text text-anchor="middle" x="128.56974637029535" y="-4" transform="rotate(180 128.56974637029535 0)" filter="url(#glow)" style="fill: #fff" >RequestVote {:term 1, :prevLogIndex 2, :lastLog…</text><text text-anchor="middle" x="128.56974637029535" y="-4" transform="rotate(180 128.56974637029535 0)" >RequestVote {:term 1, :prevLogIndex 2, :lastLog…</text></g><g transform="translate(969.2308 610.0) rotate(28.442924352791138) " ><rect x="0" y="-2.5" height="5" width="205.95916834348475" fill="#000" ><title >n3 → n5 {:msg_id 6, :type "RequestVote", :term 1, :prevLogIndex 2, :lastLogTerm 0, :candidateId "n3"}</title></rect><use xlink:href="#ahead" x="209.95916834348475" y="0" /><text text-anchor="middle" x="104.97958417174237" y="-4" transform="" filter="url(#glow)" style="fill: #fff" >RequestVote {:term 1, :prevLogIndex 2, :lastLog…</text><text text-anchor="middle" x="104.97958417174237" y="-4" transform="" >RequestVote {:term 1, :prevLogIndex 2, :lastLog…</text></g><g transform="translate(1061.5385 630.0) rotate(52.43139388761288) " ><rect x="0" y="-2.5" height="5" width="147.39590062775247" fill="#000" ><title >n4 → n5 {:msg_id 6, :type "RequestVote", :term 1, :prevLogIndex 2, :lastLogTerm 0, :candidateId "n4"}</title></rect><use xlink:href="#ahead" x="151.39590062775247" y="0" /><text text-anchor="middle" x="75.69795031387623" y="-4" transform="" filter="url(#glow)" style="fill: #fff" >RequestVote {:term 1, :prevLogIndex 2, :lastLog…</text><text text-anchor="middle" x="75.69795031387623" y="-4" transform="" >RequestVote {:term 1, :prevLogIndex 2, :lastLog…</text></g><g transform="translate(969.2308 490.0) rotate(71.75414807207467) " ><rect x="0" y="-2.5" height="5" width="290.82317998905285" fill="#000" ><title >n3 → n4 {:msg_id 5, :type "RequestVote", :term 1, :prevLogIndex 2, :lastLogTerm 0, :candidateId "n3"}</title></rect><use xlink:href="#ahead" x="294.82317998905285" y="0" /><text text-anchor="middle" x="147.41158999452642" y="-4" transform="" filter="url(#glow)" style="fill: #fff" >RequestVote {:term 1, :prevLogIndex 2, :lastLog…</text><text text-anchor="middle" x="147.41158999452642" y="-4" transform="" >RequestVote {:term 1, :prevLogIndex 2, :lastLog…</text></g><g transform="translate(876.9231 730.0) rotate(12.22512187160139) " ><rect x="0" y="-2.5" height="5" width="279.3485502588678" fill="#000" ><title >n2 → n5 {:msg_id 6, :type "RequestVote", :term 1, :prevLogIndex 2, :lastLogTerm 0, :candidateId "n2"}</title></rect><use xlink:href="#ahead" x="283.3485502588678" y="0" /><text text-anchor="middle" x="141.6742751294339" y="-4" transform="" filter="url(#glow)" style="fill: #fff" >RequestVote {:term 1, :prevLogIndex 2, :lastLog…</text><text text-anchor="middle" x="141.6742751294339" y="-4" transform="" >RequestVote {:term 1, :prevLogIndex 2, :lastLog…</text></g><g transform="translate(1061.5385 510.0) rotate(90.0) " ><rect x="0" y="-2.5" height="5" width="296.0" fill="#000" ><title >n4 → n4 {:msg_id 5, :type "RequestVote", :term 1, :prevLogIndex 2, :lastLogTerm 0, :candidateId "n4"}</title></rect><use xlink:href="#ahead" x="300.0" y="0" /><text text-anchor="middle" x="150.0" y="-4" transform="rotate(180 150.0 0)" filter="url(#glow)" style="fill: #fff" >RequestVote {:term 1, :prevLogIndex 2, :lastLog…</text><text text-anchor="middle" x="150.0" y="-4" transform="rotate(180 150.0 0)" >RequestVote {:term 1, :prevLogIndex 2, :lastLog…</text></g><g transform="translate(876.9231 590.0) rotate(52.43141219624144) " ><rect x="0" y="-2.5" height="5" width="298.79172682791346" fill="#000" ><title >n2 → n4 {:msg_id 5, :type "RequestVote", :term 1, :prevLogIndex 2, :lastLogTerm 0, :candidateId "n2"}</title></rect><use xlink:href="#ahead" x="302.79172682791346" y="0" /><text text-anchor="middle" x="151.39586341395673" y="-4" transform="" filter="url(#glow)" style="fill: #fff" >RequestVote {:term 1, :prevLogIndex 2, :lastLog…</text><text text-anchor="middle" x="151.39586341395673" y="-4" transform="" >RequestVote {:term 1, :prevLogIndex 2, :lastLog…</text></g><g transform="translate(784.61536 850.0) rotate(90.0) " ><rect x="0" y="-2.5" height="5" width="16.0" fill="#000" ><title >n1 → n1 {:msg_id 2, :type "RequestVote", :term 1, :prevLogIndex 2, :lastLogTerm 0, :candidateId "n1"}</title></rect><use xlink:href="#ahead" x="20.0" y="0" /><text text-anchor="middle" x="10.0" y="-4" transform="rotate(180 10.0 0)" filter="url(#glow)" style="fill: #fff" >RequestVote {:term 1, :prevLogIndex 2, :lastLog…</text><text text-anchor="middle" x="10.0" y="-4" transform="rotate(180 10.0 0)" >RequestVote {:term 1, :prevLogIndex 2, :lastLog…</text></g><g transform="translate(784.61536 890.0) rotate(12.225116644730575) " ><rect x="0" y="-2.5" height="5" width="90.44955652033681" fill="#000" ><title >n1 → n2 {:msg_id 3, :type "RequestVote", :term 1, :prevLogIndex 2, :lastLogTerm 0, :candidateId "n1"}</title></rect><use xlink:href="#ahead" x="94.44955652033681" y="0" /><text text-anchor="middle" x="47.22477826016841" y="-4" transform="" filter="url(#glow)" style="fill: #fff" >RequestVote {:term 1, :prevLogIndex 2, :lastLog…</text><text text-anchor="middle" x="47.22477826016841" y="-4" transform="" >RequestVote {:term 1, :prevLogIndex 2, :lastLog…</text></g><g transform="translate(784.61536 930.0) rotate(6.182929073793282) " ><rect x="0" y="-2.5" height="5" width="181.6955906086296" fill="#000" ><title >n1 → n3 {:msg_id 4, :type "RequestVote", :term 1, :prevLogIndex 2, :lastLogTerm 0, :candidateId "n1"}</title></rect><use xlink:href="#ahead" x="185.6955906086296" y="0" /><text text-anchor="middle" x="92.8477953043148" y="-4" transform="" filter="url(#glow)" style="fill: #fff" >RequestVote {:term 1, :prevLogIndex 2, :lastLog…</text><text text-anchor="middle" x="92.8477953043148" y="-4" transform="" >RequestVote {:term 1, :prevLogIndex 2, :lastLog…</text></g><g transform="translate(784.61536 970.0) rotate(4.130855954104589) " ><rect x="0" y="-2.5" height="5" width="273.6443785380898" fill="#000" ><title >n1 → n4 {:msg_id 5, :type "RequestVote", :term 1, :prevLogIndex 2, :lastLogTerm 0, :candidateId "n1"}</title></rect><use xlink:href="#ahead" x="277.6443785380898" y="0" /><text text-anchor="middle" x="138.8221892690449" y="-4" transform="" filter="url(#glow)" style="fill: #fff" >RequestVote {:term 1, :prevLogIndex 2, :lastLog…</text><text text-anchor="middle" x="138.8221892690449" y="-4" transform="" >RequestVote {:term 1, :prevLogIndex 2, :lastLog…</text></g><g transform="translate(784.61536 1010.0) rotate(3.1004908989377333) " ><rect x="0" y="-2.5" height="5" width="365.77210479692906" fill="#000" ><title >n1 → n5 {:msg_id 6, :type "RequestVote", :term 1, :prevLogIndex 2, :lastLogTerm 0, :candidateId "n1"}</title></rect><use xlink:href="#ahead" x="369.77210479692906" y="0" /><text text-anchor="middle" x="184.88605239846453" y="-4" transform="" filter="url(#glow)" style="fill: #fff" >RequestVote {:term 1, :prevLogIndex 2, :lastLog…</text><text text-anchor="middle" x="184.88605239846453" y="-4" transform="" >RequestVote {:term 1, :prevLogIndex 2, :lastLog…</text></g><g transform="translate(46.153847 1050.0) rotate(1.551381513339971) " ><rect x="0" y="-2.5" height="5" width="734.7322934021377" fill="#81BFFC" ><title >c10 → n1 {:key 0, :from 2, :to 0, :type "cas", :msg_id 1}</title></rect><use xlink:href="#ahead" x="738.7322934021377" y="0" /><text text-anchor="middle" x="369.3661467010688" y="-4" transform="" filter="url(#glow)" style="fill: #fff" >cas {:key 0, :from 2, :to 0}</text><text text-anchor="middle" x="369.3661467010688" y="-4" transform="" >cas {:key 0, :from 2, :to 0}</text></g><g transform="translate(784.61536 1090.0) rotate(178.44861848666002) " ><rect x="0" y="-2.5" height="5" width="734.7322934021377" fill="#FF1E90" ><title >n1 → c10 {:msg_id 7, :in_reply_to 1, :type "error", :code 11}</title></rect><use xlink:href="#ahead" x="738.7322934021377" y="0" /><text text-anchor="middle" x="369.3661467010688" y="-4" transform="rotate(180 369.3661467010688 0)" filter="url(#glow)" style="fill: #fff" >error </text><text text-anchor="middle" x="369.3661467010688" y="-4" transform="rotate(180 369.3661467010688 0)" >error </text></g><g transform="translate(138.46153 1130.0) rotate(1.1284072700504484) " ><rect x="0" y="-2.5" height="5" width="1011.5816094011157" fill="#81BFFC" ><title >c11 → n5 {:key 1, :value 1, :type "write", :msg_id 1}</title></rect><use xlink:href="#ahead" x="1015.5816094011157" y="0" /><text text-anchor="middle" x="507.7908047005578" y="-4" transform="" filter="url(#glow)" style="fill: #fff" >write {:key 1, :value 1}</text><text text-anchor="middle" x="507.7908047005578" y="-4" transform="" >write {:key 1, :value 1}</text></g><g transform="translate(1153.8462 1170.0) rotate(178.87159272994955) " ><rect x="0" y="-2.5" height="5" width="1011.5816094011157" fill="#FF1E90" ><title >n5 → c11 {:msg_id 7, :in_reply_to 1, :type "error", :code 11}</title></rect><use xlink:href="#ahead" x="1015.5816094011157" y="0" /><text text-anchor="middle" x="507.7908047005578" y="-4" transform="rotate(180 507.7908047005578 0)" filter="url(#glow)" style="fill: #fff" >error </text><text text-anchor="middle" x="507.7908047005578" y="-4" transform="rotate(180 507.7908047005578 0)" >error </text></g><g transform="translate(138.46153 1210.0) rotate(1.1284072700504484) " ><rect x="0" y="-2.5" height="5" width="1011.5816094011157" fill="#81BFFC" ><title >c11 → n5 {:key 1, :value 1, :type "write", :msg_id 2}</title></rect><use xlink:href="#ahead" x="1015.5816094011157" y="0" /><text text-anchor="middle" x="507.7908047005578" y="-4" transform="" filter="url(#glow)" style="fill: #fff" >write {:key 1, :value 1}</text><text text-anchor="middle" x="507.7908047005578" y="-4" transform="" >write {:key 1, :value 1}</text></g><g transform="translate(1153.8462 1250.0) rotate(178.87159272994955) " ><rect x="0" y="-2.5" height="5" width="1011.5816094011157" fill="#FF1E90" ><title >n5 → c11 {:msg_id 8, :in_reply_to 2, :type "error", :code 11}</title></rect><use xlink:href="#ahead" x="1015.5816094011157" y="0" /><text text-anchor="middle" x="507.7908047005578" y="-4" transform="rotate(180 507.7908047005578 0)" filter="url(#glow)" style="fill: #fff" >error </text><text text-anchor="middle" x="507.7908047005578" y="-4" transform="rotate(180 507.7908047005578 0)" >error </text></g><g transform="translate(230.76923 1290.0) rotate(1.5513814332388647) " ><rect x="0" y="-2.5" height="5" width="734.7323315351275" fill="#81BFFC" ><title >c12 → n3 {:key 1, :from 4, :to 4, :type "cas", :msg_id 1}</title></rect><use xlink:href="#ahead" x="738.7323315351275" y="0" /><text text-anchor="middle" x="369.36616576756376" y="-4" transform="" filter="url(#glow)" style="fill: #fff" >cas {:key 1, :from 4, :to 4}</text><text text-anchor="middle" x="369.36616576756376" y="-4" transform="" >cas {:key 1, :from 4, :to 4}</text></g><g transform="translate(969.2308 1330.0) rotate(178.44861856676113) " ><rect x="0" y="-2.5" height="5" width="734.7323315351275" fill="#FF1E90" ><title >n3 → c12 {:msg_id 7, :in_reply_to 1, :type "error", :code 11}</title></rect><use xlink:href="#ahead" x="738.7323315351275" y="0" /><text text-anchor="middle" x="369.36616576756376" y="-4" transform="rotate(180 369.36616576756376 0)" filter="url(#glow)" style="fill: #fff" >error </text><text text-anchor="middle" x="369.36616576756376" y="-4" transform="rotate(180 369.36616576756376 0)" >error </text></g><g transform="translate(323.07693 1370.0) rotate(2.4812650154739093) " ><rect x="0" y="-2.5" height="5" width="457.9715517664534" fill="#81BFFC" ><title >c13 → n1 {:key 0, :type "read", :msg_id 1}</title></rect><use xlink:href="#ahead" x="461.9715517664534" y="0" /><text text-anchor="middle" x="230.9857758832267" y="-4" transform="" filter="url(#glow)" style="fill: #fff" >read {:key 0}</text><text text-anchor="middle" x="230.9857758832267" y="-4" transform="" >read {:key 0}</text></g><g transform="translate(784.61536 1410.0) rotate(177.5187349845261) " ><rect x="0" y="-2.5" height="5" width="457.9715517664534" fill="#FF1E90" ><title >n1 → c13 {:msg_id 8, :in_reply_to 1, :type "error", :code 11}</title></rect><use xlink:href="#ahead" x="461.9715517664534" y="0" /><text text-anchor="middle" x="230.9857758832267" y="-4" transform="rotate(180 230.9857758832267 0)" filter="url(#glow)" style="fill: #fff" >error </text><text text-anchor="middle" x="230.9857758832267" y="-4" transform="rotate(180 230.9857758832267 0)" >error </text></g><g transform="translate(415.3846 1450.0) rotate(1.5513813691579854) " ><rect x="0" y="-2.5" height="5" width="734.7323620415193" fill="#81BFFC" ><title >c14 → n5 {:key 1, :value 1, :type "write", :msg_id 1}</title></rect><use xlink:href="#ahead" x="738.7323620415193" y="0" /><text text-anchor="middle" x="369.36618102075965" y="-4" transform="" filter="url(#glow)" style="fill: #fff" >write {:key 1, :value 1}</text><text text-anchor="middle" x="369.36618102075965" y="-4" transform="" >write {:key 1, :value 1}</text></g><g transform="translate(1153.8462 1490.0) rotate(178.44861863084205) " ><rect x="0" y="-2.5" height="5" width="734.7323620415193" fill="#FF1E90" ><title >n5 → c14 {:msg_id 9, :in_reply_to 1, :type "error", :code 11}</title></rect><use xlink:href="#ahead" x="738.7323620415193" y="0" /><text text-anchor="middle" x="369.36618102075965" y="-4" transform="rotate(180 369.36618102075965 0)" filter="url(#glow)" style="fill: #fff" >error </text><text text-anchor="middle" x="369.36618102075965" y="-4" transform="rotate(180 369.36618102075965 0)" >error </text></g><g transform="translate(507.69232 1530.0) rotate(2.0681157107260364) " ><rect x="0" y="-2.5" height="5" width="550.2071238508529" fill="#81BFFC" ><title >c15 → n4 {:key 0, :from 1, :to 0, :type "cas", :msg_id 1}</title></rect><use xlink:href="#ahead" x="554.2071238508529" y="0" /><text text-anchor="middle" x="277.10356192542645" y="-4" transform="" filter="url(#glow)" style="fill: #fff" >cas {:key 0, :from 1, :to 0}</text><text text-anchor="middle" x="277.10356192542645" y="-4" transform="" >cas {:key 0, :from 1, :to 0}</text></g><g transform="translate(1061.5385 1570.0) rotate(177.93188428927397) " ><rect x="0" y="-2.5" height="5" width="550.2071238508529" fill="#FF1E90" ><title >n4 → c15 {:msg_id 7, :in_reply_to 1, :type "error", :code 11}</title></rect><use xlink:href="#ahead" x="554.2071238508529" y="0" /><text text-anchor="middle" x="277.10356192542645" y="-4" transform="rotate(180 277.10356192542645 0)" filter="url(#glow)" style="fill: #fff" >error </text><text text-anchor="middle" x="277.10356192542645" y="-4" transform="rotate(180 277.10356192542645 0)" >error </text></g><g transform="translate(600.0 1610.0) rotate(2.4812648516141924) " ><rect x="0" y="-2.5" height="5" width="457.9715822554192" fill="#81BFFC" ><title >c16 → n4 {:key 0, :type "read", :msg_id 1}</title></rect><use xlink:href="#ahead" x="461.9715822554192" y="0" /><text text-anchor="middle" x="230.9857911277096" y="-4" transform="" filter="url(#glow)" style="fill: #fff" >read {:key 0}</text><text text-anchor="middle" x="230.9857911277096" y="-4" transform="" >read {:key 0}</text></g><g transform="translate(1061.5385 1650.0) rotate(177.51873514838582) " ><rect x="0" y="-2.5" height="5" width="457.9715822554192" fill="#FF1E90" ><title >n4 → c16 {:msg_id 8, :in_reply_to 1, :type "error", :code 11}</title></rect><use xlink:href="#ahead" x="461.9715822554192" y="0" /><text text-anchor="middle" x="230.9857911277096" y="-4" transform="rotate(180 230.9857911277096 0)" filter="url(#glow)" style="fill: #fff" >error </text><text text-anchor="middle" x="230.9857911277096" y="-4" transform="rotate(180 230.9857911277096 0)" >error </text></g><g transform="translate(692.3077 1690.0) rotate(12.22512448503845) " ><rect x="0" y="-2.5" height="5" width="90.44949686926579" fill="#81BFFC" ><title >c17 → n1 {:key 1, :value 2, :type "write", :msg_id 1}</title></rect><use xlink:href="#ahead" x="94.44949686926579" y="0" /><text text-anchor="middle" x="47.22474843463289" y="-4" transform="" filter="url(#glow)" style="fill: #fff" >write {:key 1, :value 2}</text><text text-anchor="middle" x="47.22474843463289" y="-4" transform="" >write {:key 1, :value 2}</text></g><g transform="translate(784.61536 1730.0) rotate(167.77487551496154) " ><rect x="0" y="-2.5" height="5" width="90.44949686926579" fill="#FF1E90" ><title >n1 → c17 {:msg_id 9, :in_reply_to 1, :type "error", :code 11}</title></rect><use xlink:href="#ahead" x="94.44949686926579" y="0" /><text text-anchor="middle" x="47.22474843463289" y="-4" transform="rotate(180 47.22474843463289 0)" filter="url(#glow)" style="fill: #fff" >error </text><text text-anchor="middle" x="47.22474843463289" y="-4" transform="rotate(180 47.22474843463289 0)" >error </text></g><g transform="translate(323.07693 1770.0) rotate(2.4812650154739093) " ><rect x="0" y="-2.5" height="5" width="457.9715517664534" fill="#81BFFC" ><title >c13 → n1 {:key 0, :type "read", :msg_id 2}</title></rect><use xlink:href="#ahead" x="461.9715517664534" y="0" /><text text-anchor="middle" x="230.9857758832267" y="-4" transform="" filter="url(#glow)" style="fill: #fff" >read {:key 0}</text><text text-anchor="middle" x="230.9857758832267" y="-4" transform="" >read {:key 0}</text></g><g transform="translate(784.61536 1810.0) rotate(177.5187349845261) " ><rect x="0" y="-2.5" height="5" width="457.9715517664534" fill="#FF1E90" ><title >n1 → c13 {:msg_id 10, :in_reply_to 2, :type "error", :code 11}</title></rect><use xlink:href="#ahead" x="461.9715517664534" y="0" /><text text-anchor="middle" x="230.9857758832267" y="-4" transform="rotate(180 230.9857758832267 0)" filter="url(#glow)" style="fill: #fff" >error </text><text text-anchor="middle" x="230.9857758832267" y="-4" transform="rotate(180 230.9857758832267 0)" >error </text></g></g></svg>