<?xml version="1.0" encoding="UTF-8"?><svg xmlns:svg="http://www.w3.org/2000/svg" xmlns="http://www.w3.org/2000/svg" xmlns:xlink="http://www.w3.org/1999/xlink" version="2.0" width="1200" height="1820" ><style >
svg {
  font-family: Helvetica, Arial, sans-serif;
  font-size: 11px;
}
rect {
  stroke-linecap: butt;
  stroke-width: 3;
  stroke: #fff;
/*  stroke-opacity: 1; */
}
rect:hover {
  stroke: #fff;
/*  stroke-opacity: 1; /*
}
polygon { fill: #000; }</style><defs ><polygon id="ahead" points="0 0, -12 4, -12 -4" /><filter id="glow" x="0" y="0" ><feGaussianBlur in="SourceAlpha" stdDeviation="2" result="blurred" /><feFlood flood-color="#fff" /><feComposite operator="in" in2="blurred" /><feComponentTransfer ><feFuncA type="linear" slope="10" intercept="0" /></feComponentTransfer><feMerge ><feMergeNode /><feMergeNode in="SourceGraphic" /></feMerge></filter></defs><g ><text x="46.153847" y="20.0" text-anchor="middle" alignment-baseline="middle" fill="#000" >c10</text><text x="46.153847" y="1020.0" text-anchor="middle" alignment-baseline="middle" fill="#aaa" >c10</text><text x="138.46153" y="20.0" text-anchor="middle" alignment-baseline="middle" fill="#000" >c11</text><text x="138.46153" y="1020.0" text-anchor="middle" alignment-baseline="middle" fill="#aaa" >c11</text><text x="230.76923" y="20.0" text-anchor="middle" alignment-baseline="middle" fill="#000" >c12</text><text x="230.76923" y="1020.0" text-anchor="middle" alignment-baseline="middle" fill="#aaa" >c12</text><text x="323.07693" y="20.0" text-anchor="middle" alignment-baseline="middle" fill="#000" >c13</text><text x="323.07693" y="1020.0" text-anchor="middle" alignment-baseline="middle" fill="#aaa" >c13</text><text x="415.3846" y="20.0" text-anchor="middle" alignment-baseline="middle" fill="#000" >c14</text><text x="415.3846" y="1020.0" text-anchor="middle" alignment-baseline="middle" fill="#aaa" >c14</text><text x="507.69232" y="20.0" text-anchor="middle" alignment-baseline="middle" fill="#000" >c15</text><text x="507.69232" y="1020.0" text-anchor="middle" alignment-baseline="middle" fill="#aaa" >c15</text><text x="600.0" y="20.0" text-anchor="middle" alignment-baseline="middle" fill="#000" >c16</text><text x="600.0" y="1020.0" text-anchor="middle" alignment-baseline="middle" fill="#aaa" >c16</text><text x="692.3077" y="20.0" text-anchor="middle" alignment-baseline="middle" fill="#000" >c17</text><text x="692.3077" y="1020.0" text-anchor="middle" alignment-baseline="middle" fill="#aaa" >c17</text><text x="784.61536" y="20.0" text-anchor="middle" alignment-baseline="middle" fill="#000" >n1</text><text x="784.61536" y="1020.0" text-anchor="middle" alignment-baseline="middle" fill="#aaa" >n1</text><text x="876.9231" y="20.0" text-anchor="middle" alignment-baseline="middle" fill="#000" >n2</text><text x="876.9231" y="1020.0" text-anchor="middle" alignment-baseline="middle" fill="#aaa" >n2</text><text x="969.2308" y="20.0" text-anchor="middle" alignment-baseline="middle" fill="#000" >n3</text><text x="969.2308" y="1020.0" text-anchor="middle" alignment-baseline="middle" fill="#aaa" >n3</text><text x="1061.5385" y="20.0" text-anchor="middle" alignment-baseline="middle" fill="#000" >n4</text><text x="1061.5385" y="1020.0" text-anchor="middle" alignment-baseline="middle" fill="#aaa" >n4</text><text x="1153.8462" y="20.0" text-anchor="middle" alignment-baseline="middle" fill="#000" >n5</text><text x="1153.8462" y="1020.0" text-anchor="middle" alignment-baseline="middle" fill="#aaa" >n5</text></g><g ><line stroke="#ccc" x1="46.153847" y1="30.0" x2="46.153847" y2="1730.0" /><line stroke="#ccc" x1="138.46153" y1="30.0" x2="138.46153" y2="1730.0" /><line stroke="#ccc" x1="230.76923" y1="30.0" x2="230.76923" y2="1730.0" /><line stroke="#ccc" x1="323.07693" y1="30.0" x2="323.07693" y2="1730.0" /><line stroke="#ccc" x1="415.3846" y1="30.0" x2="415.3846" y2="1730.0" /><line stroke="#ccc" x1="507.69232" y1="30.0" x2="507.69232" y2="1730.0" /><line stroke="#ccc" x1="600.0" y1="30.0" x2="600.0" y2="1730.0" /><line stroke="#ccc" x1="692.3077" y1="30.0" x2="692.3077" y2="1730.0" /><line stroke="#ccc" x1="784.61536" y1="30.0" x2="784.61536" y2="1730.0" /><line stroke="#ccc" x1="876.9231" y1="30.0" x2="876.9231" y2="1730.0" /><line stroke="#ccc" x1="969.2308" y1="30.0" x2="969.2308" y2="1730.0" /><line stroke="#ccc" x1="1061.5385" y1="30.0" x2="1061.5385" y2="1730.0" /><line stroke="#ccc" x1="1153.8462" y1="30.0" x2="1153.8462" y2="1730.0" /></g><g ><g transform="translate(1153.8462 50.0) rotate(167.77487943511673) " ><rect x="0" y="-2.5" height="5" width="373.7981067792043" fill="#000" ><title >n5 → n1 {:msg_id 2, :type "RequestVote", :term 1, :prevLogIndex 2, :lastLogTerm 0, :candidateId "n5"}</title></rect><use xlink:href="#ahead" x="377.7981067792043" y="0" /><text text-anchor="middle" x="188.89905338960216" y="-4" transform="rotate(180 188.89905338960216 0)" filter="url(#glow)" style="fill: #fff" >RequestVote {:term 1, :prevLogIndex 2, :lastLog…</text><text text-anchor="middle" x="188.89905338960216" y="-4" transform="rotate(180 188.89905338960216 0)" >RequestVote {:term 1, :prevLogIndex 2, :lastLog…</text></g><g transform="translate(969.2308 90.0) rotate(146.9761371048966) " ><rect x="0" y="-2.5" height="5" width="216.1882203286265" fill="#000" ><title >n3 → n1 {:msg_id 2, :type "RequestVote", :term 1, :prevLogIndex 2, :lastLogTerm 0, :candidateId "n3"}</title></rect><use xlink:href="#ahead" x="220.1882203286265" y="0" /><text text-anchor="middle" x="110.09411016431325" y="-4" transform="rotate(180 110.09411016431325 0)" filter="url(#glow)" style="fill: #fff" >RequestVote {:term 1, :prevLogIndex 2, :lastLog…</text><text text-anchor="middle" x="110.09411016431325" y="-4" transform="rotate(180 110.09411016431325 0)" >RequestVote {:term 1, :prevLogIndex 2, :lastLog…</text></g><g transform="translate(1061.5385 110.0) rotate(153.18086877355555) " ><rect x="0" y="-2.5" height="5" width="306.3005010208687" fill="#000" ><title >n4 → n1 {:msg_id 2, :type "RequestVote", :term 1, :prevLogIndex 2, :lastLogTerm 0, :candidateId "n4"}</title></rect><use xlink:href="#ahead" x="310.3005010208687" y="0" /><text text-anchor="middle" x="155.15025051043435" y="-4" transform="rotate(180 155.15025051043435 0)" filter="url(#glow)" style="fill: #fff" >RequestVote {:term 1, :prevLogIndex 2, :lastLog…</text><text text-anchor="middle" x="155.15025051043435" y="-4" transform="rotate(180 155.15025051043435 0)" >RequestVote {:term 1, :prevLogIndex 2, :lastLog…</text></g><g transform="translate(876.9231 70.0) rotate(109.54637692152902) " ><rect x="0" y="-2.5" height="5" width="271.8998345901793" fill="#000" ><title >n2 → n1 {:msg_id 2, :type "RequestVote", :term 1, :prevLogIndex 2, :lastLogTerm 0, :candidateId "n2"}</title></rect><use xlink:href="#ahead" x="275.8998345901793" y="0" /><text text-anchor="middle" x="137.94991729508965" y="-4" transform="rotate(180 137.94991729508965 0)" filter="url(#glow)" style="fill: #fff" >RequestVote {:term 1, :prevLogIndex 2, :lastLog…</text><text text-anchor="middle" x="137.94991729508965" y="-4" transform="rotate(180 137.94991729508965 0)" >RequestVote {:term 1, :prevLogIndex 2, :lastLog…</text></g><g transform="translate(1153.8462 390.0) rotate(90.0) " ><rect x="0" y="-2.5" height="5" width="16.0" fill="#000" ><title >n5 → n5 {:msg_id 6, :type "RequestVote", :term 1, :prevLogIndex 2, :lastLogTerm 0, :candidateId "n5"}</title></rect><use xlink:href="#ahead" x="20.0" y="0" /><text text-anchor="middle" x="10.0" y="-4" transform="rotate(180 10.0 0)" filter="url(#glow)" style="fill: #fff" >RequestVote {:term 1, :prevLogIndex 2, :lastLog…</text><text text-anchor="middle" x="10.0" y="-4" transform="rotate(180 10.0 0)" >RequestVote {:term 1, :prevLogIndex 2, :lastLog…</text></g><g transform="translate(1153.8462 150.0) rotate(134.6834538954177) " ><rect x="0" y="-2.5" height="5" width="389.8101077090355" fill="#000" ><title >n5 → n2 {:msg_id 3, :type "RequestVote", :term 1, :prevLogIndex 2, :lastLogTerm 0, :candidateId "n5"}</title></rect><use xlink:href="#ahead" x="393.8101077090355" y="0" /><text text-anchor="middle" x="196.90505385451775" y="-4" transform="rotate(180 196.90505385451775 0)" filter="url(#glow)" style="fill: #fff" >RequestVote {:term 1, :prevLogIndex 2, :lastLog…</text><text text-anchor="middle" x="196.90505385451775" y="-4" transform="rotate(180 196.90505385451775 0)" >RequestVote {:term 1, :prevLogIndex 2, :lastLog…</text></g><g transform="translate(1153.8462 230.0) rotate(130.00206292853136) " ><rect x="0" y="-2.5" height="5" width="283.1982805858833" fill="#000" ><title >n5 → n3 {:msg_id 4, :type "RequestVote", :term 1, :prevLogIndex 2, :lastLogTerm 0, :candidateId "n5"}</title></rect><use xlink:href="#ahead" x="287.1982805858833" y="0" /><text text-anchor="middle" x="143.59914029294166" y="-4" transform="rotate(180 143.59914029294166 0)" filter="url(#glow)" style="fill: #fff" >RequestVote {:term 1, :prevLogIndex 2, :lastLog…</text><text text-anchor="middle" x="143.59914029294166" y="-4" transform="rotate(180 143.59914029294166 0)" >RequestVote {:term 1, :prevLogIndex 2, :lastLog…</text></g><g transform="translate(1061.5385 490.0) rotate(12.225116644730575) " ><rect x="0" y="-2.5" height="5" width="90.44955652033681" fill="#000" ><title >n4 → n5 {:msg_id 6, :type "RequestVote", :term 1, :prevLogIndex 2, :lastLogTerm 0, :candidateId "n4"}</title></rect><use xlink:href="#ahead" x="94.44955652033681" y="0" /><text text-anchor="middle" x="47.22477826016841" y="-4" transform="" filter="url(#glow)" style="fill: #fff" >RequestVote {:term 1, :prevLogIndex 2, :lastLog…</text><text text-anchor="middle" x="47.22477826016841" y="-4" transform="" >RequestVote {:term 1, :prevLogIndex 2, :lastLog…</text></g><g transform="translate(1061.5385 170.0) rotate(117.14967814793359) " ><rect x="0" y="-2.5" height="5" width="400.57734716050254" fill="#000" ><title >n4 → n2 {:msg_id 3, :type "RequestVote", :term 1, :prevLogIndex 2, :lastLogTerm 0, :candidateId "n4"}</title></rect><use xlink:href="#ahead" x="404.57734716050254" y="0" /><text text-anchor="middle" x="202.28867358025127" y="-4" transform="rotate(180 202.28867358025127 0)" filter="url(#glow)" style="fill: #fff" >RequestVote {:term 1, :prevLogIndex 2, :lastLog…</text><text text-anchor="middle" x="202.28867358025127" y="-4" transform="rotate(180 202.28867358025127 0)" >RequestVote {:term 1, :prevLogIndex 2, :lastLog…</text></g><g transform="translate(1061.5385 270.0) rotate(107.10272651166105) " ><rect x="0" y="-2.5" height="5" width="309.8800845209161" fill="#000" ><title >n4 → n3 {:msg_id 4, :type "RequestVote", :term 1, :prevLogIndex 2, :lastLogTerm 0, :candidateId "n4"}</title></rect><use xlink:href="#ahead" x="313.8800845209161" y="0" /><text text-anchor="middle" x="156.94004226045806" y="-4" transform="rotate(180 156.94004226045806 0)" filter="url(#glow)" style="fill: #fff" >RequestVote {:term 1, :prevLogIndex 2, :lastLog…</text><text text-anchor="middle" x="156.94004226045806" y="-4" transform="rotate(180 156.94004226045806 0)" >RequestVote {:term 1, :prevLogIndex 2, :lastLog…</text></g><g transform="translate(1153.8462 310.0) rotate(108.24586319308742) " ><rect x="0" y="-2.5" height="5" width="290.8231990988638" fill="#000" ><title >n5 → n4 {:msg_id 5, :type "RequestVote", :term 1, :prevLogIndex 2, :lastLogTerm 0, :candidateId "n5"}</title></rect><use xlink:href="#ahead" x="294.8231990988638" y="0" /><text text-anchor="middle" x="147.4115995494319" y="-4" transform="rotate(180 147.4115995494319 0)" filter="url(#glow)" style="fill: #fff" >RequestVote {:term 1, :prevLogIndex 2, :lastLog…</text><text text-anchor="middle" x="147.4115995494319" y="-4" transform="rotate(180 147.4115995494319 0)" >RequestVote {:term 1, :prevLogIndex 2, :lastLog…</text></g><g transform="translate(969.2308 190.0) rotate(102.395405000835) " ><rect x="0" y="-2.5" height="5" width="426.024077766417" fill="#000" ><title >n3 → n2 {:msg_id 3, :type "RequestVote", :term 1, :prevLogIndex 2, :lastLogTerm 0, :candidateId "n3"}</title></rect><use xlink:href="#ahead" x="430.024077766417" y="0" /><text text-anchor="middle" x="215.0120388832085" y="-4" transform="rotate(180 215.0120388832085 0)" filter="url(#glow)" style="fill: #fff" >RequestVote {:term 1, :prevLogIndex 2, :lastLog…</text><text text-anchor="middle" x="215.0120388832085" y="-4" transform="rotate(180 215.0120388832085 0)" >RequestVote {:term 1, :prevLogIndex 2, :lastLog…</text></g><g transform="translate(969.2308 550.0) rotate(23.428689087602677) " ><rect x="0" y="-2.5" height="5" width="197.20350983888866" fill="#000" ><title >n3 → n5 {:msg_id 6, :type "RequestVote", :term 1, :prevLogIndex 2, :lastLogTerm 0, :candidateId "n3"}</title></rect><use xlink:href="#ahead" x="201.20350983888866" y="0" /><text text-anchor="middle" x="100.60175491944433" y="-4" transform="" filter="url(#glow)" style="fill: #fff" >RequestVote {:term 1, :prevLogIndex 2, :lastLog…</text><text text-anchor="middle" x="100.60175491944433" y="-4" transform="" >RequestVote {:term 1, :prevLogIndex 2, :lastLog…</text></g><g transform="translate(969.2308 290.0) rotate(90.0) " ><rect x="0" y="-2.5" height="5" width="356.0" fill="#000" ><title >n3 → n3 {:msg_id 4, :type "RequestVote", :term 1, :prevLogIndex 2, :lastLogTerm 0, :candidateId "n3"}</title></rect><use xlink:href="#ahead" x="360.0" y="0" /><text text-anchor="middle" x="180.0" y="-4" transform="rotate(180 180.0 0)" filter="url(#glow)" style="fill: #fff" >RequestVote {:term 1, :prevLogIndex 2, :lastLog…</text><text text-anchor="middle" x="180.0" y="-4" transform="rotate(180 180.0 0)" >RequestVote {:term 1, :prevLogIndex 2, :lastLog…</text></g><g transform="translate(1061.5385 350.0) rotate(90.0) " ><rect x="0" y="-2.5" height="5" width="316.0" fill="#000" ><title >n4 → n4 {:msg_id 5, :type "RequestVote", :term 1, :prevLogIndex 2, :lastLogTerm 0, :candidateId "n4"}</title></rect><use xlink:href="#ahead" x="320.0" y="0" /><text text-anchor="middle" x="160.0" y="-4" transform="rotate(180 160.0 0)" filter="url(#glow)" style="fill: #fff" >RequestVote {:term 1, :prevLogIndex 2, :lastLog…</text><text text-anchor="middle" x="160.0" y="-4" transform="rotate(180 160.0 0)" >RequestVote {:term 1, :prevLogIndex 2, :lastLog…</text></g><g transform="translate(876.9231 470.0) rotate(90.0) " ><rect x="0" y="-2.5" height="5" width="236.0" fill="#000" ><title >n2 → n2 {:msg_id 3, :type "RequestVote", :term 1, :prevLogIndex 2, :lastLogTerm 0, :candidateId "n2"}</title></rect><use xlink:href="#ahead" x="240.0" y="0" /><text text-anchor="middle" x="120.0" y="-4" transform="rotate(180 120.0 0)" filter="url(#glow)" style="fill: #fff" >RequestVote {:term 1, :prevLogIndex 2, :lastLog…</text><text text-anchor="middle" x="120.0" y="-4" transform="rotate(180 120.0 0)" >RequestVote {:term 1, :prevLogIndex 2, :lastLog…</text></g><g transform="translate(876.9231 690.0) rotate(23.4286959982972) " ><rect x="0" y="-2.5" height="5" width="96.60172691786879" fill="#000" ><title >n2 → n3 {:msg_id 4, :type "RequestVote", :term 1, :prevLogIndex 2, :lastLogTerm 0, :candidateId "n2"}</title></rect><use xlink:href="#ahead" x="100.60172691786879" y="0" /><text text-anchor="middle" x="50.300863458934394" y="-4" transform="" filter="url(#glow)" style="fill: #fff" >RequestVote {:term 1, :prevLogIndex 2, :lastLog…</text><text text-anchor="middle" x="50.300863458934394" y="-4" transform="" >RequestVote {:term 1, :prevLogIndex 2, :lastLog…</text></g><g transform="translate(969.2308 370.0) rotate(76.34645366366757) " ><rect x="0" y="-2.5" height="5" width="387.05077350499823" fill="#000" ><title >n3 → n4 {:msg_id 5, :type "RequestVote", :term 1, :prevLogIndex 2, :lastLogTerm 0, :candidateId "n3"}</title></rect><use xlink:href="#ahead" x="391.05077350499823" y="0" /><text text-anchor="middle" x="195.52538675249912" y="-4" transform="" filter="url(#glow)" style="fill: #fff" >RequestVote {:term 1, :prevLogIndex 2, :lastLog…</text><text text-anchor="middle" x="195.52538675249912" y="-4" transform="" >RequestVote {:term 1, :prevLogIndex 2, :lastLog…</text></g><g transform="translate(876.9231 770.0) rotate(6.182931102081405) " ><rect x="0" y="-2.5" height="5" width="181.69552992850902" fill="#000" ><title >n2 → n4 {:msg_id 5, :type "RequestVote", :term 1, :prevLogIndex 2, :lastLogTerm 0, :candidateId "n2"}</title></rect><use xlink:href="#ahead" x="185.69552992850902" y="0" /><text text-anchor="middle" x="92.84776496425451" y="-4" transform="" filter="url(#glow)" style="fill: #fff" >RequestVote {:term 1, :prevLogIndex 2, :lastLog…</text><text text-anchor="middle" x="92.84776496425451" y="-4" transform="" >RequestVote {:term 1, :prevLogIndex 2, :lastLog…</text></g><g transform="translate(876.9231 810.0) rotate(4.130855954104589) " ><rect x="0" y="-2.5" height="5" width="273.6443785380898" fill="#000" ><title >n2 → n5 {:msg_id 6, :type "RequestVote", :term 1, :prevLogIndex 2, :lastLogTerm 0, :candidateId "n2"}</title></rect><use xlink:href="#ahead" x="277.6443785380898" y="0" /><text text-anchor="middle" x="138.8221892690449" y="-4" transform="" filter="url(#glow)" style="fill: #fff" >RequestVote {:term 1, :prevLogIndex 2, :lastLog…</text><text text-anchor="middle" x="138.8221892690449" y="-4" transform="" >RequestVote {:term 1, :prevLogIndex 2, :lastLog…</text></g><g transform="translate(46.153847 850.0) rotate(1.0343947000563483) " ><rect x="0" y="-2.5" height="5" width="1103.8728855020388" fill="#81BFFC" ><title >c10 → n5 {:key 0, :type "read", :msg_id 1}</title></rect><use xlink:href="#ahead" x="1107.8728855020388" y="0" /><text text-anchor="middle" x="553.9364427510194" y="-4" transform="" filter="url(#glow)" style="fill: #fff" >read {:key 0}</text><text text-anchor="middle" x="553.9364427510194" y="-4" transform="" >read {:key 0}</text></g><g transform="translate(1153.8462 890.0) rotate(178.96560529994363) " ><rect x="0" y="-2.5" height="5" width="1103.8728855020388" fill="#FF1E90" ><title >n5 → c10 {:msg_id 7, :in_reply_to 1, :type "error", :code 11}</title></rect><use xlink:href="#ahead" x="1107.8728855020388" y="0" /><text text-anchor="middle" x="553.9364427510194" y="-4" transform="rotate(180 553.9364427510194 0)" filter="url(#glow)" style="fill: #fff" >error </text><text text-anchor="middle" x="553.9364427510194" y="-4" transform="rotate(180 553.9364427510194 0)" >error </text></g><g transform="translate(138.46153 930.0) rotate(1.2412143580976824) " ><rect x="0" y="-2.5" height="5" width="919.293560800883" fill="#81BFFC" ><title >c11 → n4 {:key 1, :value 3, :type "write", :msg_id 1}</title></rect><use xlink:href="#ahead" x="923.293560800883" y="0" /><text text-anchor="middle" x="461.6467804004415" y="-4" transform="" filter="url(#glow)" style="fill: #fff" >write {:key 1, :value 3}</text><text text-anchor="middle" x="461.6467804004415" y="-4" transform="" >write {:key 1, :value 3}</text></g><g transform="translate(1061.5385 970.0) rotate(178.75878564190234) " ><rect x="0" y="-2.5" height="5" width="919.293560800883" fill="#FF1E90" ><title >n4 → c11 {:msg_id 7, :in_reply_to 1, :type "error", :code 11}</title></rect><use xlink:href="#ahead" x="923.293560800883" y="0" /><text text-anchor="middle" x="461.6467804004415" y="-4" transform="rotate(180 461.6467804004415 0)" filter="url(#glow)" style="fill: #fff" >error </text><text text-anchor="middle" x="461.6467804004415" y="-4" transform="rotate(180 461.6467804004415 0)" >error </text></g><g transform="translate(230.76923 1010.0) rotate(1.7728747071649398) " ><rect x="0" y="-2.5" height="5" width="642.4633193278715" fill="#81BFFC" ><title >c12 → n2 {:key 0, :from 4, :to 3, :type "cas", :msg_id 1}</title></rect><use xlink:href="#ahead" x="646.4633193278715" y="0" /><text text-anchor="middle" x="323.2316596639358" y="-4" transform="" filter="url(#glow)" style="fill: #fff" >cas {:key 0, :from 4, :to 3}</text><text text-anchor="middle" x="323.2316596639358" y="-4" transform="" >cas {:key 0, :from 4, :to 3}</text></g><g transform="translate(876.9231 1050.0) rotate(178.22712529283507) " ><rect x="0" y="-2.5" height="5" width="642.4633193278715" fill="#FF1E90" ><title >n2 → c12 {:msg_id 7, :in_reply_to 1, :type "error", :code 11}</title></rect><use xlink:href="#ahead" x="646.4633193278715" y="0" /><text text-anchor="middle" x="323.2316596639358" y="-4" transform="rotate(180 323.2316596639358 0)" filter="url(#glow)" style="fill: #fff" >error </text><text text-anchor="middle" x="323.2316596639358" y="-4" transform="rotate(180 323.2316596639358 0)" >error </text></g><g transform="translate(138.46153 1090.0) rotate(1.2412143580976824) " ><rect x="0" y="-2.5" height="5" width="919.293560800883" fill="#81BFFC" ><title >c11 → n4 {:key 1, :from 1, :to 4, :type "cas", :msg_id 2}</title></rect><use xlink:href="#ahead" x="923.293560800883" y="0" /><text text-anchor="middle" x="461.6467804004415" y="-4" transform="" filter="url(#glow)" style="fill: #fff" >cas {:key 1, :from 1, :to 4}</text><text text-anchor="middle" x="461.6467804004415" y="-4" transform="" >cas {:key 1, :from 1, :to 4}</text></g><g transform="translate(1061.5385 1130.0) rotate(178.75878564190234) " ><rect x="0" y="-2.5" height="5" width="919.293560800883" fill="#FF1E90" ><title >n4 → c11 {:msg_id 8, :in_reply_to 2, :type "error", :code 11}</title></rect><use xlink:href="#ahead" x="923.293560800883" y="0" /><text text-anchor="middle" x="461.6467804004415" y="-4" transform="rotate(180 461.6467804004415 0)" filter="url(#glow)" style="fill: #fff" >error </text><text text-anchor="middle" x="461.6467804004415" y="-4" transform="rotate(180 461.6467804004415 0)" >error </text></g><g transform="translate(323.07693 1170.0) rotate(2.0681155968693705) " ><rect x="0" y="-2.5" height="5" width="550.2071543485528" fill="#81BFFC" ><title >c13 → n2 {:key 0, :type "read", :msg_id 1}</title></rect><use xlink:href="#ahead" x="554.2071543485528" y="0" /><text text-anchor="middle" x="277.1035771742764" y="-4" transform="" filter="url(#glow)" style="fill: #fff" >read {:key 0}</text><text text-anchor="middle" x="277.1035771742764" y="-4" transform="" >read {:key 0}</text></g><g transform="translate(876.9231 1210.0) rotate(177.93188440313065) " ><rect x="0" y="-2.5" height="5" width="550.2071543485528" fill="#FF1E90" ><title >n2 → c13 {:msg_id 8, :in_reply_to 1, :type "error", :code 11}</title></rect><use xlink:href="#ahead" x="554.2071543485528" y="0" /><text text-anchor="middle" x="277.1035771742764" y="-4" transform="rotate(180 277.1035771742764 0)" filter="url(#glow)" style="fill: #fff" >error </text><text text-anchor="middle" x="277.1035771742764" y="-4" transform="rotate(180 277.1035771742764 0)" >error </text></g><g transform="translate(138.46153 1250.0) rotate(1.2412143580976824) " ><rect x="0" y="-2.5" height="5" width="919.293560800883" fill="#81BFFC" ><title >c11 → n4 {:key 1, :value 3, :type "write", :msg_id 3}</title></rect><use xlink:href="#ahead" x="923.293560800883" y="0" /><text text-anchor="middle" x="461.6467804004415" y="-4" transform="" filter="url(#glow)" style="fill: #fff" >write {:key 1, :value 3}</text><text text-anchor="middle" x="461.6467804004415" y="-4" transform="" >write {:key 1, :value 3}</text></g><g transform="translate(1061.5385 1290.0) rotate(178.75878564190234) " ><rect x="0" y="-2.5" height="5" width="919.293560800883" fill="#FF1E90" ><title >n4 → c11 {:msg_id 9, :in_reply_to 3, :type "error", :code 11}</title></rect><use xlink:href="#ahead" x="923.293560800883" y="0" /><text text-anchor="middle" x="461.6467804004415" y="-4" transform="rotate(180 461.6467804004415 0)" filter="url(#glow)" style="fill: #fff" >error </text><text text-anchor="middle" x="461.6467804004415" y="-4" transform="rotate(180 461.6467804004415 0)" >error </text></g><g transform="translate(415.3846 1330.0) rotate(2.0681155968693705) " ><rect x="0" y="-2.5" height="5" width="550.2071543485528" fill="#81BFFC" ><title >c14 → n3 {:key 1, :from 4, :to 2, :type "cas", :msg_id 1}</title></rect><use xlink:href="#ahead" x="554.2071543485528" y="0" /><text text-anchor="middle" x="277.1035771742764" y="-4" transform="" filter="url(#glow)" style="fill: #fff" >cas {:key 1, :from 4, :to 2}</text><text text-anchor="middle" x="277.1035771742764" y="-4" transform="" >cas {:key 1, :from 4, :to 2}</text></g><g transform="translate(969.2308 1370.0) rotate(177.93188440313065) " ><rect x="0" y="-2.5" height="5" width="550.2071543485528" fill="#FF1E90" ><title >n3 → c14 {:msg_id 7, :in_reply_to 1, :type "error", :code 11}</title></rect><use xlink:href="#ahead" x="554.2071543485528" y="0" /><text text-anchor="middle" x="277.1035771742764" y="-4" transform="rotate(180 277.1035771742764 0)" filter="url(#glow)" style="fill: #fff" >error </text><text text-anchor="middle" x="277.1035771742764" y="-4" transform="rotate(180 277.1035771742764 0)" >error </text></g><g transform="translate(507.69232 1410.0) rotate(2.4812648516141924) " ><rect x="0" y="-2.5" height="5" width="457.9715822554192" fill="#81BFFC" ><title >c15 → n3 {:key 1, :from 0, :to 2, :type "cas", :msg_id 1}</title></rect><use xlink:href="#ahead" x="461.9715822554192" y="0" /><text text-anchor="middle" x="230.9857911277096" y="-4" transform="" filter="url(#glow)" style="fill: #fff" >cas {:key 1, :from 0, :to 2}</text><text text-anchor="middle" x="230.9857911277096" y="-4" transform="" >cas {:key 1, :from 0, :to 2}</text></g><g transform="translate(969.2308 1450.0) rotate(177.51873514838582) " ><rect x="0" y="-2.5" height="5" width="457.9715822554192" fill="#FF1E90" ><title >n3 → c15 {:msg_id 8, :in_reply_to 1, :type "error", :code 11}</title></rect><use xlink:href="#ahead" x="461.9715822554192" y="0" /><text text-anchor="middle" x="230.9857911277096" y="-4" transform="rotate(180 230.9857911277096 0)" filter="url(#glow)" style="fill: #fff" >error </text><text text-anchor="middle" x="230.9857911277096" y="-4" transform="rotate(180 230.9857911277096 0)" >error </text></g><g transform="translate(600.0 1490.0) rotate(2.0681154830127175) " ><rect x="0" y="-2.5" height="5" width="550.2071848462527" fill="#81BFFC" ><title >c16 → n5 {:key 0, :value 2, :type "write", :msg_id 1}</title></rect><use xlink:href="#ahead" x="554.2071848462527" y="0" /><text text-anchor="middle" x="277.1035924231264" y="-4" transform="" filter="url(#glow)" style="fill: #fff" >write {:key 0, :value 2}</text><text text-anchor="middle" x="277.1035924231264" y="-4" transform="" >write {:key 0, :value 2}</text></g><g transform="translate(1153.8462 1530.0) rotate(177.9318845169873) " ><rect x="0" y="-2.5" height="5" width="550.2071848462527" fill="#FF1E90" ><title >n5 → c16 {:msg_id 8, :in_reply_to 1, :type "error", :code 11}</title></rect><use xlink:href="#ahead" x="554.2071848462527" y="0" /><text text-anchor="middle" x="277.1035924231264" y="-4" transform="rotate(180 277.1035924231264 0)" filter="url(#glow)" style="fill: #fff" >error </text><text text-anchor="middle" x="277.1035924231264" y="-4" transform="rotate(180 277.1035924231264 0)" >error </text></g><g transform="translate(46.153847 1570.0) rotate(1.0343947000563483) " ><rect x="0" y="-2.5" height="5" width="1103.8728855020388" fill="#81BFFC" ><title >c10 → n5 {:key 0, :type "read", :msg_id 2}</title></rect><use xlink:href="#ahead" x="1107.8728855020388" y="0" /><text text-anchor="middle" x="553.9364427510194" y="-4" transform="" filter="url(#glow)" style="fill: #fff" >read {:key 0}</text><text text-anchor="middle" x="553.9364427510194" y="-4" transform="" >read {:key 0}</text></g><g transform="translate(1153.8462 1610.0) rotate(178.96560529994363) " ><rect x="0" y="-2.5" height="5" width="1103.8728855020388" fill="#FF1E90" ><title >n5 → c10 {:msg_id 9, :in_reply_to 2, :type "error", :code 11}</title></rect><use xlink:href="#ahead" x="1107.8728855020388" y="0" /><text text-anchor="middle" x="553.9364427510194" y="-4" transform="rotate(180 553.9364427510194 0)" filter="url(#glow)" style="fill: #fff" >error </text><text text-anchor="middle" x="553.9364427510194" y="-4" transform="rotate(180 553.9364427510194 0)" >error </text></g><g transform="translate(692.3077 1650.0) rotate(3.1004914104599126) " ><rect x="0" y="-2.5" height="5" width="365.77204385111565" fill="#81BFFC" ><title >c17 → n4 {:key 0, :from 0, :to 1, :type "cas", :msg_id 1}</title></rect><use xlink:href="#ahead" x="369.77204385111565" y="0" /><text text-anchor="middle" x="184.88602192555783" y="-4" transform="" filter="url(#glow)" style="fill: #fff" >cas {:key 0, :from 0, :to 1}</text><text text-anchor="middle" x="184.88602192555783" y="-4" transform="" >cas {:key 0, :from 0, :to 1}</text></g><g transform="translate(1061.5385 1690.0) rotate(176.8995085895401) " ><rect x="0" y="-2.5" height="5" width="365.77204385111565" fill="#FF1E90" ><title >n4 → c17 {:msg_id 10, :in_reply_to 1, :type "error", :code 11}</title></rect><use xlink:href="#ahead" x="369.77204385111565" y="0" /><text text-anchor="middle" x="184.88602192555783" y="-4" transform="rotate(180 184.88602192555783 0)" filter="url(#glow)" style="fill: #fff" >error </text><text text-anchor="middle" x="184.88602192555783" y="-4" transform="rotate(180 184.88602192555783 0)" >error </text></g></g></svg>