<?xml version="1.0" encoding="UTF-8"?><svg xmlns:svg="http://www.w3.org/2000/svg" xmlns="http://www.w3.org/2000/svg" xmlns:xlink="http://www.w3.org/1999/xlink" version="2.0" width="1200" height="1780" ><style >
svg {
  font-family: Helvetica, Arial, sans-serif;
  font-size: 11px;
}
rect {
  stroke-linecap: butt;
  stroke-width: 3;
  stroke: #fff;
/*  stroke-opacity: 1; */
}
rect:hover {
  stroke: #fff;
/*  stroke-opacity: 1; /*
}
polygon { fill: #000; }</style><defs ><polygon id="ahead" points="0 0, -12 4, -12 -4" /><filter id="glow" x="0" y="0" ><feGaussianBlur in="SourceAlpha" stdDeviation="2" result="blurred" /><feFlood flood-color="#fff" /><feComposite operator="in" in2="blurred" /><feComponentTransfer ><feFuncA type="linear" slope="10" intercept="0" /></feComponentTransfer><feMerge ><feMergeNode /><feMergeNode in="SourceGraphic" /></feMerge></filter></defs><g ><text x="40.0" y="20.0" text-anchor="middle" alignment-baseline="middle" fill="#000" >c10</text><text x="40.0" y="1020.0" text-anchor="middle" alignment-baseline="middle" fill="#aaa" >c10</text><text x="120.0" y="20.0" text-anchor="middle" alignment-baseline="middle" fill="#000" >c11</text><text x="120.0" y="1020.0" text-anchor="middle" alignment-baseline="middle" fill="#aaa" >c11</text><text x="200.0" y="20.0" text-anchor="middle" alignment-baseline="middle" fill="#000" >c12</text><text x="200.0" y="1020.0" text-anchor="middle" alignment-baseline="middle" fill="#aaa" >c12</text><text x="280.0" y="20.0" text-anchor="middle" alignment-baseline="middle" fill="#000" >c13</text><text x="280.0" y="1020.0" text-anchor="middle" alignment-baseline="middle" fill="#aaa" >c13</text><text x="360.0" y="20.0" text-anchor="middle" alignment-baseline="middle" fill="#000" >c14</text><text x="360.0" y="1020.0" text-anchor="middle" alignment-baseline="middle" fill="#aaa" >c14</text><text x="440.0" y="20.0" text-anchor="middle" alignment-baseline="middle" fill="#000" >c15</text><text x="440.0" y="1020.0" text-anchor="middle" alignment-baseline="middle" fill="#aaa" >c15</text><text x="520.0" y="20.0" text-anchor="middle" alignment-baseline="middle" fill="#000" >c16</text><text x="520.0" y="1020.0" text-anchor="middle" alignment-baseline="middle" fill="#aaa" >c16</text><text x="600.0" y="20.0" text-anchor="middle" alignment-baseline="middle" fill="#000" >c17</text><text x="600.0" y="1020.0" text-anchor="middle" alignment-baseline="middle" fill="#aaa" >c17</text><text x="680.0" y="20.0" text-anchor="middle" alignment-baseline="middle" fill="#000" >c18</text><text x="680.0" y="1020.0" text-anchor="middle" alignment-baseline="middle" fill="#aaa" >c18</text><text x="760.0" y="20.0" text-anchor="middle" alignment-baseline="middle" fill="#000" >c19</text><text x="760.0" y="1020.0" text-anchor="middle" alignment-baseline="middle" fill="#aaa" >c19</text><text x="840.0" y="20.0" text-anchor="middle" alignment-baseline="middle" fill="#000" >n1</text><text x="840.0" y="1020.0" text-anchor="middle" alignment-baseline="middle" fill="#aaa" >n1</text><text x="920.0" y="20.0" text-anchor="middle" alignment-baseline="middle" fill="#000" >n2</text><text x="920.0" y="1020.0" text-anchor="middle" alignment-baseline="middle" fill="#aaa" >n2</text><text x="1000.0" y="20.0" text-anchor="middle" alignment-baseline="middle" fill="#000" >n3</text><text x="1000.0" y="1020.0" text-anchor="middle" alignment-baseline="middle" fill="#aaa" >n3</text><text x="1080.0" y="20.0" text-anchor="middle" alignment-baseline="middle" fill="#000" >n4</text><text x="1080.0" y="1020.0" text-anchor="middle" alignment-baseline="middle" fill="#aaa" >n4</text><text x="1160.0" y="20.0" text-anchor="middle" alignment-baseline="middle" fill="#000" >n5</text><text x="1160.0" y="1020.0" text-anchor="middle" alignment-baseline="middle" fill="#aaa" >n5</text></g><g ><line stroke="#ccc" x1="40.0" y1="30.0" x2="40.0" y2="1690.0" /><line stroke="#ccc" x1="120.0" y1="30.0" x2="120.0" y2="1690.0" /><line stroke="#ccc" x1="200.0" y1="30.0" x2="200.0" y2="1690.0" /><line stroke="#ccc" x1="280.0" y1="30.0" x2="280.0" y2="1690.0" /><line stroke="#ccc" x1="360.0" y1="30.0" x2="360.0" y2="1690.0" /><line stroke="#ccc" x1="440.0" y1="30.0" x2="440.0" y2="1690.0" /><line stroke="#ccc" x1="520.0" y1="30.0" x2="520.0" y2="1690.0" /><line stroke="#ccc" x1="600.0" y1="30.0" x2="600.0" y2="1690.0" /><line stroke="#ccc" x1="680.0" y1="30.0" x2="680.0" y2="1690.0" /><line stroke="#ccc" x1="760.0" y1="30.0" x2="760.0" y2="1690.0" /><line stroke="#ccc" x1="840.0" y1="30.0" x2="840.0" y2="1690.0" /><line stroke="#ccc" x1="920.0" y1="30.0" x2="920.0" y2="1690.0" /><line stroke="#ccc" x1="1000.0" y1="30.0" x2="1000.0" y2="1690.0" /><line stroke="#ccc" x1="1080.0" y1="30.0" x2="1080.0" y2="1690.0" /><line stroke="#ccc" x1="1160.0" y1="30.0" x2="1160.0" y2="1690.0" /></g><g ><g transform="translate(840.0 50.0) rotate(14.036243467926479) " ><rect x="0" y="-2.5" height="5" width="78.46211251235322" fill="#000" ><title >n1 → n2 {:msg_id 2, :type "AppendEntries", :term 0, :prevIndex 0, :prevTerm 0, :entries [[["pass" nil] 0]], :commit 0}</title></rect><use xlink:href="#ahead" x="82.46211251235322" y="0" /><text text-anchor="middle" x="41.23105625617661" y="-4" transform="" filter="url(#glow)" style="fill: #fff" >AppendEntries {:term 0, :prevIndex 0, :prevTerm…</text><text text-anchor="middle" x="41.23105625617661" y="-4" transform="" >AppendEntries {:term 0, :prevIndex 0, :prevTerm…</text></g><g transform="translate(840.0 90.0) rotate(7.125016348901799) " ><rect x="0" y="-2.5" height="5" width="157.24515496597098" fill="#000" ><title >n1 → n3 {:msg_id 3, :type "AppendEntries", :term 0, :prevIndex 0, :prevTerm 0, :entries [[["pass" nil] 0]], :commit 0}</title></rect><use xlink:href="#ahead" x="161.24515496597098" y="0" /><text text-anchor="middle" x="80.62257748298549" y="-4" transform="" filter="url(#glow)" style="fill: #fff" >AppendEntries {:term 0, :prevIndex 0, :prevTerm…</text><text text-anchor="middle" x="80.62257748298549" y="-4" transform="" >AppendEntries {:term 0, :prevIndex 0, :prevTerm…</text></g><g transform="translate(840.0 130.0) rotate(4.763641690726177) " ><rect x="0" y="-2.5" height="5" width="236.8318915758459" fill="#000" ><title >n1 → n4 {:msg_id 4, :type "AppendEntries", :term 0, :prevIndex 0, :prevTerm 0, :entries [[["pass" nil] 0]], :commit 0}</title></rect><use xlink:href="#ahead" x="240.8318915758459" y="0" /><text text-anchor="middle" x="120.41594578792295" y="-4" transform="" filter="url(#glow)" style="fill: #fff" >AppendEntries {:term 0, :prevIndex 0, :prevTerm…</text><text text-anchor="middle" x="120.41594578792295" y="-4" transform="" >AppendEntries {:term 0, :prevIndex 0, :prevTerm…</text></g><g transform="translate(840.0 170.0) rotate(3.5763343749973515) " ><rect x="0" y="-2.5" height="5" width="316.62439083762797" fill="#000" ><title >n1 → n5 {:msg_id 5, :type "AppendEntries", :term 0, :prevIndex 0, :prevTerm 0, :entries [[["pass" nil] 0]], :commit 0}</title></rect><use xlink:href="#ahead" x="320.62439083762797" y="0" /><text text-anchor="middle" x="160.31219541881399" y="-4" transform="" filter="url(#glow)" style="fill: #fff" >AppendEntries {:term 0, :prevIndex 0, :prevTerm…</text><text text-anchor="middle" x="160.31219541881399" y="-4" transform="" >AppendEntries {:term 0, :prevIndex 0, :prevTerm…</text></g><g transform="translate(1000.0 210.0) rotate(165.96375653207352) " ><rect x="0" y="-2.5" height="5" width="160.92422502470643" fill="#000" ><title >n3 → n1 {:msg_id 2, :in_reply_to 3, :type "AppendEntriesRes", :res true, :term 0, :next 2, :commit 0}</title></rect><use xlink:href="#ahead" x="164.92422502470643" y="0" /><text text-anchor="middle" x="82.46211251235322" y="-4" transform="rotate(180 82.46211251235322 0)" filter="url(#glow)" style="fill: #fff" >AppendEntriesRes {:res true, :term 0, :next 2, …</text><text text-anchor="middle" x="82.46211251235322" y="-4" transform="rotate(180 82.46211251235322 0)" >AppendEntriesRes {:res true, :term 0, :next 2, …</text></g><g transform="translate(920.0 230.0) rotate(143.13010235415598) " ><rect x="0" y="-2.5" height="5" width="96.0" fill="#000" ><title >n2 → n1 {:msg_id 2, :in_reply_to 2, :type "AppendEntriesRes", :res true, :term 0, :next 2, :commit 0}</title></rect><use xlink:href="#ahead" x="100.0" y="0" /><text text-anchor="middle" x="50.0" y="-4" transform="rotate(180 50.0 0)" filter="url(#glow)" style="fill: #fff" >AppendEntriesRes {:res true, :term 0, :next 2, …</text><text text-anchor="middle" x="50.0" y="-4" transform="rotate(180 50.0 0)" >AppendEntriesRes {:res true, :term 0, :next 2, …</text></g><g transform="translate(1080.0 270.0) rotate(170.53767779197437) " ><rect x="0" y="-2.5" height="5" width="239.3105012119288" fill="#000" ><title >n4 → n1 {:msg_id 2, :in_reply_to 4, :type "AppendEntriesRes", :res true, :term 0, :next 2, :commit 0}</title></rect><use xlink:href="#ahead" x="243.3105012119288" y="0" /><text text-anchor="middle" x="121.6552506059644" y="-4" transform="rotate(180 121.6552506059644 0)" filter="url(#glow)" style="fill: #fff" >AppendEntriesRes {:res true, :term 0, :next 2, …</text><text text-anchor="middle" x="121.6552506059644" y="-4" transform="rotate(180 121.6552506059644 0)" >AppendEntriesRes {:res true, :term 0, :next 2, …</text></g><g transform="translate(1160.0 330.0) rotate(176.42366562500266) " ><rect x="0" y="-2.5" height="5" width="316.62439083762797" fill="#000" ><title >n5 → n1 {:msg_id 2, :in_reply_to 5, :type "AppendEntriesRes", :res true, :term 0, :next 2, :commit 0}</title></rect><use xlink:href="#ahead" x="320.62439083762797" y="0" /><text text-anchor="middle" x="160.31219541881399" y="-4" transform="rotate(180 160.31219541881399 0)" filter="url(#glow)" style="fill: #fff" >AppendEntriesRes {:res true, :term 0, :next 2, …</text><text text-anchor="middle" x="160.31219541881399" y="-4" transform="rotate(180 160.31219541881399 0)" >AppendEntriesRes {:res true, :term 0, :next 2, …</text></g><g transform="translate(40.0 370.0) rotate(1.3019526725788753) " ><rect x="0" y="-2.5" height="5" width="876.2272433866154" fill="#81BFFC" ><title >c10 → n2 {:key 0, :type "read", :msg_id 1}</title></rect><use xlink:href="#ahead" x="880.2272433866154" y="0" /><text text-anchor="middle" x="440.1136216933077" y="-4" transform="" filter="url(#glow)" style="fill: #fff" >read {:key 0}</text><text text-anchor="middle" x="440.1136216933077" y="-4" transform="" >read {:key 0}</text></g><g transform="translate(920.0 410.0) rotate(178.69804732742114) " ><rect x="0" y="-2.5" height="5" width="876.2272433866154" fill="#FF1E90" ><title >n2 → c10 {:msg_id 3, :in_reply_to 1, :type "error", :code 11, :text "Not Leader"}</title></rect><use xlink:href="#ahead" x="880.2272433866154" y="0" /><text text-anchor="middle" x="440.1136216933077" y="-4" transform="rotate(180 440.1136216933077 0)" filter="url(#glow)" style="fill: #fff" >error Not Leader</text><text text-anchor="middle" x="440.1136216933077" y="-4" transform="rotate(180 440.1136216933077 0)" >error Not Leader</text></g><g transform="translate(120.0 450.0) rotate(1.3019526725788753) " ><rect x="0" y="-2.5" height="5" width="876.2272433866154" fill="#81BFFC" ><title >c11 → n3 {:key 1, :value 1, :type "write", :msg_id 1}</title></rect><use xlink:href="#ahead" x="880.2272433866154" y="0" /><text text-anchor="middle" x="440.1136216933077" y="-4" transform="" filter="url(#glow)" style="fill: #fff" >write {:key 1, :value 1}</text><text text-anchor="middle" x="440.1136216933077" y="-4" transform="" >write {:key 1, :value 1}</text></g><g transform="translate(1000.0 490.0) rotate(178.69804732742114) " ><rect x="0" y="-2.5" height="5" width="876.2272433866154" fill="#FF1E90" ><title >n3 → c11 {:msg_id 3, :in_reply_to 1, :type "error", :code 11, :text "Not Leader"}</title></rect><use xlink:href="#ahead" x="880.2272433866154" y="0" /><text text-anchor="middle" x="440.1136216933077" y="-4" transform="rotate(180 440.1136216933077 0)" filter="url(#glow)" style="fill: #fff" >error Not Leader</text><text text-anchor="middle" x="440.1136216933077" y="-4" transform="rotate(180 440.1136216933077 0)" >error Not Leader</text></g><g transform="translate(200.0 530.0) rotate(1.3019526725788753) " ><rect x="0" y="-2.5" height="5" width="876.2272433866154" fill="#81BFFC" ><title >c12 → n4 {:key 0, :type "read", :msg_id 1}</title></rect><use xlink:href="#ahead" x="880.2272433866154" y="0" /><text text-anchor="middle" x="440.1136216933077" y="-4" transform="" filter="url(#glow)" style="fill: #fff" >read {:key 0}</text><text text-anchor="middle" x="440.1136216933077" y="-4" transform="" >read {:key 0}</text></g><g transform="translate(1080.0 570.0) rotate(178.69804732742114) " ><rect x="0" y="-2.5" height="5" width="876.2272433866154" fill="#FF1E90" ><title >n4 → c12 {:msg_id 3, :in_reply_to 1, :type "error", :code 11, :text "Not Leader"}</title></rect><use xlink:href="#ahead" x="880.2272433866154" y="0" /><text text-anchor="middle" x="440.1136216933077" y="-4" transform="rotate(180 440.1136216933077 0)" filter="url(#glow)" style="fill: #fff" >error Not Leader</text><text text-anchor="middle" x="440.1136216933077" y="-4" transform="rotate(180 440.1136216933077 0)" >error Not Leader</text></g><g transform="translate(280.0 610.0) rotate(1.5911402711945872) " ><rect x="0" y="-2.5" height="5" width="716.2777242147642" fill="#81BFFC" ><title >c13 → n3 {:key 1, :from 0, :to 1, :type "cas", :msg_id 1}</title></rect><use xlink:href="#ahead" x="720.2777242147642" y="0" /><text text-anchor="middle" x="360.1388621073821" y="-4" transform="" filter="url(#glow)" style="fill: #fff" >cas {:key 1, :from 0, :to 1}</text><text text-anchor="middle" x="360.1388621073821" y="-4" transform="" >cas {:key 1, :from 0, :to 1}</text></g><g transform="translate(1000.0 650.0) rotate(178.4088597288054) " ><rect x="0" y="-2.5" height="5" width="716.2777242147642" fill="#FF1E90" ><title >n3 → c13 {:msg_id 4, :in_reply_to 1, :type "error", :code 11, :text "Not Leader"}</title></rect><use xlink:href="#ahead" x="720.2777242147642" y="0" /><text text-anchor="middle" x="360.1388621073821" y="-4" transform="rotate(180 360.1388621073821 0)" filter="url(#glow)" style="fill: #fff" >error Not Leader</text><text text-anchor="middle" x="360.1388621073821" y="-4" transform="rotate(180 360.1388621073821 0)" >error Not Leader</text></g><g transform="translate(40.0 690.0) rotate(1.3019526725788753) " ><rect x="0" y="-2.5" height="5" width="876.2272433866154" fill="#81BFFC" ><title >c10 → n2 {:key 0, :type "read", :msg_id 2}</title></rect><use xlink:href="#ahead" x="880.2272433866154" y="0" /><text text-anchor="middle" x="440.1136216933077" y="-4" transform="" filter="url(#glow)" style="fill: #fff" >read {:key 0}</text><text text-anchor="middle" x="440.1136216933077" y="-4" transform="" >read {:key 0}</text></g><g transform="translate(920.0 730.0) rotate(178.69804732742114) " ><rect x="0" y="-2.5" height="5" width="876.2272433866154" fill="#FF1E90" ><title >n2 → c10 {:msg_id 4, :in_reply_to 2, :type "error", :code 11, :text "Not Leader"}</title></rect><use xlink:href="#ahead" x="880.2272433866154" y="0" /><text text-anchor="middle" x="440.1136216933077" y="-4" transform="rotate(180 440.1136216933077 0)" filter="url(#glow)" style="fill: #fff" >error Not Leader</text><text text-anchor="middle" x="440.1136216933077" y="-4" transform="rotate(180 440.1136216933077 0)" >error Not Leader</text></g><g transform="translate(360.0 770.0) rotate(2.0454084888872277) " ><rect x="0" y="-2.5" height="5" width="556.357029044876" fill="#81BFFC" ><title >c14 → n2 {:key 1, :value 0, :type "write", :msg_id 1}</title></rect><use xlink:href="#ahead" x="560.357029044876" y="0" /><text text-anchor="middle" x="280.178514522438" y="-4" transform="" filter="url(#glow)" style="fill: #fff" >write {:key 1, :value 0}</text><text text-anchor="middle" x="280.178514522438" y="-4" transform="" >write {:key 1, :value 0}</text></g><g transform="translate(920.0 810.0) rotate(177.95459151111277) " ><rect x="0" y="-2.5" height="5" width="556.357029044876" fill="#FF1E90" ><title >n2 → c14 {:msg_id 5, :in_reply_to 1, :type "error", :code 11, :text "Not Leader"}</title></rect><use xlink:href="#ahead" x="560.357029044876" y="0" /><text text-anchor="middle" x="280.178514522438" y="-4" transform="rotate(180 280.178514522438 0)" filter="url(#glow)" style="fill: #fff" >error Not Leader</text><text text-anchor="middle" x="280.178514522438" y="-4" transform="rotate(180 280.178514522438 0)" >error Not Leader</text></g><g transform="translate(440.0 850.0) rotate(2.862405226111748) " ><rect x="0" y="-2.5" height="5" width="396.4996878900157" fill="#81BFFC" ><title >c15 → n1 {:key 0, :from 4, :to 3, :type "cas", :msg_id 1}</title></rect><use xlink:href="#ahead" x="400.4996878900157" y="0" /><text text-anchor="middle" x="200.24984394500785" y="-4" transform="" filter="url(#glow)" style="fill: #fff" >cas {:key 0, :from 4, :to 3}</text><text text-anchor="middle" x="200.24984394500785" y="-4" transform="" >cas {:key 0, :from 4, :to 3}</text></g><g transform="translate(360.0 890.0) rotate(2.0454084888872277) " ><rect x="0" y="-2.5" height="5" width="556.357029044876" fill="#81BFFC" ><title >c14 → n2 {:key 1, :from 4, :to 1, :type "cas", :msg_id 2}</title></rect><use xlink:href="#ahead" x="560.357029044876" y="0" /><text text-anchor="middle" x="280.178514522438" y="-4" transform="" filter="url(#glow)" style="fill: #fff" >cas {:key 1, :from 4, :to 1}</text><text text-anchor="middle" x="280.178514522438" y="-4" transform="" >cas {:key 1, :from 4, :to 1}</text></g><g transform="translate(920.0 930.0) rotate(177.95459151111277) " ><rect x="0" y="-2.5" height="5" width="556.357029044876" fill="#FF1E90" ><title >n2 → c14 {:msg_id 6, :in_reply_to 2, :type "error", :code 11, :text "Not Leader"}</title></rect><use xlink:href="#ahead" x="560.357029044876" y="0" /><text text-anchor="middle" x="280.178514522438" y="-4" transform="rotate(180 280.178514522438 0)" filter="url(#glow)" style="fill: #fff" >error Not Leader</text><text text-anchor="middle" x="280.178514522438" y="-4" transform="rotate(180 280.178514522438 0)" >error Not Leader</text></g><g transform="translate(120.0 970.0) rotate(1.3019526725788753) " ><rect x="0" y="-2.5" height="5" width="876.2272433866154" fill="#81BFFC" ><title >c11 → n3 {:key 1, :from 3, :to 1, :type "cas", :msg_id 2}</title></rect><use xlink:href="#ahead" x="880.2272433866154" y="0" /><text text-anchor="middle" x="440.1136216933077" y="-4" transform="" filter="url(#glow)" style="fill: #fff" >cas {:key 1, :from 3, :to 1}</text><text text-anchor="middle" x="440.1136216933077" y="-4" transform="" >cas {:key 1, :from 3, :to 1}</text></g><g transform="translate(1000.0 1010.0) rotate(178.69804732742114) " ><rect x="0" y="-2.5" height="5" width="876.2272433866154" fill="#FF1E90" ><title >n3 → c11 {:msg_id 5, :in_reply_to 2, :type "error", :code 11, :text "Not Leader"}</title></rect><use xlink:href="#ahead" x="880.2272433866154" y="0" /><text text-anchor="middle" x="440.1136216933077" y="-4" transform="rotate(180 440.1136216933077 0)" filter="url(#glow)" style="fill: #fff" >error Not Leader</text><text text-anchor="middle" x="440.1136216933077" y="-4" transform="rotate(180 440.1136216933077 0)" >error Not Leader</text></g><g transform="translate(520.0 1050.0) rotate(2.862405226111748) " ><rect x="0" y="-2.5" height="5" width="396.4996878900157" fill="#81BFFC" ><title >c16 → n2 {:key 1, :value 0, :type "write", :msg_id 1}</title></rect><use xlink:href="#ahead" x="400.4996878900157" y="0" /><text text-anchor="middle" x="200.24984394500785" y="-4" transform="" filter="url(#glow)" style="fill: #fff" >write {:key 1, :value 0}</text><text text-anchor="middle" x="200.24984394500785" y="-4" transform="" >write {:key 1, :value 0}</text></g><g transform="translate(920.0 1090.0) rotate(177.13759477388828) " ><rect x="0" y="-2.5" height="5" width="396.4996878900157" fill="#FF1E90" ><title >n2 → c16 {:msg_id 7, :in_reply_to 1, :type "error", :code 11, :text "Not Leader"}</title></rect><use xlink:href="#ahead" x="400.4996878900157" y="0" /><text text-anchor="middle" x="200.24984394500785" y="-4" transform="rotate(180 200.24984394500785 0)" filter="url(#glow)" style="fill: #fff" >error Not Leader</text><text text-anchor="middle" x="200.24984394500785" y="-4" transform="rotate(180 200.24984394500785 0)" >error Not Leader</text></g><g transform="translate(600.0 1130.0) rotate(2.862405226111748) " ><rect x="0" y="-2.5" height="5" width="396.4996878900157" fill="#81BFFC" ><title >c17 → n3 {:key 0, :from 2, :to 1, :type "cas", :msg_id 1}</title></rect><use xlink:href="#ahead" x="400.4996878900157" y="0" /><text text-anchor="middle" x="200.24984394500785" y="-4" transform="" filter="url(#glow)" style="fill: #fff" >cas {:key 0, :from 2, :to 1}</text><text text-anchor="middle" x="200.24984394500785" y="-4" transform="" >cas {:key 0, :from 2, :to 1}</text></g><g transform="translate(1000.0 1170.0) rotate(177.13759477388828) " ><rect x="0" y="-2.5" height="5" width="396.4996878900157" fill="#FF1E90" ><title >n3 → c17 {:msg_id 6, :in_reply_to 1, :type "error", :code 11, :text "Not Leader"}</title></rect><use xlink:href="#ahead" x="400.4996878900157" y="0" /><text text-anchor="middle" x="200.24984394500785" y="-4" transform="rotate(180 200.24984394500785 0)" filter="url(#glow)" style="fill: #fff" >error Not Leader</text><text text-anchor="middle" x="200.24984394500785" y="-4" transform="rotate(180 200.24984394500785 0)" >error Not Leader</text></g><g transform="translate(40.0 1210.0) rotate(1.3019526725788753) " ><rect x="0" y="-2.5" height="5" width="876.2272433866154" fill="#81BFFC" ><title >c10 → n2 {:key 0, :type "read", :msg_id 3}</title></rect><use xlink:href="#ahead" x="880.2272433866154" y="0" /><text text-anchor="middle" x="440.1136216933077" y="-4" transform="" filter="url(#glow)" style="fill: #fff" >read {:key 0}</text><text text-anchor="middle" x="440.1136216933077" y="-4" transform="" >read {:key 0}</text></g><g transform="translate(920.0 1250.0) rotate(178.69804732742114) " ><rect x="0" y="-2.5" height="5" width="876.2272433866154" fill="#FF1E90" ><title >n2 → c10 {:msg_id 8, :in_reply_to 3, :type "error", :code 11, :text "Not Leader"}</title></rect><use xlink:href="#ahead" x="880.2272433866154" y="0" /><text text-anchor="middle" x="440.1136216933077" y="-4" transform="rotate(180 440.1136216933077 0)" filter="url(#glow)" style="fill: #fff" >error Not Leader</text><text text-anchor="middle" x="440.1136216933077" y="-4" transform="rotate(180 440.1136216933077 0)" >error Not Leader</text></g><g transform="translate(680.0 1290.0) rotate(2.3859440303888126) " ><rect x="0" y="-2.5" height="5" width="476.41648597857255" fill="#81BFFC" ><title >c18 → n5 {:key 0, :from 4, :to 0, :type "cas", :msg_id 1}</title></rect><use xlink:href="#ahead" x="480.41648597857255" y="0" /><text text-anchor="middle" x="240.20824298928628" y="-4" transform="" filter="url(#glow)" style="fill: #fff" >cas {:key 0, :from 4, :to 0}</text><text text-anchor="middle" x="240.20824298928628" y="-4" transform="" >cas {:key 0, :from 4, :to 0}</text></g><g transform="translate(1160.0 1330.0) rotate(177.6140559696112) " ><rect x="0" y="-2.5" height="5" width="476.41648597857255" fill="#FF1E90" ><title >n5 → c18 {:msg_id 3, :in_reply_to 1, :type "error", :code 11, :text "Not Leader"}</title></rect><use xlink:href="#ahead" x="480.41648597857255" y="0" /><text text-anchor="middle" x="240.20824298928628" y="-4" transform="rotate(180 240.20824298928628 0)" filter="url(#glow)" style="fill: #fff" >error Not Leader</text><text text-anchor="middle" x="240.20824298928628" y="-4" transform="rotate(180 240.20824298928628 0)" >error Not Leader</text></g><g transform="translate(760.0 1370.0) rotate(14.036243467926479) " ><rect x="0" y="-2.5" height="5" width="78.46211251235322" fill="#81BFFC" ><title >c19 → n1 {:key 0, :type "read", :msg_id 1}</title></rect><use xlink:href="#ahead" x="82.46211251235322" y="0" /><text text-anchor="middle" x="41.23105625617661" y="-4" transform="" filter="url(#glow)" style="fill: #fff" >read {:key 0}</text><text text-anchor="middle" x="41.23105625617661" y="-4" transform="" >read {:key 0}</text></g><g transform="translate(840.0 1410.0) rotate(165.96375653207352) " ><rect x="0" y="-2.5" height="5" width="78.46211251235322" fill="#FF1E90" ><title >n1 → c19 {:msg_id 6, :in_reply_to 1, :type "error", :code 20, :text "Invalid Key"}</title></rect><use xlink:href="#ahead" x="82.46211251235322" y="0" /><text text-anchor="middle" x="41.23105625617661" y="-4" transform="rotate(180 41.23105625617661 0)" filter="url(#glow)" style="fill: #fff" >error Invalid Key</text><text text-anchor="middle" x="41.23105625617661" y="-4" transform="rotate(180 41.23105625617661 0)" >error Invalid Key</text></g><g transform="translate(520.0 1450.0) rotate(2.862405226111748) " ><rect x="0" y="-2.5" height="5" width="396.4996878900157" fill="#81BFFC" ><title >c16 → n2 {:key 1, :from 3, :to 0, :type "cas", :msg_id 2}</title></rect><use xlink:href="#ahead" x="400.4996878900157" y="0" /><text text-anchor="middle" x="200.24984394500785" y="-4" transform="" filter="url(#glow)" style="fill: #fff" >cas {:key 1, :from 3, :to 0}</text><text text-anchor="middle" x="200.24984394500785" y="-4" transform="" >cas {:key 1, :from 3, :to 0}</text></g><g transform="translate(920.0 1490.0) rotate(177.13759477388828) " ><rect x="0" y="-2.5" height="5" width="396.4996878900157" fill="#FF1E90" ><title >n2 → c16 {:msg_id 9, :in_reply_to 2, :type "error", :code 11, :text "Not Leader"}</title></rect><use xlink:href="#ahead" x="400.4996878900157" y="0" /><text text-anchor="middle" x="200.24984394500785" y="-4" transform="rotate(180 200.24984394500785 0)" filter="url(#glow)" style="fill: #fff" >error Not Leader</text><text text-anchor="middle" x="200.24984394500785" y="-4" transform="rotate(180 200.24984394500785 0)" >error Not Leader</text></g><g transform="translate(600.0 1530.0) rotate(2.862405226111748) " ><rect x="0" y="-2.5" height="5" width="396.4996878900157" fill="#81BFFC" ><title >c17 → n3 {:key 0, :from 1, :to 2, :type "cas", :msg_id 2}</title></rect><use xlink:href="#ahead" x="400.4996878900157" y="0" /><text text-anchor="middle" x="200.24984394500785" y="-4" transform="" filter="url(#glow)" style="fill: #fff" >cas {:key 0, :from 1, :to 2}</text><text text-anchor="middle" x="200.24984394500785" y="-4" transform="" >cas {:key 0, :from 1, :to 2}</text></g><g transform="translate(1000.0 1570.0) rotate(177.13759477388828) " ><rect x="0" y="-2.5" height="5" width="396.4996878900157" fill="#FF1E90" ><title >n3 → c17 {:msg_id 7, :in_reply_to 2, :type "error", :code 11, :text "Not Leader"}</title></rect><use xlink:href="#ahead" x="400.4996878900157" y="0" /><text text-anchor="middle" x="200.24984394500785" y="-4" transform="rotate(180 200.24984394500785 0)" filter="url(#glow)" style="fill: #fff" >error Not Leader</text><text text-anchor="middle" x="200.24984394500785" y="-4" transform="rotate(180 200.24984394500785 0)" >error Not Leader</text></g><g transform="translate(360.0 1610.0) rotate(2.0454084888872277) " ><rect x="0" y="-2.5" height="5" width="556.357029044876" fill="#81BFFC" ><title >c14 → n2 {:key 1, :from 4, :to 2, :type "cas", :msg_id 3}</title></rect><use xlink:href="#ahead" x="560.357029044876" y="0" /><text text-anchor="middle" x="280.178514522438" y="-4" transform="" filter="url(#glow)" style="fill: #fff" >cas {:key 1, :from 4, :to 2}</text><text text-anchor="middle" x="280.178514522438" y="-4" transform="" >cas {:key 1, :from 4, :to 2}</text></g><g transform="translate(920.0 1650.0) rotate(177.95459151111277) " ><rect x="0" y="-2.5" height="5" width="556.357029044876" fill="#FF1E90" ><title >n2 → c14 {:msg_id 10, :in_reply_to 3, :type "error", :code 11, :text "Not Leader"}</title></rect><use xlink:href="#ahead" x="560.357029044876" y="0" /><text text-anchor="middle" x="280.178514522438" y="-4" transform="rotate(180 280.178514522438 0)" filter="url(#glow)" style="fill: #fff" >error Not Leader</text><text text-anchor="middle" x="280.178514522438" y="-4" transform="rotate(180 280.178514522438 0)" >error Not Leader</text></g></g></svg>