<?xml version="1.0" encoding="UTF-8"?><svg xmlns:svg="http://www.w3.org/2000/svg" xmlns="http://www.w3.org/2000/svg" xmlns:xlink="http://www.w3.org/1999/xlink" version="2.0" width="1200" height="1660" ><style >
svg {
  font-family: Helvetica, Arial, sans-serif;
  font-size: 11px;
}
rect {
  stroke-linecap: butt;
  stroke-width: 3;
  stroke: #fff;
/*  stroke-opacity: 1; */
}
rect:hover {
  stroke: #fff;
/*  stroke-opacity: 1; /*
}
polygon { fill: #000; }</style><defs ><polygon id="ahead" points="0 0, -12 4, -12 -4" /><filter id="glow" x="0" y="0" ><feGaussianBlur in="SourceAlpha" stdDeviation="2" result="blurred" /><feFlood flood-color="#fff" /><feComposite operator="in" in2="blurred" /><feComponentTransfer ><feFuncA type="linear" slope="10" intercept="0" /></feComponentTransfer><feMerge ><feMergeNode /><feMergeNode in="SourceGraphic" /></feMerge></filter></defs><g ><text x="37.5" y="20.0" text-anchor="middle" alignment-baseline="middle" fill="#000" >c10</text><text x="37.5" y="1020.0" text-anchor="middle" alignment-baseline="middle" fill="#aaa" >c10</text><text x="112.5" y="20.0" text-anchor="middle" alignment-baseline="middle" fill="#000" >c11</text><text x="112.5" y="1020.0" text-anchor="middle" alignment-baseline="middle" fill="#aaa" >c11</text><text x="187.5" y="20.0" text-anchor="middle" alignment-baseline="middle" fill="#000" >c12</text><text x="187.5" y="1020.0" text-anchor="middle" alignment-baseline="middle" fill="#aaa" >c12</text><text x="262.5" y="20.0" text-anchor="middle" alignment-baseline="middle" fill="#000" >c13</text><text x="262.5" y="1020.0" text-anchor="middle" alignment-baseline="middle" fill="#aaa" >c13</text><text x="337.5" y="20.0" text-anchor="middle" alignment-baseline="middle" fill="#000" >c14</text><text x="337.5" y="1020.0" text-anchor="middle" alignment-baseline="middle" fill="#aaa" >c14</text><text x="412.5" y="20.0" text-anchor="middle" alignment-baseline="middle" fill="#000" >c15</text><text x="412.5" y="1020.0" text-anchor="middle" alignment-baseline="middle" fill="#aaa" >c15</text><text x="487.5" y="20.0" text-anchor="middle" alignment-baseline="middle" fill="#000" >c16</text><text x="487.5" y="1020.0" text-anchor="middle" alignment-baseline="middle" fill="#aaa" >c16</text><text x="562.5" y="20.0" text-anchor="middle" alignment-baseline="middle" fill="#000" >c17</text><text x="562.5" y="1020.0" text-anchor="middle" alignment-baseline="middle" fill="#aaa" >c17</text><text x="637.5" y="20.0" text-anchor="middle" alignment-baseline="middle" fill="#000" >c18</text><text x="637.5" y="1020.0" text-anchor="middle" alignment-baseline="middle" fill="#aaa" >c18</text><text x="712.5" y="20.0" text-anchor="middle" alignment-baseline="middle" fill="#000" >c19</text><text x="712.5" y="1020.0" text-anchor="middle" alignment-baseline="middle" fill="#aaa" >c19</text><text x="787.5" y="20.0" text-anchor="middle" alignment-baseline="middle" fill="#000" >c20</text><text x="787.5" y="1020.0" text-anchor="middle" alignment-baseline="middle" fill="#aaa" >c20</text><text x="862.5" y="20.0" text-anchor="middle" alignment-baseline="middle" fill="#000" >n1</text><text x="862.5" y="1020.0" text-anchor="middle" alignment-baseline="middle" fill="#aaa" >n1</text><text x="937.5" y="20.0" text-anchor="middle" alignment-baseline="middle" fill="#000" >n2</text><text x="937.5" y="1020.0" text-anchor="middle" alignment-baseline="middle" fill="#aaa" >n2</text><text x="1012.5" y="20.0" text-anchor="middle" alignment-baseline="middle" fill="#000" >n3</text><text x="1012.5" y="1020.0" text-anchor="middle" alignment-baseline="middle" fill="#aaa" >n3</text><text x="1087.5" y="20.0" text-anchor="middle" alignment-baseline="middle" fill="#000" >n4</text><text x="1087.5" y="1020.0" text-anchor="middle" alignment-baseline="middle" fill="#aaa" >n4</text><text x="1162.5" y="20.0" text-anchor="middle" alignment-baseline="middle" fill="#000" >n5</text><text x="1162.5" y="1020.0" text-anchor="middle" alignment-baseline="middle" fill="#aaa" >n5</text></g><g ><line stroke="#ccc" x1="37.5" y1="30.0" x2="37.5" y2="1570.0" /><line stroke="#ccc" x1="112.5" y1="30.0" x2="112.5" y2="1570.0" /><line stroke="#ccc" x1="187.5" y1="30.0" x2="187.5" y2="1570.0" /><line stroke="#ccc" x1="262.5" y1="30.0" x2="262.5" y2="1570.0" /><line stroke="#ccc" x1="337.5" y1="30.0" x2="337.5" y2="1570.0" /><line stroke="#ccc" x1="412.5" y1="30.0" x2="412.5" y2="1570.0" /><line stroke="#ccc" x1="487.5" y1="30.0" x2="487.5" y2="1570.0" /><line stroke="#ccc" x1="562.5" y1="30.0" x2="562.5" y2="1570.0" /><line stroke="#ccc" x1="637.5" y1="30.0" x2="637.5" y2="1570.0" /><line stroke="#ccc" x1="712.5" y1="30.0" x2="712.5" y2="1570.0" /><line stroke="#ccc" x1="787.5" y1="30.0" x2="787.5" y2="1570.0" /><line stroke="#ccc" x1="862.5" y1="30.0" x2="862.5" y2="1570.0" /><line stroke="#ccc" x1="937.5" y1="30.0" x2="937.5" y2="1570.0" /><line stroke="#ccc" x1="1012.5" y1="30.0" x2="1012.5" y2="1570.0" /><line stroke="#ccc" x1="1087.5" y1="30.0" x2="1087.5" y2="1570.0" /><line stroke="#ccc" x1="1162.5" y1="30.0" x2="1162.5" y2="1570.0" /></g><g ><g transform="translate(862.5 50.0) rotate(14.931417178137552) " ><rect x="0" y="-2.5" height="5" width="73.62087348130012" fill="#000" ><title >n1 → n2 {:msg_id 2, :type "AppendEntries", :term 0, :prevIndex 0, :prevTerm 0, :entries [[["pass" nil] 0]], :commit 0}</title></rect><use xlink:href="#ahead" x="77.62087348130012" y="0" /><text text-anchor="middle" x="38.81043674065006" y="-4" transform="" filter="url(#glow)" style="fill: #fff" >AppendEntries {:term 0, :prevIndex 0, :prevTerm…</text><text text-anchor="middle" x="38.81043674065006" y="-4" transform="" >AppendEntries {:term 0, :prevIndex 0, :prevTerm…</text></g><g transform="translate(862.5 90.0) rotate(7.594643368591445) " ><rect x="0" y="-2.5" height="5" width="147.32745950421557" fill="#000" ><title >n1 → n3 {:msg_id 3, :type "AppendEntries", :term 0, :prevIndex 0, :prevTerm 0, :entries [[["pass" nil] 0]], :commit 0}</title></rect><use xlink:href="#ahead" x="151.32745950421557" y="0" /><text text-anchor="middle" x="75.66372975210778" y="-4" transform="" filter="url(#glow)" style="fill: #fff" >AppendEntries {:term 0, :prevIndex 0, :prevTerm…</text><text text-anchor="middle" x="75.66372975210778" y="-4" transform="" >AppendEntries {:term 0, :prevIndex 0, :prevTerm…</text></g><g transform="translate(862.5 130.0) rotate(5.079607860014571) " ><rect x="0" y="-2.5" height="5" width="221.88713996153035" fill="#000" ><title >n1 → n4 {:msg_id 4, :type "AppendEntries", :term 0, :prevIndex 0, :prevTerm 0, :entries [[["pass" nil] 0]], :commit 0}</title></rect><use xlink:href="#ahead" x="225.88713996153035" y="0" /><text text-anchor="middle" x="112.94356998076518" y="-4" transform="" filter="url(#glow)" style="fill: #fff" >AppendEntries {:term 0, :prevIndex 0, :prevTerm…</text><text text-anchor="middle" x="112.94356998076518" y="-4" transform="" >AppendEntries {:term 0, :prevIndex 0, :prevTerm…</text></g><g transform="translate(862.5 170.0) rotate(7.594643368591445) " ><rect x="0" y="-2.5" height="5" width="298.65491900843114" fill="#000" ><title >n1 → n5 {:msg_id 5, :type "AppendEntries", :term 0, :prevIndex 0, :prevTerm 0, :entries [[["pass" nil] 0]], :commit 0}</title></rect><use xlink:href="#ahead" x="302.65491900843114" y="0" /><text text-anchor="middle" x="151.32745950421557" y="-4" transform="" filter="url(#glow)" style="fill: #fff" >AppendEntries {:term 0, :prevIndex 0, :prevTerm…</text><text text-anchor="middle" x="151.32745950421557" y="-4" transform="" >AppendEntries {:term 0, :prevIndex 0, :prevTerm…</text></g><g transform="translate(937.5 190.0) rotate(151.92751306414706) " ><rect x="0" y="-2.5" height="5" width="81.0" fill="#000" ><title >n2 → n1 {:msg_id 2, :in_reply_to 2, :type "AppendEntriesRes", :res true, :term 0, :next 2, :commit 0}</title></rect><use xlink:href="#ahead" x="85.0" y="0" /><text text-anchor="middle" x="42.5" y="-4" transform="rotate(180 42.5 0)" filter="url(#glow)" style="fill: #fff" >AppendEntriesRes {:res true, :term 0, :next 2, …</text><text text-anchor="middle" x="42.5" y="-4" transform="rotate(180 42.5 0)" >AppendEntriesRes {:res true, :term 0, :next 2, …</text></g><g transform="translate(1012.5 250.0) rotate(172.40535663140858) " ><rect x="0" y="-2.5" height="5" width="147.32745950421557" fill="#000" ><title >n3 → n1 {:msg_id 2, :in_reply_to 3, :type "AppendEntriesRes", :res true, :term 0, :next 2, :commit 0}</title></rect><use xlink:href="#ahead" x="151.32745950421557" y="0" /><text text-anchor="middle" x="75.66372975210778" y="-4" transform="rotate(180 75.66372975210778 0)" filter="url(#glow)" style="fill: #fff" >AppendEntriesRes {:res true, :term 0, :next 2, …</text><text text-anchor="middle" x="75.66372975210778" y="-4" transform="rotate(180 75.66372975210778 0)" >AppendEntriesRes {:res true, :term 0, :next 2, …</text></g><g transform="translate(1162.5 290.0) rotate(176.18592516570965) " ><rect x="0" y="-2.5" height="5" width="296.66592756745814" fill="#000" ><title >n5 → n1 {:msg_id 2, :in_reply_to 5, :type "AppendEntriesRes", :res true, :term 0, :next 2, :commit 0}</title></rect><use xlink:href="#ahead" x="300.66592756745814" y="0" /><text text-anchor="middle" x="150.33296378372907" y="-4" transform="rotate(180 150.33296378372907 0)" filter="url(#glow)" style="fill: #fff" >AppendEntriesRes {:res true, :term 0, :next 2, …</text><text text-anchor="middle" x="150.33296378372907" y="-4" transform="rotate(180 150.33296378372907 0)" >AppendEntriesRes {:res true, :term 0, :next 2, …</text></g><g transform="translate(1087.5 330.0) rotate(174.92039213998544) " ><rect x="0" y="-2.5" height="5" width="221.88713996153035" fill="#000" ><title >n4 → n1 {:msg_id 2, :in_reply_to 4, :type "AppendEntriesRes", :res true, :term 0, :next 2, :commit 0}</title></rect><use xlink:href="#ahead" x="225.88713996153035" y="0" /><text text-anchor="middle" x="112.94356998076518" y="-4" transform="rotate(180 112.94356998076518 0)" filter="url(#glow)" style="fill: #fff" >AppendEntriesRes {:res true, :term 0, :next 2, …</text><text text-anchor="middle" x="112.94356998076518" y="-4" transform="rotate(180 112.94356998076518 0)" >AppendEntriesRes {:res true, :term 0, :next 2, …</text></g><g transform="translate(37.5 370.0) rotate(1.1751332372393644) " ><rect x="0" y="-2.5" height="5" width="971.2051066314203" fill="#81BFFC" ><title >c10 → n3 {:key 1, :from 3, :to 4, :type "cas", :msg_id 1}</title></rect><use xlink:href="#ahead" x="975.2051066314203" y="0" /><text text-anchor="middle" x="487.60255331571017" y="-4" transform="" filter="url(#glow)" style="fill: #fff" >cas {:key 1, :from 3, :to 4}</text><text text-anchor="middle" x="487.60255331571017" y="-4" transform="" >cas {:key 1, :from 3, :to 4}</text></g><g transform="translate(1012.5 410.0) rotate(178.82486676276065) " ><rect x="0" y="-2.5" height="5" width="971.2051066314203" fill="#FF1E90" ><title >n3 → c10 {:msg_id 3, :in_reply_to 1, :type "error", :code 11, :text "Not Leader"}</title></rect><use xlink:href="#ahead" x="975.2051066314203" y="0" /><text text-anchor="middle" x="487.60255331571017" y="-4" transform="rotate(180 487.60255331571017 0)" filter="url(#glow)" style="fill: #fff" >error Not Leader</text><text text-anchor="middle" x="487.60255331571017" y="-4" transform="rotate(180 487.60255331571017 0)" >error Not Leader</text></g><g transform="translate(112.5 450.0) rotate(1.2730300200567113) " ><rect x="0" y="-2.5" height="5" width="896.222194794152" fill="#81BFFC" ><title >c11 → n3 {:key 0, :from 2, :to 4, :type "cas", :msg_id 1}</title></rect><use xlink:href="#ahead" x="900.222194794152" y="0" /><text text-anchor="middle" x="450.111097397076" y="-4" transform="" filter="url(#glow)" style="fill: #fff" >cas {:key 0, :from 2, :to 4}</text><text text-anchor="middle" x="450.111097397076" y="-4" transform="" >cas {:key 0, :from 2, :to 4}</text></g><g transform="translate(1012.5 490.0) rotate(178.7269699799433) " ><rect x="0" y="-2.5" height="5" width="896.222194794152" fill="#FF1E90" ><title >n3 → c11 {:msg_id 4, :in_reply_to 1, :type "error", :code 11, :text "Not Leader"}</title></rect><use xlink:href="#ahead" x="900.222194794152" y="0" /><text text-anchor="middle" x="450.111097397076" y="-4" transform="rotate(180 450.111097397076 0)" filter="url(#glow)" style="fill: #fff" >error Not Leader</text><text text-anchor="middle" x="450.111097397076" y="-4" transform="rotate(180 450.111097397076 0)" >error Not Leader</text></g><g transform="translate(187.5 530.0) rotate(1.3887165895513243) " ><rect x="0" y="-2.5" height="5" width="821.2423886349998" fill="#81BFFC" ><title >c12 → n3 {:key 1, :from 3, :to 3, :type "cas", :msg_id 1}</title></rect><use xlink:href="#ahead" x="825.2423886349998" y="0" /><text text-anchor="middle" x="412.6211943174999" y="-4" transform="" filter="url(#glow)" style="fill: #fff" >cas {:key 1, :from 3, :to 3}</text><text text-anchor="middle" x="412.6211943174999" y="-4" transform="" >cas {:key 1, :from 3, :to 3}</text></g><g transform="translate(1012.5 570.0) rotate(178.6112834104487) " ><rect x="0" y="-2.5" height="5" width="821.2423886349998" fill="#FF1E90" ><title >n3 → c12 {:msg_id 5, :in_reply_to 1, :type "error", :code 11, :text "Not Leader"}</title></rect><use xlink:href="#ahead" x="825.2423886349998" y="0" /><text text-anchor="middle" x="412.6211943174999" y="-4" transform="rotate(180 412.6211943174999 0)" filter="url(#glow)" style="fill: #fff" >error Not Leader</text><text text-anchor="middle" x="412.6211943174999" y="-4" transform="rotate(180 412.6211943174999 0)" >error Not Leader</text></g><g transform="translate(262.5 610.0) rotate(1.527525442212927) " ><rect x="0" y="-2.5" height="5" width="746.2666192761077" fill="#81BFFC" ><title >c13 → n3 {:key 0, :type "read", :msg_id 1}</title></rect><use xlink:href="#ahead" x="750.2666192761077" y="0" /><text text-anchor="middle" x="375.13330963805384" y="-4" transform="" filter="url(#glow)" style="fill: #fff" >read {:key 0}</text><text text-anchor="middle" x="375.13330963805384" y="-4" transform="" >read {:key 0}</text></g><g transform="translate(1012.5 650.0) rotate(178.47247455778708) " ><rect x="0" y="-2.5" height="5" width="746.2666192761077" fill="#FF1E90" ><title >n3 → c13 {:msg_id 6, :in_reply_to 1, :type "error", :code 11, :text "Not Leader"}</title></rect><use xlink:href="#ahead" x="750.2666192761077" y="0" /><text text-anchor="middle" x="375.13330963805384" y="-4" transform="rotate(180 375.13330963805384 0)" filter="url(#glow)" style="fill: #fff" >error Not Leader</text><text text-anchor="middle" x="375.13330963805384" y="-4" transform="rotate(180 375.13330963805384 0)" >error Not Leader</text></g><g transform="translate(337.5 690.0) rotate(1.527525442212927) " ><rect x="0" y="-2.5" height="5" width="746.2666192761077" fill="#81BFFC" ><title >c14 → n4 {:key 1, :value 4, :type "write", :msg_id 1}</title></rect><use xlink:href="#ahead" x="750.2666192761077" y="0" /><text text-anchor="middle" x="375.13330963805384" y="-4" transform="" filter="url(#glow)" style="fill: #fff" >write {:key 1, :value 4}</text><text text-anchor="middle" x="375.13330963805384" y="-4" transform="" >write {:key 1, :value 4}</text></g><g transform="translate(1087.5 730.0) rotate(178.47247455778708) " ><rect x="0" y="-2.5" height="5" width="746.2666192761077" fill="#FF1E90" ><title >n4 → c14 {:msg_id 3, :in_reply_to 1, :type "error", :code 11, :text "Not Leader"}</title></rect><use xlink:href="#ahead" x="750.2666192761077" y="0" /><text text-anchor="middle" x="375.13330963805384" y="-4" transform="rotate(180 375.13330963805384 0)" filter="url(#glow)" style="fill: #fff" >error Not Leader</text><text text-anchor="middle" x="375.13330963805384" y="-4" transform="rotate(180 375.13330963805384 0)" >error Not Leader</text></g><g transform="translate(412.5 770.0) rotate(2.5448043798130957) " ><rect x="0" y="-2.5" height="5" width="446.4442251822083" fill="#81BFFC" ><title >c15 → n1 {:key 1, :from 4, :to 4, :type "cas", :msg_id 1}</title></rect><use xlink:href="#ahead" x="450.4442251822083" y="0" /><text text-anchor="middle" x="225.22211259110415" y="-4" transform="" filter="url(#glow)" style="fill: #fff" >cas {:key 1, :from 4, :to 4}</text><text text-anchor="middle" x="225.22211259110415" y="-4" transform="" >cas {:key 1, :from 4, :to 4}</text></g><g transform="translate(487.5 810.0) rotate(2.5448043798130957) " ><rect x="0" y="-2.5" height="5" width="446.4442251822083" fill="#81BFFC" ><title >c16 → n2 {:key 0, :from 4, :to 2, :type "cas", :msg_id 1}</title></rect><use xlink:href="#ahead" x="450.4442251822083" y="0" /><text text-anchor="middle" x="225.22211259110415" y="-4" transform="" filter="url(#glow)" style="fill: #fff" >cas {:key 0, :from 4, :to 2}</text><text text-anchor="middle" x="225.22211259110415" y="-4" transform="" >cas {:key 0, :from 4, :to 2}</text></g><g transform="translate(937.5 850.0) rotate(177.4551956201869) " ><rect x="0" y="-2.5" height="5" width="446.4442251822083" fill="#FF1E90" ><title >n2 → c16 {:msg_id 3, :in_reply_to 1, :type "error", :code 11, :text "Not Leader"}</title></rect><use xlink:href="#ahead" x="450.4442251822083" y="0" /><text text-anchor="middle" x="225.22211259110415" y="-4" transform="rotate(180 225.22211259110415 0)" filter="url(#glow)" style="fill: #fff" >error Not Leader</text><text text-anchor="middle" x="225.22211259110415" y="-4" transform="rotate(180 225.22211259110415 0)" >error Not Leader</text></g><g transform="translate(487.5 890.0) rotate(2.5448043798130957) " ><rect x="0" y="-2.5" height="5" width="446.4442251822083" fill="#81BFFC" ><title >c16 → n2 {:key 0, :from 0, :to 2, :type "cas", :msg_id 2}</title></rect><use xlink:href="#ahead" x="450.4442251822083" y="0" /><text text-anchor="middle" x="225.22211259110415" y="-4" transform="" filter="url(#glow)" style="fill: #fff" >cas {:key 0, :from 0, :to 2}</text><text text-anchor="middle" x="225.22211259110415" y="-4" transform="" >cas {:key 0, :from 0, :to 2}</text></g><g transform="translate(937.5 930.0) rotate(177.4551956201869) " ><rect x="0" y="-2.5" height="5" width="446.4442251822083" fill="#FF1E90" ><title >n2 → c16 {:msg_id 4, :in_reply_to 2, :type "error", :code 11, :text "Not Leader"}</title></rect><use xlink:href="#ahead" x="450.4442251822083" y="0" /><text text-anchor="middle" x="225.22211259110415" y="-4" transform="rotate(180 225.22211259110415 0)" filter="url(#glow)" style="fill: #fff" >error Not Leader</text><text text-anchor="middle" x="225.22211259110415" y="-4" transform="rotate(180 225.22211259110415 0)" >error Not Leader</text></g><g transform="translate(337.5 970.0) rotate(1.527525442212927) " ><rect x="0" y="-2.5" height="5" width="746.2666192761077" fill="#81BFFC" ><title >c14 → n4 {:key 1, :value 1, :type "write", :msg_id 2}</title></rect><use xlink:href="#ahead" x="750.2666192761077" y="0" /><text text-anchor="middle" x="375.13330963805384" y="-4" transform="" filter="url(#glow)" style="fill: #fff" >write {:key 1, :value 1}</text><text text-anchor="middle" x="375.13330963805384" y="-4" transform="" >write {:key 1, :value 1}</text></g><g transform="translate(1087.5 1010.0) rotate(178.47247455778708) " ><rect x="0" y="-2.5" height="5" width="746.2666192761077" fill="#FF1E90" ><title >n4 → c14 {:msg_id 4, :in_reply_to 2, :type "error", :code 11, :text "Not Leader"}</title></rect><use xlink:href="#ahead" x="750.2666192761077" y="0" /><text text-anchor="middle" x="375.13330963805384" y="-4" transform="rotate(180 375.13330963805384 0)" filter="url(#glow)" style="fill: #fff" >error Not Leader</text><text text-anchor="middle" x="375.13330963805384" y="-4" transform="rotate(180 375.13330963805384 0)" >error Not Leader</text></g><g transform="translate(562.5 1050.0) rotate(2.1816414035514664) " ><rect x="0" y="-2.5" height="5" width="521.3808142671371" fill="#81BFFC" ><title >c17 → n4 {:key 0, :value 3, :type "write", :msg_id 1}</title></rect><use xlink:href="#ahead" x="525.3808142671371" y="0" /><text text-anchor="middle" x="262.69040713356856" y="-4" transform="" filter="url(#glow)" style="fill: #fff" >write {:key 0, :value 3}</text><text text-anchor="middle" x="262.69040713356856" y="-4" transform="" >write {:key 0, :value 3}</text></g><g transform="translate(1087.5 1090.0) rotate(177.81835859644852) " ><rect x="0" y="-2.5" height="5" width="521.3808142671371" fill="#FF1E90" ><title >n4 → c17 {:msg_id 5, :in_reply_to 1, :type "error", :code 11, :text "Not Leader"}</title></rect><use xlink:href="#ahead" x="525.3808142671371" y="0" /><text text-anchor="middle" x="262.69040713356856" y="-4" transform="rotate(180 262.69040713356856 0)" filter="url(#glow)" style="fill: #fff" >error Not Leader</text><text text-anchor="middle" x="262.69040713356856" y="-4" transform="rotate(180 262.69040713356856 0)" >error Not Leader</text></g><g transform="translate(637.5 1130.0) rotate(3.8140748342903543) " ><rect x="0" y="-2.5" height="5" width="296.66592756745814" fill="#81BFFC" ><title >c18 → n2 {:key 1, :value 4, :type "write", :msg_id 1}</title></rect><use xlink:href="#ahead" x="300.66592756745814" y="0" /><text text-anchor="middle" x="150.33296378372907" y="-4" transform="" filter="url(#glow)" style="fill: #fff" >write {:key 1, :value 4}</text><text text-anchor="middle" x="150.33296378372907" y="-4" transform="" >write {:key 1, :value 4}</text></g><g transform="translate(937.5 1170.0) rotate(176.18592516570965) " ><rect x="0" y="-2.5" height="5" width="296.66592756745814" fill="#FF1E90" ><title >n2 → c18 {:msg_id 5, :in_reply_to 1, :type "error", :code 11, :text "Not Leader"}</title></rect><use xlink:href="#ahead" x="300.66592756745814" y="0" /><text text-anchor="middle" x="150.33296378372907" y="-4" transform="rotate(180 150.33296378372907 0)" filter="url(#glow)" style="fill: #fff" >error Not Leader</text><text text-anchor="middle" x="150.33296378372907" y="-4" transform="rotate(180 150.33296378372907 0)" >error Not Leader</text></g><g transform="translate(712.5 1210.0) rotate(7.594643368591445) " ><rect x="0" y="-2.5" height="5" width="147.32745950421557" fill="#81BFFC" ><title >c19 → n1 {:key 1, :from 3, :to 2, :type "cas", :msg_id 1}</title></rect><use xlink:href="#ahead" x="151.32745950421557" y="0" /><text text-anchor="middle" x="75.66372975210778" y="-4" transform="" filter="url(#glow)" style="fill: #fff" >cas {:key 1, :from 3, :to 2}</text><text text-anchor="middle" x="75.66372975210778" y="-4" transform="" >cas {:key 1, :from 3, :to 2}</text></g><g transform="translate(787.5 1250.0) rotate(14.931417178137552) " ><rect x="0" y="-2.5" height="5" width="73.62087348130012" fill="#81BFFC" ><title >c20 → n1 {:key 0, :from 3, :to 3, :type "cas", :msg_id 1}</title></rect><use xlink:href="#ahead" x="77.62087348130012" y="0" /><text text-anchor="middle" x="38.81043674065006" y="-4" transform="" filter="url(#glow)" style="fill: #fff" >cas {:key 0, :from 3, :to 3}</text><text text-anchor="middle" x="38.81043674065006" y="-4" transform="" >cas {:key 0, :from 3, :to 3}</text></g><g transform="translate(187.5 1290.0) rotate(1.3887165895513243) " ><rect x="0" y="-2.5" height="5" width="821.2423886349998" fill="#81BFFC" ><title >c12 → n3 {:key 1, :value 1, :type "write", :msg_id 2}</title></rect><use xlink:href="#ahead" x="825.2423886349998" y="0" /><text text-anchor="middle" x="412.6211943174999" y="-4" transform="" filter="url(#glow)" style="fill: #fff" >write {:key 1, :value 1}</text><text text-anchor="middle" x="412.6211943174999" y="-4" transform="" >write {:key 1, :value 1}</text></g><g transform="translate(1012.5 1330.0) rotate(178.6112834104487) " ><rect x="0" y="-2.5" height="5" width="821.2423886349998" fill="#FF1E90" ><title >n3 → c12 {:msg_id 7, :in_reply_to 2, :type "error", :code 11, :text "Not Leader"}</title></rect><use xlink:href="#ahead" x="825.2423886349998" y="0" /><text text-anchor="middle" x="412.6211943174999" y="-4" transform="rotate(180 412.6211943174999 0)" filter="url(#glow)" style="fill: #fff" >error Not Leader</text><text text-anchor="middle" x="412.6211943174999" y="-4" transform="rotate(180 412.6211943174999 0)" >error Not Leader</text></g><g transform="translate(487.5 1370.0) rotate(2.5448043798130957) " ><rect x="0" y="-2.5" height="5" width="446.4442251822083" fill="#81BFFC" ><title >c16 → n2 {:key 0, :from 2, :to 1, :type "cas", :msg_id 3}</title></rect><use xlink:href="#ahead" x="450.4442251822083" y="0" /><text text-anchor="middle" x="225.22211259110415" y="-4" transform="" filter="url(#glow)" style="fill: #fff" >cas {:key 0, :from 2, :to 1}</text><text text-anchor="middle" x="225.22211259110415" y="-4" transform="" >cas {:key 0, :from 2, :to 1}</text></g><g transform="translate(937.5 1410.0) rotate(177.4551956201869) " ><rect x="0" y="-2.5" height="5" width="446.4442251822083" fill="#FF1E90" ><title >n2 → c16 {:msg_id 6, :in_reply_to 3, :type "error", :code 11, :text "Not Leader"}</title></rect><use xlink:href="#ahead" x="450.4442251822083" y="0" /><text text-anchor="middle" x="225.22211259110415" y="-4" transform="rotate(180 225.22211259110415 0)" filter="url(#glow)" style="fill: #fff" >error Not Leader</text><text text-anchor="middle" x="225.22211259110415" y="-4" transform="rotate(180 225.22211259110415 0)" >error Not Leader</text></g><g transform="translate(412.5 1450.0) rotate(2.5448043798130957) " ><rect x="0" y="-2.5" height="5" width="446.4442251822083" fill="#81BFFC" ><title >c15 → n1 {:key 1, :from 1, :to 0, :type "cas", :msg_id 2}</title></rect><use xlink:href="#ahead" x="450.4442251822083" y="0" /><text text-anchor="middle" x="225.22211259110415" y="-4" transform="" filter="url(#glow)" style="fill: #fff" >cas {:key 1, :from 1, :to 0}</text><text text-anchor="middle" x="225.22211259110415" y="-4" transform="" >cas {:key 1, :from 1, :to 0}</text></g><g transform="translate(337.5 1490.0) rotate(1.527525442212927) " ><rect x="0" y="-2.5" height="5" width="746.2666192761077" fill="#81BFFC" ><title >c14 → n4 {:key 1, :from 2, :to 3, :type "cas", :msg_id 3}</title></rect><use xlink:href="#ahead" x="750.2666192761077" y="0" /><text text-anchor="middle" x="375.13330963805384" y="-4" transform="" filter="url(#glow)" style="fill: #fff" >cas {:key 1, :from 2, :to 3}</text><text text-anchor="middle" x="375.13330963805384" y="-4" transform="" >cas {:key 1, :from 2, :to 3}</text></g><g transform="translate(1087.5 1530.0) rotate(178.47247455778708) " ><rect x="0" y="-2.5" height="5" width="746.2666192761077" fill="#FF1E90" ><title >n4 → c14 {:msg_id 6, :in_reply_to 3, :type "error", :code 11, :text "Not Leader"}</title></rect><use xlink:href="#ahead" x="750.2666192761077" y="0" /><text text-anchor="middle" x="375.13330963805384" y="-4" transform="rotate(180 375.13330963805384 0)" filter="url(#glow)" style="fill: #fff" >error Not Leader</text><text text-anchor="middle" x="375.13330963805384" y="-4" transform="rotate(180 375.13330963805384 0)" >error Not Leader</text></g></g></svg>