<?xml version="1.0" encoding="UTF-8" standalone="no"?>
<!DOCTYPE svg PUBLIC "-//W3C//DTD SVG 1.1//EN"
 "http://www.w3.org/Graphics/SVG/1.1/DTD/svg11.dtd">
<!-- Generated by graphviz version 3.0.0 (0)
 -->
<!-- Title: a_graph Pages: 1 -->
<svg width="313pt" height="605pt"
 viewBox="0.00 0.00 313.00 605.00" xmlns="http://www.w3.org/2000/svg" xmlns:xlink="http://www.w3.org/1999/xlink">
<g id="graph0" class="graph" transform="scale(1 1) rotate(0) translate(4 601)">
<title>a_graph</title>
<polygon fill="white" stroke="transparent" points="-4,4 -4,-601 309,-601 309,4 -4,4"/>
<!-- T9 -->
<g id="node1" class="node">
<title>T9</title>
<polygon fill="none" stroke="#0058ad" points="129,-567.5 129,-596.5 305,-596.5 305,-567.5 129,-567.5"/>
<text text-anchor="middle" x="151" y="-578.3" font-family="Times,serif" font-size="14.00" fill="#0058ad">a 9 4</text>
<polyline fill="none" stroke="#0058ad" points="173,-567.5 173,-596.5 "/>
<text text-anchor="middle" x="195" y="-578.3" font-family="Times,serif" font-size="14.00" fill="#0058ad">a 9 5</text>
<polyline fill="none" stroke="#0058ad" points="217,-567.5 217,-596.5 "/>
<text text-anchor="middle" x="239" y="-578.3" font-family="Times,serif" font-size="14.00" fill="#0058ad">a 9 6</text>
<polyline fill="none" stroke="#0058ad" points="261,-567.5 261,-596.5 "/>
<text text-anchor="middle" x="283" y="-578.3" font-family="Times,serif" font-size="14.00" fill="#0058ad">a 8 2</text>
</g>
<!-- T11 -->
<g id="node7" class="node">
<title>T11</title>
<polygon fill="none" stroke="#0058ad" points="129,-486.5 129,-515.5 217,-515.5 217,-486.5 129,-486.5"/>
<text text-anchor="middle" x="151" y="-497.3" font-family="Times,serif" font-size="14.00" fill="#0058ad">a 4 1</text>
<polyline fill="none" stroke="#0058ad" points="173,-486.5 173,-515.5 "/>
<text text-anchor="middle" x="195" y="-497.3" font-family="Times,serif" font-size="14.00" fill="#0058ad">a 5 1</text>
</g>
<!-- T9&#45;&gt;T11 -->
<g id="edge1" class="edge">
<title>T9&#45;&gt;T11</title>
<path fill="none" stroke="#0050c0" d="M209.34,-567.24C202.77,-555.46 193.2,-538.27 185.52,-524.49"/>
<polygon fill="#0050c0" stroke="#0050c0" points="188.5,-522.64 180.58,-515.6 182.38,-526.04 188.5,-522.64"/>
<text text-anchor="middle" x="202.5" y="-537.8" font-family="Times,serif" font-size="14.00" fill="#0050c0">rt</text>
</g>
<!-- T13 -->
<g id="node2" class="node">
<title>T13</title>
<polygon fill="none" stroke="#0058ad" points="93,-405.5 93,-434.5 205,-434.5 205,-405.5 93,-405.5"/>
<text text-anchor="middle" x="118" y="-416.3" font-family="Times,serif" font-size="14.00" fill="#0058ad">r 8 nil</text>
<polyline fill="none" stroke="#0058ad" points="143,-405.5 143,-434.5 "/>
<text text-anchor="middle" x="174" y="-416.3" font-family="Times,serif" font-size="14.00" fill="#0058ad">r 9 [2 3]</text>
</g>
<!-- T15 -->
<g id="node4" class="node">
<title>T15</title>
<polygon fill="none" stroke="#0058ad" points="45,-324.5 45,-353.5 139,-353.5 139,-324.5 45,-324.5"/>
<text text-anchor="middle" x="67" y="-335.3" font-family="Times,serif" font-size="14.00" fill="#0058ad">a 7 1</text>
<polyline fill="none" stroke="#0058ad" points="89,-324.5 89,-353.5 "/>
<text text-anchor="middle" x="114" y="-335.3" font-family="Times,serif" font-size="14.00" fill="#0058ad">r 8 nil</text>
</g>
<!-- T13&#45;&gt;T15 -->
<g id="edge2" class="edge">
<title>T13&#45;&gt;T15</title>
<path fill="none" stroke="#0050c0" d="M139.07,-405.24C130.49,-393.34 117.93,-375.93 107.94,-362.09"/>
<polygon fill="#0050c0" stroke="#0050c0" points="110.5,-359.66 101.81,-353.6 104.83,-363.76 110.5,-359.66"/>
<text text-anchor="middle" x="130.5" y="-375.8" font-family="Times,serif" font-size="14.00" fill="#0050c0">rt</text>
</g>
<!-- T5 -->
<g id="node3" class="node">
<title>T5</title>
<polygon fill="none" stroke="#0058ad" points="25,-81.5 25,-110.5 225,-110.5 225,-81.5 25,-81.5"/>
<text text-anchor="middle" x="47" y="-92.3" font-family="Times,serif" font-size="14.00" fill="#0058ad">a 9 2</text>
<polyline fill="none" stroke="#0058ad" points="69,-81.5 69,-110.5 "/>
<text text-anchor="middle" x="91" y="-92.3" font-family="Times,serif" font-size="14.00" fill="#0058ad">a 9 3</text>
<polyline fill="none" stroke="#0058ad" points="113,-81.5 113,-110.5 "/>
<text text-anchor="middle" x="138" y="-92.3" font-family="Times,serif" font-size="14.00" fill="#0058ad">r 8 nil</text>
<polyline fill="none" stroke="#0058ad" points="163,-81.5 163,-110.5 "/>
<text text-anchor="middle" x="194" y="-92.3" font-family="Times,serif" font-size="14.00" fill="#0058ad">r 9 [2 3]</text>
</g>
<!-- T5&#45;&gt;T13 -->
<g id="edge4" class="edge">
<title>T5:f1&#45;&gt;T13:f1</title>
<path fill="none" stroke="#c000a5" d="M91,-111C91,-157.85 174,-129.15 174,-176 174,-340 174,-340 174,-340 174,-365.16 174,-373.89 174,-394.82"/>
<polygon fill="#c000a5" stroke="#c000a5" points="170.5,-395 174,-405 177.5,-395 170.5,-395"/>
<text text-anchor="middle" x="181.5" y="-254.3" font-family="Times,serif" font-size="14.00" fill="#c000a5">wr</text>
</g>
<!-- T7 -->
<g id="node8" class="node">
<title>T7</title>
<polygon fill="none" stroke="#0058ad" points="162,-0.5 162,-29.5 216,-29.5 216,-0.5 162,-0.5"/>
<text text-anchor="middle" x="189" y="-11.3" font-family="Times,serif" font-size="14.00" fill="#0058ad">a 8 1</text>
</g>
<!-- T5&#45;&gt;T7 -->
<g id="edge3" class="edge">
<title>T5&#45;&gt;T7</title>
<path fill="none" stroke="#0050c0" d="M136.15,-81.24C145.88,-69.23 160.16,-51.6 171.42,-37.7"/>
<polygon fill="#0050c0" stroke="#0050c0" points="174.4,-39.58 177.98,-29.6 168.97,-35.17 174.4,-39.58"/>
<text text-anchor="middle" x="166.5" y="-51.8" font-family="Times,serif" font-size="14.00" fill="#0050c0">rt</text>
</g>
<!-- T17 -->
<g id="node6" class="node">
<title>T17</title>
<polygon fill="none" stroke="#0058ad" points="0,-243.5 0,-272.5 138,-272.5 138,-243.5 0,-243.5"/>
<text text-anchor="middle" x="22" y="-254.3" font-family="Times,serif" font-size="14.00" fill="#0058ad">a 9 7</text>
<polyline fill="none" stroke="#0058ad" points="44,-243.5 44,-272.5 "/>
<text text-anchor="middle" x="66" y="-254.3" font-family="Times,serif" font-size="14.00" fill="#0058ad">a 6 1</text>
<polyline fill="none" stroke="#0058ad" points="88,-243.5 88,-272.5 "/>
<text text-anchor="middle" x="113" y="-254.3" font-family="Times,serif" font-size="14.00" fill="#0058ad">r 8 nil</text>
</g>
<!-- T15&#45;&gt;T17 -->
<g id="edge5" class="edge">
<title>T15&#45;&gt;T17</title>
<path fill="none" stroke="#0050c0" d="M87.99,-324.24C84.63,-312.68 79.75,-295.93 75.78,-282.29"/>
<polygon fill="#0050c0" stroke="#0050c0" points="79.12,-281.23 72.96,-272.6 72.4,-283.18 79.12,-281.23"/>
<text text-anchor="middle" x="87.5" y="-294.8" font-family="Times,serif" font-size="14.00" fill="#0050c0">rt</text>
</g>
<!-- T19 -->
<g id="node5" class="node">
<title>T19</title>
<polygon fill="none" stroke="#0058ad" points="22,-162.5 22,-191.5 116,-191.5 116,-162.5 22,-162.5"/>
<text text-anchor="middle" x="47" y="-173.3" font-family="Times,serif" font-size="14.00" fill="#0058ad">r 9 nil</text>
<polyline fill="none" stroke="#0058ad" points="72,-162.5 72,-191.5 "/>
<text text-anchor="middle" x="94" y="-173.3" font-family="Times,serif" font-size="14.00" fill="#0058ad">a 8 3</text>
</g>
<!-- T19&#45;&gt;T5 -->
<g id="edge6" class="edge">
<title>T19:f0&#45;&gt;T5:f0</title>
<path fill="none" stroke="#5b00c0" d="M47,-162C47,-143.23 47,-136.12 47,-121.35"/>
<polygon fill="#5b00c0" stroke="#5b00c0" points="50.5,-121 47,-111 43.5,-121 50.5,-121"/>
<text text-anchor="middle" x="54.5" y="-132.8" font-family="Times,serif" font-size="14.00" fill="#5b00c0">rw</text>
</g>
<!-- T17&#45;&gt;T19 -->
<g id="edge7" class="edge">
<title>T17&#45;&gt;T19</title>
<path fill="none" stroke="#0050c0" d="M69,-243.24C69,-231.8 69,-215.25 69,-201.69"/>
<polygon fill="#0050c0" stroke="#0050c0" points="72.5,-201.6 69,-191.6 65.5,-201.6 72.5,-201.6"/>
<text text-anchor="middle" x="73.5" y="-213.8" font-family="Times,serif" font-size="14.00" fill="#0050c0">rt</text>
</g>
<!-- T11&#45;&gt;T13 -->
<g id="edge8" class="edge">
<title>T11&#45;&gt;T13</title>
<path fill="none" stroke="#0050c0" d="M168.82,-486.24C165.31,-474.68 160.22,-457.93 156.07,-444.29"/>
<polygon fill="#0050c0" stroke="#0050c0" points="159.39,-443.15 153.13,-434.6 152.69,-445.19 159.39,-443.15"/>
<text text-anchor="middle" x="167.5" y="-456.8" font-family="Times,serif" font-size="14.00" fill="#0050c0">rt</text>
</g>
<!-- T7&#45;&gt;T9 -->
<g id="edge9" class="edge">
<title>T7&#45;&gt;T9</title>
<path fill="none" stroke="#0050c0" d="M209.96,-29.61C228.62,-43.55 253,-67.11 253,-95 253,-502 253,-502 253,-502 253,-522.47 242.87,-543.46 233.35,-558.65"/>
<polygon fill="#0050c0" stroke="#0050c0" points="230.22,-557.04 227.61,-567.3 236.05,-560.91 230.22,-557.04"/>
<text text-anchor="middle" x="257.5" y="-294.8" font-family="Times,serif" font-size="14.00" fill="#0050c0">rt</text>
</g>
</g>
</svg>
