<?xml version="1.0" encoding="UTF-8" standalone="no"?>
<!DOCTYPE svg PUBLIC "-//W3C//DTD SVG 1.1//EN"
 "http://www.w3.org/Graphics/SVG/1.1/DTD/svg11.dtd">
<!-- Generated by graphviz version 3.0.0 (0)
 -->
<!-- Title: a_graph Pages: 1 -->
<svg width="334pt" height="200pt"
 viewBox="0.00 0.00 334.00 200.00" xmlns="http://www.w3.org/2000/svg" xmlns:xlink="http://www.w3.org/1999/xlink">
<g id="graph0" class="graph" transform="scale(1 1) rotate(0) translate(4 196)">
<title>a_graph</title>
<polygon fill="white" stroke="transparent" points="-4,4 -4,-196 330,-196 330,4 -4,4"/>
<!-- T5 -->
<g id="node1" class="node">
<title>T5</title>
<polygon fill="none" stroke="#0058ad" points="74,-162.5 74,-191.5 174,-191.5 174,-162.5 74,-162.5"/>
<text text-anchor="middle" x="99" y="-173.3" font-family="Times,serif" font-size="14.00" fill="#0058ad">r 9 nil</text>
<polyline fill="none" stroke="#0058ad" points="124,-162.5 124,-191.5 "/>
<text text-anchor="middle" x="149" y="-173.3" font-family="Times,serif" font-size="14.00" fill="#0058ad">r 5 nil</text>
</g>
<!-- T9 -->
<g id="node3" class="node">
<title>T9</title>
<polygon fill="none" stroke="#0058ad" points="138,-81.5 138,-110.5 326,-110.5 326,-81.5 138,-81.5"/>
<text text-anchor="middle" x="163" y="-92.3" font-family="Times,serif" font-size="14.00" fill="#0058ad">r 7 nil</text>
<polyline fill="none" stroke="#0058ad" points="188,-81.5 188,-110.5 "/>
<text text-anchor="middle" x="213" y="-92.3" font-family="Times,serif" font-size="14.00" fill="#0058ad">r 9 nil</text>
<polyline fill="none" stroke="#0058ad" points="238,-81.5 238,-110.5 "/>
<text text-anchor="middle" x="260" y="-92.3" font-family="Times,serif" font-size="14.00" fill="#0058ad">a 8 1</text>
<polyline fill="none" stroke="#0058ad" points="282,-81.5 282,-110.5 "/>
<text text-anchor="middle" x="304" y="-92.3" font-family="Times,serif" font-size="14.00" fill="#0058ad">a 9 3</text>
</g>
<!-- T5&#45;&gt;T9 -->
<g id="edge1" class="edge">
<title>T5&#45;&gt;T9</title>
<path fill="none" stroke="#0050c0" d="M142.81,-162.24C160.08,-149.61 185.85,-130.76 205.25,-116.56"/>
<polygon fill="#0050c0" stroke="#0050c0" points="207.4,-119.33 213.4,-110.6 203.27,-113.68 207.4,-119.33"/>
<text text-anchor="middle" x="191.5" y="-132.8" font-family="Times,serif" font-size="14.00" fill="#0050c0">rt</text>
</g>
<!-- T1 -->
<g id="node2" class="node">
<title>T1</title>
<polygon fill="none" stroke="#0058ad" points="0,-0.5 0,-29.5 194,-29.5 194,-0.5 0,-0.5"/>
<text text-anchor="middle" x="25" y="-11.3" font-family="Times,serif" font-size="14.00" fill="#0058ad">r 9 nil</text>
<polyline fill="none" stroke="#0058ad" points="50,-0.5 50,-29.5 "/>
<text text-anchor="middle" x="75" y="-11.3" font-family="Times,serif" font-size="14.00" fill="#0058ad">r 7 nil</text>
<polyline fill="none" stroke="#0058ad" points="100,-0.5 100,-29.5 "/>
<text text-anchor="middle" x="125" y="-11.3" font-family="Times,serif" font-size="14.00" fill="#0058ad">r 8 nil</text>
<polyline fill="none" stroke="#0058ad" points="150,-0.5 150,-29.5 "/>
<text text-anchor="middle" x="172" y="-11.3" font-family="Times,serif" font-size="14.00" fill="#0058ad">a 7 1</text>
</g>
<!-- T1&#45;&gt;T5 -->
<g id="edge2" class="edge">
<title>T1&#45;&gt;T5</title>
<path fill="none" stroke="#0050c0" d="M99.3,-29.61C103.89,-56.85 114.28,-118.41 120.01,-152.38"/>
<polygon fill="#0050c0" stroke="#0050c0" points="116.58,-153.08 121.7,-162.36 123.49,-151.92 116.58,-153.08"/>
<text text-anchor="middle" x="116.5" y="-92.3" font-family="Times,serif" font-size="14.00" fill="#0050c0">rt</text>
</g>
<!-- T9&#45;&gt;T1 -->
<g id="edge3" class="edge">
<title>T9:f0&#45;&gt;T1:f3</title>
<path fill="none" stroke="#5b00c0" d="M163,-81C163,-61.76 169.29,-55.13 171.35,-40.03"/>
<polygon fill="#5b00c0" stroke="#5b00c0" points="174.85,-40.2 172,-30 167.86,-39.75 174.85,-40.2"/>
<text text-anchor="middle" x="176.5" y="-51.8" font-family="Times,serif" font-size="14.00" fill="#5b00c0">rw</text>
</g>
</g>
</svg>
