<?xml version="1.0" encoding="UTF-8" standalone="no"?>
<!DOCTYPE svg PUBLIC "-//W3C//DTD SVG 1.1//EN"
 "http://www.w3.org/Graphics/SVG/1.1/DTD/svg11.dtd">
<!-- Generated by graphviz version 3.0.0 (0)
 -->
<!-- Title: a_graph Pages: 1 -->
<svg width="210pt" height="119pt"
 viewBox="0.00 0.00 210.00 119.00" xmlns="http://www.w3.org/2000/svg" xmlns:xlink="http://www.w3.org/1999/xlink">
<g id="graph0" class="graph" transform="scale(1 1) rotate(0) translate(4 115)">
<title>a_graph</title>
<polygon fill="white" stroke="transparent" points="-4,4 -4,-115 206,-115 206,4 -4,4"/>
<!-- T3 -->
<g id="node1" class="node">
<title>T3</title>
<polygon fill="none" stroke="#0058ad" points="2,-81.5 2,-110.5 202,-110.5 202,-81.5 2,-81.5"/>
<text text-anchor="middle" x="24" y="-92.3" font-family="Times,serif" font-size="14.00" fill="#0058ad">a 9 2</text>
<polyline fill="none" stroke="#0058ad" points="46,-81.5 46,-110.5 "/>
<text text-anchor="middle" x="71" y="-92.3" font-family="Times,serif" font-size="14.00" fill="#0058ad">r 7 nil</text>
<polyline fill="none" stroke="#0058ad" points="96,-81.5 96,-110.5 "/>
<text text-anchor="middle" x="118" y="-92.3" font-family="Times,serif" font-size="14.00" fill="#0058ad">a 9 3</text>
<polyline fill="none" stroke="#0058ad" points="140,-81.5 140,-110.5 "/>
<text text-anchor="middle" x="171" y="-92.3" font-family="Times,serif" font-size="14.00" fill="#0058ad">r 9 [2 3]</text>
</g>
<!-- T8 -->
<g id="node2" class="node">
<title>T8</title>
<polygon fill="none" stroke="#0058ad" points="0,-0.5 0,-29.5 100,-29.5 100,-0.5 0,-0.5"/>
<text text-anchor="middle" x="25" y="-11.3" font-family="Times,serif" font-size="14.00" fill="#0058ad">r 7 nil</text>
<polyline fill="none" stroke="#0058ad" points="50,-0.5 50,-29.5 "/>
<text text-anchor="middle" x="75" y="-11.3" font-family="Times,serif" font-size="14.00" fill="#0058ad">r 9 nil</text>
</g>
<!-- T3&#45;&gt;T8 -->
<g id="edge1" class="edge">
<title>T3&#45;&gt;T8</title>
<path fill="none" stroke="#0050c0" d="M92.94,-81.24C85.11,-69.34 73.65,-51.93 64.54,-38.09"/>
<polygon fill="#0050c0" stroke="#0050c0" points="67.38,-36.03 58.95,-29.6 61.53,-39.88 67.38,-36.03"/>
<text text-anchor="middle" x="84.5" y="-51.8" font-family="Times,serif" font-size="14.00" fill="#0050c0">rt</text>
</g>
<!-- T8&#45;&gt;T3 -->
<g id="edge2" class="edge">
<title>T8:f1&#45;&gt;T3:f0</title>
<path fill="none" stroke="#5b00c0" d="M75,-30C75,-42.98 61.36,-39 52,-48 41.06,-58.52 29.95,-61.01 25.75,-71.04"/>
<polygon fill="#5b00c0" stroke="#5b00c0" points="22.28,-70.54 24,-81 29.18,-71.76 22.28,-70.54"/>
<text text-anchor="middle" x="59.5" y="-51.8" font-family="Times,serif" font-size="14.00" fill="#5b00c0">rw</text>
</g>
</g>
</svg>
