<?xml version="1.0" encoding="UTF-8" standalone="no"?>
<!DOCTYPE svg PUBLIC "-//W3C//DTD SVG 1.1//EN"
 "http://www.w3.org/Graphics/SVG/1.1/DTD/svg11.dtd">
<!-- Generated by graphviz version 3.0.0 (0)
 -->
<!-- Title: a_graph Pages: 1 -->
<svg width="301pt" height="362pt"
 viewBox="0.00 0.00 301.00 362.00" xmlns="http://www.w3.org/2000/svg" xmlns:xlink="http://www.w3.org/1999/xlink">
<g id="graph0" class="graph" transform="scale(1 1) rotate(0) translate(4 358)">
<title>a_graph</title>
<polygon fill="white" stroke="transparent" points="-4,4 -4,-358 297,-358 297,4 -4,4"/>
<!-- T13 -->
<g id="node1" class="node">
<title>T13</title>
<polygon fill="none" stroke="#0058ad" points="77,-324.5 77,-353.5 189,-353.5 189,-324.5 77,-324.5"/>
<text text-anchor="middle" x="102" y="-335.3" font-family="Times,serif" font-size="14.00" fill="#0058ad">r 8 nil</text>
<polyline fill="none" stroke="#0058ad" points="127,-324.5 127,-353.5 "/>
<text text-anchor="middle" x="158" y="-335.3" font-family="Times,serif" font-size="14.00" fill="#0058ad">r 9 [2 3]</text>
</g>
<!-- T15 -->
<g id="node3" class="node">
<title>T15</title>
<polygon fill="none" stroke="#0058ad" points="45,-243.5 45,-272.5 139,-272.5 139,-243.5 45,-243.5"/>
<text text-anchor="middle" x="67" y="-254.3" font-family="Times,serif" font-size="14.00" fill="#0058ad">a 7 1</text>
<polyline fill="none" stroke="#0058ad" points="89,-243.5 89,-272.5 "/>
<text text-anchor="middle" x="114" y="-254.3" font-family="Times,serif" font-size="14.00" fill="#0058ad">r 8 nil</text>
</g>
<!-- T13&#45;&gt;T15 -->
<g id="edge1" class="edge">
<title>T13&#45;&gt;T15</title>
<path fill="none" stroke="#0050c0" d="M125.86,-324.24C119.74,-312.46 110.82,-295.27 103.67,-281.49"/>
<polygon fill="#0050c0" stroke="#0050c0" points="106.77,-279.87 99.06,-272.6 100.56,-283.09 106.77,-279.87"/>
<text text-anchor="middle" x="121.5" y="-294.8" font-family="Times,serif" font-size="14.00" fill="#0050c0">rt</text>
</g>
<!-- T5 -->
<g id="node2" class="node">
<title>T5</title>
<polygon fill="none" stroke="#0058ad" points="93,-0.5 93,-29.5 293,-29.5 293,-0.5 93,-0.5"/>
<text text-anchor="middle" x="115" y="-11.3" font-family="Times,serif" font-size="14.00" fill="#0058ad">a 9 2</text>
<polyline fill="none" stroke="#0058ad" points="137,-0.5 137,-29.5 "/>
<text text-anchor="middle" x="159" y="-11.3" font-family="Times,serif" font-size="14.00" fill="#0058ad">a 9 3</text>
<polyline fill="none" stroke="#0058ad" points="181,-0.5 181,-29.5 "/>
<text text-anchor="middle" x="206" y="-11.3" font-family="Times,serif" font-size="14.00" fill="#0058ad">r 8 nil</text>
<polyline fill="none" stroke="#0058ad" points="231,-0.5 231,-29.5 "/>
<text text-anchor="middle" x="262" y="-11.3" font-family="Times,serif" font-size="14.00" fill="#0058ad">r 9 [2 3]</text>
</g>
<!-- T5&#45;&gt;T13 -->
<g id="edge2" class="edge">
<title>T5:f1&#45;&gt;T13:f1</title>
<path fill="none" stroke="#c000a5" d="M159,-30C159,-59.65 174,-65.35 174,-95 174,-259 174,-259 174,-259 174,-285.03 161.75,-292.5 158.69,-313.89"/>
<polygon fill="#c000a5" stroke="#c000a5" points="155.19,-313.79 158,-324 162.17,-314.26 155.19,-313.79"/>
<text text-anchor="middle" x="181.5" y="-173.3" font-family="Times,serif" font-size="14.00" fill="#c000a5">wr</text>
</g>
<!-- T17 -->
<g id="node5" class="node">
<title>T17</title>
<polygon fill="none" stroke="#0058ad" points="0,-162.5 0,-191.5 138,-191.5 138,-162.5 0,-162.5"/>
<text text-anchor="middle" x="22" y="-173.3" font-family="Times,serif" font-size="14.00" fill="#0058ad">a 9 7</text>
<polyline fill="none" stroke="#0058ad" points="44,-162.5 44,-191.5 "/>
<text text-anchor="middle" x="66" y="-173.3" font-family="Times,serif" font-size="14.00" fill="#0058ad">a 6 1</text>
<polyline fill="none" stroke="#0058ad" points="88,-162.5 88,-191.5 "/>
<text text-anchor="middle" x="113" y="-173.3" font-family="Times,serif" font-size="14.00" fill="#0058ad">r 8 nil</text>
</g>
<!-- T15&#45;&gt;T17 -->
<g id="edge3" class="edge">
<title>T15&#45;&gt;T17</title>
<path fill="none" stroke="#0050c0" d="M87.99,-243.24C84.63,-231.68 79.75,-214.93 75.78,-201.29"/>
<polygon fill="#0050c0" stroke="#0050c0" points="79.12,-200.23 72.96,-191.6 72.4,-202.18 79.12,-200.23"/>
<text text-anchor="middle" x="87.5" y="-213.8" font-family="Times,serif" font-size="14.00" fill="#0050c0">rt</text>
</g>
<!-- T19 -->
<g id="node4" class="node">
<title>T19</title>
<polygon fill="none" stroke="#0058ad" points="45,-81.5 45,-110.5 139,-110.5 139,-81.5 45,-81.5"/>
<text text-anchor="middle" x="70" y="-92.3" font-family="Times,serif" font-size="14.00" fill="#0058ad">r 9 nil</text>
<polyline fill="none" stroke="#0058ad" points="95,-81.5 95,-110.5 "/>
<text text-anchor="middle" x="117" y="-92.3" font-family="Times,serif" font-size="14.00" fill="#0058ad">a 8 3</text>
</g>
<!-- T19&#45;&gt;T5 -->
<g id="edge4" class="edge">
<title>T19:f0&#45;&gt;T5:f0</title>
<path fill="none" stroke="#5b00c0" d="M70,-81C70,-54.79 103.84,-58.42 112.83,-40.13"/>
<polygon fill="#5b00c0" stroke="#5b00c0" points="116.33,-40.51 115,-30 109.48,-39.04 116.33,-40.51"/>
<text text-anchor="middle" x="113.5" y="-51.8" font-family="Times,serif" font-size="14.00" fill="#5b00c0">rw</text>
</g>
<!-- T17&#45;&gt;T19 -->
<g id="edge5" class="edge">
<title>T17&#45;&gt;T19</title>
<path fill="none" stroke="#0050c0" d="M73.01,-162.24C76.37,-150.68 81.25,-133.93 85.22,-120.29"/>
<polygon fill="#0050c0" stroke="#0050c0" points="88.6,-121.18 88.04,-110.6 81.88,-119.23 88.6,-121.18"/>
<text text-anchor="middle" x="87.5" y="-132.8" font-family="Times,serif" font-size="14.00" fill="#0050c0">rt</text>
</g>
</g>
</svg>
