<?xml version="1.0" encoding="UTF-8"?><svg xmlns:svg="http://www.w3.org/2000/svg" xmlns="http://www.w3.org/2000/svg" xmlns:xlink="http://www.w3.org/1999/xlink" version="2.0" width="1200" height="1660" ><style >
svg {
  font-family: Helvetica, Arial, sans-serif;
  font-size: 11px;
}
rect {
  stroke-linecap: butt;
  stroke-width: 3;
  stroke: #fff;
/*  stroke-opacity: 1; */
}
rect:hover {
  stroke: #fff;
/*  stroke-opacity: 1; /*
}
polygon { fill: #000; }</style><defs ><polygon id="ahead" points="0 0, -12 4, -12 -4" /><filter id="glow" x="0" y="0" ><feGaussianBlur in="SourceAlpha" stdDeviation="2" result="blurred" /><feFlood flood-color="#fff" /><feComposite operator="in" in2="blurred" /><feComponentTransfer ><feFuncA type="linear" slope="10" intercept="0" /></feComponentTransfer><feMerge ><feMergeNode /><feMergeNode in="SourceGraphic" /></feMerge></filter></defs><g ><text x="33.333332" y="20.0" text-anchor="middle" alignment-baseline="middle" fill="#000" >c10</text><text x="33.333332" y="1020.0" text-anchor="middle" alignment-baseline="middle" fill="#aaa" >c10</text><text x="100.0" y="20.0" text-anchor="middle" alignment-baseline="middle" fill="#000" >c11</text><text x="100.0" y="1020.0" text-anchor="middle" alignment-baseline="middle" fill="#aaa" >c11</text><text x="166.66667" y="20.0" text-anchor="middle" alignment-baseline="middle" fill="#000" >c12</text><text x="166.66667" y="1020.0" text-anchor="middle" alignment-baseline="middle" fill="#aaa" >c12</text><text x="233.33333" y="20.0" text-anchor="middle" alignment-baseline="middle" fill="#000" >c13</text><text x="233.33333" y="1020.0" text-anchor="middle" alignment-baseline="middle" fill="#aaa" >c13</text><text x="300.0" y="20.0" text-anchor="middle" alignment-baseline="middle" fill="#000" >c14</text><text x="300.0" y="1020.0" text-anchor="middle" alignment-baseline="middle" fill="#aaa" >c14</text><text x="366.66666" y="20.0" text-anchor="middle" alignment-baseline="middle" fill="#000" >c15</text><text x="366.66666" y="1020.0" text-anchor="middle" alignment-baseline="middle" fill="#aaa" >c15</text><text x="433.33334" y="20.0" text-anchor="middle" alignment-baseline="middle" fill="#000" >c16</text><text x="433.33334" y="1020.0" text-anchor="middle" alignment-baseline="middle" fill="#aaa" >c16</text><text x="500.0" y="20.0" text-anchor="middle" alignment-baseline="middle" fill="#000" >c17</text><text x="500.0" y="1020.0" text-anchor="middle" alignment-baseline="middle" fill="#aaa" >c17</text><text x="566.6667" y="20.0" text-anchor="middle" alignment-baseline="middle" fill="#000" >c18</text><text x="566.6667" y="1020.0" text-anchor="middle" alignment-baseline="middle" fill="#aaa" >c18</text><text x="633.3333" y="20.0" text-anchor="middle" alignment-baseline="middle" fill="#000" >c19</text><text x="633.3333" y="1020.0" text-anchor="middle" alignment-baseline="middle" fill="#aaa" >c19</text><text x="700.0" y="20.0" text-anchor="middle" alignment-baseline="middle" fill="#000" >c20</text><text x="700.0" y="1020.0" text-anchor="middle" alignment-baseline="middle" fill="#aaa" >c20</text><text x="766.6667" y="20.0" text-anchor="middle" alignment-baseline="middle" fill="#000" >c21</text><text x="766.6667" y="1020.0" text-anchor="middle" alignment-baseline="middle" fill="#aaa" >c21</text><text x="833.3333" y="20.0" text-anchor="middle" alignment-baseline="middle" fill="#000" >c22</text><text x="833.3333" y="1020.0" text-anchor="middle" alignment-baseline="middle" fill="#aaa" >c22</text><text x="900.0" y="20.0" text-anchor="middle" alignment-baseline="middle" fill="#000" >n1</text><text x="900.0" y="1020.0" text-anchor="middle" alignment-baseline="middle" fill="#aaa" >n1</text><text x="966.6667" y="20.0" text-anchor="middle" alignment-baseline="middle" fill="#000" >n2</text><text x="966.6667" y="1020.0" text-anchor="middle" alignment-baseline="middle" fill="#aaa" >n2</text><text x="1033.3334" y="20.0" text-anchor="middle" alignment-baseline="middle" fill="#000" >n3</text><text x="1033.3334" y="1020.0" text-anchor="middle" alignment-baseline="middle" fill="#aaa" >n3</text><text x="1100.0" y="20.0" text-anchor="middle" alignment-baseline="middle" fill="#000" >n4</text><text x="1100.0" y="1020.0" text-anchor="middle" alignment-baseline="middle" fill="#aaa" >n4</text><text x="1166.6666" y="20.0" text-anchor="middle" alignment-baseline="middle" fill="#000" >n5</text><text x="1166.6666" y="1020.0" text-anchor="middle" alignment-baseline="middle" fill="#aaa" >n5</text></g><g ><line stroke="#ccc" x1="33.333332" y1="30.0" x2="33.333332" y2="1570.0" /><line stroke="#ccc" x1="100.0" y1="30.0" x2="100.0" y2="1570.0" /><line stroke="#ccc" x1="166.66667" y1="30.0" x2="166.66667" y2="1570.0" /><line stroke="#ccc" x1="233.33333" y1="30.0" x2="233.33333" y2="1570.0" /><line stroke="#ccc" x1="300.0" y1="30.0" x2="300.0" y2="1570.0" /><line stroke="#ccc" x1="366.66666" y1="30.0" x2="366.66666" y2="1570.0" /><line stroke="#ccc" x1="433.33334" y1="30.0" x2="433.33334" y2="1570.0" /><line stroke="#ccc" x1="500.0" y1="30.0" x2="500.0" y2="1570.0" /><line stroke="#ccc" x1="566.6667" y1="30.0" x2="566.6667" y2="1570.0" /><line stroke="#ccc" x1="633.3333" y1="30.0" x2="633.3333" y2="1570.0" /><line stroke="#ccc" x1="700.0" y1="30.0" x2="700.0" y2="1570.0" /><line stroke="#ccc" x1="766.6667" y1="30.0" x2="766.6667" y2="1570.0" /><line stroke="#ccc" x1="833.3333" y1="30.0" x2="833.3333" y2="1570.0" /><line stroke="#ccc" x1="900.0" y1="30.0" x2="900.0" y2="1570.0" /><line stroke="#ccc" x1="966.6667" y1="30.0" x2="966.6667" y2="1570.0" /><line stroke="#ccc" x1="1033.3334" y1="30.0" x2="1033.3334" y2="1570.0" /><line stroke="#ccc" x1="1100.0" y1="30.0" x2="1100.0" y2="1570.0" /><line stroke="#ccc" x1="1166.6666" y1="30.0" x2="1166.6666" y2="1570.0" /></g><g ><g transform="translate(900.0 50.0) rotate(16.69923942153141) " ><rect x="0" y="-2.5" height="5" width="65.60206287976291" fill="#000" ><title >n1 → n2 {:msg_id 2, :type "AppendEntries", :term 0, :prevIndex 0, :prevTerm 0, :entries [[["pass" nil] 0]], :commit 0}</title></rect><use xlink:href="#ahead" x="69.60206287976291" y="0" /><text text-anchor="middle" x="34.801031439881456" y="-4" transform="" filter="url(#glow)" style="fill: #fff" >AppendEntries {:term 0, :prevIndex 0, :prevTerm…</text><text text-anchor="middle" x="34.801031439881456" y="-4" transform="" >AppendEntries {:term 0, :prevIndex 0, :prevTerm…</text></g><g transform="translate(900.0 90.0) rotate(8.53076304487052) " ><rect x="0" y="-2.5" height="5" width="130.8250296809679" fill="#000" ><title >n1 → n3 {:msg_id 3, :type "AppendEntries", :term 0, :prevIndex 0, :prevTerm 0, :entries [[["pass" nil] 0]], :commit 0}</title></rect><use xlink:href="#ahead" x="134.8250296809679" y="0" /><text text-anchor="middle" x="67.41251484048395" y="-4" transform="" filter="url(#glow)" style="fill: #fff" >AppendEntries {:term 0, :prevIndex 0, :prevTerm…</text><text text-anchor="middle" x="67.41251484048395" y="-4" transform="" >AppendEntries {:term 0, :prevIndex 0, :prevTerm…</text></g><g transform="translate(900.0 130.0) rotate(5.710593137499643) " ><rect x="0" y="-2.5" height="5" width="196.9975124224178" fill="#000" ><title >n1 → n4 {:msg_id 4, :type "AppendEntries", :term 0, :prevIndex 0, :prevTerm 0, :entries [[["pass" nil] 0]], :commit 0}</title></rect><use xlink:href="#ahead" x="200.9975124224178" y="0" /><text text-anchor="middle" x="100.4987562112089" y="-4" transform="" filter="url(#glow)" style="fill: #fff" >AppendEntries {:term 0, :prevIndex 0, :prevTerm…</text><text text-anchor="middle" x="100.4987562112089" y="-4" transform="" >AppendEntries {:term 0, :prevIndex 0, :prevTerm…</text></g><g transform="translate(900.0 170.0) rotate(4.289153980849607) " ><rect x="0" y="-2.5" height="5" width="263.41557435894396" fill="#000" ><title >n1 → n5 {:msg_id 5, :type "AppendEntries", :term 0, :prevIndex 0, :prevTerm 0, :entries [[["pass" nil] 0]], :commit 0}</title></rect><use xlink:href="#ahead" x="267.41557435894396" y="0" /><text text-anchor="middle" x="133.70778717947198" y="-4" transform="" filter="url(#glow)" style="fill: #fff" >AppendEntries {:term 0, :prevIndex 0, :prevTerm…</text><text text-anchor="middle" x="133.70778717947198" y="-4" transform="" >AppendEntries {:term 0, :prevIndex 0, :prevTerm…</text></g><g transform="translate(966.6667 210.0) rotate(149.03625118202075) " ><rect x="0" y="-2.5" height="5" width="73.74604271034295" fill="#000" ><title >n2 → n1 {:msg_id 2, :in_reply_to 2, :type "AppendEntriesRes", :res true, :term 0, :next 2, :commit 0}</title></rect><use xlink:href="#ahead" x="77.74604271034295" y="0" /><text text-anchor="middle" x="38.873021355171474" y="-4" transform="rotate(180 38.873021355171474 0)" filter="url(#glow)" style="fill: #fff" >AppendEntriesRes {:res true, :term 0, :next 2, …</text><text text-anchor="middle" x="38.873021355171474" y="-4" transform="rotate(180 38.873021355171474 0)" >AppendEntriesRes {:res true, :term 0, :next 2, …</text></g><g transform="translate(1033.3334 230.0) rotate(163.30076057846858) " ><rect x="0" y="-2.5" height="5" width="135.20412575952582" fill="#000" ><title >n3 → n1 {:msg_id 2, :in_reply_to 3, :type "AppendEntriesRes", :res true, :term 0, :next 2, :commit 0}</title></rect><use xlink:href="#ahead" x="139.20412575952582" y="0" /><text text-anchor="middle" x="69.60206287976291" y="-4" transform="rotate(180 69.60206287976291 0)" filter="url(#glow)" style="fill: #fff" >AppendEntriesRes {:res true, :term 0, :next 2, …</text><text text-anchor="middle" x="69.60206287976291" y="-4" transform="rotate(180 69.60206287976291 0)" >AppendEntriesRes {:res true, :term 0, :next 2, …</text></g><g transform="translate(1100.0 290.0) rotate(174.28940686250036) " ><rect x="0" y="-2.5" height="5" width="196.9975124224178" fill="#000" ><title >n4 → n1 {:msg_id 2, :in_reply_to 4, :type "AppendEntriesRes", :res true, :term 0, :next 2, :commit 0}</title></rect><use xlink:href="#ahead" x="200.9975124224178" y="0" /><text text-anchor="middle" x="100.4987562112089" y="-4" transform="rotate(180 100.4987562112089 0)" filter="url(#glow)" style="fill: #fff" >AppendEntriesRes {:res true, :term 0, :next 2, …</text><text text-anchor="middle" x="100.4987562112089" y="-4" transform="rotate(180 100.4987562112089 0)" >AppendEntriesRes {:res true, :term 0, :next 2, …</text></g><g transform="translate(1166.6666 330.0) rotate(175.71084601915038) " ><rect x="0" y="-2.5" height="5" width="263.41557435894396" fill="#000" ><title >n5 → n1 {:msg_id 2, :in_reply_to 5, :type "AppendEntriesRes", :res true, :term 0, :next 2, :commit 0}</title></rect><use xlink:href="#ahead" x="267.41557435894396" y="0" /><text text-anchor="middle" x="133.70778717947198" y="-4" transform="rotate(180 133.70778717947198 0)" filter="url(#glow)" style="fill: #fff" >AppendEntriesRes {:res true, :term 0, :next 2, …</text><text text-anchor="middle" x="133.70778717947198" y="-4" transform="rotate(180 133.70778717947198 0)" >AppendEntriesRes {:res true, :term 0, :next 2, …</text></g><g transform="translate(33.333332 370.0) rotate(1.2275788037117066) " ><rect x="0" y="-2.5" height="5" width="929.5476160657963" fill="#81BFFC" ><title >c10 → n2 {:key 1, :from 4, :to 3, :type "cas", :msg_id 1}</title></rect><use xlink:href="#ahead" x="933.5476160657963" y="0" /><text text-anchor="middle" x="466.77380803289816" y="-4" transform="" filter="url(#glow)" style="fill: #fff" >cas {:key 1, :from 4, :to 3}</text><text text-anchor="middle" x="466.77380803289816" y="-4" transform="" >cas {:key 1, :from 4, :to 3}</text></g><g transform="translate(966.6667 410.0) rotate(178.7724211962883) " ><rect x="0" y="-2.5" height="5" width="929.5476160657963" fill="#FF1E90" ><title >n2 → c10 {:msg_id 3, :in_reply_to 1, :type "error", :code 11, :text "Not Leader"}</title></rect><use xlink:href="#ahead" x="933.5476160657963" y="0" /><text text-anchor="middle" x="466.77380803289816" y="-4" transform="rotate(180 466.77380803289816 0)" filter="url(#glow)" style="fill: #fff" >error Not Leader</text><text text-anchor="middle" x="466.77380803289816" y="-4" transform="rotate(180 466.77380803289816 0)" >error Not Leader</text></g><g transform="translate(100.0 450.0) rotate(1.1457628381751035) " ><rect x="0" y="-2.5" height="5" width="996.199980003999" fill="#81BFFC" ><title >c11 → n4 {:key 1, :value 2, :type "write", :msg_id 1}</title></rect><use xlink:href="#ahead" x="1000.199980003999" y="0" /><text text-anchor="middle" x="500.0999900019995" y="-4" transform="" filter="url(#glow)" style="fill: #fff" >write {:key 1, :value 2}</text><text text-anchor="middle" x="500.0999900019995" y="-4" transform="" >write {:key 1, :value 2}</text></g><g transform="translate(1100.0 490.0) rotate(178.8542371618249) " ><rect x="0" y="-2.5" height="5" width="996.199980003999" fill="#FF1E90" ><title >n4 → c11 {:msg_id 3, :in_reply_to 1, :type "error", :code 11, :text "Not Leader"}</title></rect><use xlink:href="#ahead" x="1000.199980003999" y="0" /><text text-anchor="middle" x="500.0999900019995" y="-4" transform="rotate(180 500.0999900019995 0)" filter="url(#glow)" style="fill: #fff" >error Not Leader</text><text text-anchor="middle" x="500.0999900019995" y="-4" transform="rotate(180 500.0999900019995 0)" >error Not Leader</text></g><g transform="translate(166.66667 530.0) rotate(1.3219756052477054) " ><rect x="0" y="-2.5" height="5" width="862.8974407762645" fill="#81BFFC" ><title >c12 → n3 {:key 0, :from 4, :to 1, :type "cas", :msg_id 1}</title></rect><use xlink:href="#ahead" x="866.8974407762645" y="0" /><text text-anchor="middle" x="433.44872038813224" y="-4" transform="" filter="url(#glow)" style="fill: #fff" >cas {:key 0, :from 4, :to 1}</text><text text-anchor="middle" x="433.44872038813224" y="-4" transform="" >cas {:key 0, :from 4, :to 1}</text></g><g transform="translate(1033.3334 570.0) rotate(178.6780243947523) " ><rect x="0" y="-2.5" height="5" width="862.8974407762645" fill="#FF1E90" ><title >n3 → c12 {:msg_id 3, :in_reply_to 1, :type "error", :code 11, :text "Not Leader"}</title></rect><use xlink:href="#ahead" x="866.8974407762645" y="0" /><text text-anchor="middle" x="433.44872038813224" y="-4" transform="rotate(180 433.44872038813224 0)" filter="url(#glow)" style="fill: #fff" >error Not Leader</text><text text-anchor="middle" x="433.44872038813224" y="-4" transform="rotate(180 433.44872038813224 0)" >error Not Leader</text></g><g transform="translate(233.33333 610.0) rotate(1.2275788789486326) " ><rect x="0" y="-2.5" height="5" width="929.5475588584702" fill="#81BFFC" ><title >c13 → n5 {:key 0, :type "read", :msg_id 1}</title></rect><use xlink:href="#ahead" x="933.5475588584702" y="0" /><text text-anchor="middle" x="466.7737794292351" y="-4" transform="" filter="url(#glow)" style="fill: #fff" >read {:key 0}</text><text text-anchor="middle" x="466.7737794292351" y="-4" transform="" >read {:key 0}</text></g><g transform="translate(1166.6666 650.0) rotate(178.77242112105137) " ><rect x="0" y="-2.5" height="5" width="929.5475588584702" fill="#FF1E90" ><title >n5 → c13 {:msg_id 3, :in_reply_to 1, :type "error", :code 11, :text "Not Leader"}</title></rect><use xlink:href="#ahead" x="933.5475588584702" y="0" /><text text-anchor="middle" x="466.7737794292351" y="-4" transform="rotate(180 466.7737794292351 0)" filter="url(#glow)" style="fill: #fff" >error Not Leader</text><text text-anchor="middle" x="466.7737794292351" y="-4" transform="rotate(180 466.7737794292351 0)" >error Not Leader</text></g><g transform="translate(300.0 690.0) rotate(1.3219757215818764) " ><rect x="0" y="-2.5" height="5" width="862.897364502626" fill="#81BFFC" ><title >c14 → n5 {:key 0, :from 0, :to 3, :type "cas", :msg_id 1}</title></rect><use xlink:href="#ahead" x="866.897364502626" y="0" /><text text-anchor="middle" x="433.448682251313" y="-4" transform="" filter="url(#glow)" style="fill: #fff" >cas {:key 0, :from 0, :to 3}</text><text text-anchor="middle" x="433.448682251313" y="-4" transform="" >cas {:key 0, :from 0, :to 3}</text></g><g transform="translate(1166.6666 730.0) rotate(178.67802427841812) " ><rect x="0" y="-2.5" height="5" width="862.897364502626" fill="#FF1E90" ><title >n5 → c14 {:msg_id 4, :in_reply_to 1, :type "error", :code 11, :text "Not Leader"}</title></rect><use xlink:href="#ahead" x="866.897364502626" y="0" /><text text-anchor="middle" x="433.448682251313" y="-4" transform="rotate(180 433.448682251313 0)" filter="url(#glow)" style="fill: #fff" >error Not Leader</text><text text-anchor="middle" x="433.448682251313" y="-4" transform="rotate(180 433.448682251313 0)" >error Not Leader</text></g><g transform="translate(366.66666 770.0) rotate(1.9091523359637268) " ><rect x="0" y="-2.5" height="5" width="596.3332712927834" fill="#81BFFC" ><title >c15 → n2 {:key 0, :type "read", :msg_id 1}</title></rect><use xlink:href="#ahead" x="600.3332712927834" y="0" /><text text-anchor="middle" x="300.1666356463917" y="-4" transform="" filter="url(#glow)" style="fill: #fff" >read {:key 0}</text><text text-anchor="middle" x="300.1666356463917" y="-4" transform="" >read {:key 0}</text></g><g transform="translate(966.6667 810.0) rotate(178.0908476640363) " ><rect x="0" y="-2.5" height="5" width="596.3332712927834" fill="#FF1E90" ><title >n2 → c15 {:msg_id 4, :in_reply_to 1, :type "error", :code 11, :text "Not Leader"}</title></rect><use xlink:href="#ahead" x="600.3332712927834" y="0" /><text text-anchor="middle" x="300.1666356463917" y="-4" transform="rotate(180 300.1666356463917 0)" filter="url(#glow)" style="fill: #fff" >error Not Leader</text><text text-anchor="middle" x="300.1666356463917" y="-4" transform="rotate(180 300.1666356463917 0)" >error Not Leader</text></g><g transform="translate(433.33334 850.0) rotate(1.7183580278598) " ><rect x="0" y="-2.5" height="5" width="662.9665890290731" fill="#81BFFC" ><title >c16 → n4 {:key 0, :value 4, :type "write", :msg_id 1}</title></rect><use xlink:href="#ahead" x="666.9665890290731" y="0" /><text text-anchor="middle" x="333.48329451453657" y="-4" transform="" filter="url(#glow)" style="fill: #fff" >write {:key 0, :value 4}</text><text text-anchor="middle" x="333.48329451453657" y="-4" transform="" >write {:key 0, :value 4}</text></g><g transform="translate(1100.0 890.0) rotate(178.28164197214022) " ><rect x="0" y="-2.5" height="5" width="662.9665890290731" fill="#FF1E90" ><title >n4 → c16 {:msg_id 4, :in_reply_to 1, :type "error", :code 11, :text "Not Leader"}</title></rect><use xlink:href="#ahead" x="666.9665890290731" y="0" /><text text-anchor="middle" x="333.48329451453657" y="-4" transform="rotate(180 333.48329451453657 0)" filter="url(#glow)" style="fill: #fff" >error Not Leader</text><text text-anchor="middle" x="333.48329451453657" y="-4" transform="rotate(180 333.48329451453657 0)" >error Not Leader</text></g><g transform="translate(300.0 930.0) rotate(1.3219757215818764) " ><rect x="0" y="-2.5" height="5" width="862.897364502626" fill="#81BFFC" ><title >c14 → n5 {:key 0, :value 4, :type "write", :msg_id 2}</title></rect><use xlink:href="#ahead" x="866.897364502626" y="0" /><text text-anchor="middle" x="433.448682251313" y="-4" transform="" filter="url(#glow)" style="fill: #fff" >write {:key 0, :value 4}</text><text text-anchor="middle" x="433.448682251313" y="-4" transform="" >write {:key 0, :value 4}</text></g><g transform="translate(1166.6666 970.0) rotate(178.67802427841812) " ><rect x="0" y="-2.5" height="5" width="862.897364502626" fill="#FF1E90" ><title >n5 → c14 {:msg_id 5, :in_reply_to 2, :type "error", :code 11, :text "Not Leader"}</title></rect><use xlink:href="#ahead" x="866.897364502626" y="0" /><text text-anchor="middle" x="433.448682251313" y="-4" transform="rotate(180 433.448682251313 0)" filter="url(#glow)" style="fill: #fff" >error Not Leader</text><text text-anchor="middle" x="433.448682251313" y="-4" transform="rotate(180 433.448682251313 0)" >error Not Leader</text></g><g transform="translate(500.0 1010.0) rotate(2.4540315676705866) " ><rect x="0" y="-2.5" height="5" width="463.0950618091498" fill="#81BFFC" ><title >c17 → n2 {:key 0, :from 4, :to 2, :type "cas", :msg_id 1}</title></rect><use xlink:href="#ahead" x="467.0950618091498" y="0" /><text text-anchor="middle" x="233.5475309045749" y="-4" transform="" filter="url(#glow)" style="fill: #fff" >cas {:key 0, :from 4, :to 2}</text><text text-anchor="middle" x="233.5475309045749" y="-4" transform="" >cas {:key 0, :from 4, :to 2}</text></g><g transform="translate(966.6667 1050.0) rotate(177.54596843232943) " ><rect x="0" y="-2.5" height="5" width="463.0950618091498" fill="#FF1E90" ><title >n2 → c17 {:msg_id 5, :in_reply_to 1, :type "error", :code 11, :text "Not Leader"}</title></rect><use xlink:href="#ahead" x="467.0950618091498" y="0" /><text text-anchor="middle" x="233.5475309045749" y="-4" transform="rotate(180 233.5475309045749 0)" filter="url(#glow)" style="fill: #fff" >error Not Leader</text><text text-anchor="middle" x="233.5475309045749" y="-4" transform="rotate(180 233.5475309045749 0)" >error Not Leader</text></g><g transform="translate(566.6667 1090.0) rotate(3.4336305715212916) " ><rect x="0" y="-2.5" height="5" width="329.93277399462227" fill="#81BFFC" ><title >c18 → n1 {:key 1, :from 3, :to 3, :type "cas", :msg_id 1}</title></rect><use xlink:href="#ahead" x="333.93277399462227" y="0" /><text text-anchor="middle" x="166.96638699731113" y="-4" transform="" filter="url(#glow)" style="fill: #fff" >cas {:key 1, :from 3, :to 3}</text><text text-anchor="middle" x="166.96638699731113" y="-4" transform="" >cas {:key 1, :from 3, :to 3}</text></g><g transform="translate(433.33334 1130.0) rotate(1.7183580278598) " ><rect x="0" y="-2.5" height="5" width="662.9665890290731" fill="#81BFFC" ><title >c16 → n4 {:key 0, :from 0, :to 4, :type "cas", :msg_id 2}</title></rect><use xlink:href="#ahead" x="666.9665890290731" y="0" /><text text-anchor="middle" x="333.48329451453657" y="-4" transform="" filter="url(#glow)" style="fill: #fff" >cas {:key 0, :from 0, :to 4}</text><text text-anchor="middle" x="333.48329451453657" y="-4" transform="" >cas {:key 0, :from 0, :to 4}</text></g><g transform="translate(1100.0 1170.0) rotate(178.28164197214022) " ><rect x="0" y="-2.5" height="5" width="662.9665890290731" fill="#FF1E90" ><title >n4 → c16 {:msg_id 5, :in_reply_to 2, :type "error", :code 11, :text "Not Leader"}</title></rect><use xlink:href="#ahead" x="666.9665890290731" y="0" /><text text-anchor="middle" x="333.48329451453657" y="-4" transform="rotate(180 333.48329451453657 0)" filter="url(#glow)" style="fill: #fff" >error Not Leader</text><text text-anchor="middle" x="333.48329451453657" y="-4" transform="rotate(180 333.48329451453657 0)" >error Not Leader</text></g><g transform="translate(633.3333 1210.0) rotate(4.289153002803799) " ><rect x="0" y="-2.5" height="5" width="263.4156352231596" fill="#81BFFC" ><title >c19 → n1 {:key 0, :from 1, :to 2, :type "cas", :msg_id 1}</title></rect><use xlink:href="#ahead" x="267.4156352231596" y="0" /><text text-anchor="middle" x="133.7078176115798" y="-4" transform="" filter="url(#glow)" style="fill: #fff" >cas {:key 0, :from 1, :to 2}</text><text text-anchor="middle" x="133.7078176115798" y="-4" transform="" >cas {:key 0, :from 1, :to 2}</text></g><g transform="translate(700.0 1250.0) rotate(4.289153002803799) " ><rect x="0" y="-2.5" height="5" width="263.4156352231596" fill="#81BFFC" ><title >c20 → n2 {:key 1, :from 0, :to 4, :type "cas", :msg_id 1}</title></rect><use xlink:href="#ahead" x="267.4156352231596" y="0" /><text text-anchor="middle" x="133.7078176115798" y="-4" transform="" filter="url(#glow)" style="fill: #fff" >cas {:key 1, :from 0, :to 4}</text><text text-anchor="middle" x="133.7078176115798" y="-4" transform="" >cas {:key 1, :from 0, :to 4}</text></g><g transform="translate(966.6667 1290.0) rotate(175.7108469971962) " ><rect x="0" y="-2.5" height="5" width="263.4156352231596" fill="#FF1E90" ><title >n2 → c20 {:msg_id 6, :in_reply_to 1, :type "error", :code 11, :text "Not Leader"}</title></rect><use xlink:href="#ahead" x="267.4156352231596" y="0" /><text text-anchor="middle" x="133.7078176115798" y="-4" transform="rotate(180 133.7078176115798 0)" filter="url(#glow)" style="fill: #fff" >error Not Leader</text><text text-anchor="middle" x="133.7078176115798" y="-4" transform="rotate(180 133.7078176115798 0)" >error Not Leader</text></g><g transform="translate(500.0 1330.0) rotate(2.4540315676705866) " ><rect x="0" y="-2.5" height="5" width="463.0950618091498" fill="#81BFFC" ><title >c17 → n2 {:key 0, :from 0, :to 2, :type "cas", :msg_id 2}</title></rect><use xlink:href="#ahead" x="467.0950618091498" y="0" /><text text-anchor="middle" x="233.5475309045749" y="-4" transform="" filter="url(#glow)" style="fill: #fff" >cas {:key 0, :from 0, :to 2}</text><text text-anchor="middle" x="233.5475309045749" y="-4" transform="" >cas {:key 0, :from 0, :to 2}</text></g><g transform="translate(966.6667 1370.0) rotate(177.54596843232943) " ><rect x="0" y="-2.5" height="5" width="463.0950618091498" fill="#FF1E90" ><title >n2 → c17 {:msg_id 7, :in_reply_to 2, :type "error", :code 11, :text "Not Leader"}</title></rect><use xlink:href="#ahead" x="467.0950618091498" y="0" /><text text-anchor="middle" x="233.5475309045749" y="-4" transform="rotate(180 233.5475309045749 0)" filter="url(#glow)" style="fill: #fff" >error Not Leader</text><text text-anchor="middle" x="233.5475309045749" y="-4" transform="rotate(180 233.5475309045749 0)" >error Not Leader</text></g><g transform="translate(766.6667 1410.0) rotate(4.289153002803799) " ><rect x="0" y="-2.5" height="5" width="263.4156352231596" fill="#81BFFC" ><title >c21 → n3 {:key 1, :from 4, :to 3, :type "cas", :msg_id 1}</title></rect><use xlink:href="#ahead" x="267.4156352231596" y="0" /><text text-anchor="middle" x="133.7078176115798" y="-4" transform="" filter="url(#glow)" style="fill: #fff" >cas {:key 1, :from 4, :to 3}</text><text text-anchor="middle" x="133.7078176115798" y="-4" transform="" >cas {:key 1, :from 4, :to 3}</text></g><g transform="translate(1033.3334 1450.0) rotate(175.7108469971962) " ><rect x="0" y="-2.5" height="5" width="263.4156352231596" fill="#FF1E90" ><title >n3 → c21 {:msg_id 4, :in_reply_to 1, :type "error", :code 11, :text "Not Leader"}</title></rect><use xlink:href="#ahead" x="267.4156352231596" y="0" /><text text-anchor="middle" x="133.7078176115798" y="-4" transform="rotate(180 133.7078176115798 0)" filter="url(#glow)" style="fill: #fff" >error Not Leader</text><text text-anchor="middle" x="133.7078176115798" y="-4" transform="rotate(180 133.7078176115798 0)" >error Not Leader</text></g><g transform="translate(833.3333 1490.0) rotate(5.710591406283902) " ><rect x="0" y="-2.5" height="5" width="196.9975731546683" fill="#81BFFC" ><title >c22 → n3 {:key 1, :value 2, :type "write", :msg_id 1}</title></rect><use xlink:href="#ahead" x="200.9975731546683" y="0" /><text text-anchor="middle" x="100.49878657733414" y="-4" transform="" filter="url(#glow)" style="fill: #fff" >write {:key 1, :value 2}</text><text text-anchor="middle" x="100.49878657733414" y="-4" transform="" >write {:key 1, :value 2}</text></g><g transform="translate(1033.3334 1530.0) rotate(174.2894085937161) " ><rect x="0" y="-2.5" height="5" width="196.9975731546683" fill="#FF1E90" ><title >n3 → c22 {:msg_id 5, :in_reply_to 1, :type "error", :code 11, :text "Not Leader"}</title></rect><use xlink:href="#ahead" x="200.9975731546683" y="0" /><text text-anchor="middle" x="100.49878657733414" y="-4" transform="rotate(180 100.49878657733414 0)" filter="url(#glow)" style="fill: #fff" >error Not Leader</text><text text-anchor="middle" x="100.49878657733414" y="-4" transform="rotate(180 100.49878657733414 0)" >error Not Leader</text></g></g></svg>