<?xml version="1.0" encoding="UTF-8"?><svg xmlns:svg="http://www.w3.org/2000/svg" xmlns="http://www.w3.org/2000/svg" xmlns:xlink="http://www.w3.org/1999/xlink" version="2.0" width="1200" height="1740" ><style >
svg {
  font-family: Helvetica, Arial, sans-serif;
  font-size: 11px;
}
rect {
  stroke-linecap: butt;
  stroke-width: 3;
  stroke: #fff;
/*  stroke-opacity: 1; */
}
rect:hover {
  stroke: #fff;
/*  stroke-opacity: 1; /*
}
polygon { fill: #000; }</style><defs ><polygon id="ahead" points="0 0, -12 4, -12 -4" /><filter id="glow" x="0" y="0" ><feGaussianBlur in="SourceAlpha" stdDeviation="2" result="blurred" /><feFlood flood-color="#fff" /><feComposite operator="in" in2="blurred" /><feComponentTransfer ><feFuncA type="linear" slope="10" intercept="0" /></feComponentTransfer><feMerge ><feMergeNode /><feMergeNode in="SourceGraphic" /></feMerge></filter></defs><g ><text x="42.857143" y="20.0" text-anchor="middle" alignment-baseline="middle" fill="#000" >c10</text><text x="42.857143" y="1020.0" text-anchor="middle" alignment-baseline="middle" fill="#aaa" >c10</text><text x="128.57143" y="20.0" text-anchor="middle" alignment-baseline="middle" fill="#000" >c11</text><text x="128.57143" y="1020.0" text-anchor="middle" alignment-baseline="middle" fill="#aaa" >c11</text><text x="214.28572" y="20.0" text-anchor="middle" alignment-baseline="middle" fill="#000" >c12</text><text x="214.28572" y="1020.0" text-anchor="middle" alignment-baseline="middle" fill="#aaa" >c12</text><text x="300.0" y="20.0" text-anchor="middle" alignment-baseline="middle" fill="#000" >c13</text><text x="300.0" y="1020.0" text-anchor="middle" alignment-baseline="middle" fill="#aaa" >c13</text><text x="385.7143" y="20.0" text-anchor="middle" alignment-baseline="middle" fill="#000" >c14</text><text x="385.7143" y="1020.0" text-anchor="middle" alignment-baseline="middle" fill="#aaa" >c14</text><text x="471.42856" y="20.0" text-anchor="middle" alignment-baseline="middle" fill="#000" >c15</text><text x="471.42856" y="1020.0" text-anchor="middle" alignment-baseline="middle" fill="#aaa" >c15</text><text x="557.1429" y="20.0" text-anchor="middle" alignment-baseline="middle" fill="#000" >c16</text><text x="557.1429" y="1020.0" text-anchor="middle" alignment-baseline="middle" fill="#aaa" >c16</text><text x="642.8571" y="20.0" text-anchor="middle" alignment-baseline="middle" fill="#000" >c17</text><text x="642.8571" y="1020.0" text-anchor="middle" alignment-baseline="middle" fill="#aaa" >c17</text><text x="728.5714" y="20.0" text-anchor="middle" alignment-baseline="middle" fill="#000" >c18</text><text x="728.5714" y="1020.0" text-anchor="middle" alignment-baseline="middle" fill="#aaa" >c18</text><text x="814.2857" y="20.0" text-anchor="middle" alignment-baseline="middle" fill="#000" >n1</text><text x="814.2857" y="1020.0" text-anchor="middle" alignment-baseline="middle" fill="#aaa" >n1</text><text x="900.0" y="20.0" text-anchor="middle" alignment-baseline="middle" fill="#000" >n2</text><text x="900.0" y="1020.0" text-anchor="middle" alignment-baseline="middle" fill="#aaa" >n2</text><text x="985.7143" y="20.0" text-anchor="middle" alignment-baseline="middle" fill="#000" >n3</text><text x="985.7143" y="1020.0" text-anchor="middle" alignment-baseline="middle" fill="#aaa" >n3</text><text x="1071.4286" y="20.0" text-anchor="middle" alignment-baseline="middle" fill="#000" >n4</text><text x="1071.4286" y="1020.0" text-anchor="middle" alignment-baseline="middle" fill="#aaa" >n4</text><text x="1157.1428" y="20.0" text-anchor="middle" alignment-baseline="middle" fill="#000" >n5</text><text x="1157.1428" y="1020.0" text-anchor="middle" alignment-baseline="middle" fill="#aaa" >n5</text></g><g ><line stroke="#ccc" x1="42.857143" y1="30.0" x2="42.857143" y2="1650.0" /><line stroke="#ccc" x1="128.57143" y1="30.0" x2="128.57143" y2="1650.0" /><line stroke="#ccc" x1="214.28572" y1="30.0" x2="214.28572" y2="1650.0" /><line stroke="#ccc" x1="300.0" y1="30.0" x2="300.0" y2="1650.0" /><line stroke="#ccc" x1="385.7143" y1="30.0" x2="385.7143" y2="1650.0" /><line stroke="#ccc" x1="471.42856" y1="30.0" x2="471.42856" y2="1650.0" /><line stroke="#ccc" x1="557.1429" y1="30.0" x2="557.1429" y2="1650.0" /><line stroke="#ccc" x1="642.8571" y1="30.0" x2="642.8571" y2="1650.0" /><line stroke="#ccc" x1="728.5714" y1="30.0" x2="728.5714" y2="1650.0" /><line stroke="#ccc" x1="814.2857" y1="30.0" x2="814.2857" y2="1650.0" /><line stroke="#ccc" x1="900.0" y1="30.0" x2="900.0" y2="1650.0" /><line stroke="#ccc" x1="985.7143" y1="30.0" x2="985.7143" y2="1650.0" /><line stroke="#ccc" x1="1071.4286" y1="30.0" x2="1071.4286" y2="1650.0" /><line stroke="#ccc" x1="1157.1428" y1="30.0" x2="1157.1428" y2="1650.0" /></g><g ><g transform="translate(900.0 50.0) rotate(136.97493691817374) " ><rect x="0" y="-2.5" height="5" width="113.24734653820018" fill="#000" ><title >n2 → n1 {:msg_id 2, :type "RequestVote", :term 1, :prevLogIndex 2, :lastLogTerm 0, :candidateId "n2"}</title></rect><use xlink:href="#ahead" x="117.24734653820018" y="0" /><text text-anchor="middle" x="58.62367326910009" y="-4" transform="rotate(180 58.62367326910009 0)" filter="url(#glow)" style="fill: #fff" >RequestVote {:term 1, :prevLogIndex 2, :lastLog…</text><text text-anchor="middle" x="58.62367326910009" y="-4" transform="rotate(180 58.62367326910009 0)" >RequestVote {:term 1, :prevLogIndex 2, :lastLog…</text></g><g transform="translate(1071.4286 90.0) rotate(162.7185032814519) " ><rect x="0" y="-2.5" height="5" width="265.2999488158867" fill="#000" ><title >n4 → n1 {:msg_id 2, :type "RequestVote", :term 1, :prevLogIndex 2, :lastLogTerm 0, :candidateId "n4"}</title></rect><use xlink:href="#ahead" x="269.2999488158867" y="0" /><text text-anchor="middle" x="134.64997440794335" y="-4" transform="rotate(180 134.64997440794335 0)" filter="url(#glow)" style="fill: #fff" >RequestVote {:term 1, :prevLogIndex 2, :lastLog…</text><text text-anchor="middle" x="134.64997440794335" y="-4" transform="rotate(180 134.64997440794335 0)" >RequestVote {:term 1, :prevLogIndex 2, :lastLog…</text></g><g transform="translate(985.7143 110.0) rotate(145.00798253962887) " ><rect x="0" y="-2.5" height="5" width="205.25525341313465" fill="#000" ><title >n3 → n1 {:msg_id 2, :type "RequestVote", :term 1, :prevLogIndex 2, :lastLogTerm 0, :candidateId "n3"}</title></rect><use xlink:href="#ahead" x="209.25525341313465" y="0" /><text text-anchor="middle" x="104.62762670656733" y="-4" transform="rotate(180 104.62762670656733 0)" filter="url(#glow)" style="fill: #fff" >RequestVote {:term 1, :prevLogIndex 2, :lastLog…</text><text text-anchor="middle" x="104.62762670656733" y="-4" transform="rotate(180 104.62762670656733 0)" >RequestVote {:term 1, :prevLogIndex 2, :lastLog…</text></g><g transform="translate(900.0 150.0) rotate(90.0) " ><rect x="0" y="-2.5" height="5" width="96.0" fill="#000" ><title >n2 → n2 {:msg_id 3, :type "RequestVote", :term 1, :prevLogIndex 2, :lastLogTerm 0, :candidateId "n2"}</title></rect><use xlink:href="#ahead" x="100.0" y="0" /><text text-anchor="middle" x="50.0" y="-4" transform="rotate(180 50.0 0)" filter="url(#glow)" style="fill: #fff" >RequestVote {:term 1, :prevLogIndex 2, :lastLog…</text><text text-anchor="middle" x="50.0" y="-4" transform="rotate(180 50.0 0)" >RequestVote {:term 1, :prevLogIndex 2, :lastLog…</text></g><g transform="translate(1071.4286 190.0) rotate(145.00798253962887) " ><rect x="0" y="-2.5" height="5" width="205.25525341313465" fill="#000" ><title >n4 → n2 {:msg_id 3, :type "RequestVote", :term 1, :prevLogIndex 2, :lastLogTerm 0, :candidateId "n4"}</title></rect><use xlink:href="#ahead" x="209.25525341313465" y="0" /><text text-anchor="middle" x="104.62762670656733" y="-4" transform="rotate(180 104.62762670656733 0)" filter="url(#glow)" style="fill: #fff" >RequestVote {:term 1, :prevLogIndex 2, :lastLog…</text><text text-anchor="middle" x="104.62762670656733" y="-4" transform="rotate(180 104.62762670656733 0)" >RequestVote {:term 1, :prevLogIndex 2, :lastLog…</text></g><g transform="translate(900.0 290.0) rotate(13.13402101664945) " ><rect x="0" y="-2.5" height="5" width="172.03340899100718" fill="#000" ><title >n2 → n4 {:msg_id 5, :type "RequestVote", :term 1, :prevLogIndex 2, :lastLogTerm 0, :candidateId "n2"}</title></rect><use xlink:href="#ahead" x="176.03340899100718" y="0" /><text text-anchor="middle" x="88.01670449550359" y="-4" transform="" filter="url(#glow)" style="fill: #fff" >RequestVote {:term 1, :prevLogIndex 2, :lastLog…</text><text text-anchor="middle" x="88.01670449550359" y="-4" transform="" >RequestVote {:term 1, :prevLogIndex 2, :lastLog…</text></g><g transform="translate(1071.4286 350.0) rotate(90.0) " ><rect x="0" y="-2.5" height="5" width="16.0" fill="#000" ><title >n4 → n4 {:msg_id 5, :type "RequestVote", :term 1, :prevLogIndex 2, :lastLogTerm 0, :candidateId "n4"}</title></rect><use xlink:href="#ahead" x="20.0" y="0" /><text text-anchor="middle" x="10.0" y="-4" transform="rotate(180 10.0 0)" filter="url(#glow)" style="fill: #fff" >RequestVote {:term 1, :prevLogIndex 2, :lastLog…</text><text text-anchor="middle" x="10.0" y="-4" transform="rotate(180 10.0 0)" >RequestVote {:term 1, :prevLogIndex 2, :lastLog…</text></g><g transform="translate(900.0 390.0) rotate(4.447385450885711) " ><rect x="0" y="-2.5" height="5" width="253.91942742401318" fill="#000" ><title >n2 → n5 {:msg_id 6, :type "RequestVote", :term 1, :prevLogIndex 2, :lastLogTerm 0, :candidateId "n2"}</title></rect><use xlink:href="#ahead" x="257.9194274240132" y="0" /><text text-anchor="middle" x="128.9597137120066" y="-4" transform="" filter="url(#glow)" style="fill: #fff" >RequestVote {:term 1, :prevLogIndex 2, :lastLog…</text><text text-anchor="middle" x="128.9597137120066" y="-4" transform="" >RequestVote {:term 1, :prevLogIndex 2, :lastLog…</text></g><g transform="translate(1071.4286 430.0) rotate(13.13403004488278) " ><rect x="0" y="-2.5" height="5" width="84.01664505695396" fill="#000" ><title >n4 → n5 {:msg_id 6, :type "RequestVote", :term 1, :prevLogIndex 2, :lastLogTerm 0, :candidateId "n4"}</title></rect><use xlink:href="#ahead" x="88.01664505695396" y="0" /><text text-anchor="middle" x="44.00832252847698" y="-4" transform="" filter="url(#glow)" style="fill: #fff" >RequestVote {:term 1, :prevLogIndex 2, :lastLog…</text><text text-anchor="middle" x="44.00832252847698" y="-4" transform="" >RequestVote {:term 1, :prevLogIndex 2, :lastLog…</text></g><g transform="translate(900.0 210.0) rotate(72.97947275714176) " ><rect x="0" y="-2.5" height="5" width="288.82578484527073" fill="#000" ><title >n2 → n3 {:msg_id 4, :type "RequestVote", :term 1, :prevLogIndex 2, :lastLogTerm 0, :candidateId "n2"}</title></rect><use xlink:href="#ahead" x="292.82578484527073" y="0" /><text text-anchor="middle" x="146.41289242263537" y="-4" transform="" filter="url(#glow)" style="fill: #fff" >RequestVote {:term 1, :prevLogIndex 2, :lastLog…</text><text text-anchor="middle" x="146.41289242263537" y="-4" transform="" >RequestVote {:term 1, :prevLogIndex 2, :lastLog…</text></g><g transform="translate(985.7143 470.0) rotate(154.9831087554215) " ><rect x="0" y="-2.5" height="5" width="90.58826708555772" fill="#000" ><title >n3 → n2 {:msg_id 3, :type "RequestVote", :term 1, :prevLogIndex 2, :lastLogTerm 0, :candidateId "n3"}</title></rect><use xlink:href="#ahead" x="94.58826708555772" y="0" /><text text-anchor="middle" x="47.29413354277886" y="-4" transform="rotate(180 47.29413354277886 0)" filter="url(#glow)" style="fill: #fff" >RequestVote {:term 1, :prevLogIndex 2, :lastLog…</text><text text-anchor="middle" x="47.29413354277886" y="-4" transform="rotate(180 47.29413354277886 0)" >RequestVote {:term 1, :prevLogIndex 2, :lastLog…</text></g><g transform="translate(1071.4286 270.0) rotate(108.24585626068016) " ><rect x="0" y="-2.5" height="5" width="269.76438824333746" fill="#000" ><title >n4 → n3 {:msg_id 4, :type "RequestVote", :term 1, :prevLogIndex 2, :lastLogTerm 0, :candidateId "n4"}</title></rect><use xlink:href="#ahead" x="273.76438824333746" y="0" /><text text-anchor="middle" x="136.88219412166873" y="-4" transform="rotate(180 136.88219412166873 0)" filter="url(#glow)" style="fill: #fff" >RequestVote {:term 1, :prevLogIndex 2, :lastLog…</text><text text-anchor="middle" x="136.88219412166873" y="-4" transform="rotate(180 136.88219412166873 0)" >RequestVote {:term 1, :prevLogIndex 2, :lastLog…</text></g><g transform="translate(1157.1428 70.0) rotate(125.5376757244576) " ><rect x="0" y="-2.5" height="5" width="585.8737173932245" fill="#000" ><title >n5 → n1 {:msg_id 2, :type "RequestVote", :term 1, :prevLogIndex 2, :lastLogTerm 0, :candidateId "n5"}</title></rect><use xlink:href="#ahead" x="589.8737173932245" y="0" /><text text-anchor="middle" x="294.93685869661226" y="-4" transform="rotate(180 294.93685869661226 0)" filter="url(#glow)" style="fill: #fff" >RequestVote {:term 1, :prevLogIndex 2, :lastLog…</text><text text-anchor="middle" x="294.93685869661226" y="-4" transform="rotate(180 294.93685869661226 0)" >RequestVote {:term 1, :prevLogIndex 2, :lastLog…</text></g><g transform="translate(985.7143 570.0) rotate(90.0) " ><rect x="0" y="-2.5" height="5" width="16.0" fill="#000" ><title >n3 → n3 {:msg_id 4, :type "RequestVote", :term 1, :prevLogIndex 2, :lastLogTerm 0, :candidateId "n3"}</title></rect><use xlink:href="#ahead" x="20.0" y="0" /><text text-anchor="middle" x="10.0" y="-4" transform="rotate(180 10.0 0)" filter="url(#glow)" style="fill: #fff" >RequestVote {:term 1, :prevLogIndex 2, :lastLog…</text><text text-anchor="middle" x="10.0" y="-4" transform="rotate(180 10.0 0)" >RequestVote {:term 1, :prevLogIndex 2, :lastLog…</text></g><g transform="translate(985.7143 610.0) rotate(13.13402101664945) " ><rect x="0" y="-2.5" height="5" width="84.01670449550359" fill="#000" ><title >n3 → n4 {:msg_id 5, :type "RequestVote", :term 1, :prevLogIndex 2, :lastLogTerm 0, :candidateId "n3"}</title></rect><use xlink:href="#ahead" x="88.01670449550359" y="0" /><text text-anchor="middle" x="44.008352247751795" y="-4" transform="" filter="url(#glow)" style="fill: #fff" >RequestVote {:term 1, :prevLogIndex 2, :lastLog…</text><text text-anchor="middle" x="44.008352247751795" y="-4" transform="" >RequestVote {:term 1, :prevLogIndex 2, :lastLog…</text></g><g transform="translate(1157.1428 650.0) rotate(175.55261454911428) " ><rect x="0" y="-2.5" height="5" width="253.91942742401318" fill="#000" ><title >n5 → n2 {:msg_id 3, :type "RequestVote", :term 1, :prevLogIndex 2, :lastLogTerm 0, :candidateId "n5"}</title></rect><use xlink:href="#ahead" x="257.9194274240132" y="0" /><text text-anchor="middle" x="128.9597137120066" y="-4" transform="rotate(180 128.9597137120066 0)" filter="url(#glow)" style="fill: #fff" >RequestVote {:term 1, :prevLogIndex 2, :lastLog…</text><text text-anchor="middle" x="128.9597137120066" y="-4" transform="rotate(180 128.9597137120066 0)" >RequestVote {:term 1, :prevLogIndex 2, :lastLog…</text></g><g transform="translate(985.7143 690.0) rotate(6.654426723137599) " ><rect x="0" y="-2.5" height="5" width="168.5912516747518" fill="#000" ><title >n3 → n5 {:msg_id 6, :type "RequestVote", :term 1, :prevLogIndex 2, :lastLogTerm 0, :candidateId "n3"}</title></rect><use xlink:href="#ahead" x="172.5912516747518" y="0" /><text text-anchor="middle" x="86.2956258373759" y="-4" transform="" filter="url(#glow)" style="fill: #fff" >RequestVote {:term 1, :prevLogIndex 2, :lastLog…</text><text text-anchor="middle" x="86.2956258373759" y="-4" transform="" >RequestVote {:term 1, :prevLogIndex 2, :lastLog…</text></g><g transform="translate(1157.1428 730.0) rotate(173.3455732768624) " ><rect x="0" y="-2.5" height="5" width="168.5912516747518" fill="#000" ><title >n5 → n3 {:msg_id 4, :type "RequestVote", :term 1, :prevLogIndex 2, :lastLogTerm 0, :candidateId "n5"}</title></rect><use xlink:href="#ahead" x="172.5912516747518" y="0" /><text text-anchor="middle" x="86.2956258373759" y="-4" transform="rotate(180 86.2956258373759 0)" filter="url(#glow)" style="fill: #fff" >RequestVote {:term 1, :prevLogIndex 2, :lastLog…</text><text text-anchor="middle" x="86.2956258373759" y="-4" transform="rotate(180 86.2956258373759 0)" >RequestVote {:term 1, :prevLogIndex 2, :lastLog…</text></g><g transform="translate(1157.1428 770.0) rotate(166.86596995511724) " ><rect x="0" y="-2.5" height="5" width="84.01664505695396" fill="#000" ><title >n5 → n4 {:msg_id 5, :type "RequestVote", :term 1, :prevLogIndex 2, :lastLogTerm 0, :candidateId "n5"}</title></rect><use xlink:href="#ahead" x="88.01664505695396" y="0" /><text text-anchor="middle" x="44.00832252847698" y="-4" transform="rotate(180 44.00832252847698 0)" filter="url(#glow)" style="fill: #fff" >RequestVote {:term 1, :prevLogIndex 2, :lastLog…</text><text text-anchor="middle" x="44.00832252847698" y="-4" transform="rotate(180 44.00832252847698 0)" >RequestVote {:term 1, :prevLogIndex 2, :lastLog…</text></g><g transform="translate(1157.1428 810.0) rotate(90.0) " ><rect x="0" y="-2.5" height="5" width="16.0" fill="#000" ><title >n5 → n5 {:msg_id 6, :type "RequestVote", :term 1, :prevLogIndex 2, :lastLogTerm 0, :candidateId "n5"}</title></rect><use xlink:href="#ahead" x="20.0" y="0" /><text text-anchor="middle" x="10.0" y="-4" transform="rotate(180 10.0 0)" filter="url(#glow)" style="fill: #fff" >RequestVote {:term 1, :prevLogIndex 2, :lastLog…</text><text text-anchor="middle" x="10.0" y="-4" transform="rotate(180 10.0 0)" >RequestVote {:term 1, :prevLogIndex 2, :lastLog…</text></g><g transform="translate(42.857143 850.0) rotate(1.4851134715025396) " ><rect x="0" y="-2.5" height="5" width="767.6877778757996" fill="#81BFFC" ><title >c10 → n1 {:key 0, :type "read", :msg_id 1}</title></rect><use xlink:href="#ahead" x="771.6877778757996" y="0" /><text text-anchor="middle" x="385.8438889378998" y="-4" transform="" filter="url(#glow)" style="fill: #fff" >read {:key 0}</text><text text-anchor="middle" x="385.8438889378998" y="-4" transform="" >read {:key 0}</text></g><g transform="translate(814.2857 890.0) rotate(178.51488652849747) " ><rect x="0" y="-2.5" height="5" width="767.6877778757996" fill="#FF1E90" ><title >n1 → c10 {:msg_id 2, :in_reply_to 1, :type "error", :code 20, :text "Invalid Key"}</title></rect><use xlink:href="#ahead" x="771.6877778757996" y="0" /><text text-anchor="middle" x="385.8438889378998" y="-4" transform="rotate(180 385.8438889378998 0)" filter="url(#glow)" style="fill: #fff" >error Invalid Key</text><text text-anchor="middle" x="385.8438889378998" y="-4" transform="rotate(180 385.8438889378998 0)" >error Invalid Key</text></g><g transform="translate(128.57143 930.0) rotate(1.2151827577412735) " ><rect x="0" y="-2.5" height="5" width="939.0692598274601" fill="#81BFFC" ><title >c11 → n4 {:key 1, :from 3, :to 0, :type "cas", :msg_id 1}</title></rect><use xlink:href="#ahead" x="943.0692598274601" y="0" /><text text-anchor="middle" x="471.53462991373004" y="-4" transform="" filter="url(#glow)" style="fill: #fff" >cas {:key 1, :from 3, :to 0}</text><text text-anchor="middle" x="471.53462991373004" y="-4" transform="" >cas {:key 1, :from 3, :to 0}</text></g><g transform="translate(1071.4286 970.0) rotate(178.78481724225873) " ><rect x="0" y="-2.5" height="5" width="939.0692598274601" fill="#FF1E90" ><title >n4 → c11 {:msg_id 7, :in_reply_to 1, :type "error", :code 11}</title></rect><use xlink:href="#ahead" x="943.0692598274601" y="0" /><text text-anchor="middle" x="471.53462991373004" y="-4" transform="rotate(180 471.53462991373004 0)" filter="url(#glow)" style="fill: #fff" >error </text><text text-anchor="middle" x="471.53462991373004" y="-4" transform="rotate(180 471.53462991373004 0)" >error </text></g><g transform="translate(214.28572 1010.0) rotate(1.4851134494808467) " ><rect x="0" y="-2.5" height="5" width="767.6877893160473" fill="#81BFFC" ><title >c12 → n3 {:key 0, :type "read", :msg_id 1}</title></rect><use xlink:href="#ahead" x="771.6877893160473" y="0" /><text text-anchor="middle" x="385.84389465802366" y="-4" transform="" filter="url(#glow)" style="fill: #fff" >read {:key 0}</text><text text-anchor="middle" x="385.84389465802366" y="-4" transform="" >read {:key 0}</text></g><g transform="translate(985.7143 1050.0) rotate(178.51488655051915) " ><rect x="0" y="-2.5" height="5" width="767.6877893160473" fill="#FF1E90" ><title >n3 → c12 {:msg_id 7, :in_reply_to 1, :type "error", :code 11}</title></rect><use xlink:href="#ahead" x="771.6877893160473" y="0" /><text text-anchor="middle" x="385.84389465802366" y="-4" transform="rotate(180 385.84389465802366 0)" filter="url(#glow)" style="fill: #fff" >error </text><text text-anchor="middle" x="385.84389465802366" y="-4" transform="rotate(180 385.84389465802366 0)" >error </text></g><g transform="translate(300.0 1090.0) rotate(1.4851134201185896) " ><rect x="0" y="-2.5" height="5" width="767.6878045697108" fill="#81BFFC" ><title >c13 → n4 {:key 0, :type "read", :msg_id 1}</title></rect><use xlink:href="#ahead" x="771.6878045697108" y="0" /><text text-anchor="middle" x="385.8439022848554" y="-4" transform="" filter="url(#glow)" style="fill: #fff" >read {:key 0}</text><text text-anchor="middle" x="385.8439022848554" y="-4" transform="" >read {:key 0}</text></g><g transform="translate(1071.4286 1130.0) rotate(178.51488657988142) " ><rect x="0" y="-2.5" height="5" width="767.6878045697108" fill="#FF1E90" ><title >n4 → c13 {:msg_id 8, :in_reply_to 1, :type "error", :code 11}</title></rect><use xlink:href="#ahead" x="771.6878045697108" y="0" /><text text-anchor="middle" x="385.8439022848554" y="-4" transform="rotate(180 385.8439022848554 0)" filter="url(#glow)" style="fill: #fff" >error </text><text text-anchor="middle" x="385.8439022848554" y="-4" transform="rotate(180 385.8439022848554 0)" >error </text></g><g transform="translate(385.7143 1170.0) rotate(1.9091524329963763) " ><rect x="0" y="-2.5" height="5" width="596.3332407921454" fill="#81BFFC" ><title >c14 → n3 {:key 0, :from 1, :to 2, :type "cas", :msg_id 1}</title></rect><use xlink:href="#ahead" x="600.3332407921454" y="0" /><text text-anchor="middle" x="300.1666203960727" y="-4" transform="" filter="url(#glow)" style="fill: #fff" >cas {:key 0, :from 1, :to 2}</text><text text-anchor="middle" x="300.1666203960727" y="-4" transform="" >cas {:key 0, :from 1, :to 2}</text></g><g transform="translate(985.7143 1210.0) rotate(178.0908475670036) " ><rect x="0" y="-2.5" height="5" width="596.3332407921454" fill="#FF1E90" ><title >n3 → c14 {:msg_id 8, :in_reply_to 1, :type "error", :code 11}</title></rect><use xlink:href="#ahead" x="600.3332407921454" y="0" /><text text-anchor="middle" x="300.1666203960727" y="-4" transform="rotate(180 300.1666203960727 0)" filter="url(#glow)" style="fill: #fff" >error </text><text text-anchor="middle" x="300.1666203960727" y="-4" transform="rotate(180 300.1666203960727 0)" >error </text></g><g transform="translate(471.42856 1250.0) rotate(1.6706533244785093) " ><rect x="0" y="-2.5" height="5" width="682.0058685885151" fill="#81BFFC" ><title >c15 → n5 {:key 1, :value 0, :type "write", :msg_id 1}</title></rect><use xlink:href="#ahead" x="686.0058685885151" y="0" /><text text-anchor="middle" x="343.00293429425756" y="-4" transform="" filter="url(#glow)" style="fill: #fff" >write {:key 1, :value 0}</text><text text-anchor="middle" x="343.00293429425756" y="-4" transform="" >write {:key 1, :value 0}</text></g><g transform="translate(1157.1428 1290.0) rotate(178.32934667552152) " ><rect x="0" y="-2.5" height="5" width="682.0058685885151" fill="#FF1E90" ><title >n5 → c15 {:msg_id 7, :in_reply_to 1, :type "error", :code 11}</title></rect><use xlink:href="#ahead" x="686.0058685885151" y="0" /><text text-anchor="middle" x="343.00293429425756" y="-4" transform="rotate(180 343.00293429425756 0)" filter="url(#glow)" style="fill: #fff" >error </text><text text-anchor="middle" x="343.00293429425756" y="-4" transform="rotate(180 343.00293429425756 0)" >error </text></g><g transform="translate(557.1429 1330.0) rotate(1.909152627061704) " ><rect x="0" y="-2.5" height="5" width="596.3331797908693" fill="#81BFFC" ><title >c16 → n5 {:key 1, :from 4, :to 0, :type "cas", :msg_id 1}</title></rect><use xlink:href="#ahead" x="600.3331797908693" y="0" /><text text-anchor="middle" x="300.16658989543464" y="-4" transform="" filter="url(#glow)" style="fill: #fff" >cas {:key 1, :from 4, :to 0}</text><text text-anchor="middle" x="300.16658989543464" y="-4" transform="" >cas {:key 1, :from 4, :to 0}</text></g><g transform="translate(1157.1428 1370.0) rotate(178.09084737293833) " ><rect x="0" y="-2.5" height="5" width="596.3331797908693" fill="#FF1E90" ><title >n5 → c16 {:msg_id 8, :in_reply_to 1, :type "error", :code 11}</title></rect><use xlink:href="#ahead" x="600.3331797908693" y="0" /><text text-anchor="middle" x="300.16658989543464" y="-4" transform="rotate(180 300.16658989543464 0)" filter="url(#glow)" style="fill: #fff" >error </text><text text-anchor="middle" x="300.16658989543464" y="-4" transform="rotate(180 300.16658989543464 0)" >error </text></g><g transform="translate(642.8571 1410.0) rotate(2.227047005133379) " ><rect x="0" y="-2.5" height="5" width="510.67444753935115" fill="#81BFFC" ><title >c17 → n5 {:key 0, :from 1, :to 3, :type "cas", :msg_id 1}</title></rect><use xlink:href="#ahead" x="514.6744475393511" y="0" /><text text-anchor="middle" x="257.3372237696756" y="-4" transform="" filter="url(#glow)" style="fill: #fff" >cas {:key 0, :from 1, :to 3}</text><text text-anchor="middle" x="257.3372237696756" y="-4" transform="" >cas {:key 0, :from 1, :to 3}</text></g><g transform="translate(1157.1428 1450.0) rotate(177.7729529948666) " ><rect x="0" y="-2.5" height="5" width="510.67444753935115" fill="#FF1E90" ><title >n5 → c17 {:msg_id 9, :in_reply_to 1, :type "error", :code 11}</title></rect><use xlink:href="#ahead" x="514.6744475393511" y="0" /><text text-anchor="middle" x="257.3372237696756" y="-4" transform="rotate(180 257.3372237696756 0)" filter="url(#glow)" style="fill: #fff" >error </text><text text-anchor="middle" x="257.3372237696756" y="-4" transform="rotate(180 257.3372237696756 0)" >error </text></g><g transform="translate(642.8571 1490.0) rotate(2.227047005133379) " ><rect x="0" y="-2.5" height="5" width="510.67444753935115" fill="#81BFFC" ><title >c17 → n5 {:key 0, :from 1, :to 4, :type "cas", :msg_id 2}</title></rect><use xlink:href="#ahead" x="514.6744475393511" y="0" /><text text-anchor="middle" x="257.3372237696756" y="-4" transform="" filter="url(#glow)" style="fill: #fff" >cas {:key 0, :from 1, :to 4}</text><text text-anchor="middle" x="257.3372237696756" y="-4" transform="" >cas {:key 0, :from 1, :to 4}</text></g><g transform="translate(1157.1428 1530.0) rotate(177.7729529948666) " ><rect x="0" y="-2.5" height="5" width="510.67444753935115" fill="#FF1E90" ><title >n5 → c17 {:msg_id 10, :in_reply_to 2, :type "error", :code 11}</title></rect><use xlink:href="#ahead" x="514.6744475393511" y="0" /><text text-anchor="middle" x="257.3372237696756" y="-4" transform="rotate(180 257.3372237696756 0)" filter="url(#glow)" style="fill: #fff" >error </text><text text-anchor="middle" x="257.3372237696756" y="-4" transform="rotate(180 257.3372237696756 0)" >error </text></g><g transform="translate(728.5714 1570.0) rotate(6.654424375154429) " ><rect x="0" y="-2.5" height="5" width="168.5913122987226" fill="#81BFFC" ><title >c18 → n2 {:key 1, :from 2, :to 2, :type "cas", :msg_id 1}</title></rect><use xlink:href="#ahead" x="172.5913122987226" y="0" /><text text-anchor="middle" x="86.2956561493613" y="-4" transform="" filter="url(#glow)" style="fill: #fff" >cas {:key 1, :from 2, :to 2}</text><text text-anchor="middle" x="86.2956561493613" y="-4" transform="" >cas {:key 1, :from 2, :to 2}</text></g><g transform="translate(900.0 1610.0) rotate(173.34557562484557) " ><rect x="0" y="-2.5" height="5" width="168.5913122987226" fill="#FF1E90" ><title >n2 → c18 {:msg_id 7, :in_reply_to 1, :type "error", :code 11}</title></rect><use xlink:href="#ahead" x="172.5913122987226" y="0" /><text text-anchor="middle" x="86.2956561493613" y="-4" transform="rotate(180 86.2956561493613 0)" filter="url(#glow)" style="fill: #fff" >error </text><text text-anchor="middle" x="86.2956561493613" y="-4" transform="rotate(180 86.2956561493613 0)" >error </text></g></g></svg>